<svg width="342" height="342" viewBox="0 0 342 342" fill="none" xmlns="http://www.w3.org/2000/svg">
<path d="M163.066 233.607H30.9921C29.9568 233.605 28.9644 233.193 28.2324 232.461C27.5003 231.729 27.0882 230.736 27.0864 229.701V44.0428C27.0972 43.0135 27.5133 42.0299 28.2443 41.3052C28.9754 40.5805 29.9627 40.1731 30.9921 40.1714H163.066C164.1 40.1732 165.092 40.5855 165.823 41.3177C166.554 42.05 166.964 43.0424 166.964 44.077V229.701C166.964 230.736 166.554 231.728 165.823 232.46C165.092 233.192 164.1 233.605 163.066 233.607ZM30.9921 40.3082C30.0021 40.31 29.0533 40.704 28.3533 41.404C27.6533 42.104 27.2592 43.0529 27.2574 44.0428V229.701C27.2592 230.691 27.6533 231.64 28.3533 232.34C29.0533 233.04 30.0021 233.434 30.9921 233.436H163.066C164.055 233.434 165.003 233.04 165.702 232.339C166.401 231.639 166.793 230.69 166.793 229.701V44.0428C166.793 43.0535 166.401 42.1046 165.702 41.4045C165.003 40.7043 164.055 40.31 163.066 40.3082H30.9921Z" fill="#E6E6E6"/>
<path d="M311.015 233.607H178.934C177.9 233.605 176.908 233.192 176.177 232.46C175.446 231.728 175.036 230.736 175.036 229.701V44.0428C175.045 43.0141 175.459 42.0305 176.189 41.3056C176.919 40.5807 177.906 40.1731 178.934 40.1714H311.015C312.044 40.1731 313.03 40.5807 313.76 41.3056C314.49 42.0305 314.905 43.0141 314.914 44.0428V229.701C314.914 230.736 314.503 231.728 313.772 232.46C313.041 233.192 312.05 233.605 311.015 233.607ZM178.934 40.3082C177.945 40.31 176.997 40.7043 176.298 41.4045C175.599 42.1046 175.207 43.0535 175.207 44.0428V229.701C175.207 230.69 175.599 231.639 176.298 232.339C176.997 233.04 177.945 233.434 178.934 233.436H311.015C312.005 233.434 312.955 233.04 313.656 232.34C314.357 231.64 314.753 230.692 314.756 229.701V44.0428C314.753 43.0523 314.357 42.1034 313.656 41.4036C312.955 40.7038 312.005 40.31 311.015 40.3082H178.934Z" fill="#E6E6E6"/>
<path d="M301.179 107.928H209.947V268.012H301.179V107.928Z" fill="#F5F5F5"/>
<path d="M294.565 114.221H216.691V268.012H294.565V114.221Z" fill="#E0E0E0"/>
<path d="M218.88 268.696C218.743 268.696 218.608 268.669 218.483 268.614C218.36 268.565 218.248 268.49 218.155 268.395C218.056 268.302 217.978 268.187 217.929 268.06C217.88 267.936 217.854 267.803 217.854 267.67C217.854 267.518 217.888 267.369 217.953 267.232C218.018 267.095 218.112 266.974 218.229 266.878C218.346 266.782 218.483 266.713 218.63 266.676C218.777 266.639 218.93 266.635 219.078 266.664L219.27 266.719L219.448 266.815C219.503 266.854 219.556 266.898 219.605 266.945C219.654 266.991 219.695 267.044 219.728 267.102C219.768 267.157 219.8 267.217 219.824 267.28C219.852 267.341 219.872 267.406 219.885 267.472C219.893 267.537 219.893 267.604 219.885 267.67C219.886 267.804 219.858 267.937 219.803 268.06C219.754 268.185 219.68 268.299 219.585 268.395C219.397 268.581 219.145 268.689 218.88 268.696Z" fill="white"/>
<path d="M217.84 242.471C217.841 242.336 217.869 242.202 217.922 242.078C217.975 241.953 218.051 241.84 218.148 241.745C218.245 241.651 218.359 241.576 218.485 241.526C218.61 241.475 218.745 241.45 218.88 241.452C219.152 241.452 219.413 241.56 219.606 241.753C219.798 241.945 219.906 242.206 219.906 242.478C219.906 242.75 219.798 243.011 219.606 243.204C219.413 243.396 219.152 243.504 218.88 243.504C218.744 243.506 218.608 243.481 218.482 243.429C218.355 243.378 218.24 243.302 218.143 243.206C218.046 243.11 217.97 242.995 217.918 242.869C217.866 242.743 217.839 242.608 217.84 242.471ZM217.84 217.28C217.84 217.008 217.948 216.747 218.141 216.554C218.333 216.362 218.594 216.254 218.866 216.254C219.138 216.254 219.399 216.362 219.592 216.554C219.784 216.747 219.892 217.008 219.892 217.28C219.892 217.552 219.784 217.813 219.592 218.005C219.399 218.198 219.138 218.306 218.866 218.306C218.594 218.306 218.333 218.198 218.141 218.005C217.948 217.813 217.84 217.552 217.84 217.28ZM217.84 192.081C217.84 191.809 217.948 191.548 218.141 191.356C218.333 191.163 218.594 191.055 218.866 191.055C219.138 191.055 219.399 191.163 219.592 191.356C219.784 191.548 219.892 191.809 219.892 192.081C219.892 192.353 219.784 192.614 219.592 192.807C219.399 192.999 219.138 193.107 218.866 193.107C218.732 193.107 218.598 193.081 218.474 193.029C218.349 192.977 218.236 192.902 218.141 192.807C218.046 192.711 217.97 192.598 217.918 192.474C217.867 192.349 217.84 192.216 217.84 192.081ZM217.84 166.883C217.84 166.61 217.948 166.349 218.141 166.157C218.333 165.965 218.594 165.857 218.866 165.857C219.138 165.857 219.399 165.965 219.592 166.157C219.784 166.349 219.892 166.61 219.892 166.883C219.892 167.155 219.784 167.416 219.592 167.608C219.399 167.8 219.138 167.909 218.866 167.909C218.597 167.909 218.338 167.802 218.146 167.613C217.954 167.423 217.844 167.166 217.84 166.896V166.883ZM217.84 141.691C217.84 141.419 217.948 141.158 218.141 140.965C218.333 140.773 218.594 140.665 218.866 140.665C219.138 140.665 219.399 140.773 219.592 140.965C219.784 141.158 219.892 141.419 219.892 141.691C219.892 141.963 219.784 142.224 219.592 142.416C219.399 142.609 219.138 142.717 218.866 142.717C218.732 142.717 218.598 142.69 218.474 142.639C218.349 142.587 218.236 142.512 218.141 142.416C218.046 142.321 217.97 142.208 217.918 142.083C217.867 141.959 217.84 141.826 217.84 141.691Z" fill="white"/>
<path d="M218.88 117.518C218.745 117.519 218.612 117.493 218.487 117.441C218.363 117.389 218.25 117.313 218.155 117.217C218.104 117.171 218.061 117.118 218.025 117.06C217.989 117.005 217.957 116.948 217.929 116.889C217.901 116.826 217.883 116.759 217.874 116.691C217.867 116.625 217.867 116.558 217.874 116.492C217.876 116.221 217.984 115.96 218.175 115.767C218.221 115.719 218.271 115.675 218.326 115.637C218.382 115.601 218.441 115.571 218.504 115.548C218.565 115.522 218.63 115.501 218.695 115.487C218.828 115.459 218.966 115.459 219.099 115.487C219.164 115.501 219.229 115.522 219.29 115.548C219.353 115.571 219.413 115.601 219.468 115.637C219.524 115.677 219.576 115.72 219.625 115.767C219.817 115.96 219.925 116.221 219.926 116.492C219.934 116.558 219.934 116.625 219.926 116.691C219.912 116.759 219.892 116.825 219.865 116.889C219.84 116.95 219.808 117.007 219.769 117.06C219.736 117.118 219.695 117.171 219.646 117.217C219.546 117.317 219.426 117.395 219.294 117.447C219.162 117.499 219.021 117.523 218.88 117.518Z" fill="white"/>
<path d="M266.678 116.492C266.678 116.22 266.786 115.959 266.978 115.767C267.171 115.574 267.432 115.466 267.704 115.466C267.976 115.466 268.237 115.574 268.429 115.767C268.622 115.959 268.73 116.22 268.73 116.492C268.73 116.764 268.622 117.025 268.429 117.218C268.237 117.41 267.976 117.518 267.704 117.518C267.432 117.518 267.171 117.41 266.978 117.218C266.786 117.025 266.678 116.764 266.678 116.492ZM242.259 116.492C242.259 116.22 242.367 115.959 242.56 115.767C242.752 115.574 243.013 115.466 243.285 115.466C243.557 115.466 243.818 115.574 244.011 115.767C244.203 115.959 244.311 116.22 244.311 116.492C244.311 116.764 244.203 117.025 244.011 117.218C243.818 117.41 243.557 117.518 243.285 117.518C243.013 117.518 242.752 117.41 242.56 117.218C242.367 117.025 242.259 116.764 242.259 116.492Z" fill="white"/>
<path d="M292.123 117.518C292.057 117.525 291.99 117.525 291.924 117.518L291.733 117.464L291.555 117.368C291.5 117.328 291.447 117.285 291.398 117.238C291.205 117.046 291.097 116.785 291.097 116.513C291.098 116.241 291.206 115.981 291.398 115.788C291.445 115.741 291.498 115.7 291.555 115.665C291.609 115.624 291.669 115.591 291.733 115.569C291.794 115.541 291.858 115.521 291.924 115.507C292.057 115.48 292.195 115.48 292.328 115.507L292.519 115.569C292.581 115.591 292.639 115.624 292.69 115.665C292.749 115.698 292.802 115.739 292.848 115.788C293.039 115.981 293.147 116.241 293.149 116.513C293.148 116.785 293.04 117.046 292.848 117.238C292.8 117.286 292.747 117.33 292.69 117.368C292.636 117.404 292.579 117.436 292.519 117.464L292.328 117.518C292.26 117.525 292.191 117.525 292.123 117.518Z" fill="white"/>
<path d="M291.097 242.471C291.097 242.199 291.205 241.938 291.397 241.746C291.59 241.553 291.851 241.445 292.123 241.445C292.395 241.445 292.656 241.553 292.848 241.746C293.041 241.938 293.149 242.199 293.149 242.471C293.149 242.743 293.041 243.004 292.848 243.197C292.656 243.389 292.395 243.497 292.123 243.497C291.851 243.497 291.59 243.389 291.397 243.197C291.205 243.004 291.097 242.743 291.097 242.471ZM291.097 217.28C291.097 217.008 291.205 216.747 291.397 216.554C291.59 216.362 291.851 216.254 292.123 216.254C292.395 216.254 292.656 216.362 292.848 216.554C293.041 216.747 293.149 217.008 293.149 217.28C293.149 217.552 293.041 217.813 292.848 218.005C292.656 218.198 292.395 218.306 292.123 218.306C291.851 218.306 291.59 218.198 291.397 218.005C291.205 217.813 291.097 217.552 291.097 217.28ZM291.097 192.081C291.097 191.809 291.205 191.548 291.397 191.356C291.59 191.163 291.851 191.055 292.123 191.055C292.395 191.055 292.656 191.163 292.848 191.356C293.041 191.548 293.149 191.809 293.149 192.081C293.149 192.353 293.041 192.614 292.848 192.807C292.656 192.999 292.395 193.107 292.123 193.107C291.988 193.107 291.855 193.081 291.73 193.029C291.606 192.977 291.492 192.902 291.397 192.807C291.302 192.711 291.226 192.598 291.175 192.474C291.123 192.349 291.097 192.216 291.097 192.081ZM291.097 166.883C291.097 166.61 291.205 166.349 291.397 166.157C291.59 165.965 291.851 165.857 292.123 165.857C292.395 165.857 292.656 165.965 292.848 166.157C293.041 166.349 293.149 166.61 293.149 166.883C293.149 167.155 293.041 167.416 292.848 167.608C292.656 167.8 292.395 167.909 292.123 167.909C291.853 167.909 291.594 167.802 291.402 167.613C291.21 167.423 291.1 167.166 291.097 166.896V166.883ZM291.097 141.691C291.097 141.419 291.205 141.158 291.397 140.965C291.59 140.773 291.851 140.665 292.123 140.665C292.395 140.665 292.656 140.773 292.848 140.965C293.041 141.158 293.149 141.419 293.149 141.691C293.149 141.963 293.041 142.224 292.848 142.416C292.656 142.609 292.395 142.717 292.123 142.717C291.988 142.717 291.855 142.69 291.73 142.639C291.606 142.587 291.492 142.512 291.397 142.416C291.302 142.321 291.226 142.208 291.175 142.083C291.123 141.959 291.097 141.826 291.097 141.691Z" fill="white"/>
<path d="M292.123 268.696C291.92 268.696 291.722 268.635 291.553 268.523C291.385 268.41 291.253 268.25 291.176 268.062C291.098 267.875 291.078 267.669 291.117 267.47C291.157 267.271 291.254 267.088 291.398 266.945C291.447 266.898 291.5 266.854 291.555 266.815L291.733 266.719L291.924 266.664C292.058 266.637 292.195 266.637 292.328 266.664L292.519 266.719C292.579 266.747 292.636 266.779 292.69 266.815C292.747 266.853 292.8 266.896 292.848 266.945C293.04 267.137 293.149 267.398 293.149 267.67C293.15 267.805 293.124 267.938 293.073 268.063C293.021 268.188 292.944 268.301 292.848 268.395C292.656 268.587 292.395 268.695 292.123 268.696Z" fill="white"/>
<path d="M64.9801 268.272H36.7925V268.443H64.9801V268.272Z" fill="#E0E0E0"/>
<path d="M122.436 266.904H94.1663V267.075H122.436V266.904Z" fill="#E0E0E0"/>
<path d="M159.222 266.904H152.382V267.075H159.222V266.904Z" fill="#E0E0E0"/>
<path d="M90.8557 272.745H59.2207V272.916H90.8557V272.745Z" fill="#E0E0E0"/>
<path d="M200.275 268.183H185.501V268.354H200.275V268.183Z" fill="#E0E0E0"/>
<path d="M225.467 268.183H206.363V268.354H225.467V268.183Z" fill="#E0E0E0"/>
<path d="M317.602 271.076H274.893V271.247H317.602V271.076Z" fill="#E0E0E0"/>
<path d="M159.653 59.9526H128.141L129.864 40.3149H161.369L159.653 59.9526Z" fill="#EBEBEB"/>
<path d="M160.289 37.6475L159.427 47.9006L158.565 60.2263H128.264L129.987 37.6475H160.289Z" fill="#FAFAFA"/>
<path d="M157.395 40.3151L159.112 59.9527H127.607L125.883 40.3151H128.565L129.495 38.8376H137.983L139.201 40.3151H157.395Z" fill="#E0E0E0"/>
<path d="M236.53 47H203V80.5297H236.53V47Z" fill="#EBEBEB"/>
<path d="M237.385 47H236.53V80.5297H237.385V47Z" fill="#E0E0E0"/>
<path d="M233.424 50.1052H206.092V77.4379H233.424V50.1052Z" fill="#F5F5F5"/>
<path d="M178.312 67.4424H178.059V94.775H178.312V67.4424Z" fill="#E0E0E0"/>
<path d="M220.018 67.7183C222.961 67.7183 225.346 64.6804 225.346 60.933C225.346 57.1856 222.961 54.1477 220.018 54.1477C217.075 54.1477 214.689 57.1856 214.689 60.933C214.689 64.6804 217.075 67.7183 220.018 67.7183Z" fill="#E0E0E0"/>
<path d="M217.234 71.1521H222.85V65.5365H217.234V71.1521Z" fill="#E0E0E0"/>
<path d="M230.141 77.438H209.566V75.5228C209.566 73.774 210.261 72.0969 211.498 70.8603C212.734 69.6237 214.411 68.929 216.16 68.929H223.575C225.323 68.929 227.001 69.6237 228.237 70.8603C229.474 72.0969 230.168 73.774 230.168 75.5228V77.438H230.141Z" fill="#E0E0E0"/>
<path d="M209.053 66.0289C209.053 67.1438 211.105 68.0809 211.105 68.0809C211.105 68.0809 213.157 67.1711 213.157 66.0289C213.157 65.4953 212.419 65.1944 211.933 65.3449C211.747 65.4097 211.576 65.5108 211.429 65.6423C211.282 65.7738 211.163 65.9331 211.078 66.1109C210.816 65.7581 210.471 65.4761 210.073 65.2901C209.956 65.2493 209.831 65.2372 209.708 65.2551C209.586 65.273 209.47 65.3203 209.37 65.3929C209.27 65.4655 209.188 65.5612 209.133 65.672C209.078 65.7827 209.051 65.9052 209.053 66.0289Z" fill="#E0E0E0"/>
<path d="M227.261 61.0424C227.261 62.513 229.922 63.7031 229.922 63.7031C229.922 63.7031 232.583 62.513 232.583 61.0424C232.583 60.3584 231.598 59.9548 230.976 60.1327C230.506 60.3202 230.128 60.6833 229.922 61.145C229.575 60.6841 229.122 60.3134 228.602 60.0643C228.448 60.0097 228.283 59.9935 228.121 60.0171C227.959 60.0408 227.806 60.1035 227.674 60.1998C227.542 60.2961 227.435 60.4232 227.363 60.57C227.291 60.7169 227.257 60.879 227.261 61.0424Z" fill="#E0E0E0"/>
<path d="M140.706 245.775C141.02 247.752 142.45 249.455 142.559 251.452C142.648 253.019 141.916 254.489 141.554 256.015C141.191 257.54 141.369 259.435 142.703 260.242C143.188 260.488 143.73 260.601 144.274 260.569C144.817 260.536 145.342 260.36 145.795 260.057C146.688 259.439 147.425 258.622 147.949 257.67C150.047 254.278 151.193 250.385 151.267 246.397C151.267 244.722 151.096 242.943 150.111 241.609C147.06 237.348 139.926 240.85 140.706 245.775Z" fill="#F5F5F5"/>
<path d="M138.168 240.542C138.462 240.864 138.846 241.09 139.269 241.192C139.525 241.275 139.799 241.292 140.063 241.241C140.328 241.189 140.575 241.071 140.781 240.898C140.938 240.696 141.05 240.463 141.109 240.214C141.168 239.965 141.173 239.706 141.123 239.455C141.081 238.825 140.866 238.219 140.5 237.704C140.317 237.45 140.074 237.245 139.792 237.108C139.51 236.971 139.199 236.905 138.886 236.917C138.574 236.943 138.28 237.075 138.053 237.292C137.826 237.508 137.681 237.796 137.641 238.107C137.565 238.954 137.749 239.803 138.168 240.542Z" fill="#F5F5F5"/>
<path d="M143.852 236.431C143.712 236.215 143.512 236.045 143.276 235.941C143.04 235.838 142.779 235.806 142.525 235.85C142.274 235.906 142.046 236.037 141.87 236.225C141.694 236.413 141.579 236.649 141.54 236.903C141.529 237.07 141.529 237.236 141.54 237.403C141.543 237.672 141.573 237.94 141.629 238.203C141.686 238.457 141.806 238.692 141.978 238.887C142.213 239.115 142.511 239.268 142.833 239.325C143.032 239.372 143.24 239.371 143.439 239.321C143.638 239.271 143.822 239.174 143.975 239.037C144.111 238.872 144.213 238.68 144.274 238.475C144.335 238.269 144.354 238.054 144.331 237.84C144.315 237.334 144.149 236.843 143.852 236.431Z" fill="#F5F5F5"/>
<path d="M147.019 236.26C146.907 236.054 146.724 235.895 146.505 235.812C146.285 235.729 146.042 235.728 145.822 235.809C145.607 235.899 145.417 236.04 145.269 236.22C145.121 236.4 145.02 236.613 144.974 236.842C144.974 236.992 144.933 237.143 144.926 237.293C144.922 237.542 144.949 237.79 145.008 238.032C145.057 238.27 145.182 238.486 145.364 238.648C145.558 238.81 145.796 238.91 146.048 238.935C146.212 238.955 146.378 238.939 146.535 238.888C146.692 238.837 146.836 238.753 146.957 238.641C147.223 238.338 147.369 237.949 147.368 237.546C147.398 237.091 147.275 236.638 147.019 236.26Z" fill="#F5F5F5"/>
<path d="M149.844 236.917C149.509 236.418 149.16 236.384 148.777 236.596C148.436 236.845 148.194 237.206 148.093 237.615C148.054 237.747 148.027 237.882 148.011 238.019C147.974 238.245 147.974 238.476 148.011 238.703C148.055 238.922 148.183 239.115 148.366 239.243C148.536 239.349 148.735 239.397 148.934 239.38C149.193 239.357 149.435 239.243 149.618 239.058C149.87 238.788 150.03 238.446 150.076 238.08C150.146 237.677 150.063 237.263 149.844 236.917Z" fill="#F5F5F5"/>
<path d="M150.398 239.687C150.361 239.849 150.361 240.018 150.398 240.18C150.412 240.263 150.446 240.341 150.497 240.408C150.548 240.475 150.615 240.528 150.692 240.563C150.832 240.595 150.978 240.584 151.112 240.533C151.246 240.482 151.361 240.392 151.444 240.276C151.647 240.069 151.795 239.815 151.875 239.537C151.915 239.398 151.927 239.252 151.909 239.109C151.892 238.966 151.845 238.827 151.773 238.702C151.164 237.711 150.48 239.195 150.398 239.687Z" fill="#F5F5F5"/>
<path d="M150.952 291.459C151.41 289.845 151.677 288.073 151.068 286.507C149.187 281.63 141.417 283.183 140.904 288.149L150.952 291.459Z" fill="#F5F5F5"/>
<path d="M139.823 282.444C140.027 282.831 140.341 283.148 140.726 283.354C140.952 283.5 141.211 283.586 141.479 283.604C141.747 283.622 142.015 283.571 142.258 283.457C142.458 283.299 142.623 283.102 142.74 282.877C142.858 282.651 142.927 282.404 142.942 282.15C143.063 281.532 143.011 280.893 142.792 280.303C142.679 280.009 142.494 279.747 142.256 279.541C142.017 279.334 141.732 279.19 141.424 279.12C141.116 279.065 140.799 279.118 140.526 279.268C140.252 279.419 140.038 279.659 139.919 279.948C139.636 280.751 139.603 281.621 139.823 282.444Z" fill="#F5F5F5"/>
<path d="M146.376 279.92C146.295 279.676 146.144 279.46 145.943 279.3C145.741 279.14 145.497 279.041 145.241 279.017C144.983 279.009 144.73 279.077 144.511 279.213C144.293 279.35 144.121 279.548 144.016 279.783C143.956 279.94 143.906 280.1 143.866 280.262C143.797 280.522 143.755 280.788 143.743 281.056C143.725 281.323 143.78 281.589 143.9 281.829C144.062 282.102 144.3 282.323 144.584 282.465C144.764 282.56 144.965 282.611 145.169 282.611C145.373 282.611 145.574 282.56 145.754 282.465C145.933 282.343 146.086 282.186 146.203 282.004C146.321 281.822 146.401 281.618 146.438 281.404C146.56 280.914 146.539 280.399 146.376 279.92Z" fill="#F5F5F5"/>
<path d="M149.454 280.57C149.398 280.345 149.265 280.147 149.077 280.01C148.889 279.874 148.659 279.808 148.428 279.825C148.197 279.858 147.977 279.947 147.787 280.084C147.598 280.221 147.444 280.402 147.34 280.611C147.279 280.747 147.224 280.887 147.176 281.028C147.099 281.261 147.053 281.502 147.039 281.747C147.026 281.988 147.088 282.227 147.217 282.431C147.369 282.645 147.584 282.805 147.833 282.889C147.987 282.951 148.152 282.978 148.318 282.969C148.483 282.96 148.645 282.913 148.79 282.834C149.126 282.614 149.37 282.278 149.474 281.89C149.613 281.46 149.606 280.996 149.454 280.57Z" fill="#F5F5F5"/>
<path d="M152.012 281.931C151.821 281.357 151.458 281.247 151.068 281.343C150.67 281.491 150.336 281.774 150.124 282.143C150.056 282.263 149.994 282.386 149.94 282.513C149.856 282.718 149.805 282.935 149.789 283.156C149.776 283.376 149.847 283.594 149.987 283.764C150.123 283.912 150.303 284.01 150.5 284.045C150.757 284.095 151.022 284.048 151.246 283.915C151.554 283.717 151.794 283.427 151.93 283.087C152.097 282.725 152.126 282.314 152.012 281.931Z" fill="#F5F5F5"/>
<path d="M151.848 284.749C151.764 284.893 151.715 285.055 151.704 285.221C151.698 285.305 151.711 285.388 151.743 285.466C151.775 285.543 151.825 285.612 151.889 285.666C152.016 285.733 152.159 285.76 152.302 285.746C152.444 285.731 152.579 285.675 152.689 285.584C152.937 285.434 153.146 285.228 153.298 284.982C153.372 284.857 153.42 284.72 153.44 284.576C153.46 284.433 153.451 284.287 153.414 284.147C153.059 283.032 152.067 284.305 151.848 284.749Z" fill="#F5F5F5"/>
<path d="M123.989 262.424C124.242 264.414 123.305 266.445 123.784 268.395C124.132 269.92 125.247 271.131 126.013 272.499C126.78 273.867 127.142 275.727 126.075 276.876C125.679 277.249 125.19 277.509 124.66 277.629C124.13 277.749 123.577 277.726 123.059 277.56C122.029 277.208 121.094 276.625 120.323 275.857C117.368 273.18 115.19 269.756 114.016 265.946C113.524 264.339 113.223 262.581 113.797 261.001C115.596 256.083 123.38 257.478 123.989 262.424Z" fill="#F5F5F5"/>
<path d="M124.953 256.705C124.761 257.094 124.456 257.416 124.078 257.629C123.856 257.781 123.598 257.874 123.329 257.898C123.061 257.922 122.791 257.876 122.545 257.765C122.337 257.616 122.164 257.423 122.037 257.199C121.911 256.976 121.835 256.728 121.814 256.473C121.682 255.856 121.719 255.216 121.923 254.619C122.034 254.321 122.216 254.055 122.455 253.845C122.694 253.635 122.981 253.487 123.291 253.415C123.598 253.353 123.916 253.398 124.194 253.542C124.471 253.687 124.691 253.922 124.816 254.209C125.008 254.845 125.247 256.083 124.953 256.705Z" fill="#F5F5F5"/>
<path d="M118.38 254.318C118.455 254.072 118.601 253.852 118.799 253.687C118.997 253.522 119.239 253.418 119.495 253.388C119.752 253.375 120.007 253.439 120.228 253.572C120.448 253.704 120.624 253.9 120.733 254.133C120.799 254.287 120.854 254.444 120.897 254.605C120.971 254.862 121.017 255.126 121.034 255.392C121.059 255.66 121.009 255.93 120.89 256.172C120.738 256.465 120.499 256.704 120.206 256.856C120.03 256.959 119.831 257.017 119.627 257.026C119.423 257.034 119.221 256.992 119.037 256.904C118.858 256.783 118.705 256.627 118.588 256.446C118.47 256.265 118.39 256.063 118.353 255.85C118.204 255.349 118.214 254.814 118.38 254.318Z" fill="#F5F5F5"/>
<path d="M115.288 255.03C115.339 254.8 115.47 254.596 115.659 254.455C115.847 254.315 116.08 254.247 116.314 254.264C116.546 254.292 116.766 254.376 116.958 254.508C117.15 254.64 117.307 254.817 117.416 255.023C117.481 255.158 117.538 255.297 117.587 255.44C117.67 255.671 117.723 255.913 117.744 256.158C117.758 256.398 117.698 256.637 117.573 256.842C117.427 257.059 117.216 257.224 116.971 257.314C116.819 257.38 116.654 257.411 116.488 257.405C116.323 257.399 116.16 257.357 116.013 257.28C115.679 257.064 115.435 256.733 115.329 256.35C115.171 255.926 115.156 255.462 115.288 255.03Z" fill="#F5F5F5"/>
<path d="M112.758 256.445C112.942 255.871 113.298 255.761 113.695 255.837C114.096 255.979 114.435 256.257 114.652 256.623C114.724 256.74 114.788 256.861 114.844 256.986C114.936 257.186 114.991 257.402 115.008 257.622C115.029 257.843 114.963 258.065 114.823 258.238C114.691 258.387 114.513 258.488 114.317 258.525C114.061 258.581 113.794 258.542 113.565 258.415C113.247 258.224 112.996 257.94 112.846 257.601C112.678 257.24 112.646 256.829 112.758 256.445Z" fill="#F5F5F5"/>
<path d="M112.99 259.236C113.075 259.381 113.128 259.541 113.147 259.708C113.155 259.792 113.143 259.876 113.112 259.955C113.081 260.033 113.032 260.103 112.97 260.159C112.843 260.227 112.699 260.256 112.556 260.244C112.413 260.232 112.276 260.179 112.162 260.091C111.912 259.949 111.701 259.746 111.547 259.503C111.469 259.38 111.418 259.243 111.395 259.099C111.373 258.955 111.38 258.809 111.417 258.668C111.738 257.567 112.758 258.819 112.99 259.236Z" fill="#F5F5F5"/>
<path d="M107.203 98.2157C105.629 98.437 104.025 98.1865 102.593 97.496C101.161 96.8054 99.9663 95.7058 99.1595 94.3361C98.3527 92.9665 97.9702 91.3884 98.0603 89.8013C98.1504 88.2143 98.7091 86.6896 99.6658 85.4201C100.622 84.1506 101.934 83.1933 103.435 82.6692C104.936 82.1452 106.558 82.078 108.097 82.4761C109.636 82.8741 111.022 83.7196 112.081 84.9056C113.139 86.0916 113.822 87.5649 114.043 89.139C114.336 91.2491 113.78 93.3892 112.498 95.0905C111.216 96.7917 109.312 97.9156 107.203 98.2157ZM105.575 86.5193C104.837 86.6211 104.145 86.9397 103.587 87.4348C103.03 87.9299 102.632 88.5792 102.443 89.3006C102.255 90.022 102.285 90.783 102.529 91.4875C102.773 92.1919 103.221 92.8081 103.816 93.258C104.41 93.708 105.125 93.9715 105.869 94.0152C106.613 94.0589 107.354 93.8809 107.997 93.5037C108.64 93.1264 109.157 92.5669 109.482 91.8959C109.807 91.2249 109.926 90.4726 109.823 89.7341C109.684 88.7456 109.159 87.8524 108.363 87.2499C107.567 86.6475 106.565 86.3848 105.575 86.5193Z" fill="#E0E0E0"/>
<path d="M104.191 66.2817L101.169 66.7036L103.883 86.139L106.905 85.717L104.191 66.2817Z" fill="#E0E0E0"/>
<path d="M106.746 63.5769L101.078 64.3784L101.505 67.3986L107.173 66.597L106.746 63.5769Z" fill="#E0E0E0"/>
<path d="M107.212 67.6856L101.881 68.4292L102.302 71.4506L107.633 70.707L107.212 67.6856Z" fill="#E0E0E0"/>
<path d="M107.989 73.1629L103.335 73.812L103.757 76.8334L108.411 76.1843L107.989 73.1629Z" fill="#E0E0E0"/>
<path d="M171 302.732C244.244 302.732 303.621 299.265 303.621 294.989C303.621 290.712 244.244 287.246 171 287.246C97.7555 287.246 38.3792 290.712 38.3792 294.989C38.3792 299.265 97.7555 302.732 171 302.732Z" fill="#F5F5F5"/>
<path d="M126.101 107.063L125.164 187.46C121.853 214.211 74.4316 235.449 74.4316 235.449C74.4316 235.449 27.003 214.232 23.672 187.46L22.7075 107.063L73.3919 90.3799L126.101 107.063Z" fill="#F5F5F5"/>
<path d="M119.487 112.152L118.673 184.341C115.786 207.672 74.4247 226.195 74.4247 226.195C74.4247 226.195 33.0633 207.672 30.1836 184.341L29.3149 112.152L73.5219 97.603L119.487 112.152Z" fill="#E0E0E0"/>
<path d="M116.587 116.707L115.821 182.98C113.085 204.868 74.3359 222.214 74.3359 222.214C74.3359 222.214 35.56 204.847 32.8582 182.98L32.0442 116.707L73.4877 103.068L116.587 116.707Z" stroke="white" stroke-width="3" stroke-linecap="round" stroke-linejoin="round"/>
<path d="M84.8697 138.401C91.1758 131.813 90.461 120.895 83.2733 114.015C76.0856 107.134 65.1467 106.896 58.8407 113.483C52.5347 120.071 53.2494 130.989 60.4371 137.87C67.6248 144.75 78.5637 144.988 84.8697 138.401Z" fill="#A47864"/>
<g opacity="0.8">
<path d="M84.8697 138.401C91.1758 131.813 90.461 120.895 83.2733 114.015C76.0856 107.134 65.1467 106.896 58.8407 113.483C52.5347 120.071 53.2494 130.989 60.4371 137.87C67.6248 144.75 78.5637 144.988 84.8697 138.401Z" fill="white"/>
</g>
<path d="M63.8161 115.12C63.6725 115.12 63.5326 115.075 63.4161 114.991C63.2997 114.907 63.2126 114.789 63.1672 114.652C63.1218 114.516 63.1204 114.369 63.1632 114.232C63.206 114.095 63.2908 113.975 63.4057 113.889C65.7089 112.236 68.485 111.372 71.3196 111.426C71.501 111.426 71.6749 111.499 71.8032 111.627C71.9315 111.755 72.0036 111.929 72.0036 112.11C72.0036 112.292 71.9315 112.466 71.8032 112.594C71.6749 112.722 71.501 112.794 71.3196 112.794C68.7808 112.739 66.2922 113.506 64.2265 114.983C64.1081 115.072 63.9641 115.12 63.8161 115.12Z" fill="#A47864"/>
<path d="M67.0514 138.65C66.9391 138.649 66.8287 138.621 66.7299 138.568C64.6337 137.447 62.8148 135.871 61.4064 133.956C59.998 132.041 59.0358 129.836 58.5903 127.501C58.1557 125.481 58.1757 123.39 58.6489 121.378C59.1221 119.367 60.0367 117.487 61.3263 115.873C61.4424 115.733 61.6092 115.645 61.7901 115.628C61.971 115.612 62.1511 115.668 62.2907 115.784C62.4304 115.9 62.5183 116.067 62.535 116.247C62.5516 116.428 62.4958 116.608 62.3797 116.748C61.2147 118.209 60.3898 119.911 59.9651 121.731C59.5403 123.551 59.5263 125.442 59.9241 127.268C60.3339 129.403 61.2145 131.419 62.5019 133.17C63.7893 134.921 65.451 136.363 67.366 137.391C67.4998 137.463 67.6056 137.578 67.667 137.717C67.7283 137.856 67.7416 138.012 67.7047 138.159C67.6679 138.306 67.583 138.437 67.4634 138.531C67.3439 138.625 67.1965 138.676 67.0446 138.677L67.0514 138.65Z" fill="#A47864"/>
<path d="M73.8983 140.435C72.3673 140.428 70.8466 140.184 69.3907 139.71C69.305 139.682 69.2255 139.638 69.1569 139.579C69.0883 139.521 69.0319 139.449 68.991 139.369C68.95 139.288 68.9252 139.201 68.9181 139.111C68.911 139.021 68.9217 138.931 68.9496 138.845C68.9774 138.759 69.0219 138.68 69.0804 138.611C69.139 138.542 69.2105 138.486 69.2908 138.445C69.3712 138.404 69.4588 138.379 69.5487 138.372C69.6386 138.365 69.729 138.376 69.8148 138.404C74.0214 139.772 78.2212 139.006 81.3334 136.352C82.9123 134.958 84.1055 133.181 84.7979 131.192C85.4904 129.204 85.6588 127.07 85.2869 124.997C85.2579 124.816 85.3021 124.63 85.4099 124.481C85.5176 124.333 85.6801 124.233 85.8615 124.204C86.0429 124.175 86.2284 124.219 86.3772 124.327C86.526 124.434 86.6259 124.597 86.6549 124.778C87.0696 127.082 86.8812 129.453 86.1081 131.662C85.335 133.871 84.0036 135.842 82.2431 137.384C79.9236 139.38 76.9578 140.464 73.8983 140.435Z" fill="#A47864"/>
<path d="M85.403 123.246C85.2579 123.245 85.1168 123.199 85 123.113C84.8832 123.027 84.7968 122.906 84.7532 122.767C84.1241 120.825 83.0939 119.036 81.7295 117.517C80.365 115.999 78.6966 114.783 76.8325 113.95C76.6656 113.878 76.5344 113.742 76.4677 113.573C76.401 113.403 76.4043 113.214 76.4768 113.048C76.5494 112.881 76.6853 112.749 76.8546 112.683C77.0239 112.616 77.2128 112.619 77.3797 112.692C79.4212 113.605 81.2481 114.936 82.7422 116.6C84.2363 118.263 85.3642 120.223 86.0528 122.35C86.1089 122.522 86.0943 122.71 86.0123 122.871C85.9302 123.033 85.7873 123.155 85.6151 123.212C85.5462 123.233 85.4749 123.244 85.403 123.246Z" fill="#A47864"/>
<path d="M74.6232 113.178C74.571 113.185 74.5181 113.185 74.4659 113.178C73.4365 112.938 72.3832 112.816 71.3263 112.815C71.1449 112.815 70.9709 112.743 70.8427 112.615C70.7144 112.486 70.6423 112.312 70.6423 112.131C70.6423 111.95 70.7144 111.776 70.8427 111.647C70.9709 111.519 71.1449 111.447 71.3263 111.447C72.478 111.451 73.6255 111.586 74.7463 111.851C74.9277 111.871 75.0934 111.964 75.207 112.107C75.3205 112.25 75.3725 112.432 75.3517 112.613C75.3308 112.795 75.2387 112.96 75.0957 113.074C74.9527 113.187 74.7704 113.239 74.589 113.219L74.6232 113.178Z" fill="#A47864"/>
<path d="M62.5575 129.518C62.4178 129.519 62.2812 129.477 62.1663 129.397C62.0513 129.318 61.9635 129.205 61.9146 129.074C61.2734 127.419 61.0479 125.632 61.2578 123.869C61.4677 122.107 62.1065 120.423 63.1184 118.964C64.0749 117.583 65.356 116.458 66.8492 115.687C68.3424 114.917 70.002 114.525 71.6821 114.546C71.8635 114.546 72.0375 114.618 72.1658 114.746C72.294 114.874 72.3661 115.048 72.3661 115.23C72.3661 115.411 72.294 115.585 72.1658 115.713C72.0375 115.842 71.8635 115.914 71.6821 115.914C70.2223 115.897 68.7805 116.237 67.4822 116.904C66.1839 117.572 65.0686 118.547 64.2333 119.744C63.346 121.028 62.7877 122.511 62.6076 124.061C62.4276 125.612 62.6311 127.183 63.2005 128.636C63.2624 128.806 63.2548 128.993 63.1792 129.157C63.1036 129.321 62.9662 129.449 62.7969 129.512C62.7181 129.527 62.6372 129.529 62.5575 129.518Z" fill="#A47864"/>
<path d="M73.4058 137.33C71.3556 137.261 69.3522 136.699 67.566 135.69C65.7797 134.681 64.2634 133.256 63.1458 131.536C63.0628 131.385 63.0399 131.208 63.0817 131.041C63.1236 130.874 63.227 130.728 63.3714 130.634C63.5158 130.54 63.6905 130.504 63.8605 130.533C64.0304 130.562 64.1831 130.654 64.2881 130.791C65.2814 132.321 66.6284 133.59 68.2154 134.49C69.8023 135.39 71.5826 135.895 73.4058 135.962C73.5872 135.962 73.7612 136.034 73.8895 136.162C74.0177 136.29 74.0898 136.464 74.0898 136.646C74.0898 136.827 74.0177 137.001 73.8895 137.129C73.7612 137.258 73.5872 137.33 73.4058 137.33Z" fill="#A47864"/>
<path d="M75.9639 137.036C75.8076 137.04 75.6546 136.991 75.5301 136.896C75.4056 136.802 75.3173 136.668 75.2799 136.516C75.2365 136.34 75.2647 136.154 75.3583 135.999C75.4519 135.843 75.6033 135.732 75.7792 135.688C81.3265 134.32 82.7629 129.457 82.3046 125.722C81.7095 120.852 77.8654 115.92 71.6615 115.914C71.4801 115.914 71.3062 115.842 71.1779 115.713C71.0496 115.585 70.9775 115.411 70.9775 115.23C70.9775 115.048 71.0496 114.874 71.1779 114.746C71.3062 114.618 71.4801 114.546 71.6615 114.546C78.6589 114.546 82.9954 120.086 83.6657 125.558C84.3497 131.201 81.388 135.702 76.1075 137.015C76.0605 137.027 76.0124 137.034 75.9639 137.036Z" fill="#A47864"/>
<path d="M68.8845 119.689C68.7549 119.688 68.6281 119.65 68.5192 119.58C68.4102 119.51 68.3234 119.41 68.2689 119.292C68.1919 119.128 68.1832 118.94 68.2447 118.77C68.3063 118.599 68.4331 118.46 68.5972 118.383C69.6458 117.919 70.7818 117.686 71.9283 117.699C72.1097 117.699 72.2837 117.771 72.412 117.899C72.5403 118.027 72.6123 118.201 72.6123 118.383C72.6123 118.564 72.5403 118.738 72.412 118.866C72.2837 118.995 72.1097 119.067 71.9283 119.067C70.9843 119.067 70.0513 119.27 69.1923 119.662C69.0932 119.694 68.9879 119.704 68.8845 119.689Z" fill="#A47864"/>
<path d="M73.2826 134.142C71.5502 134.114 69.8621 133.591 68.4183 132.633C66.9745 131.675 65.8355 130.324 65.1361 128.739C63.7202 125.654 64.1375 122.432 66.251 120.107C66.3737 119.974 66.544 119.895 66.7248 119.887C66.9055 119.879 67.082 119.943 67.2155 120.065C67.3485 120.188 67.4275 120.358 67.4352 120.539C67.4428 120.72 67.3786 120.896 67.2565 121.03C66.4066 121.991 65.868 123.188 65.7117 124.461C65.5554 125.735 65.7888 127.026 66.381 128.164C66.9855 129.546 67.9827 130.719 69.2486 131.539C70.5145 132.358 71.9934 132.788 73.5014 132.774C74.6423 132.766 75.7563 132.428 76.7091 131.8C77.6619 131.173 78.4127 130.283 78.8708 129.238C79.386 128.005 79.5412 126.652 79.3185 125.335C79.0957 124.018 78.5041 122.791 77.6123 121.796C77.5539 121.728 77.5095 121.649 77.4817 121.563C77.4539 121.478 77.4432 121.388 77.4502 121.298C77.4571 121.209 77.4817 121.121 77.5224 121.041C77.5632 120.961 77.6193 120.89 77.6875 120.832C77.7558 120.773 77.8349 120.729 77.9203 120.701C78.0057 120.673 78.0958 120.662 78.1853 120.669C78.2749 120.676 78.3622 120.701 78.4423 120.742C78.5223 120.782 78.5936 120.839 78.652 120.907C79.7137 122.098 80.4156 123.566 80.6759 125.14C80.9362 126.714 80.7444 128.329 80.1226 129.799C79.5613 131.081 78.6417 132.173 77.4744 132.945C76.3071 133.717 74.9418 134.135 73.5425 134.149L73.2826 134.142Z" fill="#A47864"/>
<path d="M76.1623 120.291C76.0333 120.292 75.9069 120.254 75.7998 120.182C74.6449 119.438 73.3019 119.04 71.9284 119.033C71.747 119.033 71.573 118.96 71.4447 118.832C71.3164 118.704 71.2444 118.53 71.2444 118.349C71.2444 118.167 71.3164 117.993 71.4447 117.865C71.573 117.737 71.747 117.665 71.9284 117.665C73.5621 117.671 75.1598 118.145 76.5317 119.033C76.6556 119.113 76.7503 119.231 76.8017 119.369C76.8531 119.507 76.8584 119.658 76.8169 119.8C76.7754 119.941 76.6892 120.066 76.5712 120.154C76.4533 120.243 76.3098 120.291 76.1623 120.291Z" fill="#A47864"/>
<path d="M72.92 131.057C72.1208 131.052 71.3325 130.872 70.6105 130.529C69.8884 130.186 69.2503 129.69 68.7408 129.074C68.0834 128.321 67.6564 127.396 67.5108 126.407C67.3653 125.419 67.5073 124.409 67.92 123.499C68.2883 122.673 68.8911 121.974 69.6535 121.487C70.4159 121.001 71.3044 120.749 72.2087 120.763C72.3901 120.763 72.564 120.835 72.6923 120.964C72.8206 121.092 72.8927 121.266 72.8927 121.447C72.8927 121.629 72.8206 121.803 72.6923 121.931C72.564 122.059 72.3901 122.131 72.2087 122.131C71.5691 122.12 70.94 122.295 70.3991 122.637C69.8582 122.978 69.4292 123.471 69.1649 124.053C68.8641 124.725 68.7629 125.469 68.8732 126.197C68.9836 126.924 69.3009 127.605 69.7873 128.157C70.2715 128.751 70.9143 129.194 71.6409 129.436C72.3675 129.679 73.1479 129.709 73.8913 129.525C74.4961 129.389 75.0491 129.082 75.4844 128.641C75.9198 128.199 76.2191 127.642 76.3469 127.036C76.3861 126.859 76.4938 126.705 76.6464 126.607C76.799 126.51 76.984 126.477 77.1608 126.516C77.2489 126.534 77.3325 126.57 77.4067 126.621C77.4809 126.672 77.5443 126.738 77.5933 126.813C77.6422 126.889 77.6757 126.973 77.6919 127.062C77.7081 127.151 77.7066 127.242 77.6875 127.33C77.5064 128.186 77.0843 128.972 76.4711 129.596C75.8579 130.22 75.0791 130.656 74.2265 130.852C73.8007 130.972 73.3621 131.041 72.92 131.057Z" fill="#A47864"/>
<path d="M76.9009 125.64C76.75 125.647 76.6011 125.604 76.4774 125.517C76.3536 125.431 76.2621 125.305 76.2169 125.161C75.9439 124.304 75.4104 123.554 74.6907 123.014C73.971 122.475 73.101 122.173 72.2018 122.152C72.0204 122.152 71.8464 122.08 71.7182 121.951C71.5899 121.823 71.5178 121.649 71.5178 121.468C71.5178 121.286 71.5899 121.112 71.7182 120.984C71.8464 120.856 72.0204 120.784 72.2018 120.784C73.3911 120.81 74.5425 121.206 75.4962 121.917C76.4499 122.628 77.1584 123.619 77.5233 124.751C77.551 124.837 77.5614 124.927 77.554 125.017C77.5466 125.107 77.5215 125.194 77.4802 125.274C77.4389 125.354 77.3821 125.425 77.3132 125.484C77.2443 125.542 77.1647 125.586 77.0787 125.613C77.0209 125.63 76.9611 125.639 76.9009 125.64Z" fill="#A47864"/>
<path d="M73.1047 128.212C72.9233 128.212 72.7493 128.14 72.621 128.012C72.4927 127.883 72.4207 127.709 72.4207 127.528C72.4207 127.346 72.4927 127.173 72.621 127.044C72.7493 126.916 72.9233 126.844 73.1047 126.844C73.1981 126.844 73.2905 126.825 73.3763 126.788C73.4621 126.751 73.5394 126.697 73.6034 126.629C73.6675 126.561 73.717 126.481 73.7489 126.393C73.7807 126.305 73.7943 126.212 73.7887 126.119C73.7923 125.986 73.7695 125.853 73.7214 125.729C73.6734 125.605 73.6011 125.491 73.5088 125.395C73.4165 125.299 73.3061 125.222 73.1839 125.169C73.0616 125.116 72.9301 125.088 72.7969 125.086C72.6965 125.089 72.5977 125.111 72.5062 125.152C72.4146 125.193 72.332 125.252 72.2634 125.325C72.1933 125.408 72.1403 125.504 72.1074 125.607C72.0745 125.711 72.0624 125.819 72.0718 125.927C72.0772 126.017 72.0649 126.107 72.0355 126.192C72.0061 126.277 71.9602 126.356 71.9005 126.423C71.8408 126.49 71.7684 126.545 71.6875 126.585C71.6066 126.624 71.5187 126.647 71.4289 126.652C71.3391 126.658 71.249 126.645 71.164 126.616C71.079 126.587 71.0005 126.541 70.9332 126.481C70.8659 126.421 70.811 126.349 70.7716 126.268C70.7323 126.187 70.7092 126.099 70.7038 126.009C70.6795 125.722 70.7141 125.433 70.8055 125.16C70.8969 124.887 71.0432 124.635 71.2354 124.421C71.4275 124.206 71.6615 124.033 71.923 123.912C72.1845 123.792 72.4679 123.725 72.7558 123.718C73.069 123.719 73.3788 123.782 73.6674 123.903C73.956 124.025 74.2176 124.202 74.4371 124.426C74.6566 124.649 74.8296 124.914 74.946 125.204C75.0625 125.495 75.1202 125.806 75.1156 126.119C75.1211 126.392 75.0721 126.663 74.9714 126.917C74.8707 127.17 74.7204 127.402 74.5293 127.596C74.3382 127.791 74.1102 127.946 73.8585 128.052C73.6068 128.158 73.3366 128.212 73.0636 128.212H73.1047Z" fill="#A47864"/>
<path d="M90.7042 125.934C91.5387 135.462 84.4866 143.185 74.9722 143.185H74.2335C83.3033 142.72 89.8902 135.182 89.0831 125.955C88.617 121.438 86.5687 117.232 83.3003 114.08C80.032 110.928 75.7543 109.034 71.2239 108.732C71.4633 108.732 71.7095 108.732 71.9558 108.732C81.4976 108.691 89.8971 116.413 90.7042 125.934Z" fill="#A47864"/>
<g opacity="0.4">
<path d="M90.7042 125.934C91.5387 135.462 84.4866 143.185 74.9722 143.185H74.2335C83.3033 142.72 89.8902 135.182 89.0831 125.955C88.617 121.438 86.5687 117.232 83.3003 114.08C80.032 110.928 75.7543 109.034 71.2239 108.732C71.4633 108.732 71.7095 108.732 71.9558 108.732C81.4976 108.691 89.8971 116.413 90.7042 125.934Z" fill="white"/>
</g>
<path d="M120.671 69.8638C120.688 70.068 120.716 70.2712 120.753 70.4725C121.011 71.7904 121.688 72.9899 122.682 73.8925C123.809 74.9475 125.291 75.5407 126.834 75.5546H184.625C185.3 75.5683 185.97 75.4476 186.598 75.1997C187.226 74.9517 187.797 74.5815 188.281 74.1105C188.764 73.6395 189.148 73.0771 189.412 72.4561C189.676 71.835 189.813 71.1678 189.817 70.493C189.827 70.2903 189.827 70.0871 189.817 69.8843C189.656 68.3528 188.942 66.9327 187.808 65.8901C186.675 64.8475 185.2 64.2539 183.661 64.2208H125.856C125.131 64.2061 124.412 64.3458 123.745 64.6305C123.079 64.9153 122.481 65.3386 121.99 65.8723C121.5 66.406 121.129 67.0379 120.901 67.7261C120.674 68.4143 120.596 69.143 120.671 69.8638Z" fill="#A47864"/>
<path opacity="0.8" d="M120.671 69.8638C120.688 70.068 120.716 70.2712 120.753 70.4725C121.011 71.7904 121.688 72.9899 122.682 73.8925C123.809 74.9475 125.291 75.5407 126.834 75.5546H184.625C185.3 75.5683 185.97 75.4476 186.598 75.1997C187.226 74.9517 187.797 74.5815 188.281 74.1105C188.764 73.6395 189.148 73.0771 189.412 72.4561C189.676 71.835 189.813 71.1678 189.817 70.493C189.827 70.2903 189.827 70.0871 189.817 69.8843C189.656 68.3528 188.942 66.9327 187.808 65.8901C186.675 64.8475 185.2 64.2539 183.661 64.2208H125.856C125.131 64.2061 124.412 64.3458 123.745 64.6305C123.079 64.9153 122.481 65.3386 121.99 65.8723C121.5 66.406 121.129 67.0379 120.901 67.7261C120.674 68.4143 120.596 69.143 120.671 69.8638Z" fill="white"/>
<path d="M189.817 70.452C189.817 70.6352 189.804 70.8181 189.776 70.9992C189.572 69.5024 188.839 68.1279 187.71 67.1243C186.581 66.1207 185.13 65.5542 183.62 65.5272L122.176 65.664C122.663 65.1902 123.239 64.817 123.871 64.5659C124.502 64.3147 125.177 64.1905 125.856 64.2002H183.647C185.187 64.2334 186.662 64.8269 187.795 65.8695C188.928 66.9122 189.642 68.3323 189.803 69.8638C189.817 70.0595 189.822 70.2558 189.817 70.452Z" fill="#A47864"/>
<path opacity="0.5" d="M189.817 70.452C189.817 70.6352 189.804 70.8181 189.776 70.9992C189.572 69.5024 188.839 68.1279 187.71 67.1243C186.581 66.1207 185.13 65.5542 183.62 65.5272L122.176 65.664C122.663 65.1902 123.239 64.817 123.871 64.5659C124.502 64.3147 125.177 64.1905 125.856 64.2002H183.647C185.187 64.2334 186.662 64.8269 187.795 65.8695C188.928 66.9122 189.642 68.3323 189.803 69.8638C189.817 70.0595 189.822 70.2558 189.817 70.452Z" fill="white"/>
<path d="M179.892 66.9363L180.138 69.6723L182.71 68.7147L183.319 70.0827L180.692 70.9582L182.58 73.277L181.397 74.1457L179.557 71.738L178.189 74.1457L176.896 73.277L178.353 70.9582L175.617 70.0827L175.987 68.7147L178.757 69.6381L178.511 66.9021L179.892 66.9363Z" fill="#A47864"/>
<path d="M164.057 66.9363L164.304 69.6723L166.876 68.7147L167.491 70.0827L164.844 70.9787L166.732 73.2975L165.555 74.1662L163.715 71.7585L162.347 74.1662L161.048 73.2975L162.512 70.9787L159.776 70.1032L160.145 68.7352L162.915 69.6586L162.676 66.9226L164.057 66.9363Z" fill="#A47864"/>
<path d="M148.257 66.9363L148.497 69.6723L151.068 68.7147L151.684 70.0827L149.051 70.9582L150.938 73.277L149.796 74.1662L147.956 71.7585L146.588 74.1662L145.295 73.2975L146.752 70.9787L144.016 70.1032L144.393 68.7352L147.129 69.6586L146.889 66.9226L148.257 66.9363Z" fill="#A47864"/>
<path d="M132.45 66.9363L132.689 69.6723L135.268 68.7147L135.877 70.0827L133.243 70.9582L135.138 73.277L133.955 74.1457L132.115 71.738L130.747 74.1457L129.454 73.277L130.911 70.9582L128.175 70.0827L128.544 68.7147L131.28 69.6381L131.041 66.9021L132.45 66.9363Z" fill="#A47864"/>
<path d="M170.761 61.519H168.066V62.203H170.761V61.519Z" fill="#A47864"/>
<path d="M182.341 61.519H173.552V62.203H182.341V61.519Z" fill="#A47864"/>
<path opacity="0.8" d="M272.088 87.0321L269.291 119.016C269.183 120.037 268.707 120.983 267.951 121.678C267.196 122.373 266.213 122.769 265.187 122.792H242.977C242.497 122.794 242.021 122.695 241.581 122.502C241.141 122.308 240.747 122.024 240.424 121.668C240.101 121.311 239.857 120.891 239.708 120.434C239.559 119.977 239.507 119.494 239.557 119.016L242.355 87.0252C242.459 86.0028 242.933 85.0538 243.69 84.3579C244.446 83.6621 245.431 83.2678 246.459 83.2496H268.668C269.15 83.2469 269.626 83.3458 270.067 83.5399C270.507 83.7339 270.902 84.0188 271.224 84.3758C271.547 84.7329 271.791 85.154 271.94 85.6117C272.089 86.0695 272.139 86.5535 272.088 87.0321Z" fill="#A47864"/>
<path opacity="0.8" d="M272.088 87.0321L269.291 119.016C269.183 120.037 268.707 120.983 267.951 121.678C267.196 122.373 266.213 122.769 265.187 122.792H242.977C242.497 122.794 242.021 122.695 241.581 122.502C241.141 122.308 240.747 122.024 240.424 121.668C240.101 121.311 239.857 120.891 239.708 120.434C239.559 119.977 239.507 119.494 239.557 119.016L242.355 87.0252C242.459 86.0028 242.933 85.0538 243.69 84.3579C244.446 83.6621 245.431 83.2678 246.459 83.2496H268.668C269.15 83.2469 269.626 83.3458 270.067 83.5399C270.507 83.7339 270.902 84.0188 271.224 84.3758C271.547 84.7329 271.791 85.154 271.94 85.6117C272.089 86.0695 272.139 86.5535 272.088 87.0321Z" fill="white"/>
<path d="M244.38 92.1893H244.318C244.138 92.1737 243.971 92.0871 243.854 91.9486C243.737 91.8101 243.68 91.631 243.696 91.4506L243.955 88.5231C243.971 88.3525 244.05 88.194 244.176 88.0787C244.303 87.9635 244.468 87.8999 244.639 87.9006H247.731C247.913 87.9006 248.087 87.9727 248.215 88.101C248.343 88.2293 248.415 88.4032 248.415 88.5846C248.415 88.766 248.343 88.94 248.215 89.0683C248.087 89.1966 247.913 89.2686 247.731 89.2686H245.269L245.064 91.5669C245.048 91.7374 244.969 91.896 244.843 92.0112C244.716 92.1265 244.551 92.19 244.38 92.1893Z" fill="#A47864"/>
<path d="M269.25 92.1893H269.188C269.008 92.1737 268.841 92.0871 268.724 91.9486C268.608 91.8101 268.551 91.631 268.566 91.4506L268.757 89.2686H266.418C266.237 89.2686 266.063 89.1966 265.934 89.0683C265.806 88.94 265.734 88.766 265.734 88.5846C265.734 88.4032 265.806 88.2293 265.934 88.101C266.063 87.9727 266.237 87.9006 266.418 87.9006H269.496C269.591 87.9003 269.686 87.9198 269.773 87.9579C269.86 87.9961 269.939 88.052 270.003 88.1222C270.067 88.1924 270.116 88.2753 270.147 88.3655C270.177 88.4557 270.189 88.5513 270.18 88.6462L269.92 91.5669C269.905 91.7351 269.828 91.8917 269.704 92.0066C269.581 92.1216 269.419 92.1866 269.25 92.1893Z" fill="#A47864"/>
<path d="M245.556 114.262H242.464C242.371 114.262 242.278 114.242 242.192 114.205C242.106 114.167 242.029 114.112 241.965 114.043C241.901 113.974 241.852 113.891 241.822 113.802C241.791 113.712 241.779 113.618 241.787 113.523L242.04 110.596C242.056 110.414 242.143 110.247 242.282 110.129C242.421 110.012 242.601 109.955 242.783 109.97C242.964 109.985 243.132 110.072 243.249 110.211C243.367 110.351 243.424 110.531 243.408 110.712L243.217 112.894H245.556C245.738 112.894 245.912 112.966 246.04 113.094C246.168 113.223 246.24 113.397 246.24 113.578C246.24 113.76 246.168 113.933 246.04 114.062C245.912 114.19 245.738 114.262 245.556 114.262Z" fill="#A47864"/>
<path d="M267.314 114.262H264.229C264.048 114.262 263.874 114.19 263.746 114.062C263.617 113.933 263.545 113.759 263.545 113.578C263.545 113.397 263.617 113.223 263.746 113.094C263.874 112.966 264.048 112.894 264.229 112.894H266.692L266.89 110.596C266.906 110.415 266.992 110.249 267.131 110.132C267.269 110.015 267.448 109.958 267.629 109.973C267.809 109.989 267.976 110.076 268.093 110.214C268.209 110.353 268.266 110.532 268.251 110.712L267.998 113.64C267.983 113.81 267.904 113.969 267.777 114.084C267.651 114.199 267.485 114.263 267.314 114.262Z" fill="#A47864"/>
<path d="M264.96 103.234C266.504 97.2457 263.854 91.3851 259.04 90.1437C254.226 88.9024 249.072 92.7503 247.527 98.7384C245.983 104.727 248.634 110.587 253.448 111.829C258.262 113.07 263.416 109.222 264.96 103.234Z" fill="white"/>
<path d="M258.928 118.01H250.071L250.843 109.153H259.701L258.928 118.01Z" fill="white"/>
<path d="M269.291 119.016C269.183 120.037 268.707 120.983 267.951 121.678C267.196 122.373 266.213 122.769 265.187 122.792H242.977C242.497 122.794 242.021 122.695 241.581 122.502C241.141 122.308 240.747 122.024 240.424 121.668C240.101 121.311 239.857 120.891 239.708 120.434C239.559 119.977 239.507 119.494 239.557 119.016C239.557 119.016 249.763 115.787 251.021 115.787H258.908L269.291 119.016Z" fill="white"/>
<path d="M273.378 96.3793L272.343 108.943L273.025 108.999L274.06 96.4355L273.378 96.3793Z" fill="#A47864"/>
<path d="M274.098 90.6302L273.895 93.0979L274.576 93.1541L274.78 90.6863L274.098 90.6302Z" fill="#A47864"/>
<path d="M250.262 166.944H247.567V167.628H250.262V166.944Z" fill="#A47864"/>
<path d="M261.842 166.944H253.053V167.628H261.842V166.944Z" fill="#A47864"/>
<path d="M277.93 155.268L276.227 174.762C276.138 175.624 275.737 176.423 275.099 177.009C274.462 177.595 273.631 177.927 272.766 177.943C272.358 177.95 271.954 177.87 271.579 177.709C271.205 177.548 270.869 177.309 270.594 177.008C270.319 176.708 270.111 176.352 269.985 175.964C269.858 175.577 269.815 175.167 269.859 174.762L271.548 155.268C271.705 153.814 271.552 152.343 271.097 150.953C270.643 149.563 269.898 148.286 268.912 147.206C267.926 146.125 266.722 145.267 265.379 144.688C264.037 144.109 262.586 143.821 261.124 143.845H254.174C251.066 143.904 248.087 145.098 245.799 147.203C243.511 149.307 242.071 152.176 241.753 155.268L241.069 163.23H234.708L235.392 155.268C236.247 145.46 244.927 137.484 254.728 137.484H261.705C263.982 137.447 266.24 137.894 268.33 138.796C270.421 139.698 272.295 141.034 273.83 142.716C275.364 144.398 276.523 146.387 277.23 148.551C277.937 150.715 278.175 153.005 277.93 155.268Z" fill="#A47864"/>
<g opacity="0.5">
<path d="M277.93 155.268L276.227 174.762C276.138 175.624 275.737 176.423 275.099 177.009C274.462 177.595 273.631 177.927 272.766 177.943C272.358 177.95 271.954 177.87 271.579 177.709C271.205 177.548 270.869 177.309 270.594 177.008C270.319 176.708 270.111 176.352 269.985 175.964C269.858 175.577 269.815 175.167 269.859 174.762L271.548 155.268C271.705 153.814 271.552 152.343 271.097 150.953C270.643 149.563 269.898 148.286 268.912 147.206C267.926 146.125 266.722 145.267 265.379 144.688C264.037 144.109 262.586 143.821 261.124 143.845H254.174C251.066 143.904 248.087 145.098 245.799 147.203C243.511 149.307 242.071 152.176 241.753 155.268L241.069 163.23H234.708L235.392 155.268C236.247 145.46 244.927 137.484 254.728 137.484H261.705C263.982 137.447 266.24 137.894 268.33 138.796C270.421 139.698 272.295 141.034 273.83 142.716C275.364 144.398 276.523 146.387 277.23 148.551C277.937 150.715 278.175 153.005 277.93 155.268Z" fill="white"/>
</g>
<path d="M278.388 174.051L275.071 212.04C274.95 213.218 274.402 214.311 273.529 215.111C272.657 215.912 271.521 216.365 270.337 216.384H232.348C231.792 216.394 231.239 216.285 230.728 216.065C230.217 215.845 229.758 215.519 229.383 215.108C229.008 214.697 228.724 214.211 228.551 213.682C228.379 213.153 228.32 212.593 228.381 212.04L231.705 174.051C231.781 173.293 232.036 172.565 232.447 171.924C232.858 171.283 233.415 170.749 234.072 170.364C234.785 169.927 235.602 169.691 236.438 169.68H274.421C275.197 169.676 275.958 169.892 276.616 170.302C277.231 170.701 277.722 171.263 278.035 171.925C278.348 172.587 278.47 173.323 278.388 174.051Z" fill="#A47864"/>
<path d="M238.887 190.645L248.757 205.836L281.309 173.285C281.359 173.224 281.386 173.148 281.385 173.069C281.384 172.991 281.354 172.915 281.302 172.857C281.25 172.798 281.178 172.76 281.101 172.749C281.023 172.739 280.944 172.756 280.878 172.799L249.858 197.115L243.996 187.669L238.887 190.645Z" fill="white"/>
<path d="M171.349 143.529C167.45 150.121 163.699 155.849 161.062 158.597C156.058 160.919 144.304 164.502 139.708 165.096C138.901 165.199 138.084 165.008 137.406 164.558C135.595 163.37 134.193 163.175 132.29 162.515C130.795 162.005 130.164 161.29 129.885 161.587C129.598 161.924 129.453 162.361 129.483 162.803C129.512 163.245 129.713 163.658 130.043 163.954C130.757 164.633 131.549 165.225 132.402 165.718C130.363 166.224 128.236 166.262 126.181 165.83C122.198 164.781 120.323 166.693 123.015 171.02C123.944 172.561 127.769 175.04 135.456 174.371C138.198 174.224 140.93 173.914 143.635 173.443C151.007 171.865 159.205 170.342 164.246 168.801C166.122 168.063 167.8 166.9 169.149 165.403C177.625 155.738 180.438 148.849 184.152 142.591L183.836 132.379C177.82 132.174 174.608 138.014 171.349 143.529Z" fill="#FFB573"/>
<path d="M184.866 132.175C183.122 131.929 181.344 132.166 179.724 132.858C178.104 133.55 176.704 134.672 175.675 136.102C171.553 141.385 164.255 154.067 164.255 154.067C164.255 154.067 166.641 160.427 173.085 161.494L183.437 147.512C183.437 147.512 188.339 137.801 184.866 132.175Z" fill="#455A64"/>
<path d="M207.251 274.725H200.501V286.758H207.251V274.725Z" fill="#FFB573"/>
<path d="M183.855 274.084L177.115 274.326L176.771 261.588L183.855 261.346V274.084Z" fill="#FFB573"/>
<path d="M208.198 170.565C208.198 177.268 207.214 231.275 207.214 231.275C207.362 233.206 209.071 236.771 208.727 244.189C208.216 254.263 207.539 280.741 207.539 280.741C206.38 281.334 205.102 281.656 203.8 281.681C202.499 281.707 201.209 281.436 200.028 280.89C200.028 280.89 194.55 243.753 193.343 233.809C192.285 225.091 189.574 196.236 189.574 196.236L185.925 230.346C186.699 234.006 186.98 237.753 186.761 241.487C186.445 246.129 184.272 270.157 184.272 270.157C183.106 270.845 181.799 271.259 180.449 271.366C179.1 271.474 177.743 271.273 176.483 270.779C176.483 270.779 172.639 234.571 172.565 230.318C172.472 225.491 174.812 170.509 174.812 170.509L208.198 170.565Z" fill="#37474F"/>
<path d="M200.501 283.285V282.282C199.851 282.57 198.357 288.531 195.673 291.075C193.547 293.099 190.651 295.429 189.908 297.685C189.165 299.941 193.947 301.324 195.943 300.962C198.245 300.535 202.256 298.836 203.259 297.249C204.261 295.661 204.735 293.359 205.552 292.207C206.369 291.056 208.254 289.775 208.69 288.438C208.826 287.187 208.696 285.921 208.309 284.724C207.994 283.48 207.659 282.115 207.251 282.236V282.997C206.299 283.778 205.103 284.199 203.871 284.186C202.887 284.269 200.492 284.065 200.501 283.285Z" fill="#263238"/>
<path d="M177.04 272.154C176.687 272.154 176.4 272.683 175.629 273.556C174.483 274.761 173.143 275.765 171.665 276.526C169.139 277.845 164.237 279.869 162 280.918C160.607 281.568 160.672 283.313 162.111 284.307C163.55 285.3 167.013 286.015 171.172 285.049C173.438 284.52 176.39 282.338 178.266 282.459C180.141 282.58 183.623 282.543 185.006 281.531C186.389 280.519 185.832 278.42 185.442 276.61C185.015 274.623 184.514 271.532 183.855 271.671V272.367C183.047 273.648 178.86 274.168 177.077 273.231L177.04 272.154Z" fill="#263238"/>
<path d="M189.574 196.236C186.063 195.087 182.853 193.168 180.178 190.619C180.178 190.619 182.035 194.156 187.383 197.452L186.232 227.914L189.574 196.236Z" fill="#263238"/>
<path d="M204.428 133.159C204.428 133.159 209.999 134.44 209.6 144.504L208.439 160.52V184.566C203.481 190.192 181.515 189.784 173.948 184.12C173.948 184.12 174.802 155.664 175.313 144.709C175.675 136.928 177.467 133.01 185.117 132.156L194.522 132.565L204.428 133.159Z" fill="#A47864"/>
<path d="M197.335 112.251C197.368 113.598 197.133 114.939 196.644 116.195C196.156 117.451 195.423 118.598 194.49 119.57C193.556 120.542 192.439 121.319 191.203 121.857C189.967 122.395 188.638 122.683 187.29 122.705C181.719 122.705 178.451 117.896 177.244 112.251C175.016 101.918 181.738 101.788 187.29 101.788C190.009 101.844 192.595 102.977 194.479 104.939C196.363 106.902 197.39 109.531 197.335 112.251Z" fill="#263238"/>
<path d="M202.46 116.475C202.46 116.475 200.919 124.014 200.297 125.258C199.906 126.007 199.241 126.575 198.44 126.846L198.552 121.544L202.46 116.475Z" fill="#263238"/>
<path d="M200.52 105.677C200.52 105.677 201.625 105.399 202.804 107.237C203.807 108.806 204.039 112.334 202.46 116.521L199.554 116.874L200.52 105.677Z" fill="#263238"/>
<path d="M201.587 107.209L205.153 107.274C205.177 107.044 205.153 106.811 205.084 106.59C205.014 106.369 204.899 106.165 204.746 105.991C204.594 105.816 204.407 105.675 204.197 105.577C203.987 105.478 203.759 105.424 203.528 105.417C203.04 105.424 202.573 105.611 202.215 105.942C201.856 106.273 201.633 106.724 201.587 107.209Z" fill="#263238"/>
<path d="M202.024 106.364L204.661 103.83C204.509 103.651 204.322 103.505 204.111 103.402C203.899 103.299 203.669 103.241 203.435 103.231C203.2 103.222 202.966 103.261 202.747 103.346C202.528 103.432 202.33 103.562 202.164 103.728C201.814 104.07 201.605 104.53 201.58 105.019C201.554 105.507 201.713 105.988 202.024 106.364Z" fill="#263238"/>
<path d="M198.682 116.828C199.267 117.19 200.093 116.029 200.817 115.24C201.541 114.451 203.788 113.727 204.958 116.289C206.128 118.852 204.132 121.386 202.46 122.222C199.462 123.707 198.515 121.544 198.515 121.544L198.264 133.484C194.049 139.983 184.486 139.779 187.931 133.168V129.538C186.514 129.774 185.075 129.848 183.641 129.761C181.302 129.389 179.835 127.468 179.12 124.831C177.987 120.597 177.551 117.181 178.516 108.853C179.575 99.7355 189.769 99.6334 195.228 103.282C200.687 106.931 198.682 116.828 198.682 116.828Z" fill="#FFB573"/>
<path d="M185.981 107.432C188.413 107.191 190.818 106.689 193.26 106.504C193.786 106.44 194.32 106.465 194.838 106.578C196.695 107.089 196.472 109.261 196.769 110.775C197.28 113.393 197.698 117.821 198.682 117.84C198.979 117.84 200.093 115.918 200.817 115.231C201.215 114.639 201.44 113.948 201.467 113.235C201.653 112.158 201.746 111.053 201.829 109.958C201.903 109.029 201.996 108.101 201.996 107.172C202.039 106.123 201.954 105.073 201.746 104.043C201.513 103.168 201.066 102.364 200.446 101.704L200.26 101.5C199.036 100.22 197.551 99.2194 195.906 98.5657C193.538 97.6789 191.056 97.1379 188.534 96.9596C186.016 96.7812 183.509 96.4713 181.023 96.0311C180.881 95.9896 180.729 95.9896 180.587 96.0311C180.486 96.087 180.401 96.1672 180.339 96.2646C180.277 96.3619 180.241 96.4732 180.234 96.5882C180.132 97.1651 180.196 97.7591 180.418 98.3013C180.639 98.8436 181.01 99.3119 181.487 99.652C179.807 99.782 177.876 98.9093 176.26 98.4636C176.13 98.4082 175.989 98.3796 175.847 98.3796C175.705 98.3796 175.565 98.4082 175.434 98.4636C175.272 98.5769 175.156 98.7451 175.109 98.9371C174.991 99.3733 174.976 99.8307 175.063 100.274C175.21 101.618 175.71 102.899 176.511 103.988C177.762 105.617 179.53 106.773 181.524 107.265C182.993 107.548 184.496 107.605 185.981 107.432Z" fill="#263238"/>
<path d="M187.939 129.538C187.939 129.538 193.157 128.442 194.977 127.43C196.061 126.837 196.941 125.931 197.502 124.831C197.228 125.937 196.739 126.978 196.063 127.895C194.736 129.677 187.939 130.977 187.939 130.977V129.538Z" fill="#ED893E"/>
<path d="M189.193 115.463C189.183 115.749 189.287 116.028 189.482 116.239C189.676 116.449 189.947 116.574 190.233 116.586C190.461 116.605 190.688 116.555 190.887 116.442C191.085 116.329 191.245 116.158 191.344 115.953C191.444 115.748 191.48 115.517 191.446 115.292C191.413 115.066 191.312 114.855 191.157 114.688C191.002 114.52 190.8 114.404 190.578 114.353C190.355 114.302 190.123 114.32 189.91 114.404C189.698 114.488 189.516 114.633 189.388 114.822C189.26 115.011 189.192 115.235 189.193 115.463Z" fill="#263238"/>
<path d="M190.864 110.96L193.102 112.251C193.265 111.933 193.301 111.565 193.205 111.221C193.109 110.876 192.886 110.581 192.582 110.394C192.433 110.311 192.269 110.259 192.1 110.243C191.931 110.226 191.76 110.245 191.598 110.299C191.437 110.352 191.288 110.438 191.162 110.552C191.035 110.666 190.934 110.805 190.864 110.96Z" fill="#263238"/>
<path d="M188.404 122.992L186.018 123.921C186.066 124.084 186.147 124.236 186.256 124.367C186.366 124.498 186.501 124.605 186.653 124.682C186.805 124.759 186.972 124.803 187.142 124.813C187.312 124.822 187.483 124.797 187.643 124.738C187.968 124.598 188.227 124.34 188.368 124.015C188.51 123.691 188.523 123.325 188.404 122.992Z" fill="#ED893E"/>
<path d="M179.593 111.917L181.636 110.283C181.544 110.14 181.424 110.018 181.282 109.925C181.141 109.832 180.981 109.77 180.814 109.743C180.646 109.716 180.475 109.724 180.311 109.768C180.147 109.811 179.995 109.888 179.863 109.995C179.59 110.226 179.411 110.55 179.362 110.904C179.312 111.259 179.395 111.619 179.593 111.917Z" fill="#263238"/>
<path d="M180.494 115.157C180.51 115.36 180.585 115.554 180.71 115.715C180.835 115.876 181.004 115.998 181.196 116.064C181.389 116.131 181.596 116.14 181.794 116.091C181.992 116.041 182.171 115.935 182.309 115.786C182.448 115.636 182.54 115.45 182.574 115.249C182.608 115.048 182.583 114.841 182.502 114.655C182.42 114.468 182.287 114.309 182.116 114.197C181.946 114.085 181.747 114.025 181.543 114.024C181.4 114.029 181.258 114.062 181.128 114.122C180.997 114.181 180.88 114.266 180.782 114.371C180.685 114.477 180.609 114.6 180.56 114.735C180.51 114.87 180.488 115.013 180.494 115.157Z" fill="#263238"/>
<path d="M186.092 114.284L185.972 120.885L182.221 120.031L186.092 114.284Z" fill="#ED893E"/>
<path d="M97.0193 169.572L102.841 166.211L105.143 163.416L99.3311 166.777L97.0193 169.572Z" fill="#A47864"/>
<path opacity="0.4" d="M97.0193 169.572L102.841 166.211L105.143 163.416L99.3311 166.777L97.0193 169.572Z" fill="black"/>
<path d="M112.849 178.707L118.67 175.346L123.526 171.048L117.714 174.399L112.849 178.707Z" fill="#A47864"/>
<path opacity="0.4" d="M112.849 178.707L118.67 175.346L123.526 171.048L117.714 174.399L112.849 178.707Z" fill="black"/>
<path d="M162.297 190.303C163.673 192.148 164.506 194.342 164.701 196.635C163.331 194.787 162.499 192.595 162.297 190.303ZM175.824 190.48C173.865 177.157 166.707 163.982 158.184 159.053C154.089 156.685 150.301 156.602 147.266 158.375L141.788 161.531L141.481 161.717C141.238 161.851 141.002 162 140.776 162.163C140.326 162.472 139.903 162.82 139.513 163.203L139.328 163.379C139.16 163.546 138.984 163.741 138.826 163.927C138.668 164.112 138.427 164.4 138.241 164.651C137.847 165.17 137.49 165.716 137.174 166.285C137.006 166.573 136.849 166.879 136.7 167.213L88.8583 139.602L83.0464 142.954V146.667L83.5385 146.946L84.0027 147.215V147.958L83.0742 148.506V150.66L90.1024 165.514L97.047 169.534L99.3588 166.749L105.486 170.416L109.005 176.442L112.886 178.679L117.742 174.372L123.702 177.816L125.708 186.088L135.725 191.882C136.22 193.987 136.84 196.061 137.582 198.093C137.647 198.297 137.731 198.511 137.814 198.743C141.138 207.47 146.421 214.944 152.381 218.388C153.096 218.812 153.844 219.175 154.619 219.474C155.028 219.637 155.447 219.777 155.872 219.892C156.243 219.991 156.615 220.075 156.986 220.143C158.159 220.357 159.36 220.357 160.533 220.143L161.016 220.022C161.246 219.976 161.473 219.911 161.693 219.827L162.213 219.623C162.397 219.557 162.574 219.473 162.742 219.372C162.914 219.298 163.081 219.214 163.244 219.122L163.485 218.973C163.529 218.959 163.57 218.937 163.606 218.908C164.933 218.147 168.202 216.253 169.093 215.751C173.512 213.189 176.372 206.709 176.372 197.545C176.364 195.18 176.181 192.818 175.824 190.48Z" fill="#A47864"/>
<path d="M160.598 201.547C158.295 200.219 156.438 196.282 156.438 192.754C156.438 189.226 158.295 187.434 160.598 188.753C162.9 190.071 164.748 194.017 164.748 197.554C164.748 201.092 162.891 202.874 160.598 201.547ZM170.003 193.831C168.053 180.518 160.895 167.334 152.363 162.413C148.408 160.129 144.75 159.962 141.779 161.531L141.472 161.717C141.228 161.851 140.993 162 140.767 162.163C140.317 162.472 139.894 162.82 139.504 163.203L139.318 163.379C139.151 163.546 138.975 163.741 138.817 163.927C138.659 164.112 138.418 164.4 138.232 164.651C137.838 165.17 137.481 165.716 137.164 166.285C136.997 166.573 136.839 166.879 136.691 167.213C135.825 169.008 135.201 170.909 134.834 172.867L83.0371 142.954V146.667L83.5292 146.946L83.9934 147.215V147.958L83.065 148.506V150.66L90.0931 165.514L97.0377 169.534L99.3495 166.749L105.477 170.416L108.996 176.442L112.877 178.679L117.732 174.372L123.693 177.816L125.698 186.088L135.725 191.882C136.22 193.987 136.84 196.061 137.582 198.093C137.647 198.297 137.731 198.511 137.814 198.743C141.138 207.47 146.421 214.944 152.381 218.388C153.096 218.812 153.844 219.175 154.619 219.474C155.028 219.637 155.447 219.777 155.872 219.892C156.243 219.991 156.615 220.075 156.986 220.143C158.159 220.357 159.36 220.357 160.533 220.143L161.016 220.022C161.246 219.976 161.473 219.91 161.693 219.827L162.213 219.623C162.397 219.557 162.574 219.473 162.742 219.372C162.914 219.298 163.081 219.214 163.244 219.122L163.485 218.973C163.529 218.959 163.57 218.937 163.606 218.908C167.839 216.234 170.56 209.847 170.56 200.906C170.544 198.537 170.358 196.173 170.003 193.831Z" fill="#A47864"/>
<path opacity="0.4" d="M164.748 197.545C164.748 201.082 162.891 202.874 160.598 201.547C158.304 200.219 156.438 196.292 156.438 192.755C156.438 189.217 158.295 187.425 160.598 188.753C161.261 189.157 161.838 189.687 162.297 190.313C162.496 192.605 163.329 194.797 164.701 196.645C164.735 196.944 164.751 197.244 164.748 197.545Z" fill="black"/>
<path opacity="0.4" d="M176.353 197.536C176.353 206.699 173.494 213.18 169.074 215.742C168.146 216.244 164.915 218.138 163.587 218.899C167.821 216.225 170.541 209.837 170.541 200.897C170.531 198.532 170.351 196.17 170.003 193.831C168.053 180.518 160.895 167.334 152.363 162.413C148.408 160.13 144.75 159.962 141.779 161.531L147.256 158.375C150.292 156.601 154.08 156.685 158.175 159.053C166.707 163.982 173.865 177.157 175.815 190.48C176.168 192.815 176.348 195.174 176.353 197.536Z" fill="white"/>
<path d="M170.541 200.878C170.541 209.819 167.821 216.206 163.587 218.88C164.915 218.119 168.183 216.225 169.074 215.723C173.493 213.161 176.353 206.68 176.353 197.517C176.353 197.183 176.353 196.839 176.353 196.496L170.541 199.856C170.532 200.219 170.541 200.553 170.541 200.878Z" fill="#A47864"/>
<path opacity="0.1" d="M170.541 200.878C170.541 209.819 167.821 216.206 163.587 218.88C164.915 218.119 168.183 216.225 169.074 215.723C173.493 213.161 176.353 206.68 176.353 197.517C176.353 197.183 176.353 196.839 176.353 196.496L170.541 199.856C170.532 200.219 170.541 200.553 170.541 200.878Z" fill="black"/>
<path opacity="0.15" d="M135.057 176.665V178.549L83.0464 148.524L84.0027 147.967V147.187L135.057 176.665Z" fill="black"/>
<path opacity="0.15" d="M135.057 177.445V178.55L83.0464 148.524L84.0027 147.967V147.958L135.057 177.445Z" fill="black"/>
<path opacity="0.15" d="M157.673 215.733C155.702 215.682 153.78 215.108 152.103 214.071C143.626 209.178 136.728 194.621 136.728 181.623C136.728 174.038 139.021 168.374 143.023 166.062C145.808 164.447 149.104 164.651 152.567 166.647C161.034 171.54 167.932 186.144 167.932 199.142C167.932 206.718 165.639 212.391 161.638 214.693C160.431 215.383 159.063 215.741 157.673 215.733ZM147.043 165.923C145.806 165.916 144.588 166.237 143.515 166.852C139.866 168.959 137.684 174.483 137.684 181.614C137.684 194.314 144.369 208.538 152.595 213.254C155.742 215.111 158.722 215.278 161.201 213.848C164.85 211.741 167.032 206.226 167.032 199.096C167.032 186.386 160.347 172.171 152.131 167.446C150.595 166.512 148.84 165.999 147.043 165.96V165.923Z" fill="black"/>
<path opacity="0.4" d="M136.654 167.195C135.788 168.989 135.164 170.891 134.797 172.849L83 142.935L88.812 139.583L136.654 167.195Z" fill="white"/>
<path d="M203.974 170.101C206.685 164.966 209.786 153.435 211.327 147.614C213.518 139.351 209.971 134.152 205.942 133.938C203.426 134.328 195.135 164.474 195.135 164.474C194.207 165.208 181.608 171.605 177.56 173.211C176.836 173.485 176.037 173.485 175.313 173.211C173.373 172.505 172.045 172.635 170.142 172.45C168.647 172.301 167.895 171.772 167.7 172.087C167.523 172.479 167.5 172.923 167.636 173.331C167.772 173.739 168.057 174.081 168.434 174.288C169.253 174.765 170.126 175.145 171.033 175.42C169.406 175.914 167.71 176.143 166.01 176.098C162.111 176.015 160.709 177.704 163.736 181.669C165.593 184.138 168.666 184.918 175.527 182.551C177.495 181.864 180.169 180.536 182.666 179.636C187.81 177.779 189.165 177.556 193.083 176.228C198.793 174.297 202.767 172.385 203.974 170.101Z" fill="#FFB573"/>
<path d="M204.429 133.159C206.796 133.484 209.071 134.013 210.473 135.944C211.875 137.875 212.998 140.586 211.624 147.967C210.572 153.158 209.163 158.27 207.409 163.268C207.409 163.268 201.894 165.626 196.036 159.647L200.065 144.068C200.065 144.068 200.715 133.939 204.429 133.159Z" fill="#455A64"/>
</svg>
