<svg width="353" height="235" viewBox="0 0 353 235" fill="none" xmlns="http://www.w3.org/2000/svg">
<path d="M334.47 67.2523C334.47 67.2523 294.025 23.2979 234.147 12.22C174.269 1.14213 139.788 18.941 114.786 52.6024C89.7843 86.2638 75.5326 120.32 48.168 137.339C20.8034 154.357 14.4636 180.898 16.0497 191.986C17.6359 203.073 24.7712 211.387 29.5296 212.576H313.059C313.059 212.576 336.056 211.387 342.401 192.775C348.745 174.163 340.419 159.119 334.87 136.944C329.321 114.769 356.676 106.056 334.47 67.2523Z" fill="#A47864"/>
<path opacity="0.7" d="M334.47 67.2523C334.47 67.2523 294.025 23.2979 234.147 12.22C174.269 1.14213 139.788 18.941 114.786 52.6024C89.7843 86.2638 75.5326 120.32 48.168 137.339C20.8034 154.357 14.4636 180.898 16.0497 191.986C17.6359 203.073 24.7712 211.387 29.5296 212.576H313.059C313.059 212.576 336.056 211.387 342.401 192.775C348.745 174.163 340.419 159.119 334.87 136.944C329.321 114.769 356.676 106.056 334.47 67.2523Z" fill="white"/>
<path d="M61.0172 19.6459C61.0172 19.6459 59.3463 15.1903 55.4398 14.3537C51.5333 13.5171 49.9989 15.8859 49.1658 17.8599C48.3327 19.8339 45.8194 18.2782 43.7249 17.9962C41.6304 17.7142 40.5197 19.8057 40.1008 21.3379C39.6819 22.8701 37.032 20.6423 34.6599 22.0382C32.2877 23.4341 31.8735 25.2389 31.3134 25.6572C30.7533 26.0755 29.2237 25.3799 28.3859 26.4938L27.5481 27.6077H71.1977C71.1977 27.6077 72.6097 24.4023 69.941 22.0382C67.2724 19.6741 62.6928 23.2649 61.0172 19.6459Z" stroke="black" stroke-miterlimit="10" stroke-linecap="round"/>
<path d="M34.754 37.0217C34.754 37.0217 33.6009 33.9479 30.9134 33.3698C28.2259 32.7917 27.148 34.4226 26.5879 35.7668C26.0278 37.111 24.277 36.0535 22.8226 35.8655C21.3682 35.6775 20.6105 37.111 20.3234 38.1685C20.0363 39.226 18.2101 37.6985 16.558 38.6385C14.906 39.5785 14.633 40.8475 14.2518 41.1342C13.8705 41.4209 12.8068 40.9415 12.2326 41.7076L11.6537 42.4784H41.7716C42.0353 41.8263 42.0936 41.1095 41.9389 40.4235C41.7841 39.7374 41.4237 39.1148 40.9056 38.6385C39.0653 37.0217 35.9071 39.5174 34.754 37.0217Z" stroke="black" stroke-miterlimit="10" stroke-linecap="round"/>
<path d="M10.1005 126.045H26.7574V77.7332H41.428V55.1638H69.188V99.9078H76.3233V13.1223H106.855V51.2017H125.889V18.3346H158.408V92.3831H202.82V48.1373H231.832V92.7826H249.613V97.9291H260.716V63.4029H268.247V97.9291H273.406V61.4994H281.732V96.3452H292.044V37.7409H310.678V76.1493H321.385V18.7341H347.559V134.754" stroke="black" stroke-miterlimit="10" stroke-linecap="round"/>
<path d="M34.288 85.6528H31.1157V89.6149H34.288V85.6528Z" stroke="black" stroke-miterlimit="10" stroke-linecap="round"/>
<path d="M39.4466 85.6528H36.2743V89.6149H39.4466V85.6528Z" stroke="black" stroke-miterlimit="10" stroke-linecap="round"/>
<path d="M44.6003 85.6528H41.428V89.6149H44.6003V85.6528Z" stroke="black" stroke-miterlimit="10" stroke-linecap="round"/>
<path d="M49.7541 85.6528H46.5818V89.6149H49.7541V85.6528Z" stroke="black" stroke-miterlimit="10" stroke-linecap="round"/>
<path d="M54.9126 85.6528H51.7404V89.6149H54.9126V85.6528Z" stroke="black" stroke-miterlimit="10" stroke-linecap="round"/>
<path d="M60.0665 85.6528H56.8942V89.6149H60.0665V85.6528Z" stroke="black" stroke-miterlimit="10" stroke-linecap="round"/>
<path d="M84.254 56.353H81.0817V60.3151H84.254V56.353Z" stroke="black" stroke-miterlimit="10" stroke-linecap="round"/>
<path d="M89.4078 56.353H86.2355V60.3151H89.4078V56.353Z" stroke="black" stroke-miterlimit="10" stroke-linecap="round"/>
<path d="M94.5663 56.353H91.394V60.3151H94.5663V56.353Z" stroke="black" stroke-miterlimit="10" stroke-linecap="round"/>
<path d="M99.7201 56.353H96.5479V60.3151H99.7201V56.353Z" stroke="black" stroke-miterlimit="10" stroke-linecap="round"/>
<path d="M84.254 49.2229H81.0817V53.185H84.254V49.2229Z" stroke="black" stroke-miterlimit="10" stroke-linecap="round"/>
<path d="M89.4078 49.2229H86.2355V53.185H89.4078V49.2229Z" stroke="black" stroke-miterlimit="10" stroke-linecap="round"/>
<path d="M94.5663 49.2229H91.394V53.185H94.5663V49.2229Z" stroke="black" stroke-miterlimit="10" stroke-linecap="round"/>
<path d="M99.7201 49.2229H96.5479V53.185H99.7201V49.2229Z" stroke="black" stroke-miterlimit="10" stroke-linecap="round"/>
<path d="M84.254 42.093H81.0817V46.0551H84.254V42.093Z" stroke="black" stroke-miterlimit="10" stroke-linecap="round"/>
<path d="M89.4078 42.093H86.2355V46.0551H89.4078V42.093Z" stroke="black" stroke-miterlimit="10" stroke-linecap="round"/>
<path d="M94.5663 42.093H91.394V46.0551H94.5663V42.093Z" stroke="black" stroke-miterlimit="10" stroke-linecap="round"/>
<path d="M99.7201 42.093H96.5479V46.0551H99.7201V42.093Z" stroke="black" stroke-miterlimit="10" stroke-linecap="round"/>
<path d="M84.254 34.968H81.0817V38.9301H84.254V34.968Z" stroke="black" stroke-miterlimit="10" stroke-linecap="round"/>
<path d="M89.4078 34.968H86.2355V38.9301H89.4078V34.968Z" stroke="black" stroke-miterlimit="10" stroke-linecap="round"/>
<path d="M94.5663 34.968H91.394V38.9301H94.5663V34.968Z" stroke="black" stroke-miterlimit="10" stroke-linecap="round"/>
<path d="M99.7201 34.968H96.5479V38.9301H99.7201V34.968Z" stroke="black" stroke-miterlimit="10" stroke-linecap="round"/>
<path d="M84.254 27.8381H81.0817V31.8002H84.254V27.8381Z" stroke="black" stroke-miterlimit="10" stroke-linecap="round"/>
<path d="M89.4078 27.8381H86.2355V31.8002H89.4078V27.8381Z" stroke="black" stroke-miterlimit="10" stroke-linecap="round"/>
<path d="M94.5663 27.8381H91.394V31.8002H94.5663V27.8381Z" stroke="black" stroke-miterlimit="10" stroke-linecap="round"/>
<path d="M99.7201 27.8381H96.5479V31.8002H99.7201V27.8381Z" stroke="black" stroke-miterlimit="10" stroke-linecap="round"/>
<path d="M104.874 56.353H101.702V60.3151H104.874V56.353Z" stroke="black" stroke-miterlimit="10" stroke-linecap="round"/>
<path d="M110.028 56.353H106.855V60.3151H110.028V56.353Z" stroke="black" stroke-miterlimit="10" stroke-linecap="round"/>
<path d="M84.254 64.2725H81.0817V68.2346H84.254V64.2725Z" stroke="black" stroke-miterlimit="10" stroke-linecap="round"/>
<path d="M89.4078 64.2725H86.2355V68.2346H89.4078V64.2725Z" stroke="black" stroke-miterlimit="10" stroke-linecap="round"/>
<path d="M94.5663 64.2725H91.394V68.2346H94.5663V64.2725Z" stroke="black" stroke-miterlimit="10" stroke-linecap="round"/>
<path d="M99.7201 64.2725H96.5479V68.2346H99.7201V64.2725Z" stroke="black" stroke-miterlimit="10" stroke-linecap="round"/>
<path d="M104.874 64.2725H101.702V68.2346H104.874V64.2725Z" stroke="black" stroke-miterlimit="10" stroke-linecap="round"/>
<path d="M110.028 64.2725H106.855V68.2346H110.028V64.2725Z" stroke="black" stroke-miterlimit="10" stroke-linecap="round"/>
<path d="M34.288 93.967H31.1157V97.9291H34.288V93.967Z" stroke="black" stroke-miterlimit="10" stroke-linecap="round"/>
<path d="M39.4466 93.967H36.2743V97.9291H39.4466V93.967Z" stroke="black" stroke-miterlimit="10" stroke-linecap="round"/>
<path d="M44.6003 93.967H41.428V97.9291H44.6003V93.967Z" stroke="black" stroke-miterlimit="10" stroke-linecap="round"/>
<path d="M49.7541 93.967H46.5818V97.9291H49.7541V93.967Z" stroke="black" stroke-miterlimit="10" stroke-linecap="round"/>
<path d="M54.9126 93.967H51.7404V97.9291H54.9126V93.967Z" stroke="black" stroke-miterlimit="10" stroke-linecap="round"/>
<path d="M60.0665 93.967H56.8942V97.9291H60.0665V93.967Z" stroke="black" stroke-miterlimit="10" stroke-linecap="round"/>
<path d="M34.288 102.286H31.1157V106.248H34.288V102.286Z" stroke="black" stroke-miterlimit="10" stroke-linecap="round"/>
<path d="M39.4466 102.286H36.2743V106.248H39.4466V102.286Z" stroke="black" stroke-miterlimit="10" stroke-linecap="round"/>
<path d="M44.6003 102.286H41.428V106.248H44.6003V102.286Z" stroke="black" stroke-miterlimit="10" stroke-linecap="round"/>
<path d="M49.7541 102.286H46.5818V106.248H49.7541V102.286Z" stroke="black" stroke-miterlimit="10" stroke-linecap="round"/>
<path d="M54.9126 102.286H51.7404V106.248H54.9126V102.286Z" stroke="black" stroke-miterlimit="10" stroke-linecap="round"/>
<path d="M60.0665 102.286H56.8942V106.248H60.0665V102.286Z" stroke="black" stroke-miterlimit="10" stroke-linecap="round"/>
<path d="M34.288 110.6H31.1157V114.562H34.288V110.6Z" stroke="black" stroke-miterlimit="10" stroke-linecap="round"/>
<path d="M39.4466 110.6H36.2743V114.562H39.4466V110.6Z" stroke="black" stroke-miterlimit="10" stroke-linecap="round"/>
<path d="M44.6003 110.6H41.428V114.562H44.6003V110.6Z" stroke="black" stroke-miterlimit="10" stroke-linecap="round"/>
<path d="M49.7541 110.6H46.5818V114.562H49.7541V110.6Z" stroke="black" stroke-miterlimit="10" stroke-linecap="round"/>
<path d="M54.9126 110.6H51.7404V114.562H54.9126V110.6Z" stroke="black" stroke-miterlimit="10" stroke-linecap="round"/>
<path d="M60.0665 110.6H56.8942V114.562H60.0665V110.6Z" stroke="black" stroke-miterlimit="10" stroke-linecap="round"/>
<path d="M34.288 118.915H31.1157V122.877H34.288V118.915Z" stroke="black" stroke-miterlimit="10" stroke-linecap="round"/>
<path d="M39.4466 118.915H36.2743V122.877H39.4466V118.915Z" stroke="black" stroke-miterlimit="10" stroke-linecap="round"/>
<path d="M44.6003 118.915H41.428V122.877H44.6003V118.915Z" stroke="black" stroke-miterlimit="10" stroke-linecap="round"/>
<path d="M49.7541 118.915H46.5818V122.877H49.7541V118.915Z" stroke="black" stroke-miterlimit="10" stroke-linecap="round"/>
<path d="M54.9126 118.915H51.7404V122.877H54.9126V118.915Z" stroke="black" stroke-miterlimit="10" stroke-linecap="round"/>
<path d="M60.0665 118.915H56.8942V122.877H60.0665V118.915Z" stroke="black" stroke-miterlimit="10" stroke-linecap="round"/>
<path d="M334.47 27.0483H331.297V31.0104H334.47V27.0483Z" stroke="black" stroke-miterlimit="10" stroke-linecap="round"/>
<path d="M339.628 27.0483H336.456V31.0104H339.628V27.0483Z" stroke="black" stroke-miterlimit="10" stroke-linecap="round"/>
<path d="M344.782 27.0483H341.61V31.0104H344.782V27.0483Z" stroke="black" stroke-miterlimit="10" stroke-linecap="round"/>
<path d="M334.47 36.9465H331.297V40.9086H334.47V36.9465Z" stroke="black" stroke-miterlimit="10" stroke-linecap="round"/>
<path d="M339.628 36.9465H336.456V40.9086H339.628V36.9465Z" stroke="black" stroke-miterlimit="10" stroke-linecap="round"/>
<path d="M344.782 36.9465H341.61V40.9086H344.782V36.9465Z" stroke="black" stroke-miterlimit="10" stroke-linecap="round"/>
<path d="M334.47 46.8496H331.297V50.8117H334.47V46.8496Z" stroke="black" stroke-miterlimit="10" stroke-linecap="round"/>
<path d="M339.628 46.8496H336.456V50.8117H339.628V46.8496Z" stroke="black" stroke-miterlimit="10" stroke-linecap="round"/>
<path d="M344.782 46.8496H341.61V50.8117H344.782V46.8496Z" stroke="black" stroke-miterlimit="10" stroke-linecap="round"/>
<path d="M334.47 56.7478H331.297V60.7099H334.47V56.7478Z" stroke="black" stroke-miterlimit="10" stroke-linecap="round"/>
<path d="M339.628 56.7478H336.456V60.7099H339.628V56.7478Z" stroke="black" stroke-miterlimit="10" stroke-linecap="round"/>
<path d="M344.782 56.7478H341.61V60.7099H344.782V56.7478Z" stroke="black" stroke-miterlimit="10" stroke-linecap="round"/>
<path d="M334.47 66.646H331.297V70.6081H334.47V66.646Z" stroke="black" stroke-miterlimit="10" stroke-linecap="round"/>
<path d="M339.628 66.646H336.456V70.6081H339.628V66.646Z" stroke="black" stroke-miterlimit="10" stroke-linecap="round"/>
<path d="M344.782 66.646H341.61V70.6081H344.782V66.646Z" stroke="black" stroke-miterlimit="10" stroke-linecap="round"/>
<path d="M334.47 76.5442H331.297V80.5063H334.47V76.5442Z" stroke="black" stroke-miterlimit="10" stroke-linecap="round"/>
<path d="M339.628 76.5442H336.456V80.5063H339.628V76.5442Z" stroke="black" stroke-miterlimit="10" stroke-linecap="round"/>
<path d="M344.782 76.5442H341.61V80.5063H344.782V76.5442Z" stroke="black" stroke-miterlimit="10" stroke-linecap="round"/>
<path d="M334.47 86.447H331.297V90.4091H334.47V86.447Z" stroke="black" stroke-miterlimit="10" stroke-linecap="round"/>
<path d="M339.628 86.447H336.456V90.4091H339.628V86.447Z" stroke="black" stroke-miterlimit="10" stroke-linecap="round"/>
<path d="M344.782 86.447H341.61V90.4091H344.782V86.447Z" stroke="black" stroke-miterlimit="10" stroke-linecap="round"/>
<path d="M334.47 96.3452H331.297V100.307H334.47V96.3452Z" stroke="black" stroke-miterlimit="10" stroke-linecap="round"/>
<path d="M339.628 96.3452H336.456V100.307H339.628V96.3452Z" stroke="black" stroke-miterlimit="10" stroke-linecap="round"/>
<path d="M344.782 96.3452H341.61V100.307H344.782V96.3452Z" stroke="black" stroke-miterlimit="10" stroke-linecap="round"/>
<path d="M334.47 106.243H331.297V110.206H334.47V106.243Z" stroke="black" stroke-miterlimit="10" stroke-linecap="round"/>
<path d="M339.628 106.243H336.456V110.206H339.628V106.243Z" stroke="black" stroke-miterlimit="10" stroke-linecap="round"/>
<path d="M300.723 46.8496H297.551V50.8117H300.723V46.8496Z" stroke="black" stroke-miterlimit="10" stroke-linecap="round"/>
<path d="M305.877 46.8496H302.704V50.8117H305.877V46.8496Z" stroke="black" stroke-miterlimit="10" stroke-linecap="round"/>
<path d="M300.723 56.7478H297.551V60.7099H300.723V56.7478Z" stroke="black" stroke-miterlimit="10" stroke-linecap="round"/>
<path d="M305.877 56.7478H302.704V60.7099H305.877V56.7478Z" stroke="black" stroke-miterlimit="10" stroke-linecap="round"/>
<path d="M300.723 66.646H297.551V70.6081H300.723V66.646Z" stroke="black" stroke-miterlimit="10" stroke-linecap="round"/>
<path d="M305.877 66.646H302.704V70.6081H305.877V66.646Z" stroke="black" stroke-miterlimit="10" stroke-linecap="round"/>
<path d="M300.723 76.5442H297.551V80.5063H300.723V76.5442Z" stroke="black" stroke-miterlimit="10" stroke-linecap="round"/>
<path d="M305.877 76.5442H302.704V80.5063H305.877V76.5442Z" stroke="black" stroke-miterlimit="10" stroke-linecap="round"/>
<path d="M300.723 86.447H297.551V90.4091H300.723V86.447Z" stroke="black" stroke-miterlimit="10" stroke-linecap="round"/>
<path d="M305.877 86.447H302.704V90.4091H305.877V86.447Z" stroke="black" stroke-miterlimit="10" stroke-linecap="round"/>
<path d="M300.723 96.3452H297.551V100.307H300.723V96.3452Z" stroke="black" stroke-miterlimit="10" stroke-linecap="round"/>
<path d="M305.877 96.3452H302.704V100.307H305.877V96.3452Z" stroke="black" stroke-miterlimit="10" stroke-linecap="round"/>
<path d="M300.723 106.243H297.551V110.206H300.723V106.243Z" stroke="black" stroke-miterlimit="10" stroke-linecap="round"/>
<path d="M305.877 106.243H302.704V110.206H305.877V106.243Z" stroke="black" stroke-miterlimit="10" stroke-linecap="round"/>
<path d="M209.866 56.7478H206.693V60.7099H209.866V56.7478Z" stroke="black" stroke-miterlimit="10" stroke-linecap="round"/>
<path d="M215.024 56.7478H211.852V60.7099H215.024V56.7478Z" stroke="black" stroke-miterlimit="10" stroke-linecap="round"/>
<path d="M209.866 66.646H206.693V70.6081H209.866V66.646Z" stroke="black" stroke-miterlimit="10" stroke-linecap="round"/>
<path d="M215.024 66.646H211.852V70.6081H215.024V66.646Z" stroke="black" stroke-miterlimit="10" stroke-linecap="round"/>
<path d="M209.866 76.5442H206.693V80.5063H209.866V76.5442Z" stroke="black" stroke-miterlimit="10" stroke-linecap="round"/>
<path d="M215.024 76.5442H211.852V80.5063H215.024V76.5442Z" stroke="black" stroke-miterlimit="10" stroke-linecap="round"/>
<path d="M209.866 86.447H206.693V90.4091H209.866V86.447Z" stroke="black" stroke-miterlimit="10" stroke-linecap="round"/>
<path d="M215.024 86.447H211.852V90.4091H215.024V86.447Z" stroke="black" stroke-miterlimit="10" stroke-linecap="round"/>
<path d="M209.866 96.3452H206.693V100.307H209.866V96.3452Z" stroke="black" stroke-miterlimit="10" stroke-linecap="round"/>
<path d="M215.024 96.3452H211.852V100.307H215.024V96.3452Z" stroke="black" stroke-miterlimit="10" stroke-linecap="round"/>
<path d="M209.866 106.243H206.693V110.206H209.866V106.243Z" stroke="black" stroke-miterlimit="10" stroke-linecap="round"/>
<path d="M215.024 106.243H211.852V110.206H215.024V106.243Z" stroke="black" stroke-miterlimit="10" stroke-linecap="round"/>
<path d="M221.543 56.7478H218.37V60.7099H221.543V56.7478Z" stroke="black" stroke-miterlimit="10" stroke-linecap="round"/>
<path d="M226.697 56.7478H223.524V60.7099H226.697V56.7478Z" stroke="black" stroke-miterlimit="10" stroke-linecap="round"/>
<path d="M221.543 66.646H218.37V70.6081H221.543V66.646Z" stroke="black" stroke-miterlimit="10" stroke-linecap="round"/>
<path d="M226.697 66.646H223.524V70.6081H226.697V66.646Z" stroke="black" stroke-miterlimit="10" stroke-linecap="round"/>
<path d="M221.543 76.5442H218.37V80.5063H221.543V76.5442Z" stroke="black" stroke-miterlimit="10" stroke-linecap="round"/>
<path d="M226.697 76.5442H223.524V80.5063H226.697V76.5442Z" stroke="black" stroke-miterlimit="10" stroke-linecap="round"/>
<path d="M221.543 86.447H218.37V90.4091H221.543V86.447Z" stroke="black" stroke-miterlimit="10" stroke-linecap="round"/>
<path d="M226.697 86.447H223.524V90.4091H226.697V86.447Z" stroke="black" stroke-miterlimit="10" stroke-linecap="round"/>
<path d="M221.543 96.3452H218.37V100.307H221.543V96.3452Z" stroke="black" stroke-miterlimit="10" stroke-linecap="round"/>
<path d="M226.697 96.3452H223.524V100.307H226.697V96.3452Z" stroke="black" stroke-miterlimit="10" stroke-linecap="round"/>
<path d="M221.543 106.243H218.37V110.206H221.543V106.243Z" stroke="black" stroke-miterlimit="10" stroke-linecap="round"/>
<path d="M226.697 106.243H223.524V110.206H226.697V106.243Z" stroke="black" stroke-miterlimit="10" stroke-linecap="round"/>
<path d="M140.508 27.0483H137.336V31.0104H140.508V27.0483Z" stroke="black" stroke-miterlimit="10" stroke-linecap="round"/>
<path d="M145.662 27.0483H142.49V31.0104H145.662V27.0483Z" stroke="black" stroke-miterlimit="10" stroke-linecap="round"/>
<path d="M140.508 36.9465H137.336V40.9086H140.508V36.9465Z" stroke="black" stroke-miterlimit="10" stroke-linecap="round"/>
<path d="M145.662 36.9465H142.49V40.9086H145.662V36.9465Z" stroke="black" stroke-miterlimit="10" stroke-linecap="round"/>
<path d="M140.508 46.8496H137.336V50.8117H140.508V46.8496Z" stroke="black" stroke-miterlimit="10" stroke-linecap="round"/>
<path d="M145.662 46.8496H142.49V50.8117H145.662V46.8496Z" stroke="black" stroke-miterlimit="10" stroke-linecap="round"/>
<path d="M140.508 56.7478H137.336V60.7099H140.508V56.7478Z" stroke="black" stroke-miterlimit="10" stroke-linecap="round"/>
<path d="M145.662 56.7478H142.49V60.7099H145.662V56.7478Z" stroke="black" stroke-miterlimit="10" stroke-linecap="round"/>
<path d="M140.508 66.646H137.336V70.6081H140.508V66.646Z" stroke="black" stroke-miterlimit="10" stroke-linecap="round"/>
<path d="M145.662 66.646H142.49V70.6081H145.662V66.646Z" stroke="black" stroke-miterlimit="10" stroke-linecap="round"/>
<path d="M140.508 76.5442H137.336V80.5063H140.508V76.5442Z" stroke="black" stroke-miterlimit="10" stroke-linecap="round"/>
<path d="M145.662 76.5442H142.49V80.5063H145.662V76.5442Z" stroke="black" stroke-miterlimit="10" stroke-linecap="round"/>
<path d="M140.508 86.447H137.336V90.4091H140.508V86.447Z" stroke="black" stroke-miterlimit="10" stroke-linecap="round"/>
<path d="M145.662 86.447H142.49V90.4091H145.662V86.447Z" stroke="black" stroke-miterlimit="10" stroke-linecap="round"/>
<path d="M140.508 96.3452H137.336V100.307H140.508V96.3452Z" stroke="black" stroke-miterlimit="10" stroke-linecap="round"/>
<path d="M145.662 96.3452H142.49V100.307H145.662V96.3452Z" stroke="black" stroke-miterlimit="10" stroke-linecap="round"/>
<path d="M140.508 106.243H137.336V110.206H140.508V106.243Z" stroke="black" stroke-miterlimit="10" stroke-linecap="round"/>
<path d="M145.662 106.243H142.49V110.206H145.662V106.243Z" stroke="black" stroke-miterlimit="10" stroke-linecap="round"/>
<path d="M344.782 106.243H341.61V110.206H344.782V106.243Z" stroke="black" stroke-miterlimit="10" stroke-linecap="round"/>
<path d="M344.66 212.576H3.8877" stroke="black" stroke-miterlimit="10" stroke-linecap="round"/>
<path d="M319.009 50.6189H139.854V212.576H319.009V50.6189Z" fill="black" stroke="black" stroke-miterlimit="10" stroke-linecap="round"/>
<path d="M160.173 50.9573H151.969V212.172H160.173V50.9573Z" fill="#C9C9C9" stroke="black" stroke-miterlimit="10" stroke-linecap="round"/>
<path d="M167.986 50.9573H159.782V212.172H167.986V50.9573Z" fill="#BABABA" stroke="black" stroke-miterlimit="10" stroke-linecap="round"/>
<path d="M175.794 50.9573H167.59V212.172H175.794V50.9573Z" fill="#C9C9C9" stroke="black" stroke-miterlimit="10" stroke-linecap="round"/>
<path d="M183.607 50.9573H175.403V212.172H183.607V50.9573Z" fill="#BABABA" stroke="black" stroke-miterlimit="10" stroke-linecap="round"/>
<path d="M191.416 50.9573H183.212V212.172H191.416V50.9573Z" fill="#C9C9C9" stroke="black" stroke-miterlimit="10" stroke-linecap="round"/>
<path d="M199.229 50.9573H191.025V212.172H199.229V50.9573Z" fill="#BABABA" stroke="black" stroke-miterlimit="10" stroke-linecap="round"/>
<path d="M207.042 50.9573H198.838V212.172H207.042V50.9573Z" fill="#C9C9C9" stroke="black" stroke-miterlimit="10" stroke-linecap="round"/>
<path d="M214.85 50.9573H206.646V212.172H214.85V50.9573Z" fill="#BABABA" stroke="black" stroke-miterlimit="10" stroke-linecap="round"/>
<path d="M222.663 50.9573H214.459V212.172H222.663V50.9573Z" fill="#C9C9C9" stroke="black" stroke-miterlimit="10" stroke-linecap="round"/>
<path d="M230.476 50.9573H222.272V212.172H230.476V50.9573Z" fill="#BABABA" stroke="black" stroke-miterlimit="10" stroke-linecap="round"/>
<path d="M238.284 50.9573H230.081V212.172H238.284V50.9573Z" fill="#C9C9C9" stroke="black" stroke-miterlimit="10" stroke-linecap="round"/>
<path d="M246.098 50.9573H237.894V212.172H246.098V50.9573Z" fill="#BABABA" stroke="black" stroke-miterlimit="10" stroke-linecap="round"/>
<path d="M253.906 50.9573H245.702V212.172H253.906V50.9573Z" fill="#C9C9C9" stroke="black" stroke-miterlimit="10" stroke-linecap="round"/>
<path d="M261.719 50.9573H253.515V212.172H261.719V50.9573Z" fill="#BABABA" stroke="black" stroke-miterlimit="10" stroke-linecap="round"/>
<path d="M269.532 50.9573H261.328V212.172H269.532V50.9573Z" fill="#C9C9C9" stroke="black" stroke-miterlimit="10" stroke-linecap="round"/>
<path d="M277.34 50.9573H269.137V212.172H277.34V50.9573Z" fill="#BABABA" stroke="black" stroke-miterlimit="10" stroke-linecap="round"/>
<path d="M285.153 50.9573H276.95V212.172H285.153V50.9573Z" fill="#C9C9C9" stroke="black" stroke-miterlimit="10" stroke-linecap="round"/>
<path d="M292.962 50.9573H284.758V212.172H292.962V50.9573Z" fill="#BABABA" stroke="black" stroke-miterlimit="10" stroke-linecap="round"/>
<path d="M300.775 50.9573H292.571V212.172H300.775V50.9573Z" fill="#C9C9C9" stroke="black" stroke-miterlimit="10" stroke-linecap="round"/>
<path d="M159.853 64.813C159.853 64.813 161.185 89.3141 160.003 106.309L159.853 64.813Z" fill="black"/>
<path d="M175.394 70.03C175.394 70.03 178.218 95.2972 175.248 109.078L175.394 70.03Z" fill="black"/>
<path d="M167.892 120.489V163.56C167.892 163.56 171.045 143.754 167.892 120.489Z" fill="black"/>
<path d="M191.011 58.5244V98.0984C191.011 98.0984 194.16 73.0944 191.011 58.5244Z" fill="black"/>
<path d="M183.235 101.355V146.17C183.235 146.17 185.753 112.664 183.235 101.355Z" fill="black"/>
<path d="M198.786 61.241V123.972C198.786 123.972 202.989 96.679 198.786 61.241Z" fill="black"/>
<path d="M199.205 206.701V140.713C199.205 140.713 201.94 182.101 199.205 206.701Z" fill="black"/>
<path d="M230.1 170.61V104.617C230.1 104.617 232.834 146.01 230.1 170.61Z" fill="black"/>
<path d="M222.112 151.255V85.2673C222.112 85.2673 224.847 126.66 222.112 151.255Z" fill="black"/>
<path d="M238.087 127.995V62.0024C238.087 62.0024 240.821 103.4 238.087 127.995Z" fill="black"/>
<path d="M245.862 195.614V129.621C245.862 129.621 248.597 171.014 245.862 195.614Z" fill="black"/>
<path d="M253.849 165.172V99.1699C253.849 99.1699 256.584 140.572 253.849 165.172Z" fill="black"/>
<path d="M268.981 186.914V120.926C268.981 120.926 271.716 162.314 268.981 186.914Z" fill="black"/>
<path d="M261.418 121.26V55.2625C261.418 55.2625 264.148 96.6507 261.418 121.26Z" fill="black"/>
<path d="M276.969 142.123V76.1399C276.969 76.1399 279.698 117.528 276.969 142.123Z" fill="black"/>
<path d="M292.519 197.569V131.6C292.519 131.6 295.254 172.96 292.519 197.569Z" fill="black"/>
<path d="M284.753 206.485V140.497C284.753 140.497 287.479 181.89 284.753 206.485Z" fill="black"/>
<path d="M284.753 116.903V50.915C284.753 50.915 287.479 92.3032 284.753 116.903Z" fill="black"/>
<path d="M292.755 136.906V70.9182C292.755 70.9182 295.461 112.33 292.755 136.906Z" fill="black"/>
<path d="M214.76 210.4V144.407C214.76 144.407 217.49 185.8 214.76 210.4Z" fill="black"/>
<path d="M159.693 184.522V118.534C159.693 118.534 162.427 159.922 159.693 184.522Z" fill="black"/>
<path d="M175.667 207.787V141.799C175.667 141.799 178.383 183.187 175.667 207.787Z" fill="black"/>
<path d="M214.549 57.0015V139.407C214.549 139.407 217.49 90.5971 214.549 57.0015Z" fill="black"/>
<path d="M143.737 50.6189H122.322V212.576H143.737V50.6189Z" fill="white" stroke="black" stroke-miterlimit="10" stroke-linecap="round"/>
<path d="M329.716 50.6189H308.301V212.576H329.716V50.6189Z" fill="white" stroke="black" stroke-miterlimit="10" stroke-linecap="round"/>
<path d="M333.298 27.3774H118.344V52.3908H333.298V27.3774Z" fill="black" stroke="black" stroke-miterlimit="10" stroke-linecap="round"/>
<path d="M17.0193 167.658C17.8571 168.025 19.9045 167.978 19.9045 167.978C19.9045 167.978 19.4621 166.643 19.4338 166.568C18.9631 165.628 17.5511 164.082 16.4121 164.218C16.2212 164.249 16.0391 164.32 15.8775 164.426C15.7159 164.533 15.5785 164.672 15.4742 164.834C15.3698 164.997 15.301 165.18 15.272 165.371C15.2431 165.562 15.2547 165.757 15.3061 165.943C15.4896 166.756 16.3086 167.348 17.0193 167.658Z" fill="black"/>
<path d="M17.7253 173.576C18.596 173.703 20.4175 173.176 20.5493 173.129C20.8479 174.172 21.2158 175.195 21.6507 176.189C21.9048 176.772 22.1731 177.35 22.4555 177.923C22.2861 177.679 22.1354 177.453 22.1119 177.453C21.4294 176.668 19.655 175.573 18.5819 176.006C18.406 176.086 18.249 176.202 18.1211 176.347C17.9932 176.492 17.8973 176.663 17.8396 176.847C17.7819 177.031 17.7637 177.226 17.7861 177.418C17.8086 177.61 17.8713 177.795 17.97 177.961C18.3654 178.68 19.3161 179.037 20.0833 179.145C20.8505 179.253 22.4367 178.84 22.8414 178.727L23.1662 179.385C23.6981 180.433 24.2299 181.481 24.7194 182.524C24.8935 182.891 25.0489 183.258 25.1901 183.629C25.0395 183.408 24.9124 183.229 24.8935 183.206C24.2111 182.416 22.432 181.298 21.3588 181.754C21.1829 181.834 21.0259 181.951 20.898 182.096C20.7701 182.24 20.6742 182.411 20.6165 182.595C20.5588 182.779 20.5406 182.974 20.5631 183.166C20.5855 183.358 20.6482 183.543 20.747 183.709C21.147 184.433 22.0931 184.785 22.865 184.898C23.6369 185.011 25.0536 184.635 25.5478 184.498C25.6984 184.879 25.849 185.26 25.9761 185.636C26.0608 185.894 26.1596 186.139 26.2255 186.402C26.2914 186.665 26.3714 186.924 26.442 187.177C26.5597 187.676 26.6868 188.188 26.7903 188.677C26.8656 189.015 26.9315 189.339 26.9974 189.664C26.8327 189.297 26.4891 188.583 26.4515 188.526C25.8961 187.647 24.3099 186.275 23.1568 186.562C22.9708 186.614 22.798 186.705 22.6497 186.829C22.5013 186.953 22.3808 187.107 22.296 187.28C22.2111 187.453 22.1639 187.643 22.1573 187.836C22.1507 188.029 22.185 188.221 22.2578 188.399C22.5402 189.175 23.4204 189.668 24.1405 189.894C24.9594 190.143 26.7715 189.918 26.9974 189.894C27.1057 190.43 27.2092 190.961 27.2939 191.459C27.4869 192.559 27.6328 193.546 27.7646 194.378H28.5271C28.3953 193.513 28.2212 192.498 27.9905 191.332C27.8823 190.782 27.7552 190.195 27.6234 189.598C28.1674 189.379 28.6985 189.13 29.2143 188.851C29.9169 189.453 30.6993 189.956 31.5394 190.345C31.3276 190.858 31.1205 191.351 30.9181 191.816C30.4945 192.785 30.0944 193.645 29.7414 194.378H30.5651C30.871 193.706 31.2052 192.935 31.5535 192.084C31.77 191.563 31.9865 191.008 32.203 190.435C32.4242 190.477 34.2175 190.843 35.027 190.655C35.8365 190.467 36.7073 190.054 37.0462 189.307C37.1312 189.133 37.1789 188.944 37.1862 188.751C37.1934 188.558 37.16 188.365 37.0882 188.186C37.0163 188.006 36.9076 187.844 36.769 187.709C36.6305 187.574 36.4651 187.47 36.2837 187.403C35.1776 187.032 33.4926 188.287 32.8761 189.123C32.8384 189.17 32.5042 189.748 32.2971 190.12L32.5607 189.415C32.7396 188.945 32.8996 188.475 33.0737 187.929C33.149 187.676 33.2291 187.417 33.3044 187.159C33.3797 186.9 33.4409 186.623 33.5115 186.355C33.6621 185.725 33.7844 185.077 33.8927 184.423C34.3163 184.578 35.8177 185.1 36.5943 185.044C37.3709 184.987 38.3452 184.705 38.7923 184.019C38.9026 183.86 38.9783 183.68 39.0143 183.49C39.0504 183.3 39.0461 183.104 39.0018 182.916C38.9574 182.728 38.8739 182.551 38.7568 182.397C38.6396 182.243 38.4914 182.115 38.3217 182.022C37.2862 181.49 35.4271 182.492 34.6881 183.206C34.6458 183.248 34.1751 183.836 33.9209 184.146C33.9821 183.756 34.048 183.361 34.0951 182.962C34.241 181.81 34.3492 180.64 34.4622 179.469L34.5752 178.398C34.7258 178.454 36.5002 179.112 37.3709 179.051C38.1475 178.999 39.1171 178.713 39.5689 178.022C39.6799 177.863 39.7561 177.683 39.7925 177.494C39.8289 177.304 39.8248 177.108 39.7804 176.92C39.7359 176.732 39.6522 176.555 39.5347 176.402C39.4171 176.248 39.2684 176.121 39.0983 176.029C38.0628 175.493 36.2084 176.476 35.4694 177.209C35.4129 177.265 34.7399 178.111 34.5799 178.332C34.6599 177.547 34.7493 176.762 34.8717 175.982C35.029 174.944 35.2539 173.917 35.5447 172.908C35.6106 172.936 37.4603 173.632 38.3687 173.571C39.1406 173.515 40.1149 173.228 40.562 172.542C40.6738 172.383 40.7507 172.203 40.7875 172.012C40.8244 171.822 40.8205 171.626 40.776 171.437C40.7316 171.249 40.6476 171.071 40.5295 170.918C40.4115 170.764 40.2622 170.636 40.0914 170.544C39.0559 170.013 37.2015 171.014 36.4625 171.729C36.4061 171.785 35.6765 172.692 35.5589 172.866C35.5589 172.81 35.5871 172.748 35.6059 172.687C35.9236 171.684 36.3317 170.712 36.8249 169.783C37.0885 169.261 37.3709 168.782 37.658 168.321C37.9875 168.486 39.5077 169.223 40.3173 169.261C41.1268 169.299 42.0917 169.115 42.6141 168.481C42.742 168.336 42.8379 168.165 42.8955 167.981C42.9532 167.796 42.9713 167.602 42.9486 167.41C42.926 167.218 42.8631 167.033 42.7641 166.867C42.6651 166.701 42.5323 166.557 42.3741 166.446C41.3998 165.802 39.4466 166.577 38.637 167.221C38.5899 167.259 38.1663 167.668 37.8887 167.969C38.0204 167.762 38.1522 167.546 38.2793 167.353C38.75 166.62 39.2583 165.976 39.6913 165.412C39.9455 165.092 40.162 164.81 40.402 164.547C40.8115 164.547 42.4588 164.491 43.1789 164.152C43.8991 163.814 44.6851 163.212 44.8592 162.404C44.9052 162.216 44.9112 162.021 44.8769 161.831C44.8426 161.64 44.7687 161.46 44.66 161.3C44.5514 161.14 44.4103 161.004 44.246 160.902C44.0817 160.8 43.8978 160.734 43.7061 160.707C42.5435 160.585 41.1692 162.169 40.7456 163.118C40.7079 163.203 40.2749 164.528 40.3079 164.528C40.0867 164.777 39.8372 165.05 39.6066 165.346C39.1359 165.901 38.6653 166.535 38.1428 167.259C37.5899 168.036 37.0823 168.844 36.6226 169.679C36.1048 170.611 35.6701 171.586 35.3235 172.593C35.3262 172.606 35.3262 172.619 35.3235 172.631C35.3235 172.293 35.3235 171.338 35.3235 171.263C35.1917 170.234 34.3257 168.321 33.182 168.11C32.9905 168.08 32.7949 168.09 32.6079 168.141C32.4208 168.192 32.2466 168.281 32.0965 168.403C31.9464 168.526 31.8238 168.678 31.7367 168.851C31.6497 169.024 31.6 169.213 31.5911 169.407C31.5205 170.225 32.1183 171.042 32.6972 171.559C33.3514 172.142 35.1635 172.706 35.3094 172.753C34.9831 173.788 34.7268 174.843 34.5422 175.912C34.4293 176.537 34.3398 177.166 34.2551 177.792C34.2551 177.495 34.2551 177.232 34.2551 177.195C34.1233 176.165 33.2573 174.252 32.1136 174.041C31.9255 174.021 31.7353 174.04 31.5549 174.096C31.3744 174.153 31.2076 174.246 31.0649 174.37C30.9222 174.494 30.8067 174.646 30.7255 174.817C30.6444 174.987 30.5994 175.173 30.5933 175.362C30.5274 176.184 31.1205 177.002 31.6994 177.519C32.2783 178.036 33.8268 178.558 34.2363 178.685C34.2033 178.929 34.1704 179.155 34.1421 179.413C34.0009 180.583 33.8692 181.763 33.6997 182.886C33.6432 183.291 33.5679 183.685 33.4973 184.075C33.4973 183.817 33.4973 183.605 33.4973 183.563C33.3655 182.529 32.4995 180.616 31.3558 180.405C31.1643 180.375 30.9687 180.386 30.7817 180.436C30.5947 180.487 30.4204 180.576 30.2703 180.699C30.1202 180.821 29.9976 180.974 29.9105 181.147C29.8235 181.319 29.7739 181.509 29.7649 181.702C29.6991 182.52 30.2921 183.338 30.871 183.855C31.4499 184.372 32.8478 184.842 33.3326 185.001C33.2479 185.401 33.1632 185.805 33.0596 186.186C32.989 186.449 32.9325 186.707 32.8431 186.966C32.7537 187.224 32.6784 187.478 32.5984 187.727C32.4195 188.197 32.2454 188.705 32.0618 189.17C31.9394 189.495 31.8123 189.8 31.69 190.11C31.7512 189.711 31.8594 188.926 31.8594 188.86C31.8454 187.947 31.5975 187.052 31.1393 186.261C31.1511 186.159 31.1511 186.057 31.1393 185.955C31.1154 185.764 31.0513 185.579 30.9512 185.413C30.8511 185.248 30.7172 185.105 30.5582 184.995C30.3993 184.885 30.2188 184.809 30.0286 184.773C29.8384 184.737 29.6428 184.741 29.4543 184.785C28.3294 185.086 27.614 187.06 27.5716 188.075C27.5716 188.136 27.6093 188.804 27.6422 189.222C27.5811 188.978 27.5293 188.752 27.4681 188.489C27.3504 188.019 27.2186 187.502 27.0774 186.971C27.0021 186.717 26.9221 186.458 26.8468 186.2C26.7715 185.941 26.6633 185.678 26.5738 185.415C26.3526 184.804 26.1032 184.202 25.8255 183.596C26.2585 183.493 27.8023 183.098 28.4235 182.623C29.0448 182.148 29.652 181.42 29.652 180.583C29.658 180.39 29.623 180.198 29.5493 180.019C29.4756 179.84 29.365 179.679 29.2245 179.546C29.0841 179.413 28.9171 179.311 28.7345 179.246C28.5518 179.182 28.3576 179.157 28.1647 179.173C27.0068 179.296 25.9996 181.138 25.8113 182.158C25.8113 182.219 25.7266 182.966 25.6984 183.38C25.5337 183.018 25.3689 182.656 25.1901 182.294C24.6723 181.255 24.1169 180.217 23.5663 179.178L23.0674 178.238C23.2227 178.2 25.063 177.768 25.7596 177.242C26.3761 176.772 27.0304 175.996 27.021 175.178C27.0269 174.985 26.9919 174.793 26.9183 174.614C26.8446 174.435 26.7339 174.274 26.5935 174.141C26.4531 174.008 26.2861 173.906 26.1034 173.841C25.9208 173.777 25.7266 173.752 25.5337 173.768C24.3758 173.891 23.3686 175.733 23.1803 176.753C23.1803 176.828 23.0674 177.904 23.0532 178.163C22.6908 177.463 22.3331 176.753 22.0084 176.053C21.5669 175.1 21.1865 174.12 20.8693 173.12C20.9447 173.12 22.8697 172.65 23.5804 172.123C24.197 171.653 24.8512 170.878 24.8465 170.055C24.851 169.862 24.8149 169.67 24.7405 169.492C24.666 169.313 24.5549 169.152 24.4142 169.019C24.2736 168.886 24.1066 168.784 23.9241 168.72C23.7415 168.656 23.5475 168.63 23.3545 168.645C22.1966 168.772 21.1894 170.615 21.0011 171.635C21.0011 171.714 20.8788 172.871 20.8741 173.082C20.8741 173.021 20.8317 172.965 20.8176 172.908C20.5301 171.895 20.3316 170.859 20.2245 169.811C20.1633 169.233 20.1304 168.674 20.1163 168.133C20.4834 168.091 22.159 167.865 22.8509 167.447C23.5427 167.029 24.2629 166.347 24.3335 165.534C24.3607 165.343 24.3472 165.148 24.2937 164.962C24.2402 164.776 24.148 164.603 24.0232 164.456C23.8983 164.308 23.7436 164.188 23.5691 164.104C23.3947 164.02 23.2044 163.974 23.0109 163.969C21.8436 163.969 20.6575 165.684 20.3234 166.676C20.3234 166.728 20.1869 167.296 20.1069 167.71C20.1069 167.466 20.1069 167.212 20.1069 166.977C20.1069 166.098 20.1633 165.29 20.2198 164.58C20.2528 164.171 20.2904 163.809 20.3328 163.466C20.6717 163.236 22.0178 162.282 22.432 161.586C22.8461 160.89 23.1662 159.969 22.865 159.203C22.8 159.023 22.698 158.858 22.5656 158.72C22.4332 158.581 22.2733 158.471 22.0961 158.398C21.919 158.324 21.7284 158.289 21.5366 158.293C21.3448 158.297 21.156 158.342 20.9823 158.423C19.9468 158.959 19.6739 161.041 19.848 162.065C19.848 162.155 20.2528 163.513 20.2716 163.499C20.2245 163.828 20.1822 164.18 20.1398 164.566C20.0692 165.28 19.9939 166.084 19.9751 166.967C19.942 167.919 19.964 168.871 20.041 169.82C20.1218 170.884 20.2998 171.938 20.5728 172.969C20.5702 172.982 20.5702 172.995 20.5728 173.007C20.3893 172.72 19.8527 171.935 19.8009 171.879C19.1232 171.089 17.3441 169.971 16.2709 170.427C16.095 170.507 15.938 170.624 15.8101 170.769C15.6822 170.913 15.5863 171.084 15.5286 171.268C15.4709 171.452 15.4527 171.647 15.4752 171.839C15.4976 172.031 15.5603 172.216 15.6591 172.382C16.0027 173.11 16.944 173.463 17.7253 173.576Z" fill="black"/>
<path d="M37.7098 168.11C37.7098 168.11 38.0816 166.751 38.0911 166.662C38.237 165.633 37.9075 163.56 36.8579 163.057C36.6812 162.977 36.4895 162.935 36.2953 162.933C36.1012 162.932 35.9089 162.972 35.7312 163.05C35.5535 163.128 35.3943 163.243 35.264 163.387C35.1337 163.53 35.0353 163.7 34.9752 163.884C34.6975 164.655 35.0506 165.604 35.4742 166.258C35.9731 167.019 37.7051 168.11 37.7098 168.11Z" fill="black"/>
<path d="M35.4365 192.902H22.8838L24.1358 212.952H34.1845L35.4365 192.902Z" fill="black"/>
<path d="M77.3964 200.009C77.3964 200.009 74.1629 202.359 74.8878 203.402C75.6126 204.445 79.9757 207.03 81.3265 208.572C82.6773 210.114 85.5625 211.679 88.3865 212.196C91.2105 212.713 94.6134 213.136 94.4063 211.162C94.1992 209.188 90.7728 208.572 89.8408 207.43C88.9089 206.288 87.5252 203.285 87.5252 203.285L78.9402 198.204L77.3964 200.009Z" fill="white" stroke="black" stroke-miterlimit="10" stroke-linecap="round"/>
<path d="M113.308 142.88C113.308 142.88 111.572 170.953 110.814 174.746C110.056 178.539 87.544 203.299 87.544 203.299C87.544 203.299 82.988 203.548 81.4677 202.791C80.0471 201.969 78.6922 201.039 77.4153 200.009C77.4153 200.009 80.71 195.459 81.7219 194.702C82.7338 193.946 85.266 192.681 86.0238 192.174C86.7816 191.666 91.8459 181.556 91.8459 181.556L94.524 144.572L113.308 142.88Z" fill="black" stroke="black" stroke-miterlimit="10" stroke-linecap="round"/>
<path d="M104.907 203.863L107.19 207.698C107.5 208.215 113.52 211.115 113.52 211.74C113.52 212.365 112.692 213.295 112.174 213.502C111.656 213.709 104.173 213.812 101.895 213.502C99.6166 213.192 97.9505 212.36 96.289 211.947C94.6276 211.533 93.465 212.05 93.3803 210.184C93.2956 208.318 94.171 204.685 94.171 204.685C94.171 204.685 95.0417 204.793 97.9363 203.863C100.831 202.932 104.907 203.863 104.907 203.863Z" fill="white" stroke="black" stroke-miterlimit="10" stroke-linecap="round"/>
<path d="M88.3912 144.892C88.3912 144.892 90.8764 175.108 92.1566 177.387C93.4368 179.667 94.9429 200.887 94.9429 200.887C94.9429 200.887 92.5331 203.237 93.7992 204.492C95.0653 205.747 93.898 206.104 93.898 206.104C93.898 206.104 97.7293 205.188 98.9954 204.694C100.261 204.201 105.302 204.318 105.302 204.318C105.302 204.318 106.841 201.409 107.096 199.388C107.35 197.367 105.829 190.792 105.829 190.035C105.829 189.278 106.841 154.381 106.841 154.381L113.035 146.861L88.3912 144.892Z" fill="black" stroke="black" stroke-miterlimit="10" stroke-linecap="round"/>
<path d="M102.511 89.8594L102.21 92.5572C99.3992 93.1342 96.5311 93.385 93.6627 93.3045C89.0078 93.1541 88.3959 95.1845 88.3959 95.1845C88.3959 95.1845 74.8925 114.375 75.4949 115.865C76.0974 117.354 81.0488 118.788 81.0488 118.788L89.309 111.592L88.4053 144.882C88.4053 144.882 90.961 148.031 98.4682 148.332C105.975 148.633 112.117 147.434 113.035 146.833C113.953 146.231 115.44 117.74 115.44 117.74L120.74 117.683C120.74 117.683 119.799 104.843 119.192 101.393C118.584 97.9434 116.49 96.2984 113.035 95.0952C109.581 93.892 108.38 92.5478 108.38 92.5478L105.528 88.7878C104.425 88.7622 103.351 89.1437 102.511 89.8594Z" fill="white" stroke="black" stroke-miterlimit="10" stroke-linecap="round"/>
<path d="M98.454 148.342C105.985 148.642 112.103 147.444 113.021 146.842C113.939 146.241 115.426 117.749 115.426 117.749L122.185 118.106C122.185 118.106 119.78 104.853 119.177 101.403C118.575 97.9529 116.476 96.3079 113.021 95.1047C109.566 93.9015 108.366 92.5573 108.366 92.5573L105.514 88.7973C104.418 88.7699 103.35 89.1444 102.511 89.8501L102.21 92.5479C99.3996 93.1281 96.5314 93.382 93.6627 93.3046C89.0078 93.1542 88.3959 95.1846 88.3959 95.1846C88.3959 95.1846 81.6042 101.896 78.6013 107.574L86.3532 114.182L89.3137 111.602L88.41 144.892C88.41 144.892 90.9469 148.05 98.454 148.342Z" fill="#A3A3A3" stroke="black" stroke-miterlimit="10" stroke-linecap="round"/>
<path d="M116.909 137.522C120.783 133.659 121.376 127.61 121.376 127.61L120.717 118.078L115.426 117.749L115.087 126.322C114.375 127.999 114.044 129.813 114.118 131.633C114.212 132.891 114.133 134.156 113.883 135.393H113.845C113.845 135.393 112.391 138.26 112.254 138.758C112.118 139.256 114.8 140.394 115.549 140.577C116.297 140.76 117.328 140.76 117.37 140.107C117.413 139.454 118.119 139.318 117.507 138.697C117.333 138.552 117.191 138.372 117.088 138.171C116.985 137.969 116.924 137.748 116.909 137.522Z" fill="white" stroke="black" stroke-miterlimit="10" stroke-linecap="round"/>
<path d="M115.718 125.904C115.718 125.904 118.476 124.71 120.34 126.275" stroke="black" stroke-miterlimit="10" stroke-linecap="round"/>
<path d="M116.909 137.522C116.684 137.317 116.41 137.173 116.112 137.106C115.815 137.04 115.506 137.052 115.214 137.141" stroke="black" stroke-miterlimit="10" stroke-linecap="round"/>
<path d="M113.817 134.481C115.059 133.776 117.191 134.129 118.09 135.012C118.706 135.687 119.048 136.567 119.048 137.48C119.048 138.393 118.706 139.273 118.09 139.947C117.149 140.944 115.793 141.301 114.556 140.535C113.318 139.769 112.499 139.595 112.438 138.359C112.389 137.292 112.599 136.23 113.049 135.261C113.218 134.928 113.486 134.655 113.817 134.481Z" fill="#A47864" stroke="black" stroke-miterlimit="10" stroke-linecap="round"/>
<path d="M94.3358 106.088L89.2949 111.601L94.3358 109.186" stroke="black" stroke-miterlimit="10" stroke-linecap="round"/>
<path d="M115.247 116.175L115.426 107.075" stroke="black" stroke-miterlimit="10" stroke-linecap="round"/>
<path d="M115.262 108.453C115.262 109.529 114.085 110.398 112.631 110.398C111.176 110.398 110.004 109.529 110.004 108.453C110.004 107.376 111.181 106.507 112.631 106.507C114.08 106.507 115.262 107.381 115.262 108.453Z" fill="#A47864" stroke="black" stroke-miterlimit="10" stroke-linecap="round"/>
<path d="M113.981 108.453C113.981 109.003 113.374 109.449 112.631 109.449C111.887 109.449 111.284 108.979 111.284 108.453C111.284 107.926 111.887 107.456 112.631 107.456C113.374 107.456 113.981 107.903 113.981 108.453Z" fill="white" stroke="black" stroke-miterlimit="10" stroke-linecap="round"/>
<path d="M135.063 158.277L163.218 160.867L162.738 206.048L134.182 159.814L135.063 158.277Z" fill="white" stroke="black" stroke-miterlimit="10" stroke-linecap="round"/>
<path d="M147.836 175.498L148.867 176.842" stroke="black" stroke-miterlimit="10" stroke-linecap="round"/>
<path d="M136.992 161.407L146.608 173.905" stroke="black" stroke-miterlimit="10" stroke-linecap="round"/>
<path d="M139.43 160.759L145.615 161.896" stroke="black" stroke-miterlimit="10" stroke-linecap="round"/>
<path d="M151.503 169.806L153.098 170.831" stroke="black" stroke-miterlimit="10" stroke-linecap="round"/>
<path d="M141.708 163.522L150.67 169.275" stroke="black" stroke-miterlimit="10" stroke-linecap="round"/>
<path d="M132.563 156.628L135.133 159.133" stroke="black" stroke-width="5" stroke-miterlimit="10" stroke-linecap="round"/>
<path d="M104.841 129.565L132.563 156.628" stroke="black" stroke-width="3" stroke-miterlimit="10" stroke-linecap="round"/>
<path d="M91.0552 128.211C91.0552 128.211 84.2729 127.986 83.5951 136.112C82.9174 144.238 91.7 200.032 74.6807 212.938C59.2664 224.618 44.1486 222.71 34.4199 218.207C26.4892 214.532 51.0203 212.13 62.2787 215.063C70.4306 217.187 54.0279 222.066 37.7522 222.113C19.0479 222.155 9.26275 215.533 4.51843 215.063" stroke="black" stroke-width="3" stroke-miterlimit="10" stroke-linecap="round"/>
<path d="M95.3006 129.297L99.6449 127.986L103.471 131.233C103.66 131.394 103.903 131.478 104.151 131.467C104.399 131.457 104.633 131.353 104.808 131.177L106.87 129.118C106.964 129.027 107.039 128.917 107.091 128.796C107.142 128.675 107.168 128.545 107.168 128.413C107.168 128.282 107.142 128.152 107.091 128.031C107.039 127.91 106.964 127.8 106.87 127.708C105.519 126.355 102.384 123.478 99.6402 122.773C96.0208 121.871 92.632 124.353 92.632 124.353L95.3006 129.297Z" fill="black" stroke="black" stroke-miterlimit="10" stroke-linecap="round"/>
<path d="M80.1358 113.27L92.1472 122.567C92.1472 122.567 94.4017 123.168 95.1501 123.916C95.8984 124.663 98.9154 127.065 98.0023 127.967C97.0892 128.869 98.1529 128.564 97.1033 128.865C96.0537 129.165 95.3007 129.335 95.3007 129.335C95.3007 129.335 92.7497 130.383 91.2482 130.232C89.7468 130.082 87.3417 126.637 87.3417 125.885C87.3417 125.133 75.0291 118.238 74.5772 117.336C74.1254 116.433 78.3425 110.591 78.3425 110.591" fill="white"/>
<path d="M80.1358 113.27L92.1472 122.567C92.1472 122.567 94.4017 123.168 95.1501 123.916C95.8984 124.663 98.9154 127.065 98.0023 127.967C97.0892 128.869 98.1529 128.564 97.1033 128.865C96.0537 129.165 95.3007 129.335 95.3007 129.335C95.3007 129.335 92.7497 130.383 91.2482 130.232C89.7468 130.082 87.3417 126.637 87.3417 125.885C87.3417 125.133 75.0291 118.238 74.5772 117.336C74.1254 116.433 78.3425 110.591 78.3425 110.591" stroke="black" stroke-miterlimit="10" stroke-linecap="round"/>
<path d="M88.0147 117.829L82.7997 123.704L87.3416 125.847C87.3416 125.847 88.283 128.244 89.3561 129.448C90.4292 130.651 90.4245 131.05 91.4929 131.05C92.5613 131.05 96.1996 129.847 96.1996 129.847C96.1996 129.847 96.4726 130.106 98.0822 129.048C99.6919 127.991 98.8871 127.309 98.2187 126.228C97.5504 125.147 94.2039 122.755 93.272 122.087C92.3401 121.42 91.9306 121.02 91.5306 120.753C91.1305 120.485 88.0147 117.829 88.0147 117.829Z" fill="#A47864" stroke="black" stroke-miterlimit="10" stroke-linecap="round"/>
<path d="M113.021 95.1047C109.567 93.9062 108.366 92.5573 108.366 92.5573L105.514 88.7973C104.418 88.7699 103.35 89.1444 102.511 89.8501L102.21 92.5479C102.21 92.5479 101.89 92.6184 101.344 92.7171C102.045 94.2164 104.7 100.237 108.668 100.345C111.492 100.435 113.261 97.7132 114.221 95.5559C113.84 95.4102 113.431 95.2504 113.021 95.1047Z" fill="white" stroke="black" stroke-miterlimit="10" stroke-linecap="round"/>
<path d="M116.476 88.9571L115.125 93.0085L113.473 92.5385C113.473 92.5385 113.002 96.1387 112.122 96.5852C111.242 97.0317 110.32 97.1868 108.517 95.8379C106.714 94.489 104.912 92.8393 104.912 91.34C104.912 89.8407 105.815 84.29 106.714 83.0915C107.613 81.893 116.476 88.9571 116.476 88.9571Z" fill="white" stroke="black" stroke-miterlimit="10" stroke-linecap="round"/>
<path d="M113.393 89.488C113.318 89.9298 113.059 90.2588 112.809 90.2165C112.56 90.1742 112.419 89.7794 112.494 89.3376C112.569 88.8958 112.828 88.5621 113.078 88.6044C113.327 88.6467 113.468 89.0415 113.393 89.488Z" fill="black"/>
<path d="M110.169 84.7599C110.169 84.7599 109.567 86.56 107.914 86.7104C106.262 86.8608 105.213 84.6095 105.213 84.6095L104.912 91.3587L102.511 89.8594C102.511 89.8594 102.958 84.1583 103.561 82.5086C104.163 80.8589 106.564 80.1116 106.564 80.1116C106.564 80.1116 109.119 82.9598 110.169 84.7599Z" fill="black" stroke="black" stroke-miterlimit="10" stroke-linecap="round"/>
<path d="M105.514 88.8302C102.958 88.3602 103.561 85.0702 105.213 84.6331C106.865 84.196 106.262 86.8797 106.262 86.8797" fill="white"/>
<path d="M105.514 88.8302C102.958 88.3602 103.561 85.0702 105.213 84.6331C106.865 84.196 106.262 86.8797 106.262 86.8797" stroke="black" stroke-miterlimit="10" stroke-linecap="round"/>
<path d="M103.547 82.5086L111.204 86.56C112.488 87.1134 113.864 87.418 115.262 87.4577C116.378 87.481 117.491 87.3223 118.556 86.9877L119.601 82.4757C119.695 82.0678 119.701 81.6447 119.62 81.2342C119.539 80.8236 119.372 80.4347 119.131 80.0928C118.064 78.5383 116.758 77.1615 115.262 76.0132C112.409 73.917 108.075 75.3881 105.674 76.737C103.274 78.0859 103.547 82.5086 103.547 82.5086Z" fill="#A47864" stroke="black" stroke-miterlimit="10" stroke-linecap="round"/>
<path d="M118.533 83.1056C118.34 84.1631 117.027 84.8069 115.601 84.5484C114.174 84.2899 113.172 83.2183 113.365 82.1608C113.558 81.1033 114.871 80.4595 116.297 80.718C117.723 80.9765 118.726 82.0481 118.533 83.1056Z" fill="#A47864" stroke="black" stroke-miterlimit="10" stroke-linecap="round"/>
<path d="M117.271 82.8751C117.172 83.4156 116.499 83.7493 115.77 83.613C115.04 83.4767 114.523 82.9362 114.621 82.391C114.72 81.8458 115.393 81.5168 116.128 81.6531C116.862 81.7894 117.375 82.3346 117.271 82.8751Z" fill="white" stroke="black" stroke-miterlimit="10" stroke-linecap="round"/>
<path d="M110.018 86.1088C111.796 85.7361 113.611 85.5783 115.426 85.6388C118.128 85.7892 120.524 88.1862 120.524 88.1862C120.524 88.1862 122.877 90.5644 122.717 91.0062C122.557 91.448 119.177 90.7336 116.928 90.5832C114.678 90.4328 110.018 86.1088 110.018 86.1088Z" fill="#A47864" stroke="black" stroke-miterlimit="10" stroke-linecap="round"/>
<path d="M110.546 91.8804C110.69 92.3511 110.964 92.772 111.335 93.0952C111.707 93.4184 112.163 93.6309 112.649 93.7087" stroke="black" stroke-miterlimit="10" stroke-linecap="round"/>
<path d="M109.868 96.8155L109.538 99.4334L112.122 96.604L109.868 96.8155Z" fill="black"/>
<path d="M112.734 137.973C112.734 137.973 111.322 140.131 112.136 140.878C112.692 141.385 114.49 142.288 115.591 142.786C115.847 142.906 116.135 142.938 116.41 142.878C116.686 142.818 116.934 142.668 117.116 142.452C117.494 142.055 117.803 141.598 118.029 141.099C118.18 140.502 116.758 139.162 116.758 139.162L116.165 139.388C116.165 139.388 113.925 137.076 113.478 137.151C113.031 137.226 112.734 137.973 112.734 137.973Z" fill="#A47864" stroke="black" stroke-miterlimit="10" stroke-linecap="round"/>
<path d="M116.876 138.067C116.876 138.067 115.878 139.252 116.278 139.567C116.678 139.882 117.959 141.188 118.199 140.948C118.439 140.709 119.281 140.29 118.801 139.689C118.321 139.087 117.54 138.011 116.876 138.067Z" fill="#A47864" stroke="black" stroke-miterlimit="10" stroke-linecap="round"/>
<path d="M279.148 168.73V195.52H174.405V168.73H154.713V207.834C154.712 208.556 154.853 209.271 155.129 209.939C155.405 210.606 155.81 211.213 156.321 211.723C156.832 212.234 157.439 212.639 158.107 212.916C158.776 213.192 159.492 213.334 160.215 213.333H168.903C170.362 213.333 171.761 212.755 172.792 211.725C173.824 210.696 174.404 209.3 174.405 207.843V206.039H183.946L188.413 203.219H264.736L270.421 206.462H279.148V207.872C279.149 209.328 279.729 210.724 280.761 211.754C281.793 212.783 283.191 213.361 284.65 213.361H293.338C294.061 213.362 294.776 213.22 295.443 212.945C296.111 212.669 296.718 212.265 297.229 211.755C297.74 211.245 298.145 210.64 298.421 209.973C298.698 209.307 298.84 208.593 298.84 207.872V168.73H279.148Z" fill="black" stroke="black" stroke-miterlimit="10" stroke-linecap="round"/>
<path d="M294.779 149.483C293.969 147.857 287.474 141.169 287.474 141.169C287.474 141.169 275.119 117.641 273.062 113.806C269.155 106.53 262.707 107.724 262.707 107.724L226.574 105.9L226.372 105.957L226.169 105.9L190.036 107.724C190.036 107.724 183.419 107.047 179.682 113.806C177.573 117.613 165.27 141.169 165.27 141.169C165.27 141.169 158.775 147.857 157.96 149.483C157.146 151.11 153.908 157.182 153.908 158.39C153.908 159.476 154.713 177.909 158.328 191.671C158.736 193.188 159.51 194.584 160.581 195.735C161.652 196.887 162.989 197.76 164.474 198.279C165.192 198.567 165.936 198.786 166.696 198.932H193.086L199.784 187.38C202.35 185.256 205.586 184.107 208.919 184.137H243.834C247.167 184.107 250.403 185.256 252.969 187.38L259.667 198.932H286.057C286.815 198.786 287.558 198.568 288.274 198.279C289.761 197.761 291.098 196.888 292.17 195.737C293.242 194.585 294.017 193.189 294.425 191.671C298.04 177.909 298.845 159.476 298.845 158.39C298.84 157.182 295.579 151.105 294.779 149.483Z" fill="#A47864" stroke="black" stroke-miterlimit="10" stroke-linecap="round"/>
<path d="M193.082 198.942L191.67 202.185H260.679L259.662 198.942L252.964 187.389C252.964 187.389 250.324 184.348 243.829 184.146C237.334 183.944 208.915 184.146 208.915 184.146C205.572 184.06 202.317 185.216 199.779 187.389L193.082 198.942Z" fill="#787878" stroke="black" stroke-miterlimit="10" stroke-linecap="round"/>
<path d="M198.965 160.43C198.965 160.43 204.448 170.159 206.072 171.78C207.696 173.402 209.522 173.402 211.758 173.604C213.993 173.806 244.638 173.604 244.638 173.604C244.638 173.604 247.076 173.2 248.295 171.376C249.514 169.552 253.572 160.43 253.572 160.43H198.965Z" fill="black" stroke="black" stroke-miterlimit="10" stroke-linecap="round"/>
<path d="M204.406 161.75C204.406 161.75 208.792 169.538 210.096 170.84C211.4 172.142 212.859 172.137 214.647 172.302C216.436 172.466 240.981 172.302 240.981 172.302C240.981 172.302 242.935 171.978 243.909 170.516C244.883 169.054 248.145 161.75 248.145 161.75H204.406Z" fill="#787878" stroke="black" stroke-miterlimit="10" stroke-linecap="round"/>
<path d="M249.171 195.52L247.957 192.169C247.58 191.136 246.89 190.247 245.983 189.625C245.076 189.003 243.997 188.68 242.897 188.7L209.927 189.034C208.794 189.057 207.699 189.444 206.804 190.137C205.908 190.831 205.261 191.794 204.956 192.883L204.137 195.52H249.171Z" fill="black" stroke="black" stroke-miterlimit="10" stroke-linecap="round"/>
<path d="M203.629 197.118L202.622 200.361H250.931L249.759 197.118H203.629Z" fill="black" stroke="black" stroke-miterlimit="10" stroke-linecap="round"/>
<path d="M287.474 141.169C287.474 141.169 288.486 133.264 290.298 133.264C292.11 133.264 300.243 135.496 300.445 137.118C300.648 138.739 298.822 140.563 297.198 140.967C295.574 141.371 292.124 141.78 292.124 141.78L291.343 144.821L287.474 141.169Z" fill="#A47864" stroke="black" stroke-miterlimit="10" stroke-linecap="round"/>
<path d="M165.27 141.169C165.27 141.169 164.253 133.264 162.446 133.264C160.638 133.264 152.501 135.496 152.298 137.118C152.096 138.739 153.922 140.563 155.546 140.967C157.17 141.371 160.62 141.78 160.62 141.78L161.429 144.821L165.27 141.169Z" fill="#A47864" stroke="black" stroke-miterlimit="10" stroke-linecap="round"/>
<path d="M170.748 136.507C170.748 136.507 249.919 133.466 281.383 136.507L267.579 111.39C267.579 111.39 231.85 106.93 185.367 111.592C185.367 111.573 175.827 126.576 170.748 136.507Z" fill="white" stroke="black" stroke-miterlimit="10" stroke-linecap="round"/>
<path d="M188.817 159.415C188.817 159.415 192.47 163.264 193.689 170.361C193.689 170.361 176.434 169.548 169.736 166.916C163.039 164.284 162.206 164.096 162.022 162.86C161.839 161.624 162.427 152.929 165.067 151.509C167.708 150.09 170.546 150.494 173.186 152.52C175.827 154.545 179.074 157.591 180.901 158.197C182.727 158.804 188.817 159.415 188.817 159.415Z" fill="white" stroke="black" stroke-miterlimit="10" stroke-linecap="round"/>
<path d="M175.6 163.363C177.458 161.507 177.458 158.499 175.6 156.643C173.742 154.787 170.729 154.787 168.871 156.643C167.012 158.499 167.012 161.507 168.871 163.363C170.729 165.219 173.742 165.219 175.6 163.363Z" fill="white" stroke="black" stroke-miterlimit="10" stroke-linecap="round"/>
<path d="M185.49 165.943C185.49 166.38 185.36 166.807 185.117 167.171C184.873 167.534 184.528 167.817 184.123 167.984C183.719 168.151 183.274 168.195 182.844 168.109C182.415 168.023 182.021 167.813 181.712 167.503C181.403 167.194 181.192 166.8 181.107 166.371C181.023 165.942 181.067 165.498 181.235 165.094C181.403 164.691 181.688 164.346 182.052 164.104C182.416 163.862 182.845 163.733 183.282 163.734C183.573 163.734 183.86 163.791 184.128 163.902C184.396 164.013 184.64 164.176 184.845 164.381C185.05 164.586 185.212 164.83 185.323 165.098C185.434 165.366 185.49 165.653 185.49 165.943Z" fill="white" stroke="black" stroke-miterlimit="10" stroke-linecap="round"/>
<path d="M264.515 159.415C264.515 159.415 260.858 163.264 259.639 170.361C259.639 170.361 276.893 169.548 283.595 166.916C290.298 164.284 291.126 164.096 291.31 162.86C291.493 161.624 290.9 152.929 288.264 151.509C285.629 150.09 282.781 150.494 280.141 152.52C277.5 154.545 274.257 157.591 272.431 158.197C270.605 158.804 264.515 159.415 264.515 159.415Z" fill="white" stroke="black" stroke-miterlimit="10" stroke-linecap="round"/>
<path d="M283.268 164.634C285.825 164.029 287.406 161.468 286.8 158.914C286.193 156.361 283.629 154.782 281.072 155.387C278.515 155.993 276.933 158.553 277.54 161.107C278.146 163.66 280.711 165.24 283.268 164.634Z" fill="white" stroke="black" stroke-miterlimit="10" stroke-linecap="round"/>
<path d="M268.92 165.943C268.92 166.38 269.05 166.807 269.293 167.171C269.536 167.534 269.882 167.817 270.287 167.984C270.691 168.151 271.136 168.195 271.565 168.109C271.995 168.023 272.389 167.813 272.698 167.503C273.007 167.194 273.218 166.8 273.302 166.371C273.387 165.942 273.343 165.498 273.175 165.094C273.006 164.691 272.722 164.346 272.358 164.104C271.993 163.862 271.565 163.733 271.127 163.734C270.837 163.734 270.55 163.791 270.282 163.902C270.014 164.013 269.77 164.176 269.565 164.381C269.36 164.586 269.197 164.83 269.087 165.098C268.976 165.366 268.919 165.653 268.92 165.943Z" fill="white" stroke="black" stroke-miterlimit="10" stroke-linecap="round"/>
<path d="M286.255 177.453C286.255 177.453 267.376 181.105 266.562 181.711C265.748 182.318 264.129 185.767 264.129 185.767L267.983 184.752C267.983 184.752 276.926 185.156 279.962 183.737C282.998 182.318 286.255 177.453 286.255 177.453Z" fill="black" stroke="black" stroke-miterlimit="10" stroke-linecap="round"/>
<path d="M167.91 177.453C167.91 177.453 186.789 181.105 187.598 181.711C188.408 182.318 190.036 185.767 190.036 185.767L186.177 184.752C186.177 184.752 177.234 185.156 174.203 183.737C171.172 182.318 167.91 177.453 167.91 177.453Z" fill="black" stroke="black" stroke-miterlimit="10" stroke-linecap="round"/>
<path d="M262.594 162.535L257.554 160.857H253.572" stroke="black" stroke-miterlimit="10" stroke-linecap="round"/>
<path d="M191.053 162.296L194.414 160.378L198.965 160.425" stroke="black" stroke-miterlimit="10" stroke-linecap="round"/>
<path d="M276.884 139.863C277.397 139.571 277.915 139.294 278.437 139.04" stroke="black" stroke-miterlimit="10" stroke-linecap="round"/>
<path d="M254.536 168.641C257.713 161.666 264.976 147.801 275.123 140.958" stroke="black" stroke-miterlimit="10" stroke-linecap="round"/>
<path d="M252.748 172.843C252.748 172.843 252.997 172.18 253.482 171.028" stroke="black" stroke-miterlimit="10" stroke-linecap="round"/>
<path d="M177.587 140.958C176.743 140.444 175.871 139.964 174.97 139.52" stroke="black" stroke-miterlimit="10" stroke-linecap="round"/>
<path d="M197.92 168.791C195.84 162.587 190.422 149.751 179.376 142.114" stroke="black" stroke-miterlimit="10" stroke-linecap="round"/>
<path d="M198.974 172.363C198.974 172.363 198.828 171.719 198.504 170.601" stroke="black" stroke-miterlimit="10" stroke-linecap="round"/>
<path d="M169.209 150.785C169.209 150.785 167.049 145.512 167.049 142.396L169.209 150.785Z" fill="white"/>
<path d="M169.209 150.785C169.209 150.785 167.049 145.512 167.049 142.396" stroke="black" stroke-miterlimit="10" stroke-linecap="round"/>
<path d="M284.678 150.546C285.261 148.34 285.662 146.091 285.878 143.82L284.678 150.546Z" fill="white"/>
<path d="M284.678 150.546C285.261 148.34 285.662 146.091 285.878 143.82" stroke="black" stroke-miterlimit="10" stroke-linecap="round"/>
<path d="M292.124 173.082L290.684 191.76L264.044 192.977C264.044 192.977 259.483 187.464 259.243 185.067C259.003 182.67 262.364 179.075 263.324 178.835C264.284 178.595 281.087 175.24 281.087 175.24" stroke="black" stroke-miterlimit="10" stroke-linecap="round"/>
<path d="M161.754 173.082L163.194 191.76L189.843 192.959C189.843 192.959 194.404 187.445 194.644 185.048C194.884 182.651 191.524 179.056 190.564 178.816C189.603 178.577 172.796 175.221 172.796 175.221" stroke="black" stroke-miterlimit="10" stroke-linecap="round"/>
<path d="M206.303 164.97L225.892 166.535C226.724 166.601 227.559 166.601 228.391 166.535L246.446 165.125" stroke="black" stroke-miterlimit="10" stroke-linecap="round"/>
<path d="M207.592 166.991L225.892 168.453C226.723 168.521 227.559 168.521 228.391 168.453L245.806 167.104" stroke="black" stroke-miterlimit="10" stroke-linecap="round"/>
<path d="M208.905 169.04L225.892 170.399C226.724 170.462 227.559 170.462 228.391 170.399L244.935 169.115" stroke="black" stroke-miterlimit="10" stroke-linecap="round"/>
<path d="M220.131 124.146C211.052 129.476 186.243 134.223 173.417 136.413C187.471 135.915 253.355 133.8 281.383 136.507L269.024 113.998C251.054 112.8 229.445 118.675 220.131 124.146Z" fill="#787878"/>
<path d="M170.748 136.507C170.748 136.507 249.919 133.466 281.383 136.507L267.579 111.39C267.579 111.39 231.85 106.93 185.367 111.592C185.367 111.573 175.827 126.576 170.748 136.507Z" stroke="black" stroke-miterlimit="10" stroke-linecap="round"/>
<path d="M195.449 139.628C195.449 139.628 195.92 141.014 199.619 144.487C203.319 147.961 206.34 143.101 210.284 141.014C214.229 138.927 209.588 137.08 223.727 147.265C237.865 157.45 244.121 159.532 249.684 153.511C255.247 147.491 263.126 138.471 266.835 140.553C270.544 142.636 272.864 146.569 276.107 146.569C279.35 146.569 283.525 140.088 283.525 140.088" stroke="white" stroke-miterlimit="10" stroke-linecap="round"/>
<path d="M195.449 140.784C195.449 140.784 195.92 142.194 199.619 145.644C203.319 149.093 206.34 144.257 210.284 142.175C214.229 140.093 209.588 138.236 223.727 148.421C237.865 158.606 244.121 160.688 249.684 154.672C255.247 148.656 263.126 139.632 266.835 141.71C270.544 143.787 272.864 147.726 276.107 147.726C279.35 147.726 283.525 141.249 283.525 141.249" stroke="black" stroke-miterlimit="10" stroke-linecap="round"/>
<path d="M164.611 145.987C164.611 145.987 157.273 152.966 157.447 158.55C157.622 164.133 162.691 165.007 163.566 169.021C164.441 173.035 173.177 175.653 181.739 173.383C190.3 171.113 193.976 173.383 196.593 178.083C199.21 182.783 203.577 183.154 207.093 181.42" stroke="black" stroke-miterlimit="10" stroke-linecap="round"/>
<path d="M165.486 145.113C165.486 145.113 158.144 152.097 158.323 157.68C158.502 163.264 163.561 164.133 164.441 168.147C165.322 172.161 174.048 174.779 182.619 172.49C191.189 170.201 194.856 172.49 197.473 177.19C200.09 181.89 204.462 182.247 207.955 180.504" stroke="white" stroke-miterlimit="10" stroke-linecap="round"/>
<path d="M293.395 154.536C293.395 154.536 291.823 166.756 287.107 169.021C282.391 171.287 262.99 173.035 258.448 176.175C253.906 179.314 253.741 186.12 253.741 186.12" stroke="white" stroke-miterlimit="10" stroke-linecap="round"/>
<path d="M293.395 155.57C293.395 155.57 291.813 167.79 287.107 170.07C282.4 172.349 262.99 174.079 258.448 177.223C253.906 180.367 253.741 187.168 253.741 187.168" stroke="black" stroke-miterlimit="10" stroke-linecap="round"/>
<path d="M230.495 110.187C230.495 110.187 233.272 109.717 234.905 114.097C236.538 118.478 239.475 129.1 244.375 129.259C249.274 129.419 250.089 119.803 252.847 115.893C255.605 111.982 260.848 112.795 263.945 115.423" stroke="white" stroke-miterlimit="10" stroke-linecap="round"/>
<path d="M230.33 111.164C230.33 111.164 233.107 110.694 234.74 115.075C236.373 119.455 239.31 130.077 244.21 130.237C249.11 130.397 249.924 120.79 252.701 116.87C255.478 112.95 260.702 113.773 263.804 116.4" stroke="black" stroke-miterlimit="10" stroke-linecap="round"/>
<path d="M170.245 144.708C170.245 144.708 172.382 146.203 175.163 149.62C177.945 153.037 179.009 151.326 180.293 148.764C181.578 146.203 184.567 151.754 187.132 155.598C189.697 159.443 190.342 160.082 190.771 157.948" stroke="white" stroke-miterlimit="10" stroke-linecap="round"/>
<path d="M170.16 145.55C170.16 145.55 172.297 147.044 175.079 150.456C177.86 153.869 178.924 152.167 180.209 149.606C181.494 147.044 184.482 152.595 187.052 156.435C189.622 160.275 190.258 160.919 190.686 158.785" stroke="black" stroke-miterlimit="10" stroke-linecap="round"/>
</svg>
