<svg width="269" height="179" viewBox="0 0 269 179" fill="none" xmlns="http://www.w3.org/2000/svg">
<path d="M246.21 63.964C246.65 64.4493 246.987 65.018 247.201 65.6362C247.416 66.2543 247.503 66.9092 247.458 67.5619C247.361 68.8684 246.963 70.1349 246.296 71.2636C245.077 73.476 242.796 75.2732 240.608 76.5441C239.353 74.0381 240.127 70.8769 240.608 69.3017C241.386 66.7957 244.313 62.7754 246.196 63.964" fill="#EBEBEB"/>
<path d="M241.307 81.3056C241.447 80.5877 241.774 79.9195 242.256 79.3688C242.738 78.818 243.357 78.4042 244.051 78.1695C244.747 77.9451 245.481 77.8611 246.21 77.9226C246.939 77.9841 247.649 78.1897 248.298 78.5275C248.9 78.8282 249.496 79.2864 249.643 79.9595C249.69 80.2715 249.654 80.5904 249.538 80.8841C249.422 81.1777 249.23 81.4355 248.983 81.6313C248.48 82.0185 247.883 82.2656 247.254 82.3473C245.102 82.7053 242.989 82.6767 241.307 81.3163" fill="#EBEBEB"/>
<path d="M235.87 87.388C235.946 87.2315 236.034 87.0818 236.136 86.9405L236.903 85.7519C237.563 84.7639 238.474 83.3354 239.93 82.1719C241.15 81.1634 242.617 80.4985 244.18 80.2459C244.655 80.1763 245.137 80.1643 245.615 80.2101C245.744 80.2204 245.872 80.2383 245.999 80.2638C246.089 80.2638 246.132 80.2889 246.132 80.296C245.49 80.2575 244.846 80.2839 244.209 80.3748C242.675 80.6669 241.241 81.3432 240.041 82.3402C238.607 83.4679 237.696 84.8677 237.011 85.8379C236.67 86.3283 236.394 86.7257 236.193 86.9942C236.099 87.1358 235.99 87.2677 235.87 87.388Z" fill="#E0E0E0"/>
<path d="M244.252 67.2324C244.237 67.3068 244.215 67.3799 244.188 67.4508L243.98 68.063C243.793 68.5964 243.513 69.3589 243.162 70.3005C242.444 72.1836 241.444 74.7719 240.264 77.6037C239.084 80.4355 237.958 82.9737 237.115 84.8066C236.695 85.7195 236.347 86.4534 236.103 86.9546C235.985 87.1909 235.888 87.3842 235.816 87.5346C235.785 87.6036 235.748 87.6695 235.705 87.7315C235.722 87.6585 235.747 87.5876 235.78 87.5203C235.849 87.3663 235.931 87.1623 236.039 86.9224L236.996 84.7458C237.807 82.9057 238.915 80.3603 240.095 77.5285C241.275 74.6967 242.305 72.1191 243.04 70.2468L243.911 68.0308C244.012 67.7873 244.091 67.5868 244.155 67.4329C244.18 67.3627 244.212 67.2954 244.252 67.2324Z" fill="#E0E0E0"/>
<path d="M237.341 81.3305C237.684 79.8268 237.664 78.2629 237.281 76.7686C236.898 75.2743 236.163 73.8927 235.138 72.7385C234.615 72.155 233.844 71.6037 233.105 71.8686C232.366 72.1335 232.129 73.0536 232.115 73.8376C232.113 75.4739 232.596 77.0741 233.504 78.4368C234.411 79.7994 235.703 80.8636 237.215 81.4952" fill="#EBEBEB"/>
<path d="M234.568 75.0762C234.695 75.1822 234.809 75.3023 234.909 75.4342C235.039 75.5724 235.158 75.7195 235.267 75.8745C235.4 76.0571 235.565 76.2504 235.712 76.4938C235.883 76.7504 236.039 77.0157 236.182 77.2886C236.352 77.5982 236.504 77.9173 236.638 78.2445C236.944 78.9976 237.163 79.7831 237.29 80.5858C237.405 81.3897 237.427 82.2042 237.355 83.013C237.322 83.3656 237.268 83.7159 237.194 84.062C237.134 84.3648 237.056 84.6637 236.96 84.957C236.888 85.2 236.803 85.439 236.706 85.673C236.639 85.8524 236.56 86.0271 236.469 86.1957C236.406 86.3462 236.328 86.4901 236.236 86.6253C236.196 86.6253 236.53 85.9916 236.838 84.9176C236.923 84.6268 236.991 84.3316 237.043 84.0333C237.109 83.6913 237.157 83.3459 237.186 82.9987C237.249 82.2024 237.224 81.4016 237.111 80.6108C236.983 79.8237 236.773 79.0521 236.483 78.3089C236.34 77.9688 236.207 77.6466 236.049 77.3566C235.914 77.0842 235.764 76.8189 235.601 76.5619C234.998 75.6096 234.518 75.1012 234.568 75.0762Z" fill="#E0E0E0"/>
<path d="M23.3349 41.6498C23.3349 41.6498 20.0352 42.7238 23.2345 49.7764C26.4338 56.829 28.7185 60.366 28.7185 60.366C28.7185 60.366 29.2672 61.9949 27.9043 62.1811C26.5414 62.3673 23.6003 61.7551 22.9117 63.3768C22.1943 65.0558 23.3779 66.7277 25.8348 68.2635C28.2917 69.7993 33.5533 73.3543 34.0268 73.6765C34.5002 73.9987 34.9378 74.7505 34.0268 75.0369C33.1157 75.3233 26.3979 75.6956 26.7709 78.8675C27.1439 82.0394 34.6975 85.2041 35.508 85.5621C36.3186 85.9201 36.5087 86.2781 36.4191 86.7363C36.3294 87.1946 34.059 87.0943 32.1509 87.2948C30.2428 87.4953 28.0657 88.0323 28.4351 89.8438C28.8046 91.6552 33.1767 95.6326 44.1734 97.2293L49.3167 97.6374L52.3223 93.4238C58.2117 84.0191 57.9964 78.1193 56.8523 76.6658C55.7082 75.2123 53.8754 76.5154 52.5017 77.8472C51.128 79.1789 49.7184 80.9618 49.3167 80.7362C48.915 80.5107 48.7536 80.1384 49.0047 79.2828C49.2557 78.4271 51.7341 70.6406 49.5498 68.3065C47.3656 65.9723 42.7352 70.8411 41.9318 71.3566C41.1284 71.8722 40.8378 71.0344 40.8952 70.4724C40.9526 69.9103 41.6341 63.5988 42.0501 60.7348C42.4662 57.8708 41.9461 55.9018 40.2066 55.3648C38.528 54.8349 37.0862 57.477 36.064 58.3935C35.0418 59.3099 34.1523 57.8386 34.1523 57.8386C34.1523 57.8386 32.9292 53.8218 29.6008 46.8193C26.2724 39.8168 23.2632 41.7035 23.2632 41.7035" fill="#EBEBEB"/>
<path d="M49.5318 98.8511C47.1072 93.6959 42.9539 84.4667 39.3457 76.562C35.7375 68.6574 32.4665 61.5046 30.067 56.3422L27.2228 50.2276L26.4516 48.5664L26.2543 48.1297C26.2273 48.0787 26.2033 48.0261 26.1826 47.9722C26.1826 47.9722 26.2113 48.0187 26.2615 48.1154L26.4731 48.545C26.6561 48.928 26.9251 49.4829 27.273 50.1954C27.9652 51.6274 28.9515 53.7073 30.1638 56.2814C32.5884 61.433 35.8774 68.5786 39.4892 76.4833C43.1009 84.3879 47.2363 93.6386 49.6358 98.8082" fill="#E0E0E0"/>
<path d="M27.0076 64.3972C27.1306 64.4251 27.2507 64.4647 27.3662 64.5154C27.5886 64.5977 27.9114 64.7302 28.3059 64.8948C29.095 65.2278 30.1746 65.7147 31.3582 66.2731L34.3782 67.7051L35.2964 68.1347C35.4116 68.1813 35.5221 68.2388 35.6263 68.3066C35.5024 68.2836 35.3819 68.2451 35.2677 68.192C35.0417 68.1097 34.7225 67.9772 34.328 67.809C33.5389 67.451 32.4665 66.9677 31.2865 66.4092L28.2557 64.9772L27.3375 64.5512C27.2221 64.5124 27.1114 64.4608 27.0076 64.3972Z" fill="#E0E0E0"/>
<path d="M35.9885 68.02C35.9491 68.02 36.8565 65.736 38.015 62.9615C39.1735 60.187 40.167 57.9495 40.1885 57.9495C40.2101 57.9495 39.3241 60.2335 38.1621 63.0116C37 65.7897 36.0316 68.02 35.9885 68.02Z" fill="#E0E0E0"/>
<path d="M40.9812 80.389C41.0455 80.2798 41.1213 80.1778 41.2072 80.0847C41.3793 79.8663 41.5981 79.5978 41.8563 79.2792C42.4015 78.599 43.1547 77.6538 43.9474 76.5834C44.74 75.513 45.4251 74.5249 45.9165 73.8018L46.4975 72.9461C46.5633 72.838 46.6389 72.7361 46.7235 72.6418C46.6803 72.7614 46.6212 72.8746 46.5477 72.9784C46.4258 73.1932 46.2428 73.4939 46.0097 73.8626C45.5434 74.6037 44.8727 75.6097 44.0729 76.6801C43.2731 77.7505 42.5127 78.6885 41.9424 79.3508C41.6555 79.6801 41.4224 79.945 41.2538 80.124C41.1741 80.2231 41.0826 80.3121 40.9812 80.389Z" fill="#E0E0E0"/>
<path d="M32.1365 78.9176C32.2565 78.9098 32.377 78.917 32.4951 78.9391L33.4456 79.0573C34.2454 79.1682 35.3501 79.3293 36.5696 79.5155C37.7891 79.7017 38.8902 79.8735 39.6864 80.0167L40.6297 80.1885C40.7462 80.202 40.8607 80.2296 40.9704 80.2709C40.8505 80.2787 40.7299 80.2715 40.6118 80.2494L39.6649 80.1313C38.8615 80.0203 37.7568 79.8592 36.5373 79.673C35.3178 79.4869 34.2167 79.315 33.4205 79.1718L32.4808 79C32.3633 78.9854 32.2478 78.9578 32.1365 78.9176Z" fill="#E0E0E0"/>
<path d="M35.1494 90.4131C35.2996 90.4093 35.4497 90.4201 35.5977 90.4453L36.8172 90.5957C37.843 90.7281 39.2597 90.9214 40.8235 91.147C42.3873 91.3725 43.804 91.5837 44.8262 91.7484L46.0385 91.9453C46.1879 91.9657 46.3355 91.998 46.4797 92.042C46.3284 92.0458 46.177 92.035 46.0278 92.0098L44.8119 91.8594C43.7861 91.7269 42.3658 91.53 40.802 91.3045C39.2382 91.079 37.8215 90.8677 36.7993 90.7066L35.5906 90.5062C35.4409 90.4889 35.2932 90.4578 35.1494 90.4131Z" fill="#E0E0E0"/>
<path d="M46.2214 91.9274C46.3015 91.7871 46.394 91.6541 46.4976 91.53C46.6985 91.2579 46.9639 90.9071 47.2831 90.4811C47.9466 89.5932 48.8576 88.3653 49.826 86.9798C50.7944 85.5944 51.6409 84.3199 52.2435 83.3998L52.9608 82.3008C53.042 82.1623 53.1344 82.0306 53.237 81.907C53.1743 82.0553 53.0987 82.1979 53.011 82.333C52.8568 82.6015 52.6272 82.9881 52.3367 83.4571C51.7557 84.4022 50.9236 85.691 49.9516 87.0765C48.9796 88.462 48.0578 89.6863 47.3692 90.5563C47.0105 90.9894 46.7415 91.3403 46.5406 91.5766C46.4458 91.7035 46.3389 91.821 46.2214 91.9274Z" fill="#E0E0E0"/>
<path d="M130.006 84.0048C120.817 79.3902 117.359 68.8578 116.283 59.0987C116.104 57.4698 115.677 55.7872 116.244 54.255C116.811 52.7227 118.471 51.4876 120.024 51.9638C121.312 52.354 122.04 53.6786 122.894 54.7383C124.018 56.154 125.522 57.2227 127.23 57.8207C128.342 58.2073 129.669 58.3505 130.608 57.6417C131.896 56.6679 131.781 54.7132 131.537 53.1022C131.083 50.0974 130.629 47.095 130.174 44.0949C129.931 42.4839 129.69 40.8407 129.97 39.2369C130.25 37.6331 131.154 36.0543 132.628 35.4027C134.102 34.7512 136.132 35.3598 136.684 36.892C136.914 37.5292 136.878 38.2309 137.021 38.8932C137.165 39.5555 137.581 40.25 138.244 40.3467C138.908 40.4433 139.5 39.892 139.912 39.3479C141.347 37.4827 142.172 35.2201 142.929 32.9826C143.685 30.7451 144.399 28.4611 145.654 26.467C146.91 24.473 148.8 22.7653 151.092 22.2999C153.384 21.8345 156.059 22.9049 156.97 25.0887C157.881 27.2725 156.892 29.775 155.712 31.8227C153.969 34.8642 151.795 37.6377 149.256 40.0567C148.796 40.4899 148.301 40.9589 148.18 41.5854C147.986 42.7095 149.159 43.6295 150.274 43.83C151.537 44.0556 152.824 43.7441 154.105 43.7083C155.385 43.6725 156.831 44.0341 157.48 45.1403C158.38 46.694 157.25 48.6201 156.045 49.9482C153.653 52.6066 150.82 54.8337 147.67 56.5319C146.544 57.1369 145.35 57.6989 144.51 58.6799C143.671 59.6608 143.305 61.1859 144.048 62.2348C144.79 63.2837 146.329 63.4377 147.541 63.026C148.753 62.6143 149.768 61.7801 150.891 61.1644C152.989 60.008 155.876 59.7324 157.577 61.4544C158.692 62.5785 159.029 64.3184 158.775 65.89C158.52 67.4616 157.749 68.8864 156.902 70.2254C153.947 74.9044 149.88 78.9176 144.987 81.4415C140.095 83.9654 135.397 85.1361 130.009 84.0084" fill="#F5F5F5"/>
<path d="M131.631 77.5537C132.482 72.031 133.648 66.5614 135.124 61.1716L136.265 56.9222C136.641 55.5295 137.014 54.1477 137.463 52.8195C138.328 50.2692 139.335 47.7689 140.479 45.3301C141.555 42.996 142.656 40.8193 143.707 38.7895C144.758 36.7596 145.78 34.8909 146.777 33.2262C148.342 30.5913 150.113 28.0846 152.075 25.7296C152.767 24.8955 153.327 24.2654 153.71 23.8466L154.148 23.3704C154.196 23.3133 154.249 23.2606 154.306 23.2129C154.268 23.2761 154.224 23.3349 154.173 23.3883L153.753 23.8859C153.395 24.3191 152.842 24.9599 152.165 25.8048C150.243 28.1778 148.503 30.6908 146.957 33.3228C145.97 34.9911 144.966 36.8634 143.926 38.8933C142.886 40.9232 141.792 43.1034 140.727 45.434C139.591 47.8714 138.59 50.3692 137.728 52.9161C137.283 54.2407 136.914 55.6083 136.537 57.0045C136.161 58.4007 135.788 59.8184 135.404 61.2504C133.929 66.6294 132.756 72.0867 131.893 77.5967" fill="#E0E0E0"/>
<path d="M137.545 52.798C137.435 52.5862 137.348 52.3629 137.287 52.1322C137.14 51.699 136.928 51.0582 136.713 50.2813C136.254 48.7061 135.691 46.5152 135.081 44.0951C134.471 41.675 133.876 39.4948 133.395 37.9339C133.155 37.1535 132.954 36.5234 132.811 36.0902C132.722 35.8685 132.657 35.6381 132.617 35.4028C132.742 35.6054 132.843 35.8216 132.918 36.0472C133.098 36.4697 133.327 37.0926 133.596 37.8695C134.131 39.416 134.758 41.5962 135.372 44.0199L136.918 50.224C137.106 50.9687 137.268 51.594 137.402 52.0999C137.476 52.3264 137.524 52.5606 137.545 52.798Z" fill="#E0E0E0"/>
<path d="M157.749 45.928C157.485 46.0261 157.212 46.0992 156.934 46.1464C156.411 46.2717 155.647 46.4471 154.714 46.6941C152.842 47.1738 150.278 47.9256 147.487 48.8779C144.697 49.8302 142.208 50.8147 140.429 51.5701C139.536 51.9281 138.822 52.2646 138.327 52.483C138.077 52.6127 137.815 52.7182 137.545 52.798C137.77 52.6351 138.01 52.4937 138.262 52.3756C138.743 52.125 139.446 51.7741 140.328 51.3732C142.093 50.5641 144.578 49.5545 147.376 48.5915C149.763 47.7653 152.19 47.0627 154.65 46.4865C155.593 46.2645 156.364 46.1285 156.899 46.0318C157.178 45.9698 157.463 45.9351 157.749 45.928Z" fill="#E0E0E0"/>
<path d="M131.835 77.1347C131.765 77.0668 131.705 76.9897 131.656 76.9056C131.53 76.7159 131.38 76.4832 131.193 76.1896C130.791 75.581 130.236 74.686 129.565 73.5726C128.22 71.3423 126.459 68.2026 124.561 64.7121C122.664 61.2216 120.932 58.0856 119.633 55.8481L118.091 53.1845L117.675 52.4685C117.621 52.3862 117.577 52.2971 117.546 52.2036C117.616 52.2723 117.677 52.3506 117.725 52.4363L118.188 53.1523C118.59 53.7609 119.146 54.6559 119.816 55.7729C121.161 58.0032 122.926 61.1429 124.838 64.6334C126.749 68.1239 128.464 71.2707 129.762 73.5261L131.304 76.1932C131.473 76.4832 131.609 76.7266 131.72 76.9092C131.767 76.9797 131.806 77.0554 131.835 77.1347Z" fill="#E0E0E0"/>
<path d="M158.143 64.2791C158.064 64.3398 157.977 64.3904 157.885 64.4294L157.125 64.7982L154.309 66.18C151.931 67.3507 148.664 69.0011 145.059 70.834C141.454 72.667 138.165 74.2852 135.762 75.4057C134.561 75.9642 133.585 76.4081 132.893 76.7016L132.108 77.031C132.019 77.0777 131.923 77.1103 131.824 77.1277C131.904 77.068 131.991 77.0175 132.082 76.9773L132.843 76.5942L135.662 75.2124C138.04 74.0453 141.304 72.3949 144.912 70.5584C148.52 68.7218 151.802 67.1073 154.205 65.9867C155.407 65.4282 156.382 64.9843 157.074 64.6908L157.86 64.3614C157.95 64.3197 158.045 64.2919 158.143 64.2791Z" fill="#E0E0E0"/>
<path d="M203.802 39.9707C203.802 34.1282 197.654 30.43 191.385 33.3549C189.968 34.0181 188.809 35.1275 188.085 36.5125C186.51 39.5626 187.206 43.0424 188.637 45.935L193.515 58.2753C193.669 58.6689 193.938 59.007 194.287 59.2454C194.637 59.4838 195.05 59.6114 195.473 59.6114C195.897 59.6114 196.31 59.4838 196.66 59.2454C197.009 59.007 197.278 58.6689 197.432 58.2753L202.216 45.867C203.87 42.0758 203.802 39.9707 203.802 39.9707ZM197.912 45.0543C193.698 47.4995 189.426 42.9779 191.736 38.5173C192.038 37.9222 192.503 37.4254 193.078 37.0853C197.292 34.6401 201.56 39.1617 199.25 43.6223C198.95 44.2172 198.486 44.714 197.912 45.0543Z" fill="#F5F5F5"/>
<path d="M254.653 158.981C254.653 159.034 200.853 159.074 134.521 159.074C68.1897 159.074 14.3682 159.034 14.3682 158.981C14.3682 158.927 68.1466 158.887 134.521 158.887C200.896 158.887 254.653 158.93 254.653 158.981Z" fill="#263238"/>
<path d="M116.265 158.981L68.5915 158.762C65.8391 158.745 63.2057 157.64 61.2682 155.689C59.3307 153.737 58.247 151.099 58.2547 148.352L58.7604 29.0553C58.7765 26.3068 59.8839 23.6768 61.8398 21.7421C63.7957 19.8073 66.4404 18.7256 69.194 18.7342L116.868 18.9526C119.619 18.9696 122.251 20.0739 124.189 22.0237C126.126 23.9735 127.21 26.61 127.205 29.356L126.699 148.652C126.685 151.402 125.578 154.034 123.622 155.97C121.666 157.907 119.02 158.989 116.265 158.981Z" fill="#455A64"/>
<path d="M116.8 23.0695L107.557 23.0266C106.948 23.0379 106.369 23.2896 105.946 23.7264C105.523 24.1633 105.291 24.7497 105.301 25.3572V27.0326C105.306 27.3333 105.251 27.632 105.14 27.9116C105.029 28.1912 104.864 28.4462 104.654 28.662C104.444 28.8778 104.194 29.0502 103.917 29.1693C103.64 29.2884 103.343 29.3518 103.041 29.356L85.022 29.2737C84.4137 29.2559 83.8373 28.9985 83.4186 28.5578C82.9999 28.117 82.773 27.5288 82.7875 26.9216V25.2462C82.7981 24.643 82.5704 24.0599 82.1535 23.623C81.7367 23.1862 81.1643 22.9308 80.5602 22.912H77.3106L69.2227 22.8512C67.2942 22.8416 65.4408 23.597 64.0701 24.951C62.6994 26.3051 61.9235 28.1471 61.9131 30.072L61.4217 146.515C61.4131 148.44 62.1708 150.29 63.528 151.657C64.8853 153.025 66.7311 153.798 68.6596 153.808L116.24 154.026C117.196 154.03 118.142 153.847 119.026 153.486C119.91 153.125 120.715 152.593 121.393 151.922C122.072 151.251 122.611 150.453 122.98 149.574C123.35 148.695 123.542 147.751 123.546 146.798L124.038 30.3584C124.042 29.4055 123.858 28.461 123.497 27.579C123.135 26.6969 122.603 25.8946 121.931 25.2177C121.259 24.5409 120.46 24.0028 119.58 23.6342C118.699 23.2656 117.755 23.0738 116.8 23.0695Z" fill="#FAFAFA"/>
<path d="M61.8557 44.052H69.6531L76.6113 51.0008L69.3769 58.2216L61.9382 50.7931L61.8557 44.052Z" fill="#EBEBEB"/>
<path d="M78.2 47.9506L74.2905 44.052H83.085L78.2 47.9506Z" fill="#EBEBEB"/>
<path d="M81.6182 51.1367L88.4651 44.3025H112.388C112.388 44.3025 116.05 60.6273 101.628 71.1095L81.6182 51.1367Z" fill="#EBEBEB"/>
<path d="M78.6877 53.3135L71.3638 60.6274L91.632 80.858L98.956 73.3006L78.6877 53.3135Z" fill="#EBEBEB"/>
<path d="M61.7661 64.773L66.357 60.0188L61.8558 55.5259L61.7661 64.773Z" fill="#EBEBEB"/>
<path d="M69.1044 62.8218L62.053 69.8601V79.6406L76.6113 94.5084L88.9458 83.0524L69.1044 62.8218Z" fill="#EBEBEB"/>
<path d="M104.372 73.1609C104.372 73.1609 119.479 62.1058 114.594 44.3025H123.988L123.873 94.5514L104.372 73.1609Z" fill="#EBEBEB"/>
<path d="M101.531 76.0608L94.229 83.6719L116.624 106.029L123.475 98.783L101.531 76.0608Z" fill="#EBEBEB"/>
<path d="M91.1767 85.7554L79.6958 97.1326L102.658 119.891L114.117 108.832L91.1767 85.7554Z" fill="#EBEBEB"/>
<path d="M85.1582 142.76L102.711 124.602L119.407 141.589L85.1582 142.76Z" fill="#EBEBEB"/>
<path d="M105.448 122.257L123.74 104.178C123.74 104.98 123.582 141.664 123.582 141.664L105.448 122.257Z" fill="#EBEBEB"/>
<path d="M89.7995 112.104L100.169 122.454L79.6958 143.54L70.2378 132.217L89.7995 112.104Z" fill="#EBEBEB"/>
<path d="M61.7839 133.684C62.7631 133.588 87.8375 110.15 87.8375 110.15L61.7839 83.2029V133.684Z" fill="#EBEBEB"/>
<path d="M61.4216 139.026L67.458 133.684L75.8185 143.54H61.4216V139.77" fill="#EBEBEB"/>
<path d="M69.2225 36.9564C68.5846 36.4866 67.9849 35.967 67.4292 35.4027C67.4292 35.1306 67.4292 35.3275 67.4292 35.2666L67.4543 35.2451L67.4973 35.2058L67.587 35.1234L67.7592 34.9623L68.0856 34.6616L68.6487 34.1604C68.8192 33.9865 69.0122 33.836 69.2225 33.7129C69.0946 33.9076 68.9401 34.0835 68.7634 34.2356L68.2254 34.7654L67.9062 35.0733L67.7341 35.238L67.648 35.3203L67.6014 35.3597L67.5798 35.3812V35.2451C68.1712 35.772 68.7204 36.3442 69.2225 36.9564Z" fill="#263238"/>
<path d="M118.808 34.2248C118.809 34.3023 118.787 34.3782 118.744 34.4429C118.701 34.5076 118.64 34.5582 118.569 34.5882C118.497 34.6182 118.418 34.6262 118.342 34.6113C118.266 34.5963 118.196 34.5591 118.141 34.5043C118.086 34.4495 118.049 34.3796 118.034 34.3036C118.019 34.2276 118.027 34.1488 118.057 34.0774C118.087 34.0059 118.138 33.945 118.202 33.9024C118.267 33.8598 118.343 33.8374 118.421 33.8382C118.524 33.8382 118.622 33.8789 118.695 33.9514C118.767 34.0239 118.808 34.1222 118.808 34.2248Z" fill="#263238"/>
<path d="M118.697 35.2881C118.752 35.3427 118.789 35.4122 118.805 35.4879C118.82 35.5636 118.812 35.6421 118.782 35.7135C118.753 35.7848 118.703 35.8458 118.638 35.8887C118.574 35.9316 118.499 35.9545 118.421 35.9545C118.344 35.9545 118.268 35.9316 118.204 35.8887C118.14 35.8458 118.09 35.7848 118.06 35.7135C118.03 35.6421 118.023 35.5636 118.038 35.4879C118.053 35.4122 118.09 35.3427 118.145 35.2881C118.219 35.216 118.318 35.1755 118.421 35.1755C118.524 35.1755 118.624 35.216 118.697 35.2881Z" fill="#263238"/>
<path d="M118.808 36.899C118.799 36.9956 118.754 37.0852 118.682 37.1505C118.61 37.2157 118.516 37.2519 118.419 37.2519C118.322 37.2519 118.228 37.2157 118.156 37.1505C118.084 37.0852 118.039 36.9956 118.03 36.899C118.025 36.8448 118.031 36.7902 118.048 36.7386C118.065 36.687 118.093 36.6395 118.13 36.5993C118.167 36.559 118.211 36.5268 118.261 36.5048C118.311 36.4828 118.365 36.4714 118.419 36.4714C118.474 36.4714 118.528 36.4828 118.577 36.5048C118.627 36.5268 118.672 36.559 118.709 36.5993C118.745 36.6395 118.773 36.687 118.79 36.7386C118.807 36.7902 118.814 36.8448 118.808 36.899Z" fill="#263238"/>
<path d="M102.001 35.8108H85.2227V37.207H102.001V35.8108Z" fill="#263238"/>
<path d="M100.176 60.86C100.176 54.3372 93.311 50.2059 86.3098 53.4745C84.7256 54.2131 83.4297 55.4525 82.6227 57.0008C80.8617 60.4053 81.64 64.2932 83.236 67.5224L88.6878 81.309C88.8599 81.7483 89.1608 82.1255 89.5511 82.3915C89.9414 82.6574 90.4031 82.7997 90.8756 82.7997C91.3482 82.7997 91.8098 82.6574 92.2002 82.3915C92.5905 82.1255 92.8914 81.7483 93.0635 81.309L98.4041 67.4508C100.255 63.2264 100.176 60.86 100.176 60.86ZM93.6123 66.5522C88.9066 69.2837 84.1363 64.2359 86.7151 59.2526C87.0549 58.5954 87.5732 58.047 88.2108 57.6702C92.92 54.9387 97.6903 59.9865 95.1079 64.9698C94.7696 65.628 94.2509 66.1768 93.6123 66.5522Z" fill="#A47864"/>
<path d="M242.843 110.665H43.8472V139.81H242.843V110.665Z" fill="#A47864"/>
<g opacity="0.5">
<path d="M242.843 110.665H43.8472V139.81H242.843V110.665Z" fill="black"/>
</g>
<path d="M71.878 158.721C82.4516 158.011 90.4465 148.879 89.7349 138.325C89.0233 127.771 79.8748 119.791 69.3011 120.502C58.7274 121.212 50.7326 130.343 51.4442 140.897C52.1557 151.451 61.3043 159.431 71.878 158.721Z" fill="#263238"/>
<path d="M51.4041 139.287C51.4041 139.305 51.4041 139.323 51.4041 139.337C51.3676 141.852 51.8278 144.35 52.7584 146.688C53.689 149.025 55.0718 151.157 56.8278 152.961C58.5838 154.766 60.6787 156.207 62.9928 157.203C65.3069 158.2 67.7949 158.731 70.3148 158.767C72.8347 158.804 75.3371 158.345 77.6792 157.416C80.0212 156.487 82.157 155.107 83.9647 153.354C85.7723 151.601 87.2164 149.51 88.2144 147.2C89.2125 144.89 89.7449 142.407 89.7814 139.892C89.7814 139.874 89.7814 139.856 89.7814 139.842L51.4041 139.287Z" fill="#263238"/>
<path d="M57.1177 139.419C57.0782 142.079 57.8299 144.69 59.2775 146.924C60.7252 149.157 62.8038 150.911 65.2505 151.965C67.6972 153.019 70.402 153.324 73.0229 152.844C75.6437 152.363 78.0629 151.117 79.9743 149.264C81.8857 147.41 83.2035 145.033 83.7611 142.432C84.3186 139.831 84.0909 137.124 83.1066 134.652C82.1223 132.18 80.4257 130.055 78.2315 128.546C76.0372 127.037 73.4438 126.211 70.7793 126.173C67.2082 126.123 63.763 127.49 61.2012 129.974C58.6394 132.457 57.1706 135.855 57.1177 139.419Z" fill="#FAFAFA"/>
<path d="M70.7793 126.17C67.2079 126.118 63.7622 127.485 61.2001 129.969C58.6381 132.453 57.1696 135.851 57.1177 139.416L84.0571 139.806C84.1079 136.24 82.7375 132.801 80.2475 130.243C77.7574 127.686 74.3516 126.221 70.7793 126.17Z" fill="#E0E0E0"/>
<path d="M62.383 139.495C62.359 141.115 62.817 142.705 63.6989 144.066C64.5808 145.426 65.8472 146.495 67.3377 147.136C68.8281 147.778 70.4759 147.964 72.0724 147.671C73.6689 147.378 75.1425 146.619 76.3068 145.49C77.4711 144.361 78.2737 142.913 78.6132 141.328C78.9527 139.744 78.8138 138.095 78.214 136.589C77.6143 135.083 76.5806 133.789 75.2438 132.87C73.907 131.951 72.3272 131.448 70.704 131.425C69.6268 131.41 68.5571 131.606 67.5559 132.003C66.5547 132.4 65.6416 132.99 64.8689 133.739C64.0962 134.489 63.479 135.383 63.0524 136.37C62.6259 137.358 62.3984 138.419 62.383 139.495Z" fill="#263238"/>
<path d="M218.438 158.714C229.017 158.102 237.097 149.044 236.483 138.484C235.869 127.924 226.795 119.86 216.215 120.473C205.635 121.085 197.556 130.142 198.17 140.703C198.784 151.263 207.858 159.327 218.438 158.714Z" fill="#263238"/>
<path d="M198.135 139.287C198.135 139.305 198.135 139.323 198.135 139.337C198.098 141.852 198.559 144.35 199.489 146.688C200.42 149.025 201.802 151.157 203.559 152.961C205.315 154.766 207.409 156.207 209.723 157.203C212.038 158.2 214.526 158.731 217.046 158.767C219.565 158.804 222.068 158.345 224.41 157.416C226.752 156.487 228.888 155.107 230.695 153.354C232.503 151.601 233.947 149.51 234.945 147.2C235.943 144.89 236.476 142.407 236.512 139.892C236.512 139.874 236.512 139.856 236.512 139.842L198.135 139.287Z" fill="#263238"/>
<path d="M203.848 139.419C203.809 142.079 204.56 144.69 206.008 146.924C207.456 149.157 209.534 150.911 211.981 151.965C214.428 153.019 217.132 153.324 219.753 152.844C222.374 152.363 224.793 151.117 226.705 149.264C228.616 147.41 229.934 145.033 230.492 142.432C231.049 139.831 230.821 137.124 229.837 134.652C228.853 132.18 227.156 130.055 224.962 128.546C222.768 127.037 220.174 126.211 217.51 126.173C213.939 126.123 210.493 127.49 207.932 129.974C205.37 132.457 203.901 135.855 203.848 139.419Z" fill="#FAFAFA"/>
<path d="M217.51 126.17C213.938 126.118 210.493 127.485 207.931 129.969C205.369 132.453 203.9 135.851 203.848 139.416L230.788 139.806C230.838 136.24 229.468 132.801 226.978 130.243C224.488 127.686 221.082 126.221 217.51 126.17Z" fill="#E0E0E0"/>
<path d="M209.103 139.495C209.079 141.115 209.537 142.705 210.419 144.066C211.301 145.426 212.567 146.495 214.058 147.136C215.548 147.778 217.196 147.964 218.792 147.671C220.389 147.378 221.862 146.619 223.027 145.49C224.191 144.361 224.994 142.913 225.333 141.328C225.673 139.744 225.534 138.095 224.934 136.589C224.334 135.083 223.301 133.789 221.964 132.87C220.627 131.951 219.047 131.448 217.424 131.425C216.347 131.41 215.277 131.606 214.276 132.003C213.275 132.4 212.362 132.99 211.589 133.739C210.816 134.489 210.199 135.383 209.772 136.37C209.346 137.358 209.118 138.419 209.103 139.495Z" fill="#263238"/>
<path d="M95.7389 94.2685C95.7389 94.2685 67.4832 96.3484 57.0029 98.6933C49.6216 100.344 35.3897 103.197 35.5619 112.133L36.6917 118.541C36.6917 118.541 31.4157 120.947 31.4157 127.09C31.4157 133.233 30.1281 142.756 42.4518 143.139C44.4819 143.2 48.3376 143.139 48.3376 143.139C48.3376 143.139 45.9739 116.941 70.0835 116.174C94.6127 115.394 92.9844 142.899 92.9844 142.899H195.359C195.359 142.899 191.155 116.103 217.56 116.049C243.965 115.995 239.948 143.075 239.948 143.075C239.948 143.075 249.661 143.912 254.18 135.764C258.699 127.616 257.526 121.802 257.526 121.802L257.376 116.651C257.347 115.805 256.998 115.002 256.399 114.404C255.799 113.806 254.995 113.457 254.148 113.429C254.148 113.429 255.912 100.462 253.204 98.2172C250.496 95.9725 235.658 82.4294 235.658 82.4294L236.376 81.9891C236.642 81.8213 236.855 81.5817 236.99 81.2981C237.125 81.0145 237.176 80.6985 237.139 80.3867C237.101 80.0749 236.976 79.7802 236.777 79.5366C236.579 79.293 236.315 79.1106 236.017 79.0105C230.382 77.0773 219.242 73.2503 216.624 72.3374C216.232 72.1982 215.823 72.1116 215.408 72.0796C213.844 71.9615 209.418 71.6822 201.295 71.5963C191.399 71.4889 152.111 71.5963 152.111 71.5963C152.111 71.5963 138.589 72.7061 131.057 76.014C123.159 79.4938 95.7389 94.2685 95.7389 94.2685Z" fill="#A47864"/>
<g opacity="0.4">
<path d="M38.5819 126.374C37.5561 126.166 35.9852 126.148 35.2033 126.839C34.6222 127.355 34.468 128.189 34.3819 128.959C34.2172 130.013 34.2415 131.088 34.4537 132.134C34.5619 132.656 34.777 133.151 35.0856 133.586C35.3942 134.022 35.7896 134.389 36.247 134.665C37.1867 135.173 38.4707 135.091 39.1988 134.307C39.8659 133.591 39.9413 132.517 39.9162 131.561C39.8911 130.179 40.0022 129.009 39.7476 127.652C39.6914 127.364 39.5686 127.093 39.3889 126.861C39.2996 126.722 39.1793 126.605 39.0375 126.52C38.8956 126.435 38.7361 126.384 38.5712 126.37" fill="black"/>
</g>
<path d="M36.6989 118.541C39.6973 118.541 42.6061 118.376 45.601 118.183C45.9272 118.197 46.2486 118.1 46.512 117.907C46.6325 117.758 46.7221 117.586 46.7757 117.401C46.8292 117.217 46.8457 117.024 46.8241 116.833C46.8241 115.229 46.7595 113.404 45.54 112.358C44.794 111.721 43.7718 111.521 42.7926 111.431C40.3611 111.169 37.9015 111.413 35.5691 112.147L36.6989 118.541Z" fill="#FAFAFA"/>
<path d="M98.992 142.079C98.992 142.079 98.992 141.994 98.9705 141.822C98.9489 141.65 98.9418 141.396 98.9202 141.07C98.8844 140.404 98.8306 139.434 98.7624 138.181C98.6943 136.928 98.6082 135.392 98.4289 133.616C98.2437 131.606 97.8897 129.614 97.3708 127.663C96.7161 125.306 95.7449 123.048 94.4835 120.95C93.0548 118.528 91.1563 116.416 88.8991 114.735C84.0607 111.299 77.5222 109.365 70.6824 109.272C63.8426 109.179 57.3006 111.338 52.5805 114.957C50.318 116.628 48.3361 118.647 46.7091 120.94C45.2885 122.93 44.1335 125.096 43.2731 127.384C42.5634 129.274 42.0759 131.241 41.8205 133.244C41.6205 134.754 41.5617 136.28 41.6448 137.801C41.7036 138.763 41.8234 139.719 42.0034 140.665C42.0608 140.984 42.1074 141.231 42.1361 141.403C42.1648 141.575 42.1756 141.657 42.1756 141.657C42.1756 141.657 42.1541 141.575 42.1182 141.41L41.964 140.694C41.7688 139.749 41.6393 138.792 41.5766 137.83C41.4791 136.304 41.5271 134.772 41.7201 133.255C41.9673 131.242 42.4487 129.264 43.1547 127.362C44.0122 125.056 45.1672 122.872 46.5908 120.864C48.2215 118.554 50.2121 116.518 52.4873 114.836C57.2288 111.198 63.7853 109.018 70.6788 109.108C77.5724 109.197 84.1217 111.148 88.9995 114.617C91.2702 116.314 93.1786 118.447 94.6127 120.889C95.8728 123.003 96.8382 125.278 97.482 127.652C97.998 129.612 98.3448 131.612 98.5185 133.631C98.6871 135.421 98.7624 136.946 98.8198 138.199C98.8772 139.452 98.9167 140.425 98.9454 141.091C98.9454 141.417 98.9669 141.668 98.9741 141.843C98.9812 142.019 98.992 142.079 98.992 142.079Z" fill="white"/>
<path d="M100.068 142.523V142.308L100.046 141.675C100.028 141.109 100.003 140.282 99.9674 139.201C99.9064 137.028 99.8168 133.852 99.702 129.811C99.5872 125.769 99.4545 120.861 99.3003 115.24C99.2608 113.833 99.225 112.376 99.1819 110.89C99.1568 110.131 99.1903 109.371 99.2823 108.617L99.4437 107.464L99.6805 106.308C100.052 104.728 100.587 103.191 101.277 101.722C101.987 100.182 102.865 98.7242 103.895 97.3758L121.624 86.2277L126.412 83.2205C128.026 82.1501 129.72 81.2057 131.48 80.3959C133.279 79.55 135.126 78.8078 137.01 78.1727C137.95 77.8434 138.915 77.5749 139.88 77.2885C140.845 77.0021 141.827 76.7658 142.824 76.5725C146.584 75.7696 150.406 75.2905 154.248 75.1405C157.934 74.9641 161.628 74.9761 165.313 75.1763H165.417L165.392 75.2801L160.629 96.5489C159.749 97.9911 159.027 99.5238 158.477 101.121C157.935 102.635 157.691 104.24 157.759 105.846C157.881 107.418 157.924 108.957 157.964 110.45C158.003 111.943 158.021 113.389 158.05 114.796C158.132 120.417 158.154 125.318 158.168 129.356C158.183 133.394 158.168 136.57 158.168 138.739C158.168 139.813 158.168 140.647 158.168 141.213C158.168 141.489 158.168 141.7 158.168 141.847C158.168 141.993 158.168 142.061 158.168 142.061C158.168 142.061 158.168 141.986 158.168 141.847C158.168 141.707 158.168 141.489 158.168 141.213C158.168 140.647 158.168 139.82 158.168 138.739C158.168 136.57 158.136 133.394 158.111 129.36C158.086 125.325 158.05 120.41 157.953 114.796C157.924 113.393 157.893 111.945 157.86 110.454C157.817 108.961 157.774 107.428 157.648 105.857C157.575 104.23 157.819 102.605 158.366 101.07C158.912 99.4608 159.634 97.9158 160.518 96.4629V96.488C161.977 89.9402 163.573 82.7945 165.263 75.2156L165.345 75.323C161.668 75.1253 157.983 75.1157 154.305 75.2944C150.473 75.4425 146.66 75.9216 142.911 76.7264C141.917 76.9233 140.949 77.199 139.977 77.4424C139.005 77.6858 138.054 77.9973 137.107 78.3231C135.223 78.9591 133.376 79.7026 131.577 80.5498C129.826 81.3543 128.14 82.2927 126.534 83.3566L121.742 86.3638L104.013 97.4868V97.4689C102.985 98.8083 102.109 100.258 101.402 101.79C100.713 103.248 100.179 104.774 99.8096 106.344C99.0026 109.412 99.4079 112.43 99.415 115.24L99.7737 129.811C99.8706 133.849 99.9459 137.028 99.9961 139.197C100.021 140.271 100.036 141.109 100.05 141.675C100.05 141.949 100.05 142.16 100.05 142.308C100.068 142.452 100.068 142.523 100.068 142.523Z" fill="#263238"/>
<path d="M165.184 75.767H165.353L165.844 75.7491L167.749 75.7026L174.811 75.5666L198.619 75.1584H198.666L198.694 75.1942L202.03 79.2719C205.409 83.4139 208.629 87.3519 211.556 90.9319L212.632 92.2565C212.98 92.7005 213.28 93.1806 213.525 93.6885C213.97 94.6305 214.211 95.6551 214.234 96.696C214.257 97.7369 214.06 98.7711 213.658 99.7316L212.582 102.238L209.289 109.841L208.385 111.904L208.145 112.441C208.091 112.559 208.059 112.62 208.059 112.62C208.059 112.62 208.081 112.555 208.127 112.433C208.174 112.312 208.256 112.122 208.35 111.889C208.554 111.41 208.845 110.708 209.221 109.813L212.449 102.187C213.066 100.569 214.153 98.8652 214.078 96.7888C214.062 95.7335 213.817 94.6942 213.36 93.7422C213.12 93.2478 212.826 92.7809 212.485 92.3496L211.409 91.025L201.872 79.3757L198.54 75.2981L198.612 75.3339L174.8 75.6919L167.738 75.7742H165.833H165.345L165.184 75.767Z" fill="#263238"/>
<path d="M153.151 107.371C153.151 107.371 153.251 107.371 153.434 107.328C153.703 107.28 153.96 107.178 154.188 107.027C154.549 106.792 154.82 106.441 154.955 106.032C155.037 105.778 155.071 105.511 155.056 105.245C155.047 104.947 154.971 104.656 154.833 104.393C154.673 104.093 154.435 103.841 154.144 103.664C153.853 103.487 153.52 103.391 153.18 103.387H150.762H145.221C144.753 103.387 144.302 103.564 143.958 103.881C143.623 104.186 143.409 104.601 143.356 105.051C143.301 105.486 143.381 105.927 143.585 106.315C143.793 106.679 144.116 106.965 144.504 107.128C144.887 107.259 145.294 107.309 145.698 107.274H146.871H148.98L152.032 107.303L152.86 107.321C152.958 107.319 153.055 107.326 153.151 107.342C153.055 107.354 152.958 107.36 152.86 107.36H152.032L148.98 107.389H146.871H145.698C145.493 107.389 145.296 107.389 145.077 107.389C144.858 107.376 144.642 107.326 144.439 107.242C144.014 107.068 143.659 106.757 143.431 106.358C143.203 105.939 143.114 105.459 143.176 104.987C143.233 104.485 143.472 104.021 143.849 103.683C144.226 103.346 144.715 103.159 145.221 103.157H150.762H153.183C153.549 103.165 153.906 103.271 154.217 103.465C154.528 103.658 154.78 103.932 154.948 104.257C155.092 104.539 155.169 104.85 155.174 105.166C155.185 105.445 155.145 105.724 155.056 105.989C154.904 106.415 154.612 106.776 154.227 107.013C153.99 107.164 153.721 107.258 153.442 107.289C153.348 107.328 153.251 107.355 153.151 107.371Z" fill="#263238"/>
<path d="M206.234 107.371C206.234 107.371 206.334 107.371 206.517 107.328C206.786 107.28 207.042 107.178 207.27 107.027C207.631 106.792 207.902 106.441 208.038 106.032C208.12 105.778 208.154 105.511 208.138 105.245C208.13 104.947 208.053 104.656 207.916 104.393C207.755 104.093 207.517 103.841 207.227 103.664C206.936 103.487 206.603 103.391 206.262 103.387H203.845H198.303C197.835 103.387 197.385 103.564 197.041 103.881C196.705 104.186 196.491 104.601 196.438 105.051C196.384 105.486 196.464 105.927 196.668 106.315C196.876 106.679 197.199 106.965 197.586 107.128C197.97 107.259 198.376 107.309 198.78 107.274H199.953H202.062L205.114 107.303L205.943 107.321C206.04 107.319 206.138 107.326 206.234 107.342C206.137 107.354 206.04 107.36 205.943 107.36H205.114L202.062 107.389H199.953H198.78C198.576 107.389 198.379 107.389 198.16 107.389C197.94 107.376 197.725 107.326 197.522 107.242C197.096 107.068 196.741 106.757 196.514 106.358C196.286 105.939 196.197 105.459 196.259 104.987C196.315 104.485 196.555 104.021 196.932 103.683C197.309 103.346 197.797 103.159 198.303 103.157H203.845H206.266C206.632 103.165 206.989 103.271 207.3 103.465C207.61 103.658 207.863 103.932 208.03 104.257C208.174 104.539 208.251 104.85 208.256 105.166C208.268 105.445 208.228 105.724 208.138 105.989C207.986 106.415 207.694 106.776 207.31 107.013C207.072 107.164 206.804 107.258 206.524 107.289C206.431 107.328 206.333 107.355 206.234 107.371Z" fill="#263238"/>
<path d="M252.749 98.729H242.132C241.419 98.7288 240.718 98.9231 240.107 99.2909C239.496 99.6587 238.997 100.186 238.664 100.816C238.39 101.337 238.238 101.914 238.218 102.502C238.198 103.09 238.311 103.675 238.549 104.214L242.71 113.654L253.341 113.55C253.341 113.55 255.604 101.582 252.749 98.729Z" fill="#FAFAFA"/>
<path d="M105.305 97.3937L160.084 96.3842L195.735 95.7326L207.492 88.9557C207.716 88.8258 207.909 88.65 208.06 88.4399C208.21 88.2297 208.314 87.9902 208.364 87.737C208.415 87.4838 208.411 87.2228 208.353 86.9712C208.294 86.7197 208.183 86.4833 208.027 86.2778L200.706 76.6799C200.33 76.1857 199.846 75.7842 199.29 75.5061C198.734 75.2281 198.122 75.081 197.5 75.076L157.623 74.7538C157.623 74.7538 142.61 73.8803 130.777 80.4818C118.335 87.4521 105.305 97.3937 105.305 97.3937Z" fill="#263238"/>
<path d="M130.407 75.7456C130.407 75.7456 133.155 76.995 131.369 78.1514C129.583 79.3077 101.829 96.7674 101.829 96.7674L95.4482 93.8855C106.75 87.6097 118.163 81.5058 130.407 75.7456Z" fill="#455A64"/>
<path d="M102.726 97.2112L102.554 97.2541L102.048 97.3651L100.1 97.7661C98.4075 98.1026 95.9542 98.5752 92.9271 99.0978C86.8297 100.143 78.3939 101.36 69.0076 102.169C66.6583 102.374 64.3449 102.527 62.1499 102.685C59.9549 102.843 57.7957 102.968 55.7656 103.15C51.7019 103.508 48.0651 104.096 45.1096 104.973C42.7606 105.625 40.4998 106.56 38.3775 107.758C37.6135 108.159 37.0683 108.553 36.6846 108.789L36.247 109.065L36.0928 109.154C36.1388 109.117 36.1867 109.082 36.2362 109.05L36.6631 108.757C37.0432 108.51 37.5812 108.105 38.3416 107.683C40.4511 106.452 42.7068 105.49 45.0559 104.819C48.0184 103.92 51.6661 103.315 55.7334 102.953C57.767 102.76 59.9046 102.624 62.1212 102.477C64.3378 102.331 66.6296 102.159 68.9753 101.955C78.358 101.146 86.8046 99.9499 92.8912 98.9367C95.9363 98.432 98.3896 97.9809 100.086 97.6658L102.041 97.3078L102.55 97.2148L102.726 97.2112Z" fill="#263238"/>
<path d="M256.992 121.695C256.992 121.749 253.34 121.788 248.839 121.788C244.338 121.788 240.683 121.749 240.683 121.695C240.683 121.641 244.334 121.602 248.839 121.602C253.344 121.602 256.992 121.645 256.992 121.695Z" fill="#263238"/>
<path d="M190.198 130.996C190.198 131.049 169.589 131.089 144.17 131.089C118.751 131.089 98.1387 131.049 98.1387 130.996C98.1387 130.942 118.744 130.903 144.17 130.903C169.596 130.903 190.198 130.946 190.198 130.996Z" fill="#263238"/>
<path d="M45.9095 122.003C45.9095 122.056 42.9935 122.096 39.3997 122.096C35.8059 122.096 32.8899 122.056 32.8899 122.003C32.8899 121.949 35.8059 121.91 39.3997 121.91C42.9935 121.91 45.9095 121.953 45.9095 122.003Z" fill="#263238"/>
<path d="M235.382 82.0571C235.382 82.0571 232.936 84.7887 233.897 86.7935C234.858 88.7983 244.797 95.8222 244.797 95.8222L252.01 97.1719L235.382 82.0571Z" fill="#455A64"/>
<path d="M166.805 77.1631L165.184 94.6478L194.207 93.8208L205.904 87.0331L198.332 77.1631H166.805Z" fill="#455A64"/>
<path d="M112.177 95.5429C112.177 95.5429 129.687 82.9198 136.595 80.4102C143.262 77.9901 146.738 77.3815 153 77.1882C158.986 77.0163 162.634 77.1882 162.634 77.1882L158.007 94.9629L112.177 95.5429Z" fill="#455A64"/>
<path d="M109.616 95.586C109.616 95.0424 109.761 94.5088 110.036 94.0395C110.31 93.5703 110.705 93.1823 111.18 92.9153L115.204 90.6599C116.35 90.0158 117.644 89.6779 118.959 89.679C119.769 89.68 120.574 89.8081 121.344 90.0584C122.183 90.348 122.913 90.8859 123.437 91.6004C123.961 92.3149 124.255 93.172 124.278 94.0573C124.301 94.6519 124.203 95.245 123.99 95.801C123.778 96.357 123.455 96.8644 123.042 97.293C122.628 97.7215 122.132 98.0623 121.583 98.295C121.035 98.5276 120.445 98.6473 119.848 98.6469H112.675C111.863 98.645 111.085 98.3216 110.511 97.7478C109.938 97.174 109.616 96.3965 109.616 95.586Z" fill="#A47864"/>
<path d="M109.616 95.5858C109.616 95.5858 109.616 95.7218 109.662 95.9724C109.717 96.3411 109.838 96.6966 110.021 97.0214C110.311 97.5329 110.738 97.9532 111.255 98.235C111.577 98.4033 111.927 98.5124 112.288 98.5572C112.7 98.5876 113.113 98.5959 113.525 98.5822L119.662 98.5608C120.244 98.5763 120.823 98.4815 121.369 98.2815C121.946 98.0663 122.47 97.7317 122.908 97.2998C123.345 96.8679 123.686 96.3484 123.909 95.7755C124.135 95.1711 124.226 94.525 124.178 93.8817C124.13 93.2477 123.942 92.6321 123.629 92.0784C123.316 91.5247 122.885 91.0464 122.366 90.6776C121.866 90.332 121.301 90.0887 120.706 89.9616C119.07 89.5755 117.353 89.7404 115.821 90.4306C115.358 90.6382 114.935 90.8996 114.515 91.1251L113.317 91.791L111.255 92.9294C110.736 93.2082 110.308 93.6293 110.021 94.1431C109.84 94.4687 109.719 94.8239 109.662 95.192C109.627 95.4426 109.63 95.5786 109.619 95.5786C109.606 95.4477 109.606 95.3158 109.619 95.1848C109.66 94.8091 109.772 94.4445 109.949 94.1108C110.231 93.5761 110.664 93.1355 111.194 92.8435L113.242 91.68L114.433 91.0034C114.849 90.7743 115.272 90.5093 115.745 90.2874C117.306 89.5702 119.062 89.3938 120.734 89.7862C121.351 89.9086 121.938 90.1519 122.46 90.5022C123.002 90.8857 123.453 91.3839 123.78 91.9612C124.107 92.5385 124.303 93.1808 124.353 93.8423C124.406 94.5135 124.31 95.1881 124.074 95.8185C123.842 96.417 123.486 96.9596 123.028 97.4101C122.571 97.8607 122.022 98.209 121.419 98.4319C120.853 98.6356 120.253 98.7315 119.651 98.7147L113.514 98.6968C113.097 98.7057 112.679 98.6926 112.263 98.6574C111.885 98.6051 111.52 98.4837 111.187 98.2994C110.658 98.0043 110.225 97.5646 109.939 97.0321C109.763 96.6977 109.653 96.3334 109.612 95.9581C109.603 95.8341 109.605 95.7096 109.616 95.5858Z" fill="#263238"/>
<path d="M244.518 142.24C244.518 142.24 244.518 142.158 244.518 141.993C244.518 141.829 244.546 141.582 244.568 141.277C244.589 140.973 244.625 140.561 244.647 140.096C244.668 139.631 244.683 139.086 244.701 138.481C244.718 137.876 244.701 137.196 244.701 136.459C244.701 135.721 244.647 134.916 244.546 134.056C244.383 132.109 244.036 130.182 243.51 128.3C243.2 127.202 242.817 126.126 242.366 125.078C241.886 123.946 241.307 122.858 240.637 121.827C239.142 119.555 237.24 117.576 235.027 115.992C232.591 114.226 229.872 112.887 226.986 112.032C223.995 111.119 220.738 110.786 217.424 110.761C214.191 110.732 210.973 111.199 207.883 112.147C206.42 112.608 205 113.194 203.637 113.898C202.337 114.587 201.103 115.392 199.95 116.303C197.805 117.98 195.894 119.935 194.268 122.117C193.553 123.119 192.922 124.177 192.382 125.282C191.889 126.306 191.453 127.357 191.076 128.429C189.93 131.66 189.233 135.033 189.003 138.453C188.946 139.666 188.953 140.601 188.985 141.252C189.003 141.567 189.017 141.807 189.025 141.968C189.032 142.129 189.025 142.215 189.025 142.215C189.025 142.215 189.025 142.133 188.996 141.968C188.967 141.804 188.96 141.557 188.935 141.252C188.888 140.319 188.888 139.383 188.935 138.449C189.133 135.01 189.813 131.615 190.954 128.364C191.331 127.287 191.764 126.231 192.253 125.2C192.798 124.087 193.431 123.019 194.146 122.006C195.777 119.81 197.694 117.841 199.846 116.149C201.006 115.231 202.248 114.418 203.554 113.722C204.926 113.013 206.357 112.422 207.83 111.957C210.937 110.998 214.175 110.526 217.427 110.557C220.756 110.582 224.027 110.915 227.043 111.839C229.948 112.702 232.685 114.053 235.135 115.834C236.27 116.668 237.33 117.597 238.305 118.612C239.232 119.565 240.057 120.61 240.77 121.731C241.442 122.771 242.022 123.868 242.502 125.01C242.953 126.057 243.333 127.134 243.639 128.232C244.162 130.123 244.502 132.061 244.654 134.017C244.751 134.876 244.751 135.682 244.79 136.423C244.83 137.164 244.79 137.855 244.79 138.449C244.79 139.043 244.736 139.598 244.715 140.067C244.693 140.536 244.647 140.927 244.618 141.249C244.589 141.571 244.568 141.804 244.553 141.965C244.539 142.126 244.518 142.24 244.518 142.24Z" fill="white"/>
<path d="M157.157 97.3938H156.913L155.977 97.4153L152.538 97.4761C149.632 97.5298 145.622 97.6372 141.189 97.759C136.756 97.8807 132.743 97.963 129.838 97.9845C128.385 97.9845 127.209 97.9845 126.394 97.9845H125.458H125.218C125.189 97.9899 125.16 97.9899 125.132 97.9845C125.16 97.9799 125.189 97.9799 125.218 97.9845H125.458L126.394 97.963L129.834 97.9022C132.739 97.8485 136.753 97.7411 141.186 97.6229C145.619 97.5048 149.632 97.4153 152.538 97.3938C153.972 97.3938 155.167 97.3938 155.977 97.3938H156.913H157.157Z" fill="white"/>
<path d="M152.484 102.774C151.439 102.869 150.39 102.9 149.342 102.867C148.293 102.9 147.244 102.869 146.2 102.774C147.244 102.682 148.293 102.651 149.342 102.681C150.39 102.651 151.439 102.682 152.484 102.774Z" fill="white"/>
<path d="M153.638 83.618C153.656 83.6645 149.758 85.2862 144.926 87.2373C140.095 89.1884 136.164 90.735 136.143 90.6849C136.121 90.6348 140.023 89.0166 144.855 87.0655C149.686 85.1144 153.617 83.5714 153.638 83.618Z" fill="white"/>
<path d="M145.734 84.8458C145.755 84.8959 142.039 86.5284 137.438 88.4938C132.836 90.4593 129.091 92.0166 129.07 91.97C129.048 91.9235 132.764 90.291 137.366 88.322C141.968 86.353 145.712 84.7921 145.734 84.8458Z" fill="white"/>
<path d="M195.861 82.9414C195.882 82.9879 191.98 84.6097 187.149 86.5607C182.317 88.5118 178.386 90.0548 178.365 90.0083C178.343 89.9618 182.246 88.34 187.08 86.3889C191.915 84.4378 195.832 82.8913 195.861 82.9414Z" fill="white"/>
<path d="M187.942 84.1621C187.963 84.2122 184.247 85.8447 179.649 87.8101C175.051 89.7756 171.299 91.3329 171.278 91.2863C171.256 91.2398 174.972 89.6073 179.574 87.6383C184.176 85.6693 187.942 84.1299 187.942 84.1621Z" fill="white"/>
<path d="M196.625 97.3759C196.625 97.4261 188.867 97.5156 179.297 97.5728C169.728 97.6301 161.97 97.6337 161.97 97.5728C161.97 97.512 169.725 97.4332 179.297 97.3795C188.87 97.3258 196.625 97.3366 196.625 97.3759Z" fill="white"/>
<path d="M205.215 102.477C205.215 102.527 203.041 102.588 200.355 102.613C197.669 102.638 195.495 102.613 195.495 102.567C195.495 102.52 197.669 102.452 200.355 102.427C203.041 102.402 205.215 102.424 205.215 102.477Z" fill="white"/>
<path d="M56.6693 99.8281C56.6008 99.8512 56.5297 99.8656 56.4577 99.8711L55.8515 99.9498C55.5861 99.9785 55.2633 100.018 54.8903 100.082C54.5173 100.147 54.0905 100.193 53.6242 100.286C52.6881 100.451 51.5798 100.694 50.3675 101.002C49.0543 101.364 47.7602 101.792 46.4903 102.284C45.1417 102.817 43.89 103.401 42.7709 103.977C41.6519 104.554 40.6835 105.134 39.9016 105.653C39.4963 105.9 39.1448 106.15 38.8256 106.369C38.5064 106.587 38.2446 106.766 38.0294 106.924L37.5308 107.282C37.4737 107.326 37.4125 107.364 37.3479 107.396C37.3954 107.343 37.4483 107.295 37.5057 107.253L37.9863 106.87C38.1944 106.705 38.4526 106.512 38.7646 106.286C39.0767 106.061 39.4174 105.81 39.8406 105.57C40.6297 105.037 41.6053 104.453 42.71 103.856C45.1284 102.565 47.69 101.562 50.3424 100.866C51.5619 100.551 52.6773 100.319 53.6206 100.172C54.0905 100.086 54.5173 100.043 54.8939 99.9928C55.2705 99.9427 55.6112 99.9105 55.8587 99.8926L56.472 99.846C56.5373 99.8354 56.6032 99.8294 56.6693 99.8281Z" fill="white"/>
<path d="M120.72 91.383C120.72 91.383 120.616 91.2434 120.361 91.0501C120.017 90.7872 119.608 90.6226 119.178 90.5739C118.532 90.5202 117.882 90.5894 117.262 90.778C115.078 91.327 113.05 92.3693 111.334 93.8246C110.48 94.5406 110.028 95.0669 110.003 95.0418C110.09 94.9051 110.191 94.7779 110.304 94.6623C110.601 94.3334 110.914 94.0203 111.244 93.7243C112.34 92.7502 113.584 91.9574 114.931 91.3759C115.67 91.0529 116.437 90.7976 117.223 90.6133C117.863 90.4275 118.533 90.3691 119.196 90.4415C119.646 90.503 120.067 90.6961 120.408 90.9964C120.498 91.0774 120.579 91.1687 120.648 91.2685C120.706 91.3401 120.727 91.3794 120.72 91.383Z" fill="white"/>
<path d="M236.197 81.9281C235.697 82.0487 235.183 82.1017 234.669 82.0856C234.065 82.0676 233.465 81.9933 232.875 81.8637C232.097 81.681 231.334 81.4417 230.591 81.1477C229.762 80.8362 228.88 80.4317 227.926 80.0343L226.437 79.4364C225.924 79.2324 225.383 79.057 224.838 78.8565C222.444 78.0473 220.003 77.3838 217.528 76.8696C213.029 75.9349 208.461 75.3697 203.87 75.1798C202.988 75.1333 202.191 75.1333 201.488 75.1154H199.695L198.562 75.1404H198.164C198.197 75.1341 198.231 75.1341 198.264 75.1404L198.558 75.119L199.695 75.0581L201.488 75.0259C202.206 75.0259 202.988 75.0259 203.87 75.0688C208.474 75.2188 213.056 75.7699 217.564 76.7156C220.044 77.2241 222.489 77.8889 224.884 78.7061C225.429 78.9066 225.96 79.0856 226.487 79.2932L227.976 79.9054C228.93 80.3171 229.809 80.7181 230.63 81.0367C231.363 81.3316 232.117 81.571 232.886 81.7527C233.467 81.8917 234.061 81.9756 234.658 82.0033C235.035 82.0162 235.412 82.0031 235.788 81.9639L236.078 81.9281H236.197Z" fill="#263238"/>
<path d="M63.6313 82.4224C62.1966 74.5894 61.2318 73.3865 60.4212 70.6908C59.6106 67.995 58.323 66.2444 56.7198 65.6251C55.6438 65.2098 50.2387 63.2659 48.3593 63.9103C46.5205 64.5628 44.77 65.4407 43.1478 66.5237C41.889 67.3571 40.935 68.5756 40.4291 69.9963L37.5598 78.0763L42.6098 83.0883L45.142 77.7183L47.8894 84.1623L47.4841 90.66L63.2404 94.8916C64.6607 92.6004 64.4455 86.8652 63.6313 82.4224Z" fill="#A47864"/>
<g opacity="0.2">
<path d="M59.5387 73.877C58.8429 77.9546 58.7317 78.531 58.0359 82.5943C57.7956 83.994 57.0962 86.1743 56.0991 87.191C55.3602 87.9392 54.6357 88.6588 53.6063 88.9022C52.6523 89.1278 51.1997 89.1528 50.303 88.759C49.4063 88.3652 48.6388 86.611 49.0082 85.7124C50.3461 85.9988 50.7585 86.4284 51.9098 85.7124C52.9141 85.0752 54.3416 83.6647 54.8868 82.6086C57.1858 78.1694 57.8207 78.0119 59.5494 73.877" fill="black"/>
</g>
<path d="M48.1224 81.778C47.8675 81.4353 47.6351 81.0766 47.4266 80.704L45.8054 78.0441L44.1412 75.4271C43.8931 75.075 43.669 74.7066 43.4705 74.3245C43.5568 74.4028 43.6327 74.4918 43.6964 74.5894C43.8327 74.7648 44.0228 75.0261 44.2488 75.3519C44.7079 76.0035 45.3248 76.9164 45.9632 77.9438C46.6016 78.9713 47.1576 79.9236 47.5413 80.6217C47.735 80.9797 47.9 81.2518 47.9861 81.4522C48.0483 81.5531 48.0942 81.663 48.1224 81.778Z" fill="#263238"/>
<path d="M59.1191 89.0919C59.0049 89.1511 58.8847 89.1979 58.7605 89.2315C58.6135 89.2806 58.4638 89.3212 58.3121 89.3532C58.1139 89.4069 57.9127 89.4487 57.7096 89.4785C57.1838 89.5719 56.6511 89.621 56.1171 89.6253C55.4618 89.6264 54.8077 89.5701 54.1623 89.457C53.5176 89.3358 52.885 89.1573 52.2722 88.9236C51.7763 88.7303 51.2966 88.4981 50.8375 88.2291C50.6367 88.1181 50.4788 87.9964 50.321 87.8997C50.1904 87.815 50.0647 87.7229 49.9444 87.6241C49.8351 87.5492 49.7351 87.4614 49.6467 87.3627C49.6682 87.3341 50.113 87.6814 50.9021 88.1145C51.3647 88.3635 51.844 88.58 52.3367 88.7625C53.5476 89.213 54.8285 89.4469 56.1207 89.4535C56.6472 89.4541 57.1733 89.4194 57.6952 89.3496C58.5704 89.2243 59.1084 89.0561 59.1191 89.0919Z" fill="#263238"/>
<path d="M52.7959 76.8877C52.7673 77.0274 51.0743 80.3926 51.0743 80.3926L43.0833 76.1896L42.2691 72.7528C42.1347 72.2009 41.7868 71.7246 41.3015 71.4281C40.8163 71.1316 40.233 71.0389 39.6795 71.1705L37.3231 72.1335C37.2259 72.1714 37.1396 72.2328 37.072 72.3121C37.0044 72.3915 36.9576 72.4863 36.9357 72.5882C36.9034 72.76 36.9357 72.9462 37.2478 72.9068C37.8324 72.8602 39.0411 72.7314 39.0411 72.7314L38.4852 74.6896C38.3384 75.2028 38.3949 75.7527 38.643 76.2254L39.0016 76.9021L39.7799 78.1586H39.762C39.762 78.1586 47.5307 86.1241 51.8921 86.6432C54.514 86.9547 57.4837 79.6193 57.4837 79.6193L52.7959 76.8877Z" fill="#B78876"/>
<path d="M38.9836 72.8639C38.9836 72.8639 39.0446 72.7816 39.1773 72.6921C39.355 72.5686 39.5669 72.5035 39.7835 72.5059C39.8965 72.5123 40.0058 72.5488 40.0998 72.6118C40.1938 72.6748 40.2692 72.7619 40.3179 72.8639C40.3932 73.025 40.343 73.1324 40.3179 73.1253C40.2928 73.1181 40.3179 73.025 40.2318 72.9033C40.1789 72.826 40.1091 72.7617 40.0278 72.7152C39.9464 72.6687 39.8555 72.6412 39.7619 72.6348C39.5678 72.6376 39.3772 72.6867 39.206 72.778C39.0948 72.8317 38.9944 72.8782 38.9836 72.8639Z" fill="#AA6550"/>
<path d="M39.9915 74.0845C39.9915 74.0845 39.9377 74.0201 39.8624 73.9234C39.7661 73.8001 39.6384 73.7048 39.4927 73.6475C39.347 73.5902 39.1885 73.573 39.0338 73.5976C38.9119 73.5976 38.8366 73.6406 38.8294 73.6263C38.8222 73.612 38.8868 73.5583 39.0159 73.5153C39.1866 73.4656 39.3689 73.4737 39.5344 73.5385C39.6999 73.6033 39.8392 73.721 39.9305 73.8733C39.9951 73.995 40.0022 74.0809 39.9915 74.0845Z" fill="#AA6550"/>
<path d="M54.4528 66.266L52.3008 76.5012L58.0394 79.9416L60.2417 73.6515C60.2417 73.6515 59.3163 66.0118 54.4528 66.266Z" fill="#A47864"/>
<path d="M57.5447 66.4448C57.5447 66.4448 57.498 66.4842 57.3976 66.5379C57.2972 66.5916 57.1537 66.6704 56.9636 66.767C56.5834 66.9603 56.0239 67.2324 55.3245 67.5439C53.5063 68.3735 51.5919 68.9748 49.6253 69.3339C47.6463 69.6869 45.615 69.6186 43.6643 69.1334C43.0804 68.9803 42.5115 68.7754 41.9642 68.5212C41.7669 68.4389 41.6055 68.3494 41.523 68.2993C41.4716 68.2736 41.4224 68.2437 41.376 68.2098C41.586 68.2807 41.792 68.3631 41.9929 68.4568C42.5503 68.6815 43.1233 68.8658 43.7073 69.0081C45.6432 69.4505 47.6486 69.4992 49.6038 69.1513C51.5572 68.7924 53.4633 68.2122 55.2851 67.4222C56.0024 67.1286 56.5512 66.8744 56.9421 66.7062C57.1369 66.6058 57.3382 66.5185 57.5447 66.4448Z" fill="#EBEBEB"/>
<path d="M59.0545 67.5762C59.0054 67.6205 58.9512 67.659 58.8931 67.6907L58.4197 67.995C58.1694 68.1586 57.9108 68.3092 57.6449 68.4461C57.3365 68.6072 56.9922 68.8041 56.5869 68.9831L55.9628 69.2695C55.744 69.3698 55.5073 69.4521 55.267 69.5488C54.7899 69.7457 54.2591 69.9068 53.7068 70.0858C51.285 70.8148 48.7539 71.1141 46.2286 70.97C45.6475 70.9235 45.0952 70.8913 44.5859 70.8089C44.3276 70.7695 44.0802 70.7445 43.8434 70.7015L43.1656 70.5655C42.7352 70.4903 42.3514 70.3757 42.0142 70.2898C41.7243 70.2199 41.4382 70.1351 41.157 70.0356L40.6226 69.8495C40.5586 69.8325 40.4971 69.8072 40.4397 69.7743C40.5058 69.7779 40.5711 69.7912 40.6334 69.8137L41.1785 69.964C41.4117 70.0356 41.6986 70.118 42.0394 70.1896C42.3801 70.2612 42.7567 70.3722 43.1943 70.4366L43.8685 70.5583C44.1017 70.6013 44.3492 70.6228 44.5859 70.655C45.0952 70.7302 45.6619 70.7588 46.2178 70.7982C48.7244 70.9254 51.2346 70.6288 53.6422 69.9211C54.191 69.7492 54.7182 69.5953 55.1952 69.402C55.432 69.3089 55.6687 69.2301 55.8875 69.1371L56.5151 68.8614C56.9204 68.6967 57.2648 68.5034 57.5911 68.353C57.9175 68.2027 58.1686 68.0559 58.3766 67.9342L58.8716 67.6621C58.9284 67.6254 58.9899 67.5965 59.0545 67.5762Z" fill="#EBEBEB"/>
<path d="M58.0253 79.9416C57.8645 79.8738 57.7087 79.7949 57.559 79.7053L56.2965 78.9893L51.9925 76.5084L51.9387 76.4762V76.4153C52.0929 75.6528 52.2579 74.8294 52.4301 73.9845C52.6883 72.71 52.9394 71.5 53.1474 70.4045C53.2658 69.8532 53.3626 69.3305 53.4702 68.8329C53.5675 68.3729 53.7218 67.9267 53.9293 67.5047C54.23 66.8779 54.7622 66.3916 55.4142 66.1479C55.5907 66.0872 55.7763 66.0569 55.963 66.0584C56.0271 66.054 56.0915 66.0613 56.1531 66.0798C55.9084 66.0881 55.6664 66.134 55.4357 66.2159C54.8196 66.4753 54.3232 66.9555 54.0441 67.562C53.8502 67.979 53.7069 68.4177 53.6173 68.8687C53.5204 69.3591 53.42 69.8854 53.3124 70.4331C53.09 71.5429 52.8461 72.753 52.5951 74.0131C52.4229 74.8616 52.2543 75.6814 52.1001 76.444L52.0571 76.3509L56.336 78.8891L57.5734 79.6409C57.7322 79.7284 57.8833 79.829 58.0253 79.9416Z" fill="#263238"/>
<path d="M59.7791 73.3472C59.8107 73.6657 59.801 73.987 59.7504 74.303C59.6753 75.0681 59.5385 75.826 59.3415 76.5692C59.1446 77.3132 58.8904 78.0409 58.5811 78.7458C58.4689 79.0456 58.3182 79.3296 58.1328 79.5907C58.2206 79.2851 58.3297 78.9861 58.4592 78.6957C59.0036 77.2713 59.3932 75.7926 59.6213 74.2851C59.6539 73.9695 59.7066 73.6562 59.7791 73.3472Z" fill="#263238"/>
<path d="M28.6647 130.28L28.6002 135.743C28.6002 135.743 23.0121 137.515 22.9045 138.525L33.5139 139.026L33.9658 130.516L28.6647 130.28Z" fill="#455A64"/>
<path d="M31.9214 135.439C32.0221 135.474 32.106 135.546 32.1569 135.64C32.2079 135.734 32.2224 135.843 32.1976 135.947C32.166 136.049 32.0961 136.135 32.0026 136.187C31.9091 136.239 31.7991 136.253 31.6955 136.226C31.5891 136.187 31.5008 136.111 31.4473 136.011C31.3937 135.911 31.3787 135.796 31.4049 135.686C31.45 135.583 31.5331 135.502 31.6367 135.459C31.7403 135.417 31.8565 135.416 31.9609 135.456" fill="#E0E0E0"/>
<path d="M33.5139 139.026V138.167L23.335 138.006C23.335 138.006 22.8508 138.188 22.8902 138.525L33.5139 139.026Z" fill="#E0E0E0"/>
<path d="M28.4317 135.682C28.4317 135.732 28.6899 135.768 28.9338 135.947C29.1777 136.126 29.2925 136.348 29.357 136.33C29.4216 136.312 29.357 136.012 29.0378 135.8C28.7186 135.589 28.4209 135.632 28.4317 135.682Z" fill="#263238"/>
<path d="M27.2947 136.087C27.2947 136.137 27.5027 136.237 27.6533 136.463C27.804 136.688 27.8578 136.924 27.9116 136.924C27.9654 136.924 28.0084 136.634 27.7968 136.355C27.5852 136.076 27.2983 136.04 27.2947 136.087Z" fill="#263238"/>
<path d="M26.599 137.386C26.6456 137.386 26.7317 137.146 26.599 136.856C26.4663 136.566 26.2403 136.444 26.2188 136.498C26.1973 136.552 26.3371 136.699 26.4304 136.939C26.5236 137.178 26.5416 137.379 26.599 137.386Z" fill="#263238"/>
<path d="M28.5823 134.436C28.6039 134.486 28.8442 134.436 29.1383 134.458C29.4324 134.479 29.6512 134.597 29.6799 134.554C29.7086 134.512 29.5005 134.315 29.1562 134.279C28.8119 134.243 28.5608 134.397 28.5823 134.436Z" fill="#263238"/>
<g opacity="0.3">
<path d="M28.654 131.361L28.6396 132.335L33.8582 132.535L33.9049 131.658L28.654 131.361Z" fill="black"/>
</g>
<path d="M28.6182 133.334C28.7894 133.391 28.9731 133.399 29.149 133.359C29.3422 133.334 29.5314 133.285 29.7121 133.212C29.8201 133.172 29.9245 133.123 30.0241 133.065C30.0861 133.036 30.143 132.998 30.1927 132.951C30.2287 132.915 30.2517 132.869 30.2582 132.819C30.2647 132.769 30.2543 132.718 30.2286 132.675C30.2039 132.638 30.171 132.607 30.1325 132.585C30.0939 132.562 30.0507 132.549 30.0062 132.546C29.9387 132.543 29.8711 132.549 29.8053 132.564C29.6914 132.586 29.5798 132.618 29.4718 132.661C29.2892 132.734 29.1188 132.834 28.9661 132.958C28.7078 133.176 28.6074 133.366 28.6325 133.377C28.6576 133.387 28.7832 133.237 29.0414 133.062C29.1933 132.961 29.3571 132.879 29.5292 132.818C29.6298 132.784 29.7329 132.758 29.8376 132.739C29.9524 132.714 30.0492 132.718 30.0743 132.768C30.0995 132.818 30.0743 132.797 30.0743 132.829C30.0372 132.862 29.9963 132.891 29.9524 132.915C29.8556 132.969 29.7587 133.019 29.6655 133.062C29.4965 133.135 29.3212 133.192 29.1418 133.233C28.9653 133.256 28.7904 133.289 28.6182 133.334Z" fill="#263238"/>
<path d="M28.6935 133.412C28.8002 133.266 28.8567 133.089 28.8549 132.908C28.8748 132.712 28.8603 132.515 28.8119 132.324C28.783 132.21 28.7421 132.1 28.6899 131.995C28.6647 131.923 28.6214 131.86 28.5642 131.81C28.507 131.761 28.4378 131.727 28.3636 131.712C28.3167 131.71 28.2703 131.722 28.2302 131.746C28.19 131.77 28.1578 131.806 28.1376 131.848C28.1059 131.909 28.0841 131.974 28.073 132.041C28.0551 132.16 28.0551 132.281 28.073 132.399C28.0927 132.599 28.1617 132.791 28.2739 132.958C28.4676 133.244 28.6828 133.316 28.6864 133.298C28.6899 133.28 28.5285 133.165 28.3815 132.893C28.2974 132.737 28.2484 132.565 28.238 132.388C28.2322 132.285 28.2407 132.182 28.2631 132.081C28.2846 131.97 28.3313 131.88 28.3743 131.894C28.4174 131.909 28.5106 131.984 28.5501 132.077C28.5987 132.171 28.6383 132.269 28.6684 132.371C28.7199 132.544 28.7465 132.723 28.7473 132.904C28.7186 133.212 28.6541 133.402 28.6935 133.412Z" fill="#263238"/>
<path d="M50.2925 90.7173C50.2925 90.7173 33.7149 83.7721 28.586 83.4821C25.358 83.2959 22.9334 85.358 23.371 88.6803C23.5897 90.345 28.1699 109.802 28.1699 109.802L35.1496 106.623L31.7924 93.166L45.4218 99.7747L50.2925 90.7173Z" fill="#263238"/>
<path d="M29.7085 89.7615C29.6547 89.8081 30.2034 90.5133 30.7845 91.4477C31.3655 92.3821 31.7529 93.1876 31.8174 93.1625C31.882 93.1375 31.5843 92.2747 30.9925 91.3224C30.4007 90.3701 29.7695 89.7186 29.7085 89.7615Z" fill="#455A64"/>
<path d="M28.3527 90.5346C28.3168 90.5955 29.1525 91.1253 30.146 91.8485C31.1395 92.5717 31.8855 93.2053 31.9393 93.1552C31.9931 93.1051 31.2758 92.364 30.2787 91.648C29.2816 90.932 28.3814 90.4774 28.3527 90.5346Z" fill="#455A64"/>
<path d="M63.2222 94.8916C63.2222 94.8916 61.1384 97.573 59.1513 98.3069C56.6407 99.2269 38.1837 107.923 38.1837 107.923C38.1837 107.923 34.8337 132.764 35.0991 131.726L27.3699 131.54L28.2092 108.66C28.3096 105.732 30.6624 102.367 33.191 100.87L50.2923 90.7173L63.2222 94.8916Z" fill="#263238"/>
<path d="M28.0621 112.849C28.0867 112.746 28.0975 112.64 28.0944 112.534C28.0944 112.305 28.1231 112.008 28.141 111.635C28.185 110.534 28.2879 109.436 28.4495 108.345C28.6759 106.734 29.2485 105.19 30.1281 103.82C30.6723 103.033 31.3438 102.341 32.1151 101.772C32.9521 101.164 33.8279 100.61 34.7369 100.115C38.4563 97.9884 41.6664 95.8189 44.0407 94.3332C45.2243 93.5814 46.1927 92.9835 46.8527 92.5754L47.6202 92.1028C47.7131 92.0517 47.8007 91.9918 47.8821 91.9238C47.7833 91.9596 47.6883 92.0051 47.5987 92.0599C47.4158 92.1565 47.1468 92.2997 46.8061 92.493C46.121 92.8761 45.1454 93.4561 43.9367 94.1864C41.5372 95.6399 38.3092 97.7843 34.6114 99.9144C33.693 100.415 32.8088 100.976 31.9644 101.593C31.1738 102.179 30.4875 102.893 29.9344 103.706C29.0496 105.111 28.4851 106.694 28.2809 108.342C28.1332 109.439 28.0565 110.546 28.0514 111.653C28.0514 112.011 28.0514 112.323 28.0514 112.555C28.0462 112.653 28.0498 112.752 28.0621 112.849Z" fill="#455A64"/>
<path d="M56.4005 97.5085C56.2573 97.2868 56.0991 97.0751 55.9271 96.8748C55.5708 96.3577 55.3235 95.7738 55.2002 95.1584C55.0769 94.5429 55.0801 93.909 55.2097 93.2948C55.2894 93.0428 55.3517 92.7857 55.3962 92.5251C55.2221 92.7325 55.0992 92.9777 55.0376 93.2411C54.8539 93.8768 54.8268 94.5474 54.9587 95.1958C55.0874 95.8442 55.3731 96.4514 55.7908 96.9643C56.1172 97.376 56.3862 97.53 56.4005 97.5085Z" fill="#455A64"/>
<path d="M30.2106 131.54C30.2233 131.499 30.2305 131.457 30.2321 131.415C30.2321 131.314 30.2608 131.193 30.2788 131.039C30.3182 130.681 30.3684 130.208 30.433 129.607C30.5585 128.332 30.7379 126.517 30.9602 124.283C31.0642 123.159 31.1826 121.928 31.3189 120.607C31.4552 119.286 31.5807 117.872 31.6776 116.382C31.7744 114.893 31.9322 113.336 32.2048 111.728C32.471 110.079 32.9534 108.472 33.6395 106.949C34.356 105.444 35.3022 104.058 36.4442 102.843C37.5144 101.712 38.6862 100.681 39.9448 99.7639C42.102 98.2476 44.3424 96.8528 46.6555 95.586C48.6174 94.4619 50.1812 93.5025 51.2177 92.7793C51.7414 92.4213 52.1359 92.1313 52.4013 91.9273L52.699 91.6946C52.766 91.6421 52.7983 91.6134 52.7959 91.6086C52.7559 91.6248 52.7185 91.6465 52.6847 91.6731L52.3726 91.8879C52.1 92.0776 51.6948 92.3569 51.1675 92.7041C50.113 93.3986 48.5421 94.333 46.5694 95.4392C44.2374 96.6875 41.9811 98.0718 39.8121 99.5849C38.5367 100.504 37.3503 101.541 36.2685 102.682C35.106 103.914 34.1439 105.32 33.4171 106.849C32.7281 108.391 32.2457 110.017 31.9824 111.685C31.7134 113.296 31.5771 114.861 31.466 116.339C31.3548 117.818 31.2436 119.243 31.1073 120.564C30.971 121.885 30.8849 123.116 30.7881 124.244C30.598 126.481 30.4294 128.296 30.3397 129.575C30.2919 130.19 30.2561 130.668 30.2321 131.007C30.2321 131.16 30.2142 131.286 30.207 131.382C30.1999 131.479 30.2034 131.54 30.2106 131.54Z" fill="#455A64"/>
<path d="M48.4201 51.3158C48.1598 50.6467 47.6691 50.0922 47.0361 49.7517C46.4031 49.4111 45.6692 49.3069 44.9662 49.4578C44.6568 49.5707 44.3334 49.6406 44.0049 49.6654C43.6069 49.5974 43.2156 49.4943 42.8357 49.3576C42.4052 49.2879 41.9641 49.3805 41.5982 49.6174C41.2323 49.8543 40.9677 50.2185 40.8558 50.6392C40.5189 50.5575 40.1682 50.5501 39.8282 50.6175C39.4881 50.6849 39.1668 50.8254 38.8868 51.0294C38.6121 51.2417 38.4171 51.5401 38.3332 51.8765C38.2492 52.213 38.2813 52.5678 38.4241 52.8839C38.564 53.1452 38.7828 53.3528 38.9226 53.6213C39.1342 54.0617 39.0374 54.5915 39.1845 55.0533C39.3225 55.3892 39.5525 55.6794 39.848 55.8909C40.1436 56.1024 40.4929 56.2265 40.8558 56.2491C41.5861 56.2865 42.3168 56.1832 43.0078 55.9448" fill="#263238"/>
<path d="M45.0809 65.4746C44.9912 64.7801 44.9338 64.2932 44.9338 64.2932C44.9338 64.2932 42.6204 64.2932 41.7058 61.4292C41.2432 59.9972 40.9347 57.6058 40.7482 55.6296C40.7074 55.2086 40.7525 54.7838 40.8806 54.3807C41.0088 53.9776 41.2174 53.6045 41.4939 53.284C41.7704 52.9636 42.1091 52.7023 42.4894 52.516C42.8698 52.3297 43.2841 52.2222 43.7072 52.2L49.8476 51.8813L49.9803 52.8301L51.5979 64.6154C51.6564 65.0427 51.6296 65.4773 51.5193 65.8943C51.4089 66.3112 51.217 66.7023 50.9547 67.045C50.6924 67.3876 50.3648 67.6752 49.9907 67.8911C49.6167 68.1069 49.2036 68.2468 48.7752 68.3028C48.3464 68.3601 47.9106 68.3324 47.4926 68.2211C47.0746 68.1099 46.6827 67.9174 46.3395 67.6546C45.9963 67.3918 45.7084 67.064 45.4924 66.6899C45.2764 66.3158 45.1366 65.9028 45.0809 65.4746Z" fill="#B78876"/>
<path d="M41.6055 57.3159C41.6206 57.4138 41.6731 57.5021 41.752 57.5622C41.8309 57.6222 41.9301 57.6495 42.0287 57.6381C42.0775 57.6351 42.1252 57.6221 42.1688 57.6C42.2124 57.5778 42.251 57.5471 42.2822 57.5095C42.3134 57.472 42.3367 57.4284 42.3504 57.3816C42.3642 57.3348 42.3682 57.2856 42.3622 57.2372C42.3489 57.1384 42.2968 57.0491 42.2174 56.9886C42.1381 56.9282 42.0379 56.9017 41.939 56.915C41.8902 56.918 41.8425 56.931 41.799 56.9531C41.7554 56.9752 41.7168 57.006 41.6855 57.0436C41.6543 57.0811 41.6311 57.1246 41.6173 57.1715C41.6035 57.2183 41.5995 57.2675 41.6055 57.3159Z" fill="#263238"/>
<path d="M41.4476 56.7861C41.5014 56.8255 41.7524 56.5713 42.1649 56.5069C42.5774 56.4425 42.8822 56.6 42.936 56.5427C42.9898 56.4854 42.893 56.4353 42.7495 56.3637C42.555 56.2685 42.3353 56.2371 42.1219 56.2742C41.9107 56.3057 41.7155 56.405 41.5659 56.557C41.4476 56.6716 41.4189 56.7682 41.4476 56.7861Z" fill="#263238"/>
<path d="M45.4504 56.6645C45.4655 56.7621 45.5182 56.85 45.5972 56.9095C45.6762 56.969 45.7754 56.9954 45.8736 56.9831C45.9224 56.9805 45.9701 56.9679 46.0139 56.9462C46.0576 56.9245 46.0965 56.8942 46.1281 56.857C46.1596 56.8198 46.1832 56.7765 46.1975 56.7299C46.2117 56.6832 46.2162 56.6342 46.2108 56.5857C46.1957 56.4878 46.1431 56.3995 46.0642 56.3395C45.9853 56.2794 45.8861 56.2522 45.7876 56.2635C45.7384 56.2661 45.6904 56.2787 45.6464 56.3006C45.6023 56.3225 45.5633 56.3533 45.5317 56.3909C45.5001 56.4285 45.4765 56.4722 45.4626 56.5192C45.4486 56.5663 45.4444 56.6157 45.4504 56.6645Z" fill="#263238"/>
<path d="M45.4432 56.2276C45.497 56.2705 45.748 56.0128 46.1605 55.9519C46.573 55.891 46.8778 56.0414 46.9316 55.9841C46.9854 55.9269 46.8886 55.8803 46.7451 55.8051C46.5497 55.7131 46.3309 55.6819 46.1175 55.7156C45.9071 55.7495 45.7126 55.8484 45.5615 55.9984C45.4432 56.113 45.4181 56.2061 45.4432 56.2276Z" fill="#263238"/>
<path d="M44.4497 59.4638C44.2247 59.4335 43.9967 59.4335 43.7718 59.4638C43.6678 59.4638 43.5674 59.4638 43.5387 59.3958C43.5057 59.2922 43.5057 59.1808 43.5387 59.0772C43.596 58.8123 43.657 58.533 43.7216 58.243C43.8967 57.5313 44.0166 56.8072 44.0802 56.0771C43.8453 56.7779 43.6666 57.4961 43.5458 58.2251C43.4884 58.5187 43.4311 58.798 43.3808 59.0665C43.3307 59.1991 43.3307 59.3455 43.3808 59.4781C43.4018 59.5121 43.43 59.5409 43.4635 59.5626C43.497 59.5843 43.535 59.5982 43.5745 59.6035C43.6341 59.6109 43.6943 59.6109 43.7539 59.6035C43.9908 59.5865 44.2246 59.5396 44.4497 59.4638Z" fill="#263238"/>
<path d="M44.9338 64.2934C46.32 64.0949 47.6238 63.5161 48.6998 62.6216C48.6998 62.6216 48.0614 64.7982 45.0809 64.9808L44.9338 64.2934Z" fill="#AA6550"/>
<path d="M45.6871 59.5533C45.619 59.5533 45.6871 59.9973 45.3643 60.3696C45.0415 60.7419 44.5609 60.767 44.5645 60.8278C44.5681 60.8887 44.6828 60.8994 44.8837 60.8708C45.1422 60.8361 45.3793 60.7089 45.5508 60.5128C45.7188 60.327 45.8065 60.0825 45.7947 59.8326C45.7839 59.6464 45.7158 59.5462 45.6871 59.5533Z" fill="#263238"/>
<path d="M45.0846 54.6596C45.142 54.7634 45.5401 54.6596 46.0243 54.6273C46.5085 54.5951 46.9138 54.6775 46.9604 54.5701C47.007 54.4627 46.8994 54.4269 46.7273 54.3445C46.499 54.2451 46.2508 54.1995 46.002 54.2113C45.7532 54.2231 45.5104 54.292 45.2926 54.4125C45.1348 54.5092 45.0595 54.6094 45.0846 54.6596Z" fill="#263238"/>
<path d="M41.4081 55.5904C41.4942 55.6692 41.7667 55.5296 42.0931 55.4723C42.4195 55.415 42.7244 55.4365 42.7746 55.3291C42.7961 55.279 42.7351 55.193 42.5988 55.1286C42.4154 55.0471 42.2111 55.0246 42.0142 55.0642C41.8178 55.0987 41.6372 55.1939 41.4977 55.3362C41.3937 55.4508 41.3686 55.551 41.4081 55.5904Z" fill="#263238"/>
<path d="M40.4255 54.3373C40.4255 54.3373 42.0503 54.8851 43.9153 53.6392C45.1384 52.823 46.6233 52.3111 46.9927 52.533C47.3621 52.755 47.6024 54.0867 48.9474 54.323C48.9474 54.323 49.1842 56.9006 50.1992 56.6787C50.9165 56.5211 50.5005 53.6786 50.1992 52.0569C50.1362 51.7433 49.97 51.4598 49.7269 51.2516C49.4838 51.0433 49.1778 50.9222 48.8578 50.9077L46.9676 50.8325L44.6076 51.4912L42.0754 52.1786L40.1458 52.9841L40.4255 54.3373Z" fill="#263238"/>
<path d="M49.9731 55.6297C50.009 55.6046 51.5764 54.7812 51.8669 56.4889C52.1574 58.1965 50.382 58.1321 50.3677 58.0855C50.3533 58.039 49.9731 55.6297 49.9731 55.6297Z" fill="#B78876"/>
<path d="M50.7801 57.3482C50.7801 57.3482 50.8159 57.3661 50.8697 57.3804C50.9453 57.3983 51.0248 57.3868 51.0921 57.3482C51.1897 57.2592 51.2622 57.1463 51.3025 57.0207C51.3427 56.8951 51.3494 56.7611 51.3217 56.6322C51.3009 56.4854 51.2483 56.3448 51.1674 56.2205C51.1414 56.1701 51.1038 56.1267 51.0576 56.0937C51.0115 56.0607 50.9581 56.0392 50.902 56.0307C50.8664 56.0277 50.8308 56.0371 50.8014 56.0574C50.7719 56.0776 50.7505 56.1074 50.7406 56.1417C50.7406 56.1918 50.7406 56.2241 50.7406 56.2312C50.7406 56.2384 50.7012 56.2062 50.7012 56.1346C50.7042 56.0907 50.7219 56.0491 50.7514 56.0164C50.7928 55.9732 50.8493 55.9476 50.9092 55.9448C50.9822 55.9462 51.0535 55.9663 51.1164 56.0034C51.1792 56.0404 51.2314 56.093 51.2679 56.156C51.366 56.2913 51.4289 56.4488 51.4508 56.6143C51.4864 56.765 51.476 56.9229 51.4211 57.0677C51.3661 57.2125 51.269 57.3376 51.1423 57.4269C51.0986 57.4476 51.0508 57.4584 51.0025 57.4584C50.9541 57.4584 50.9063 57.4476 50.8626 57.4269C50.7908 57.3911 50.7765 57.3553 50.7801 57.3482Z" fill="#AA6550"/>
<path d="M41.2468 50.0091C41.2468 50.0091 41.3042 50.1021 41.4262 50.2382C41.6008 50.4311 41.8236 50.5744 42.0718 50.6535C42.4405 50.7724 42.8345 50.7897 43.2123 50.7036C43.6821 50.5896 44.1434 50.4437 44.5932 50.2668C45.0588 50.0838 45.5562 49.995 46.0565 50.0055C46.4797 50.0207 46.88 50.2006 47.172 50.5067C47.3709 50.7064 47.4917 50.9705 47.5127 51.2513C47.5276 51.3532 47.5101 51.4571 47.4625 51.5485C47.4446 51.5485 47.4625 51.4411 47.441 51.2585C47.3963 51.0048 47.2704 50.7725 47.0823 50.5962C46.806 50.3318 46.4393 50.1821 46.0565 50.1773C45.579 50.1777 45.1057 50.2676 44.6613 50.4422C44.2041 50.6238 43.7326 50.7675 43.2518 50.8718C42.8458 50.9557 42.4243 50.9234 42.0359 50.7788C41.7722 50.6821 41.5427 50.5103 41.3759 50.2847C41.2468 50.12 41.2468 50.0126 41.2468 50.0091Z" fill="#455A64"/>
<path d="M47.0248 51.6451C47.0248 51.6451 46.9387 51.5556 46.7594 51.4303C46.5036 51.2741 46.2092 51.1923 45.9094 51.1941C45.4547 51.1924 45.0064 51.3018 44.6038 51.5127C44.1006 51.7839 43.5807 52.0231 43.0472 52.2287C42.541 52.3855 42.008 52.4369 41.4811 52.3796C40.9542 52.3223 40.4447 52.1576 39.9842 51.8957C39.7056 51.7393 39.4508 51.544 39.2274 51.3158C39.1404 51.2382 39.0676 51.1461 39.0122 51.0437C39.3298 51.3239 39.676 51.5698 40.0452 51.7776C40.9521 52.2527 42.0102 52.3518 42.9898 52.0533C43.5158 51.8409 44.0305 51.6019 44.5321 51.3373C44.9602 51.121 45.4373 51.0199 45.9165 51.0437C46.2422 51.0562 46.5557 51.1701 46.8132 51.3695C46.9073 51.4407 46.9804 51.5359 47.0248 51.6451Z" fill="#455A64"/>
<path d="M41.7131 80.7362L33.3848 73.6514L30.6375 74.2707C30.6375 74.2707 33.5319 80.2779 35.6265 82.4796C35.6265 82.4796 37.696 85.2434 41.1105 84.0477C44.525 82.852 41.7131 80.7362 41.7131 80.7362Z" fill="#B78876"/>
<path d="M32.7536 65.8469H29.2135C29.0799 65.8542 28.9496 65.891 28.8321 65.9548C28.7146 66.0186 28.6128 66.1078 28.5341 66.2158C28.4555 66.3238 28.4019 66.448 28.3774 66.5792C28.3528 66.7105 28.3579 66.8456 28.3922 66.9746L31.9537 73.8948C32.0213 74.0266 32.124 74.1371 32.2506 74.2142C32.3772 74.2913 32.5228 74.3319 32.6711 74.3315H36.9751C37.0762 74.3203 37.1731 74.2842 37.2569 74.2265C37.3407 74.1688 37.4089 74.0913 37.4554 74.0009C37.5019 73.9105 37.5253 73.8101 37.5235 73.7085C37.5217 73.6069 37.4947 73.5073 37.4449 73.4186L34.0125 66.6417C33.8956 66.4069 33.7164 66.2086 33.4944 66.0684C33.2725 65.9283 33.0162 65.8517 32.7536 65.8469Z" fill="#455A64"/>
<path d="M32.5169 66.2659H28.9769C28.8752 66.2652 28.7752 66.2907 28.6863 66.3399C28.5975 66.389 28.5228 66.4602 28.4694 66.5465C28.4161 66.6328 28.3859 66.7314 28.3818 66.8327C28.3777 66.9341 28.3998 67.0347 28.446 67.1251L31.9215 73.8949C31.9897 74.0261 32.0926 74.1363 32.219 74.2133C32.3455 74.2903 32.4907 74.3312 32.6388 74.3316H36.907C36.9656 74.3292 37.0227 74.3124 37.0733 74.2828C37.1239 74.2533 37.1665 74.2117 37.1973 74.1619C37.2281 74.1121 37.2461 74.0555 37.2499 73.9971C37.2537 73.9387 37.2431 73.8802 37.219 73.8268L33.783 67.0535C33.6669 66.8171 33.4867 66.618 33.2629 66.4788C33.0391 66.3396 32.7806 66.2658 32.5169 66.2659Z" fill="#263238"/>
<path d="M32.2156 69.094L30.0636 69.9532L29.6045 71.6859L30.641 74.2635L34.4321 74.822L33.3203 73.6871L33.4602 72.6955C33.4602 72.6955 34.5362 72.3625 34.5362 72.2014C34.5362 72.0403 34.4035 71.4854 34.2421 71.4675C33.8174 71.5643 33.4013 71.6948 32.9975 71.8578C32.9975 71.8578 34.3138 70.816 34.2779 70.6477C34.2421 70.4795 34.0986 70.0534 33.8368 70.0033C33.5749 69.9532 31.4445 70.9592 31.4445 70.9592L31.0858 71.7432L30.7845 70.4866C30.7845 70.4866 32.6819 69.9568 32.2156 69.094Z" fill="#B78876"/>
<path d="M32.488 73.1611C32.488 73.1611 32.4342 73.0894 32.4127 72.9462C32.3901 72.7639 32.4107 72.5788 32.473 72.4059C32.5353 72.233 32.6376 72.0772 32.7714 71.951C32.879 71.8579 32.9615 71.8257 32.9687 71.8365C32.805 72.0174 32.6706 72.2227 32.5705 72.4451C32.5067 72.6781 32.4789 72.9196 32.488 73.1611Z" fill="#AA6550"/>
<path d="M31.4624 72.7852C31.5044 72.6001 31.5332 72.4123 31.5485 72.2231C31.5572 72.0117 31.5934 71.8023 31.6561 71.6002C31.6971 71.4704 31.7686 71.3523 31.8647 71.2557C31.9608 71.1592 32.0787 71.087 32.2084 71.0453C32.7213 70.8591 33.1876 70.7088 33.5247 70.5978C33.705 70.5298 33.8911 70.4783 34.0807 70.4438C33.9137 70.539 33.7369 70.6158 33.5534 70.673C33.2199 70.8018 32.7536 70.9665 32.2479 71.1491C32.1298 71.1897 32.022 71.2557 31.9323 71.3424C31.8526 71.4267 31.7915 71.5267 31.7529 71.636C31.6873 71.8295 31.6451 72.0303 31.6274 72.2338C31.6204 72.4287 31.5636 72.6185 31.4624 72.7852Z" fill="#AA6550"/>
<path d="M30.9673 72.3985C30.9334 72.2585 30.9334 72.1124 30.9673 71.9725C31.0068 71.7433 31.0605 71.5643 31.0928 71.5679C31.1264 71.7079 31.1264 71.8539 31.0928 71.9939C31.0534 72.2231 30.9996 72.4021 30.9673 72.3985Z" fill="#AA6550"/>
<path d="M30.9099 67.5727C30.9099 67.6619 30.9364 67.7491 30.9861 67.8233C31.0357 67.8975 31.1063 67.9553 31.1889 67.9894C31.2715 68.0236 31.3623 68.0325 31.45 68.0151C31.5377 67.9977 31.6182 67.9547 31.6814 67.8916C31.7446 67.8286 31.7876 67.7482 31.8051 67.6607C31.8225 67.5732 31.8136 67.4825 31.7794 67.4001C31.7452 67.3176 31.6872 67.2472 31.6129 67.1976C31.5386 67.148 31.4512 67.1216 31.3618 67.1216C31.3024 67.1211 31.2434 67.1325 31.1883 67.155C31.1333 67.1775 31.0833 67.2107 31.0412 67.2527C30.9992 67.2946 30.9659 67.3445 30.9434 67.3995C30.9208 67.4544 30.9094 67.5133 30.9099 67.5727Z" fill="#FAFAFA"/>
<path d="M18.5073 135.811C19.069 135.985 19.5899 136.27 20.0386 136.649C20.4872 137.029 20.8545 137.495 21.1184 138.02C21.6412 139.074 21.9149 140.234 21.9182 141.41C21.9899 143.673 21.0502 146.107 19.9419 148.087C17.8222 146.726 16.9758 143.916 16.6314 142.484C16.0934 140.2 16.5059 135.746 18.5073 135.807" fill="#A47864"/>
<path d="M22.6642 151.452C22.4432 150.833 22.3899 150.168 22.5096 149.522C22.6292 148.876 22.9177 148.274 23.3457 147.775C23.7825 147.285 24.3129 146.886 24.906 146.603C25.4991 146.319 26.1429 146.157 26.7996 146.125C27.4022 146.082 28.0765 146.161 28.489 146.605C28.6702 146.823 28.7897 147.086 28.8351 147.366C28.8805 147.646 28.8502 147.933 28.7472 148.198C28.5328 148.724 28.1826 149.185 27.7322 149.533C26.2509 150.793 24.5867 151.738 22.6642 151.452Z" fill="#A47864"/>
<path d="M21.251 158.637C21.2347 158.482 21.2347 158.326 21.251 158.171C21.251 157.839 21.2797 157.412 21.2976 156.901C21.3116 155.49 21.5539 154.092 22.0149 152.759C22.4971 151.423 23.3265 150.239 24.418 149.329C24.7493 149.062 25.1103 148.833 25.494 148.649C25.6303 148.581 25.7451 148.548 25.8168 148.516C25.8885 148.484 25.9316 148.477 25.9352 148.484C25.0503 148.921 24.2611 149.529 23.6134 150.272C22.9657 151.016 22.4723 151.88 22.162 152.816C21.7132 154.136 21.463 155.515 21.4196 156.908C21.3837 157.441 21.3514 157.874 21.3227 158.175C21.3116 158.331 21.2876 158.485 21.251 158.637Z" fill="#263238"/>
<path d="M18.4929 139.23C18.5143 139.294 18.5311 139.36 18.5431 139.427C18.5742 139.575 18.6136 139.764 18.6614 139.996C18.7619 140.49 18.8982 141.209 19.056 142.097C19.3752 143.887 19.7733 146.34 20.1643 149.068C20.5552 151.796 20.8457 154.273 21.0322 156.07C21.1255 156.969 21.1936 157.695 21.2367 158.2C21.2534 158.439 21.2678 158.632 21.2797 158.78C21.29 158.847 21.29 158.914 21.2797 158.981C21.2618 158.915 21.2498 158.848 21.2438 158.78C21.2259 158.633 21.2008 158.444 21.1685 158.204C21.104 157.685 21.0179 156.965 20.9103 156.084C20.6951 154.294 20.383 151.817 19.9993 149.089C19.6155 146.361 19.2281 143.916 18.9412 142.126C18.7977 141.249 18.683 140.533 18.5825 140.014C18.5467 139.777 18.518 139.588 18.4929 139.441C18.4835 139.371 18.4835 139.3 18.4929 139.23Z" fill="#263238"/>
<path d="M19.6084 153.281C19.1864 151.965 18.4566 150.768 17.4793 149.79C16.5019 148.811 15.3052 148.079 13.9881 147.654C13.3138 147.442 12.4673 147.367 12.0154 147.908C11.5635 148.448 11.8074 149.272 12.1553 149.884C12.9036 151.149 14.0106 152.164 15.3365 152.801C16.6623 153.438 18.1476 153.669 19.6048 153.464" fill="#A47864"/>
<path d="M14.5869 149.723C14.7312 149.748 14.8729 149.786 15.0101 149.837C15.175 149.886 15.3367 149.944 15.4943 150.013C15.6809 150.095 15.8996 150.167 16.122 150.288C16.3678 150.408 16.6073 150.541 16.8393 150.686C17.1125 150.85 17.3771 151.028 17.632 151.219C18.8057 152.099 19.7464 153.252 20.3722 154.577C20.5082 154.865 20.6279 155.16 20.7309 155.461C20.8252 155.721 20.903 155.987 20.964 156.256C21.0197 156.478 21.0628 156.703 21.0931 156.929C21.1243 157.098 21.1447 157.269 21.1541 157.441C21.1689 157.586 21.1713 157.732 21.1613 157.878C21.1218 157.878 21.0967 157.251 20.8421 156.281C20.7742 156.018 20.6928 155.759 20.5982 155.504C20.4953 155.209 20.3755 154.92 20.2395 154.638C19.9214 154.002 19.5354 153.402 19.0882 152.848C18.6283 152.296 18.1113 151.795 17.5459 151.352C17.2982 151.161 17.0408 150.983 16.7748 150.818C16.5433 150.668 16.3039 150.531 16.0575 150.406C15.1787 149.93 14.5726 149.755 14.5869 149.723Z" fill="#263238"/>
</svg>
