<svg width="305" height="305" viewBox="0 0 305 305" fill="none" xmlns="http://www.w3.org/2000/svg">
<path opacity="0.7" d="M41.4373 101.925C41.4373 101.925 24.4305 145.845 48.3303 190.07C72.2301 234.295 121.457 257.658 160.857 277.635C200.257 297.613 241.17 287.883 260.61 255.163C280.051 222.443 253.388 199.086 253.351 152.427C253.315 105.768 260.336 93.4154 235.051 53.9972C209.767 14.5789 147.785 5.84985 100.912 35.0872C54.0399 64.3245 41.4373 101.925 41.4373 101.925Z" fill="white"/>
<path d="M12.0658 170.928C8.91325 156.346 10.2771 141.149 15.9759 127.362C23.79 108.074 40.5406 94.373 59.3164 86.3759C86.6078 74.7859 113.399 74.5358 135.566 51.7645C142.404 44.7373 148.151 36.6914 155.135 29.8045C175.753 9.51589 205.924 11.9742 228.451 28.066C275.421 61.616 292.355 128.106 289.738 183.043C288.567 207.705 276.794 230.659 258.158 246.836C216.013 283.436 144.454 277.275 96.0445 258.17C59.9691 243.939 20.5448 210.712 12.0658 170.928Z" fill="#A47864"/>
<path opacity="0.7" d="M12.0658 170.928C8.91325 156.346 10.2771 141.149 15.9759 127.362C23.79 108.074 40.5406 94.373 59.3164 86.3759C86.6078 74.7859 113.399 74.5358 135.566 51.7645C142.404 44.7373 148.151 36.6914 155.135 29.8045C175.753 9.51589 205.924 11.9742 228.451 28.066C275.421 61.616 292.355 128.106 289.738 183.043C288.567 207.705 276.794 230.659 258.158 246.836C216.013 283.436 144.454 277.275 96.0445 258.17C59.9691 243.939 20.5448 210.712 12.0658 170.928Z" fill="white"/>
<path d="M153.073 65.2517V69.3021" stroke="#263238" stroke-width="1.10721" stroke-linecap="round" stroke-linejoin="round"/>
<path d="M153.073 73.676V80.2335" stroke="#263238" stroke-width="1.10721" stroke-linecap="round" stroke-linejoin="round" stroke-dasharray="7.17 7.17"/>
<path d="M153.073 82.4172V86.4676" stroke="#263238" stroke-width="1.10721" stroke-linecap="round" stroke-linejoin="round"/>
<path d="M217.715 133.822H213.665" stroke="#263238" stroke-width="1.10721" stroke-linecap="round" stroke-linejoin="round"/>
<path d="M209.291 133.822H202.734" stroke="#263238" stroke-width="1.10721" stroke-linecap="round" stroke-linejoin="round" stroke-dasharray="7.17 7.17"/>
<path d="M200.55 133.822H196.499" stroke="#263238" stroke-width="1.10721" stroke-linecap="round" stroke-linejoin="round"/>
<path d="M109.654 133.822H105.597" stroke="#263238" stroke-width="1.10721" stroke-linecap="round" stroke-linejoin="round"/>
<path d="M101.229 133.822H94.672" stroke="#263238" stroke-width="1.10721" stroke-linecap="round" stroke-linejoin="round" stroke-dasharray="7.17 7.17"/>
<path d="M92.4882 133.822H88.4317" stroke="#263238" stroke-width="1.10721" stroke-linecap="round" stroke-linejoin="round"/>
<path d="M264.74 147.559C264.74 147.276 264.852 147.005 265.053 146.804C265.253 146.604 265.524 146.492 265.807 146.492C266.091 146.492 266.362 146.604 266.562 146.804C266.763 147.005 266.875 147.276 266.875 147.559V149.889C266.875 150.173 266.763 150.444 266.562 150.644C266.362 150.844 266.091 150.957 265.807 150.957C265.524 150.957 265.253 150.844 265.053 150.644C264.852 150.444 264.74 150.173 264.74 149.889V147.559ZM265.441 149.932C265.441 150.249 265.582 150.371 265.807 150.371C266.033 150.371 266.167 150.249 266.167 149.932V147.492C266.167 147.175 266.027 147.053 265.807 147.053C265.588 147.053 265.441 147.175 265.441 147.492V149.932Z" fill="#263238"/>
<path d="M265.24 153.44C265.416 153.461 265.593 153.415 265.736 153.311C265.878 153.207 265.976 153.052 266.009 152.878H266.485V157.38H265.783V153.97H265.24V153.44Z" fill="#263238"/>
<path d="M264.74 160.338C264.74 160.055 264.852 159.784 265.053 159.584C265.253 159.383 265.524 159.271 265.807 159.271C266.091 159.271 266.362 159.383 266.562 159.584C266.763 159.784 266.875 160.055 266.875 160.338V162.663C266.875 162.946 266.763 163.217 266.562 163.417C266.362 163.618 266.091 163.73 265.807 163.73C265.524 163.73 265.253 163.618 265.053 163.417C264.852 163.217 264.74 162.946 264.74 162.663V160.338ZM265.441 162.711C265.441 163.029 265.582 163.151 265.807 163.151C266.033 163.151 266.167 163.029 266.167 162.711V160.271C266.167 159.948 266.027 159.832 265.807 159.832C265.588 159.832 265.441 159.948 265.441 160.271V162.711Z" fill="#263238"/>
<path d="M265.24 166.219C265.416 166.241 265.593 166.195 265.736 166.09C265.878 165.986 265.976 165.831 266.009 165.658H266.485V170.123H265.783V166.713H265.24V166.219Z" fill="#263238"/>
<path d="M264.74 173.118C264.74 172.835 264.852 172.563 265.053 172.363C265.253 172.163 265.524 172.051 265.807 172.051C266.091 172.051 266.362 172.163 266.562 172.363C266.763 172.563 266.875 172.835 266.875 173.118V175.442C266.875 175.725 266.763 175.997 266.562 176.197C266.362 176.397 266.091 176.51 265.807 176.51C265.524 176.51 265.253 176.397 265.053 176.197C264.852 175.997 264.74 175.725 264.74 175.442V173.118ZM265.441 175.485C265.441 175.808 265.582 175.924 265.807 175.924C266.033 175.924 266.167 175.808 266.167 175.485V173.045C266.167 172.728 266.027 172.606 265.807 172.606C265.588 172.606 265.441 172.728 265.441 173.045V175.485Z" fill="#263238"/>
<path d="M265.24 178.992C265.416 179.014 265.593 178.968 265.736 178.864C265.878 178.76 265.976 178.605 266.009 178.431H266.485V182.902H265.783V179.493H265.24V178.992Z" fill="#263238"/>
<path d="M264.74 185.891C264.74 185.608 264.852 185.337 265.053 185.137C265.253 184.936 265.524 184.824 265.807 184.824C266.091 184.824 266.362 184.936 266.562 185.137C266.763 185.337 266.875 185.608 266.875 185.891V188.222C266.875 188.505 266.763 188.776 266.562 188.977C266.362 189.177 266.091 189.289 265.807 189.289C265.524 189.289 265.253 189.177 265.053 188.977C264.852 188.776 264.74 188.505 264.74 188.222V185.891ZM265.441 188.264C265.441 188.582 265.582 188.704 265.807 188.704C266.033 188.704 266.167 188.582 266.167 188.264V185.824C266.167 185.507 266.027 185.385 265.807 185.385C265.588 185.385 265.441 185.507 265.441 185.824V188.264Z" fill="#263238"/>
<path d="M264.74 192.284C264.74 192.001 264.852 191.73 265.053 191.529C265.253 191.329 265.524 191.217 265.807 191.217C266.091 191.217 266.362 191.329 266.562 191.529C266.763 191.73 266.875 192.001 266.875 192.284V194.59C266.875 194.873 266.763 195.145 266.562 195.345C266.362 195.545 266.091 195.658 265.807 195.658C265.524 195.658 265.253 195.545 265.053 195.345C264.852 195.145 264.74 194.873 264.74 194.59V192.284ZM265.441 194.651C265.441 194.974 265.582 195.09 265.807 195.09C266.033 195.09 266.167 194.974 266.167 194.651V192.211C266.167 191.888 266.027 191.766 265.807 191.766C265.588 191.766 265.441 191.888 265.441 192.211V194.651Z" fill="#263238"/>
<path d="M264.74 198.671C264.74 198.388 264.852 198.116 265.053 197.916C265.253 197.716 265.524 197.604 265.807 197.604C266.091 197.604 266.362 197.716 266.562 197.916C266.763 198.116 266.875 198.388 266.875 198.671V200.995C266.875 201.278 266.763 201.55 266.562 201.75C266.362 201.95 266.091 202.063 265.807 202.063C265.524 202.063 265.253 201.95 265.053 201.75C264.852 201.55 264.74 201.278 264.74 200.995V198.671ZM265.441 201.044C265.441 201.361 265.582 201.483 265.807 201.483C266.033 201.483 266.167 201.361 266.167 201.044V198.604C266.167 198.287 266.027 198.165 265.807 198.165C265.588 198.165 265.441 198.287 265.441 198.604V201.044Z" fill="#263238"/>
<path d="M265.24 210.938C265.416 210.96 265.593 210.914 265.736 210.81C265.878 210.705 265.976 210.551 266.009 210.377H266.485V214.848H265.783V211.438H265.24V210.938Z" fill="#263238"/>
<path d="M265.24 217.331C265.417 217.354 265.595 217.308 265.739 217.202C265.882 217.096 265.979 216.939 266.009 216.764H266.485V221.235H265.783V217.825H265.24V217.331Z" fill="#263238"/>
<path d="M265.24 223.718C265.416 223.739 265.593 223.693 265.736 223.589C265.878 223.485 265.976 223.33 266.009 223.156H266.485V227.622H265.783V224.218H265.24V223.718Z" fill="#263238"/>
<path d="M264.74 230.617C264.74 230.334 264.852 230.062 265.053 229.862C265.253 229.662 265.524 229.549 265.807 229.549C266.091 229.549 266.362 229.662 266.562 229.862C266.763 230.062 266.875 230.334 266.875 230.617V232.941C266.875 233.224 266.763 233.496 266.562 233.696C266.362 233.896 266.091 234.008 265.807 234.008C265.524 234.008 265.253 233.896 265.053 233.696C264.852 233.496 264.74 233.224 264.74 232.941V230.617ZM265.441 232.984C265.441 233.307 265.582 233.423 265.807 233.423C266.033 233.423 266.167 233.307 266.167 232.984V230.58C266.167 230.257 266.027 230.135 265.807 230.135C265.588 230.135 265.441 230.257 265.441 230.58V232.984Z" fill="#263238"/>
<path d="M264.74 237.003C264.74 236.72 264.852 236.449 265.053 236.248C265.253 236.048 265.524 235.936 265.807 235.936C266.091 235.936 266.362 236.048 266.562 236.248C266.763 236.449 266.875 236.72 266.875 237.003V239.327C266.875 239.611 266.763 239.882 266.562 240.082C266.362 240.282 266.091 240.395 265.807 240.395C265.524 240.395 265.253 240.282 265.053 240.082C264.852 239.882 264.74 239.611 264.74 239.327V237.003ZM265.441 239.376C265.441 239.693 265.582 239.815 265.807 239.815C266.033 239.815 266.167 239.693 266.167 239.376V236.936C266.167 236.619 266.027 236.497 265.807 236.497C265.588 236.497 265.441 236.619 265.441 236.936V239.376Z" fill="#263238"/>
<path d="M265.24 242.884C265.416 242.905 265.593 242.859 265.736 242.755C265.878 242.651 265.976 242.496 266.009 242.323H266.485V246.788H265.783V243.39H265.24V242.884Z" fill="#263238"/>
<path d="M269.01 140.66C269.186 140.682 269.364 140.636 269.508 140.532C269.652 140.428 269.751 140.273 269.785 140.099H270.254V144.57H269.553V141.16H269.01V140.66Z" fill="#263238"/>
<path d="M269.01 147.053C269.186 147.075 269.364 147.029 269.508 146.925C269.652 146.821 269.751 146.666 269.785 146.492H270.254V150.957H269.553V147.547H269.01V147.053Z" fill="#263238"/>
<path d="M268.546 160.339C268.535 160.192 268.555 160.045 268.603 159.906C268.651 159.767 268.728 159.64 268.828 159.532C268.928 159.424 269.049 159.338 269.184 159.28C269.318 159.221 269.464 159.19 269.611 159.19C269.758 159.19 269.903 159.221 270.038 159.28C270.173 159.338 270.294 159.424 270.394 159.532C270.494 159.64 270.57 159.767 270.619 159.906C270.667 160.045 270.686 160.192 270.675 160.339V162.663C270.686 162.809 270.667 162.957 270.619 163.095C270.57 163.234 270.494 163.361 270.394 163.469C270.294 163.577 270.173 163.663 270.038 163.722C269.903 163.78 269.758 163.811 269.611 163.811C269.464 163.811 269.318 163.78 269.184 163.722C269.049 163.663 268.928 163.577 268.828 163.469C268.728 163.361 268.651 163.234 268.603 163.095C268.555 162.957 268.535 162.809 268.546 162.663V160.339ZM269.248 162.711C269.248 163.029 269.388 163.151 269.608 163.151C269.827 163.151 269.974 163.029 269.974 162.711V160.271C269.974 159.948 269.833 159.832 269.608 159.832C269.382 159.832 269.248 159.948 269.248 160.271V162.711Z" fill="#263238"/>
<path d="M269.01 178.992C269.186 179.014 269.364 178.968 269.508 178.864C269.652 178.76 269.751 178.605 269.785 178.431H270.254V182.902H269.553V179.493H269.01V178.992Z" fill="#263238"/>
<path d="M268.546 185.892C268.535 185.745 268.555 185.598 268.603 185.459C268.651 185.32 268.728 185.193 268.828 185.085C268.928 184.977 269.049 184.891 269.184 184.833C269.318 184.774 269.464 184.743 269.611 184.743C269.758 184.743 269.903 184.774 270.038 184.833C270.173 184.891 270.294 184.977 270.394 185.085C270.494 185.193 270.57 185.32 270.619 185.459C270.667 185.598 270.686 185.745 270.675 185.892V188.222C270.686 188.368 270.667 188.516 270.619 188.654C270.57 188.793 270.494 188.92 270.394 189.028C270.294 189.136 270.173 189.222 270.038 189.281C269.903 189.34 269.758 189.37 269.611 189.37C269.464 189.37 269.318 189.34 269.184 189.281C269.049 189.222 268.928 189.136 268.828 189.028C268.728 188.92 268.651 188.793 268.603 188.654C268.555 188.516 268.535 188.368 268.546 188.222V185.892ZM269.248 188.264C269.248 188.582 269.388 188.704 269.608 188.704C269.827 188.704 269.974 188.582 269.974 188.264V185.824C269.974 185.507 269.833 185.385 269.608 185.385C269.382 185.385 269.248 185.507 269.248 185.824V188.264Z" fill="#263238"/>
<path d="M269.01 191.772C269.186 191.794 269.364 191.748 269.508 191.644C269.652 191.54 269.751 191.385 269.785 191.211H270.254V195.682H269.553V192.272H269.01V191.772Z" fill="#263238"/>
<path d="M269.01 198.159C269.186 198.182 269.365 198.137 269.509 198.032C269.653 197.928 269.752 197.772 269.785 197.597H270.254V202.069H269.553V198.659H269.01V198.159Z" fill="#263238"/>
<path d="M269.01 204.551C269.186 204.573 269.364 204.528 269.508 204.423C269.652 204.319 269.751 204.164 269.785 203.99H270.254V208.455H269.553V205.046H269.01V204.551Z" fill="#263238"/>
<path d="M268.546 211.451C268.535 211.304 268.555 211.157 268.603 211.018C268.651 210.879 268.728 210.752 268.828 210.644C268.928 210.536 269.049 210.45 269.184 210.392C269.318 210.333 269.464 210.302 269.611 210.302C269.758 210.302 269.903 210.333 270.038 210.392C270.173 210.45 270.294 210.536 270.394 210.644C270.494 210.752 270.57 210.879 270.619 211.018C270.667 211.157 270.686 211.304 270.675 211.451V213.775C270.686 213.921 270.667 214.069 270.619 214.207C270.57 214.346 270.494 214.473 270.394 214.581C270.294 214.689 270.173 214.775 270.038 214.834C269.903 214.893 269.758 214.923 269.611 214.923C269.464 214.923 269.318 214.893 269.184 214.834C269.049 214.775 268.928 214.689 268.828 214.581C268.728 214.473 268.651 214.346 268.603 214.207C268.555 214.069 268.535 213.921 268.546 213.775V211.451ZM269.248 213.817C269.248 214.141 269.388 214.257 269.608 214.257C269.827 214.257 269.974 214.141 269.974 213.817V211.408C269.974 211.085 269.833 210.963 269.608 210.963C269.382 210.963 269.248 211.085 269.248 211.408V213.817Z" fill="#263238"/>
<path d="M268.546 217.837C268.535 217.691 268.555 217.543 268.603 217.404C268.651 217.266 268.728 217.138 268.828 217.031C268.928 216.923 269.049 216.837 269.184 216.778C269.318 216.719 269.464 216.689 269.611 216.689C269.758 216.689 269.903 216.719 270.038 216.778C270.173 216.837 270.294 216.923 270.394 217.031C270.494 217.138 270.57 217.266 270.619 217.404C270.667 217.543 270.686 217.691 270.675 217.837V220.161C270.686 220.308 270.667 220.455 270.619 220.594C270.57 220.733 270.494 220.86 270.394 220.968C270.294 221.075 270.173 221.161 270.038 221.22C269.903 221.279 269.758 221.309 269.611 221.309C269.464 221.309 269.318 221.279 269.184 221.22C269.049 221.161 268.928 221.075 268.828 220.968C268.728 220.86 268.651 220.733 268.603 220.594C268.555 220.455 268.535 220.308 268.546 220.161V217.837ZM269.248 220.21C269.248 220.527 269.388 220.649 269.608 220.649C269.827 220.649 269.974 220.527 269.974 220.21V217.77C269.974 217.453 269.833 217.331 269.608 217.331C269.382 217.331 269.248 217.453 269.248 217.77V220.21Z" fill="#263238"/>
<path d="M261.44 178.992C261.616 179.014 261.794 178.968 261.938 178.864C262.082 178.76 262.18 178.605 262.215 178.431H262.684V182.902H261.983V179.493H261.44V178.992Z" fill="#263238"/>
<path d="M260.946 185.891C260.946 185.608 261.058 185.337 261.258 185.137C261.459 184.936 261.73 184.824 262.013 184.824C262.296 184.824 262.568 184.936 262.768 185.137C262.968 185.337 263.081 185.608 263.081 185.891V188.222C263.081 188.505 262.968 188.776 262.768 188.977C262.568 189.177 262.296 189.289 262.013 189.289C261.73 189.289 261.459 189.177 261.258 188.977C261.058 188.776 260.946 188.505 260.946 188.222V185.891ZM261.647 188.264C261.647 188.582 261.788 188.704 262.013 188.704C262.239 188.704 262.379 188.582 262.379 188.264V185.824C262.379 185.507 262.239 185.385 262.013 185.385C261.788 185.385 261.647 185.507 261.647 185.824V188.264Z" fill="#263238"/>
<path d="M260.946 192.284C260.946 192.001 261.058 191.73 261.258 191.529C261.459 191.329 261.73 191.217 262.013 191.217C262.296 191.217 262.568 191.329 262.768 191.529C262.968 191.73 263.081 192.001 263.081 192.284V194.59C263.081 194.873 262.968 195.145 262.768 195.345C262.568 195.545 262.296 195.658 262.013 195.658C261.73 195.658 261.459 195.545 261.258 195.345C261.058 195.145 260.946 194.873 260.946 194.59V192.284ZM261.647 194.651C261.647 194.974 261.788 195.09 262.013 195.09C262.239 195.09 262.379 194.974 262.379 194.651V192.211C262.379 191.888 262.239 191.766 262.013 191.766C261.788 191.766 261.647 191.888 261.647 192.211V194.651Z" fill="#263238"/>
<path d="M261.44 198.159C261.616 198.182 261.795 198.137 261.939 198.032C262.083 197.928 262.182 197.772 262.215 197.597H262.684V202.069H261.983V198.659H261.44V198.159Z" fill="#263238"/>
<path d="M261.44 210.938C261.616 210.96 261.794 210.914 261.938 210.81C262.082 210.706 262.18 210.551 262.215 210.377H262.684V214.848H261.983V211.438H261.44V210.938Z" fill="#263238"/>
<path d="M261.44 217.331C261.617 217.353 261.796 217.306 261.94 217.201C262.083 217.095 262.182 216.939 262.215 216.764H262.684V221.235H261.983V217.825H261.44V217.331Z" fill="#263238"/>
<path d="M261.44 223.718C261.616 223.74 261.794 223.694 261.938 223.59C262.082 223.485 262.18 223.331 262.215 223.156H262.684V227.622H261.983V224.218H261.44V223.718Z" fill="#263238"/>
<path d="M257.152 160.339C257.141 160.192 257.16 160.045 257.208 159.906C257.257 159.767 257.333 159.64 257.433 159.532C257.533 159.424 257.654 159.338 257.789 159.28C257.924 159.221 258.069 159.19 258.216 159.19C258.363 159.19 258.508 159.221 258.643 159.28C258.778 159.338 258.899 159.424 258.999 159.532C259.099 159.64 259.175 159.767 259.224 159.906C259.272 160.045 259.292 160.192 259.281 160.339V162.663C259.292 162.809 259.272 162.957 259.224 163.095C259.175 163.234 259.099 163.361 258.999 163.469C258.899 163.577 258.778 163.663 258.643 163.722C258.508 163.78 258.363 163.811 258.216 163.811C258.069 163.811 257.924 163.78 257.789 163.722C257.654 163.663 257.533 163.577 257.433 163.469C257.333 163.361 257.257 163.234 257.208 163.095C257.16 162.957 257.141 162.809 257.152 162.663V160.339ZM257.853 162.711C257.853 163.029 257.993 163.151 258.213 163.151C258.433 163.151 258.579 163.029 258.579 162.711V160.271C258.579 159.948 258.439 159.832 258.213 159.832C257.987 159.832 257.853 159.948 257.853 160.271V162.711Z" fill="#263238"/>
<path d="M257.152 173.118C257.141 172.972 257.16 172.824 257.208 172.686C257.257 172.547 257.333 172.419 257.433 172.312C257.533 172.204 257.654 172.118 257.789 172.059C257.924 172 258.069 171.97 258.216 171.97C258.363 171.97 258.508 172 258.643 172.059C258.778 172.118 258.899 172.204 258.999 172.312C259.099 172.419 259.175 172.547 259.224 172.686C259.272 172.824 259.292 172.972 259.281 173.118V175.442C259.292 175.589 259.272 175.736 259.224 175.875C259.175 176.014 259.099 176.141 258.999 176.249C258.899 176.356 258.778 176.442 258.643 176.501C258.508 176.56 258.363 176.59 258.216 176.59C258.069 176.59 257.924 176.56 257.789 176.501C257.654 176.442 257.533 176.356 257.433 176.249C257.333 176.141 257.257 176.014 257.208 175.875C257.16 175.736 257.141 175.589 257.152 175.442V173.118ZM257.853 175.485C257.853 175.808 257.993 175.924 258.213 175.924C258.433 175.924 258.579 175.808 258.579 175.485V173.045C258.579 172.728 258.439 172.606 258.213 172.606C257.987 172.606 257.853 172.728 257.853 173.045V175.485Z" fill="#263238"/>
<path d="M257.64 191.772C257.816 191.794 257.994 191.748 258.137 191.644C258.281 191.54 258.38 191.385 258.414 191.211H258.884V195.682H258.182V192.272H257.64V191.772Z" fill="#263238"/>
<path d="M257.64 198.159C257.816 198.182 257.995 198.137 258.139 198.032C258.283 197.928 258.381 197.772 258.414 197.597H258.884V202.069H258.182V198.659H257.64V198.159Z" fill="#263238"/>
<path d="M257.64 217.331C257.817 217.353 257.995 217.306 258.139 217.201C258.283 217.095 258.381 216.939 258.414 216.764H258.884V221.235H258.182V217.825H257.64V217.331Z" fill="#263238"/>
<path d="M257.152 224.23C257.141 224.083 257.16 223.936 257.208 223.797C257.257 223.659 257.333 223.531 257.433 223.424C257.533 223.316 257.654 223.23 257.789 223.171C257.924 223.112 258.069 223.082 258.216 223.082C258.363 223.082 258.508 223.112 258.643 223.171C258.778 223.23 258.899 223.316 258.999 223.424C259.099 223.531 259.175 223.659 259.224 223.797C259.272 223.936 259.292 224.083 259.281 224.23V226.554C259.292 226.701 259.272 226.848 259.224 226.987C259.175 227.125 259.099 227.253 258.999 227.36C258.899 227.468 258.778 227.554 258.643 227.613C258.508 227.672 258.363 227.702 258.216 227.702C258.069 227.702 257.924 227.672 257.789 227.613C257.654 227.554 257.533 227.468 257.433 227.36C257.333 227.253 257.257 227.125 257.208 226.987C257.16 226.848 257.141 226.701 257.152 226.554V224.23ZM257.853 226.597C257.853 226.914 257.993 227.036 258.213 227.036C258.433 227.036 258.579 226.914 258.579 226.597V224.157C258.579 223.84 258.439 223.718 258.213 223.718C257.987 223.718 257.853 223.84 257.853 224.157V226.597Z" fill="#263238"/>
<path d="M257.64 230.104C257.816 230.126 257.994 230.08 258.137 229.976C258.281 229.872 258.38 229.717 258.414 229.543H258.884V234.015H258.182V230.58H257.64V230.104Z" fill="#263238"/>
<path d="M99.8753 167.14C99.8753 166.857 99.9878 166.585 100.188 166.385C100.388 166.185 100.66 166.073 100.943 166.073C101.226 166.073 101.497 166.185 101.698 166.385C101.898 166.585 102.01 166.857 102.01 167.14V169.464C102.01 169.747 101.898 170.019 101.698 170.219C101.497 170.419 101.226 170.532 100.943 170.532C100.66 170.532 100.388 170.419 100.188 170.219C99.9878 170.019 99.8753 169.747 99.8753 169.464V167.14ZM100.577 169.507C100.577 169.83 100.717 169.952 100.943 169.952C101.169 169.952 101.303 169.83 101.303 169.507V167.067C101.303 166.744 101.162 166.622 100.943 166.622C100.723 166.622 100.577 166.744 100.577 167.067V169.507Z" fill="#263238"/>
<path d="M99.8753 173.545C99.8753 173.262 99.9878 172.99 100.188 172.79C100.388 172.59 100.66 172.478 100.943 172.478C101.226 172.478 101.497 172.59 101.698 172.79C101.898 172.99 102.01 173.262 102.01 173.545V175.869C102.01 176.152 101.898 176.424 101.698 176.624C101.497 176.824 101.226 176.937 100.943 176.937C100.66 176.937 100.388 176.824 100.188 176.624C99.9878 176.424 99.8753 176.152 99.8753 175.869V173.545ZM100.577 175.918C100.577 176.235 100.717 176.357 100.943 176.357C101.169 176.357 101.303 176.235 101.303 175.918V173.478C101.303 173.161 101.162 173.039 100.943 173.039C100.723 173.039 100.577 173.161 100.577 173.478V175.918Z" fill="#263238"/>
<path d="M100.369 179.425C100.545 179.447 100.722 179.401 100.865 179.297C101.007 179.193 101.105 179.038 101.138 178.864H101.614V183.336H100.912V179.95H100.369V179.425Z" fill="#263238"/>
<path d="M99.8753 186.325C99.8753 186.041 99.9878 185.77 100.188 185.57C100.388 185.37 100.66 185.257 100.943 185.257C101.226 185.257 101.497 185.37 101.698 185.57C101.898 185.77 102.01 186.041 102.01 186.325V188.649C102.01 188.932 101.898 189.203 101.698 189.404C101.497 189.604 101.226 189.716 100.943 189.716C100.66 189.716 100.388 189.604 100.188 189.404C99.9878 189.203 99.8753 188.932 99.8753 188.649V186.325ZM100.577 188.691C100.577 189.015 100.717 189.137 100.943 189.137C101.169 189.137 101.303 189.015 101.303 188.691V186.282C101.303 185.959 101.162 185.837 100.943 185.837C100.723 185.837 100.577 185.959 100.577 186.282V188.691Z" fill="#263238"/>
<path d="M100.369 192.205C100.545 192.227 100.722 192.181 100.865 192.076C101.007 191.972 101.105 191.818 101.138 191.644H101.614V196.109H100.912V192.699H100.369V192.205Z" fill="#263238"/>
<path d="M99.8753 199.104C99.8753 198.821 99.9878 198.549 100.188 198.349C100.388 198.149 100.66 198.037 100.943 198.037C101.226 198.037 101.497 198.149 101.698 198.349C101.898 198.549 102.01 198.821 102.01 199.104V201.428C102.01 201.711 101.898 201.983 101.698 202.183C101.497 202.383 101.226 202.496 100.943 202.496C100.66 202.496 100.388 202.383 100.188 202.183C99.9878 201.983 99.8753 201.711 99.8753 201.428V199.104ZM100.577 201.471C100.577 201.788 100.717 201.91 100.943 201.91C101.169 201.91 101.303 201.788 101.303 201.471V199.031C101.303 198.714 101.162 198.592 100.943 198.592C100.723 198.592 100.577 198.714 100.577 199.031V201.471Z" fill="#263238"/>
<path d="M100.369 204.96C100.545 204.982 100.722 204.936 100.865 204.832C101.007 204.727 101.105 204.573 101.138 204.399H101.614V208.87H100.912V205.46H100.369V204.96Z" fill="#263238"/>
<path d="M99.8753 211.878C99.8753 211.594 99.9878 211.323 100.188 211.123C100.388 210.923 100.66 210.81 100.943 210.81C101.226 210.81 101.497 210.923 101.698 211.123C101.898 211.323 102.01 211.594 102.01 211.878V214.202C102.01 214.485 101.898 214.756 101.698 214.957C101.497 215.157 101.226 215.269 100.943 215.269C100.66 215.269 100.388 215.157 100.188 214.957C99.9878 214.756 99.8753 214.485 99.8753 214.202V211.878ZM100.577 214.25C100.577 214.568 100.717 214.69 100.943 214.69C101.169 214.69 101.303 214.568 101.303 214.25V211.81C101.303 211.493 101.162 211.371 100.943 211.371C100.723 211.371 100.577 211.493 100.577 211.81V214.25Z" fill="#263238"/>
<path d="M99.8753 218.27C99.8753 217.987 99.9878 217.716 100.188 217.516C100.388 217.315 100.66 217.203 100.943 217.203C101.226 217.203 101.497 217.315 101.698 217.516C101.898 217.716 102.01 217.987 102.01 218.27V220.594C102.01 220.878 101.898 221.149 101.698 221.349C101.497 221.55 101.226 221.662 100.943 221.662C100.66 221.662 100.388 221.55 100.188 221.349C99.9878 221.149 99.8753 220.878 99.8753 220.594V218.27ZM100.577 220.637C100.577 220.954 100.717 221.076 100.943 221.076C101.169 221.076 101.303 220.954 101.303 220.637V218.197C101.303 217.88 101.162 217.758 100.943 217.758C100.723 217.758 100.577 217.88 100.577 218.197V220.637Z" fill="#263238"/>
<path d="M99.8753 224.657C99.8753 224.374 99.9878 224.102 100.188 223.902C100.388 223.702 100.66 223.59 100.943 223.59C101.226 223.59 101.497 223.702 101.698 223.902C101.898 224.102 102.01 224.374 102.01 224.657V226.981C102.01 227.264 101.898 227.536 101.698 227.736C101.497 227.936 101.226 228.049 100.943 228.049C100.66 228.049 100.388 227.936 100.188 227.736C99.9878 227.536 99.8753 227.264 99.8753 226.981V224.657ZM100.577 227.024C100.577 227.347 100.717 227.469 100.943 227.469C101.169 227.469 101.303 227.347 101.303 227.024V224.614C101.303 224.291 101.162 224.175 100.943 224.175C100.723 224.175 100.577 224.291 100.577 224.614V227.024Z" fill="#263238"/>
<path d="M100.369 230.538C100.545 230.559 100.722 230.513 100.865 230.409C101.007 230.305 101.105 230.15 101.138 229.976H101.614V234.442H100.912V231.032H100.369V230.538Z" fill="#263238"/>
<path d="M100.369 236.924C100.545 236.946 100.722 236.9 100.865 236.795C101.007 236.691 101.105 236.537 101.138 236.363H101.614V240.834H100.912V237.424H100.369V236.924Z" fill="#263238"/>
<path d="M100.369 243.311C100.545 243.332 100.722 243.286 100.865 243.182C101.007 243.078 101.105 242.923 101.138 242.75H101.614V247.221H100.912V243.811H100.369V243.311Z" fill="#263238"/>
<path d="M100.369 249.704C100.545 249.725 100.722 249.679 100.865 249.575C101.007 249.471 101.105 249.316 101.138 249.142H101.614V253.608H100.912V250.198H100.369V249.704Z" fill="#263238"/>
<path d="M100.577 258.97C100.577 259.293 100.717 259.409 100.943 259.409C101.168 259.409 101.303 259.293 101.303 258.97V256.53C101.303 256.212 101.162 256.09 100.943 256.09C100.723 256.09 100.577 256.212 100.577 256.53V258.97Z" fill="#263238"/>
<path d="M104.164 192.205C104.34 192.227 104.518 192.181 104.661 192.077C104.805 191.973 104.904 191.818 104.938 191.644H105.408V196.109H104.707V192.699H104.164V192.205Z" fill="#263238"/>
<path d="M104.164 198.592C104.34 198.614 104.518 198.568 104.661 198.464C104.805 198.359 104.904 198.205 104.938 198.031H105.408V202.52H104.707V199.11H104.164V198.592Z" fill="#263238"/>
<path d="M103.7 211.877C103.689 211.731 103.708 211.584 103.757 211.445C103.805 211.306 103.882 211.179 103.982 211.071C104.082 210.963 104.203 210.877 104.337 210.818C104.472 210.76 104.617 210.729 104.764 210.729C104.911 210.729 105.057 210.76 105.192 210.818C105.326 210.877 105.447 210.963 105.547 211.071C105.647 211.179 105.724 211.306 105.772 211.445C105.821 211.584 105.84 211.731 105.829 211.877V214.201C105.84 214.348 105.821 214.495 105.772 214.634C105.724 214.773 105.647 214.9 105.547 215.008C105.447 215.116 105.326 215.202 105.192 215.26C105.057 215.319 104.911 215.35 104.764 215.35C104.617 215.35 104.472 215.319 104.337 215.26C104.203 215.202 104.082 215.116 103.982 215.008C103.882 214.9 103.805 214.773 103.757 214.634C103.708 214.495 103.689 214.348 103.7 214.201V211.877ZM104.402 214.25C104.402 214.568 104.542 214.69 104.761 214.69C104.981 214.69 105.127 214.568 105.127 214.25V211.81C105.127 211.493 104.987 211.371 104.761 211.371C104.536 211.371 104.402 211.493 104.402 211.81V214.25Z" fill="#263238"/>
<path d="M104.164 217.77C104.34 217.792 104.518 217.746 104.661 217.642C104.805 217.538 104.904 217.383 104.938 217.209H105.408V221.68H104.707V218.258H104.164V217.77Z" fill="#263238"/>
<path d="M103.7 224.657C103.689 224.51 103.708 224.363 103.757 224.224C103.805 224.086 103.882 223.958 103.982 223.851C104.082 223.743 104.203 223.657 104.337 223.598C104.472 223.539 104.617 223.509 104.764 223.509C104.911 223.509 105.057 223.539 105.192 223.598C105.326 223.657 105.447 223.743 105.547 223.851C105.647 223.958 105.724 224.086 105.772 224.224C105.821 224.363 105.84 224.51 105.829 224.657V226.981C105.84 227.128 105.821 227.275 105.772 227.414C105.724 227.552 105.647 227.68 105.547 227.787C105.447 227.895 105.326 227.981 105.192 228.04C105.057 228.099 104.911 228.129 104.764 228.129C104.617 228.129 104.472 228.099 104.337 228.04C104.203 227.981 104.082 227.895 103.982 227.787C103.882 227.68 103.805 227.552 103.757 227.414C103.708 227.275 103.689 227.128 103.7 226.981V224.657ZM104.402 227.024C104.402 227.347 104.542 227.469 104.761 227.469C104.981 227.469 105.127 227.347 105.127 227.024V224.614C105.127 224.291 104.987 224.175 104.761 224.175C104.536 224.175 104.402 224.291 104.402 224.614V227.024Z" fill="#263238"/>
<path d="M104.377 239.803C104.377 240.12 104.517 240.242 104.737 240.242C104.957 240.242 105.103 240.12 105.103 239.803V237.363C105.103 237.046 104.963 236.924 104.737 236.924C104.511 236.924 104.377 237.046 104.377 237.363V239.803Z" fill="#263238"/>
<path d="M104.164 243.311C104.333 243.329 104.502 243.285 104.642 243.188C104.781 243.09 104.88 242.945 104.92 242.78H105.39V247.251H104.688V243.841H104.145L104.164 243.311Z" fill="#263238"/>
<path d="M104.164 249.704C104.34 249.725 104.518 249.68 104.661 249.575C104.805 249.471 104.904 249.317 104.938 249.142H105.408V253.608H104.707V250.198H104.164V249.704Z" fill="#263238"/>
<path d="M103.7 269.376C103.689 269.23 103.708 269.082 103.757 268.944C103.805 268.805 103.882 268.678 103.982 268.57C104.082 268.462 104.203 268.376 104.337 268.317C104.472 268.258 104.617 268.228 104.764 268.228C104.911 268.228 105.057 268.258 105.192 268.317C105.326 268.376 105.447 268.462 105.547 268.57C105.647 268.678 105.724 268.805 105.772 268.944C105.821 269.082 105.84 269.23 105.829 269.376V271.706C105.84 271.853 105.821 272 105.772 272.139C105.724 272.278 105.647 272.405 105.547 272.513C105.447 272.621 105.326 272.707 105.192 272.765C105.057 272.824 104.911 272.854 104.764 272.854C104.617 272.854 104.472 272.824 104.337 272.765C104.203 272.707 104.082 272.621 103.982 272.513C103.882 272.405 103.805 272.278 103.757 272.139C103.708 272 103.689 271.853 103.7 271.706V269.376ZM104.402 271.749C104.402 272.066 104.542 272.188 104.761 272.188C104.981 272.188 105.127 272.066 105.127 271.749V269.309C105.127 268.992 104.987 268.87 104.761 268.87C104.536 268.87 104.402 268.992 104.402 269.309V271.749Z" fill="#263238"/>
<path d="M96.075 186.325C96.075 186.041 96.1875 185.77 96.3877 185.57C96.5879 185.37 96.8594 185.257 97.1425 185.257C97.4256 185.257 97.6972 185.37 97.8974 185.57C98.0975 185.77 98.21 186.041 98.21 186.325V188.649C98.21 188.932 98.0975 189.203 97.8974 189.404C97.6972 189.604 97.4256 189.716 97.1425 189.716C96.8594 189.716 96.5879 189.604 96.3877 189.404C96.1875 189.203 96.075 188.932 96.075 188.649V186.325ZM96.7765 188.691C96.7765 189.015 96.9168 189.137 97.1425 189.137C97.3682 189.137 97.5085 189.015 97.5085 188.691V186.282C97.5085 185.959 97.3682 185.837 97.1425 185.837C96.9168 185.837 96.7765 185.959 96.7765 186.282V188.691Z" fill="#263238"/>
<path d="M96.5691 192.205C96.7453 192.227 96.9232 192.181 97.0669 192.077C97.2107 191.973 97.3096 191.818 97.3438 191.644H97.8135V196.109H97.112V192.699H96.5691V192.205Z" fill="#263238"/>
<path d="M96.5691 198.592C96.7453 198.614 96.9232 198.568 97.0669 198.464C97.2107 198.359 97.3096 198.205 97.3438 198.031H97.8135V202.52H97.112V199.11H96.5691V198.592Z" fill="#263238"/>
<path d="M96.075 205.491C96.075 205.208 96.1875 204.936 96.3877 204.736C96.5879 204.536 96.8594 204.423 97.1425 204.423C97.4256 204.423 97.6972 204.536 97.8974 204.736C98.0975 204.936 98.21 205.208 98.21 205.491V207.815C98.21 208.098 98.0975 208.37 97.8974 208.57C97.6972 208.77 97.4256 208.882 97.1425 208.882C96.8594 208.882 96.5879 208.77 96.3877 208.57C96.1875 208.37 96.075 208.098 96.075 207.815V205.491ZM96.7765 207.858C96.7765 208.181 96.9168 208.303 97.1425 208.303C97.3682 208.303 97.5085 208.181 97.5085 207.858V205.448C97.5085 205.125 97.3682 205.003 97.1425 205.003C96.9168 205.003 96.7765 205.125 96.7765 205.448V207.858Z" fill="#263238"/>
<path d="M96.075 218.27C96.075 217.987 96.1875 217.716 96.3877 217.516C96.5879 217.315 96.8594 217.203 97.1425 217.203C97.4256 217.203 97.6972 217.315 97.8974 217.516C98.0975 217.716 98.21 217.987 98.21 218.27V220.594C98.21 220.878 98.0975 221.149 97.8974 221.349C97.6972 221.55 97.4256 221.662 97.1425 221.662C96.8594 221.662 96.5879 221.55 96.3877 221.349C96.1875 221.149 96.075 220.878 96.075 220.594V218.27ZM96.7765 220.637C96.7765 220.954 96.9168 221.076 97.1425 221.076C97.3682 221.076 97.5085 220.954 97.5085 220.637V218.197C97.5085 217.88 97.3682 217.758 97.1425 217.758C96.9168 217.758 96.7765 217.88 96.7765 218.197V220.637Z" fill="#263238"/>
<path d="M96.075 224.657C96.075 224.374 96.1875 224.102 96.3877 223.902C96.5879 223.702 96.8594 223.59 97.1425 223.59C97.4256 223.59 97.6972 223.702 97.8974 223.902C98.0975 224.102 98.21 224.374 98.21 224.657V226.981C98.21 227.264 98.0975 227.536 97.8974 227.736C97.6972 227.936 97.4256 228.049 97.1425 228.049C96.8594 228.049 96.5879 227.936 96.3877 227.736C96.1875 227.536 96.075 227.264 96.075 226.981V224.657ZM96.7765 227.024C96.7765 227.347 96.9168 227.469 97.1425 227.469C97.3682 227.469 97.5085 227.347 97.5085 227.024V224.614C97.5085 224.291 97.3682 224.175 97.1425 224.175C96.9168 224.175 96.7765 224.291 96.7765 224.614V227.024Z" fill="#263238"/>
<path d="M96.5691 230.538C96.7453 230.559 96.9232 230.514 97.0669 230.409C97.2107 230.305 97.3096 230.151 97.3438 229.976H97.8135V234.442H97.112V231.032H96.5691V230.538Z" fill="#263238"/>
<path d="M96.075 237.436C96.075 237.153 96.1875 236.882 96.3877 236.682C96.5879 236.481 96.8594 236.369 97.1425 236.369C97.4256 236.369 97.6972 236.481 97.8974 236.682C98.0975 236.882 98.21 237.153 98.21 237.436V239.76C98.21 240.044 98.0975 240.315 97.8974 240.515C97.6972 240.716 97.4256 240.828 97.1425 240.828C96.8594 240.828 96.5879 240.716 96.3877 240.515C96.1875 240.315 96.075 240.044 96.075 239.76V237.436ZM96.7765 239.803C96.7765 240.12 96.9168 240.242 97.1425 240.242C97.3682 240.242 97.5085 240.12 97.5085 239.803V237.363C97.5085 237.046 97.3682 236.924 97.1425 236.924C96.9168 236.924 96.7765 237.046 96.7765 237.363V239.803Z" fill="#263238"/>
<path d="M96.5691 243.311C96.7453 243.333 96.9232 243.287 97.0669 243.183C97.2107 243.078 97.3096 242.924 97.3438 242.75H97.8135V247.221H97.112V243.811H96.5691V243.311Z" fill="#263238"/>
<path d="M92.2808 173.545C92.2697 173.399 92.289 173.251 92.3375 173.113C92.3859 172.974 92.4625 172.847 92.5624 172.739C92.6624 172.631 92.7835 172.545 92.9182 172.486C93.0529 172.427 93.1983 172.397 93.3453 172.397C93.4922 172.397 93.6377 172.427 93.7724 172.486C93.9071 172.545 94.0282 172.631 94.1281 172.739C94.228 172.847 94.3046 172.974 94.3531 173.113C94.4015 173.251 94.4208 173.399 94.4097 173.545V175.869C94.4208 176.016 94.4015 176.163 94.3531 176.302C94.3046 176.441 94.228 176.568 94.1281 176.676C94.0282 176.783 93.9071 176.869 93.7724 176.928C93.6377 176.987 93.4922 177.017 93.3453 177.017C93.1983 177.017 93.0529 176.987 92.9182 176.928C92.7835 176.869 92.6624 176.783 92.5624 176.676C92.4625 176.568 92.3859 176.441 92.3375 176.302C92.289 176.163 92.2697 176.016 92.2808 175.869V173.545ZM92.9823 175.918C92.9823 176.235 93.1226 176.357 93.3422 176.357C93.5618 176.357 93.7082 176.235 93.7082 175.918V173.478C93.7082 173.161 93.5679 173.039 93.3422 173.039C93.1165 173.039 92.9823 173.161 92.9823 173.478V175.918Z" fill="#263238"/>
<path d="M92.7688 185.812C92.945 185.834 93.1229 185.788 93.2666 185.684C93.4104 185.58 93.5093 185.425 93.5435 185.251H94.0132V189.71H93.33V186.3H92.7871L92.7688 185.812Z" fill="#263238"/>
<path d="M92.7688 198.592C92.945 198.614 93.1229 198.568 93.2666 198.464C93.4104 198.359 93.5093 198.205 93.5435 198.031H94.0132V202.52H93.33V199.11H92.7871L92.7688 198.592Z" fill="#263238"/>
<path d="M92.2808 205.491C92.2697 205.344 92.289 205.197 92.3375 205.058C92.3859 204.92 92.4625 204.792 92.5624 204.685C92.6624 204.577 92.7835 204.491 92.9182 204.432C93.0529 204.373 93.1983 204.343 93.3453 204.343C93.4922 204.343 93.6377 204.373 93.7724 204.432C93.9071 204.491 94.0282 204.577 94.1281 204.685C94.228 204.792 94.3046 204.92 94.3531 205.058C94.4015 205.197 94.4208 205.344 94.4097 205.491V207.815C94.4208 207.962 94.4015 208.109 94.3531 208.248C94.3046 208.386 94.228 208.514 94.1281 208.621C94.0282 208.729 93.9071 208.815 93.7724 208.874C93.6377 208.933 93.4922 208.963 93.3453 208.963C93.1983 208.963 93.0529 208.933 92.9182 208.874C92.7835 208.815 92.6624 208.729 92.5624 208.621C92.4625 208.514 92.3859 208.386 92.3375 208.248C92.289 208.109 92.2697 207.962 92.2808 207.815V205.491ZM92.9823 207.864C92.9823 208.181 93.1226 208.303 93.3422 208.303C93.5618 208.303 93.7082 208.181 93.7082 207.864V205.424C93.7082 205.101 93.5679 204.985 93.3422 204.985C93.1165 204.985 92.9823 205.101 92.9823 205.424V207.864Z" fill="#263238"/>
<path d="M92.7688 224.145C92.945 224.167 93.1229 224.121 93.2666 224.017C93.4104 223.912 93.5093 223.758 93.5435 223.583H94.0132V228.055H93.33V224.645H92.7871L92.7688 224.145Z" fill="#263238"/>
<path d="M92.7688 230.538C92.945 230.559 93.1229 230.514 93.2666 230.409C93.4104 230.305 93.5093 230.151 93.5435 229.976H94.0132V234.442H93.33V231.032H92.7871L92.7688 230.538Z" fill="#263238"/>
<path d="M92.7688 236.924C92.945 236.946 93.1229 236.9 93.2666 236.796C93.4104 236.692 93.5093 236.537 93.5435 236.363H94.0132V240.834H93.33V237.424H92.7871L92.7688 236.924Z" fill="#263238"/>
<path d="M211.737 19.8922C211.737 19.6091 211.85 19.3376 212.05 19.1374C212.25 18.9372 212.522 18.8247 212.805 18.8247C213.088 18.8247 213.359 18.9372 213.559 19.1374C213.76 19.3376 213.872 19.6091 213.872 19.8922V22.2163C213.872 22.4994 213.76 22.7709 213.559 22.9711C213.359 23.1713 213.088 23.2838 212.805 23.2838C212.522 23.2838 212.25 23.1713 212.05 22.9711C211.85 22.7709 211.737 22.4994 211.737 22.2163V19.8922ZM212.439 22.259C212.439 22.5762 212.579 22.6982 212.805 22.6982C213.03 22.6982 213.165 22.5762 213.165 22.259V19.819C213.165 19.5018 213.024 19.3798 212.805 19.3798C212.585 19.3798 212.439 19.5018 212.439 19.819V22.259Z" fill="#263238"/>
<path d="M211.737 26.2789C211.737 25.9958 211.85 25.7243 212.05 25.5241C212.25 25.3239 212.522 25.2114 212.805 25.2114C213.088 25.2114 213.359 25.3239 213.559 25.5241C213.76 25.7243 213.872 25.9958 213.872 26.2789V28.603C213.872 28.8861 213.76 29.1577 213.559 29.3579C213.359 29.5581 213.088 29.6705 212.805 29.6705C212.522 29.6705 212.25 29.5581 212.05 29.3579C211.85 29.1577 211.737 28.8861 211.737 28.603V26.2789ZM212.439 28.6701C212.439 28.9934 212.579 29.1154 212.805 29.1154C213.03 29.1154 213.165 28.9934 213.165 28.6701V26.2301C213.165 25.9068 213.024 25.7848 212.805 25.7848C212.585 25.7848 212.439 25.9068 212.439 26.2301V28.6701Z" fill="#263238"/>
<path d="M212.231 44.9328C212.407 44.9545 212.584 44.9085 212.727 44.8043C212.869 44.7 212.967 44.5453 213 44.3716H213.5V48.8429H212.798V45.433H212.256L212.231 44.9328Z" fill="#263238"/>
<path d="M212.231 51.3256C212.407 51.3473 212.584 51.3013 212.727 51.1971C212.869 51.0928 212.967 50.9381 213 50.7644H213.5V55.2296H212.798V51.8502H212.256L212.231 51.3256Z" fill="#263238"/>
<path d="M211.737 70.9979C211.737 70.7148 211.85 70.4433 212.05 70.2431C212.25 70.0429 212.522 69.9304 212.805 69.9304C213.088 69.9304 213.359 70.0429 213.559 70.2431C213.76 70.4433 213.872 70.7148 213.872 70.9979V73.322C213.872 73.6051 213.76 73.8767 213.559 74.0769C213.359 74.2771 213.088 74.3895 212.805 74.3895C212.522 74.3895 212.25 74.2771 212.05 74.0769C211.85 73.8767 211.737 73.6051 211.737 73.322V70.9979ZM212.439 73.3708C212.439 73.688 212.579 73.81 212.805 73.81C213.03 73.81 213.165 73.688 213.165 73.3708V70.9308C213.165 70.6136 213.024 70.4916 212.805 70.4916C212.585 70.4916 212.439 70.6136 212.439 70.9308V73.3708Z" fill="#263238"/>
<path d="M211.737 83.7775C211.737 83.4943 211.85 83.2228 212.05 83.0226C212.25 82.8224 212.522 82.71 212.805 82.71C213.088 82.71 213.359 82.8224 213.559 83.0226C213.76 83.2228 213.872 83.4943 213.872 83.7775V86.1016C213.872 86.3847 213.76 86.6562 213.559 86.8564C213.359 87.0566 213.088 87.1691 212.805 87.1691C212.522 87.1691 212.25 87.0566 212.05 86.8564C211.85 86.6562 211.737 86.3847 211.737 86.1016V83.7775ZM212.439 86.1443C212.439 86.4676 212.579 86.5896 212.805 86.5896C213.03 86.5896 213.165 86.4676 213.165 86.1443V83.7348C213.165 83.4115 213.024 83.2956 212.805 83.2956C212.585 83.2956 212.439 83.4115 212.439 83.7348V86.1443Z" fill="#263238"/>
<path d="M200.342 32.6656C200.342 32.3825 200.455 32.111 200.655 31.9108C200.855 31.7106 201.127 31.5981 201.41 31.5981C201.693 31.5981 201.964 31.7106 202.165 31.9108C202.365 32.111 202.477 32.3825 202.477 32.6656V34.9897C202.477 35.2729 202.365 35.5444 202.165 35.7446C201.964 35.9448 201.693 36.0572 201.41 36.0572C201.127 36.0572 200.855 35.9448 200.655 35.7446C200.455 35.5444 200.342 35.2729 200.342 34.9897V32.6656ZM201.044 35.0385C201.044 35.3557 201.184 35.4777 201.41 35.4777C201.635 35.4777 201.77 35.3557 201.77 35.0385V32.5985C201.77 32.2813 201.629 32.1593 201.41 32.1593C201.19 32.1593 201.044 32.2813 201.044 32.5985V35.0385Z" fill="#263238"/>
<path d="M200.342 39.0402C200.342 38.757 200.455 38.4855 200.655 38.2853C200.855 38.0851 201.127 37.9727 201.41 37.9727C201.693 37.9727 201.964 38.0851 202.165 38.2853C202.365 38.4855 202.477 38.757 202.477 39.0402V41.3643C202.477 41.6474 202.365 41.9189 202.165 42.1191C201.964 42.3193 201.693 42.4318 201.41 42.4318C201.127 42.4318 200.855 42.3193 200.655 42.1191C200.455 41.9189 200.342 41.6474 200.342 41.3643V39.0402ZM201.044 41.407C201.044 41.7242 201.184 41.8462 201.41 41.8462C201.635 41.8462 201.77 41.7242 201.77 41.407V39.0402C201.77 38.723 201.629 38.601 201.41 38.601C201.19 38.601 201.044 38.723 201.044 39.0402V41.407Z" fill="#263238"/>
<path d="M200.342 45.4452C200.342 45.1621 200.455 44.8905 200.655 44.6904C200.855 44.4902 201.127 44.3777 201.41 44.3777C201.693 44.3777 201.964 44.4902 202.165 44.6904C202.365 44.8905 202.477 45.1621 202.477 45.4452V47.7693C202.477 48.0524 202.365 48.3239 202.165 48.5241C201.964 48.7243 201.693 48.8368 201.41 48.8368C201.127 48.8368 200.855 48.7243 200.655 48.5241C200.455 48.3239 200.342 48.0524 200.342 47.7693V45.4452ZM201.044 47.812C201.044 48.1353 201.184 48.2573 201.41 48.2573C201.635 48.2573 201.77 48.1353 201.77 47.812V45.4025C201.77 45.0792 201.629 44.9572 201.41 44.9572C201.19 44.9572 201.044 45.0792 201.044 45.4025V47.812Z" fill="#263238"/>
<path d="M200.836 51.3256C201.012 51.3473 201.189 51.3013 201.332 51.1971C201.475 51.0928 201.572 50.9381 201.605 50.7644H202.081V55.2296H201.379V51.8502H200.836V51.3256Z" fill="#263238"/>
<path d="M200.836 64.0988C201.012 64.1205 201.189 64.0745 201.332 63.9703C201.475 63.866 201.572 63.7113 201.605 63.5376H202.081V68.0089H201.379V64.599H200.836V64.0988Z" fill="#263238"/>
<path d="M200.836 70.4916C201.012 70.5133 201.189 70.4673 201.332 70.3631C201.475 70.2588 201.572 70.1041 201.605 69.9304H202.081V74.42H201.379V71.0101H200.836V70.4916Z" fill="#263238"/>
<path d="M200.342 83.7775C200.342 83.4943 200.455 83.2228 200.655 83.0226C200.855 82.8224 201.127 82.71 201.41 82.71C201.693 82.71 201.964 82.8224 202.165 83.0226C202.365 83.2228 202.477 83.4943 202.477 83.7775V86.1016C202.477 86.3847 202.365 86.6562 202.165 86.8564C201.964 87.0566 201.693 87.1691 201.41 87.1691C201.127 87.1691 200.855 87.0566 200.655 86.8564C200.455 86.6562 200.342 86.3847 200.342 86.1016V83.7775ZM201.044 86.1443C201.044 86.4676 201.184 86.5896 201.41 86.5896C201.635 86.5896 201.77 86.4676 201.77 86.1443V83.7348C201.77 83.4115 201.629 83.2956 201.41 83.2956C201.19 83.2956 201.044 83.4115 201.044 83.7348V86.1443Z" fill="#263238"/>
<path d="M200.836 89.6701C201.012 89.6918 201.189 89.6458 201.332 89.5416C201.475 89.4373 201.572 89.2826 201.605 89.1089H202.081V93.5741H201.379V90.1642H200.836V89.6701Z" fill="#263238"/>
<path d="M207.937 19.8922C207.937 19.6091 208.049 19.3376 208.249 19.1374C208.45 18.9372 208.721 18.8247 209.004 18.8247C209.287 18.8247 209.559 18.9372 209.759 19.1374C209.959 19.3376 210.072 19.6091 210.072 19.8922V22.2163C210.072 22.4994 209.959 22.7709 209.759 22.9711C209.559 23.1713 209.287 23.2838 209.004 23.2838C208.721 23.2838 208.45 23.1713 208.249 22.9711C208.049 22.7709 207.937 22.4994 207.937 22.2163V19.8922ZM208.62 22.259C208.62 22.5762 208.76 22.6982 208.98 22.6982C209.2 22.6982 209.346 22.5762 209.346 22.259V19.819C209.346 19.5018 209.206 19.3798 208.98 19.3798C208.754 19.3798 208.62 19.5018 208.62 19.819V22.259Z" fill="#263238"/>
<path d="M208.431 25.7665C208.607 25.7884 208.785 25.7426 208.929 25.6385C209.073 25.5343 209.171 25.3795 209.206 25.2053H209.675V29.6766H208.974V26.2667H208.431V25.7665Z" fill="#263238"/>
<path d="M207.937 32.6656C207.937 32.3825 208.049 32.111 208.249 31.9108C208.45 31.7106 208.721 31.5981 209.004 31.5981C209.287 31.5981 209.559 31.7106 209.759 31.9108C209.959 32.111 210.072 32.3825 210.072 32.6656V34.9897C210.072 35.2729 209.959 35.5444 209.759 35.7446C209.559 35.9448 209.287 36.0572 209.004 36.0572C208.721 36.0572 208.45 35.9448 208.249 35.7446C208.049 35.5444 207.937 35.2729 207.937 34.9897V32.6656ZM208.62 35.0385C208.62 35.3557 208.76 35.4777 208.98 35.4777C209.2 35.4777 209.346 35.3557 209.346 35.0385V32.5985C209.346 32.2813 209.206 32.1593 208.98 32.1593C208.754 32.1593 208.62 32.2813 208.62 32.5985V35.0385Z" fill="#263238"/>
<path d="M208.431 38.5461C208.607 38.5679 208.785 38.5221 208.929 38.418C209.073 38.3138 209.171 38.1591 209.206 37.9849H209.675V42.4562H208.974V39.0402H208.431V38.5461Z" fill="#263238"/>
<path d="M208.431 44.9328C208.607 44.9546 208.785 44.9089 208.929 44.8047C209.073 44.7006 209.171 44.5458 209.206 44.3716H209.675V48.8429H208.974V45.433H208.431V44.9328Z" fill="#263238"/>
<path d="M208.431 51.3256C208.607 51.3474 208.785 51.3017 208.929 51.1975C209.073 51.0934 209.171 50.9386 209.206 50.7644H209.675V55.2296H208.974V51.8502H208.431V51.3256Z" fill="#263238"/>
<path d="M207.937 58.2247C207.937 57.9416 208.049 57.6701 208.249 57.4699C208.45 57.2697 208.721 57.1572 209.004 57.1572C209.287 57.1572 209.559 57.2697 209.759 57.4699C209.959 57.6701 210.072 57.9416 210.072 58.2247V60.5488C210.072 60.8319 209.959 61.1035 209.759 61.3037C209.559 61.5039 209.287 61.6163 209.004 61.6163C208.721 61.6163 208.45 61.5039 208.249 61.3037C208.049 61.1035 207.937 60.8319 207.937 60.5488V58.2247ZM208.62 60.5915C208.62 60.9087 208.76 61.0307 208.98 61.0307C209.2 61.0307 209.346 60.9087 209.346 60.5915V58.1515C209.346 57.8343 209.206 57.7123 208.98 57.7123C208.754 57.7123 208.62 57.8343 208.62 58.1515V60.5915Z" fill="#263238"/>
<path d="M207.937 64.6112C207.937 64.3281 208.049 64.0566 208.249 63.8564C208.45 63.6562 208.721 63.5437 209.004 63.5437C209.287 63.5437 209.559 63.6562 209.759 63.8564C209.959 64.0566 210.072 64.3281 210.072 64.6112V66.9353C210.072 67.2184 209.959 67.4899 209.759 67.6901C209.559 67.8903 209.287 68.0028 209.004 68.0028C208.721 68.0028 208.45 67.8903 208.249 67.6901C208.049 67.4899 207.937 67.2184 207.937 66.9353V64.6112ZM208.62 66.978C208.62 67.3013 208.76 67.4233 208.98 67.4233C209.2 67.4233 209.346 67.3013 209.346 66.978V64.538C209.346 64.2147 209.206 64.0988 208.98 64.0988C208.754 64.0988 208.62 64.2147 208.62 64.538V66.978Z" fill="#263238"/>
<path d="M204.631 25.7665C204.807 25.7884 204.985 25.7426 205.128 25.6385C205.272 25.5343 205.371 25.3795 205.405 25.2053H205.875V29.6766H205.174V26.2667H204.631V25.7665Z" fill="#263238"/>
<path d="M204.143 32.6657C204.131 32.5192 204.151 32.3719 204.199 32.2331C204.248 32.0944 204.324 31.9671 204.424 31.8593C204.524 31.7515 204.645 31.6655 204.78 31.6067C204.915 31.5479 205.06 31.5176 205.207 31.5176C205.354 31.5176 205.499 31.5479 205.634 31.6067C205.769 31.6655 205.89 31.7515 205.99 31.8593C206.09 31.9671 206.166 32.0944 206.215 32.2331C206.263 32.3719 206.283 32.5192 206.271 32.6657V34.9898C206.283 35.1364 206.263 35.2836 206.215 35.4224C206.166 35.5612 206.09 35.6884 205.99 35.7962C205.89 35.904 205.769 35.99 205.634 36.0488C205.499 36.1076 205.354 36.138 205.207 36.138C205.06 36.138 204.915 36.1076 204.78 36.0488C204.645 35.99 204.524 35.904 204.424 35.7962C204.324 35.6884 204.248 35.5612 204.199 35.4224C204.151 35.2836 204.131 35.1364 204.143 34.9898V32.6657ZM204.844 35.0386C204.844 35.3558 204.984 35.4778 205.204 35.4778C205.424 35.4778 205.57 35.3558 205.57 35.0386V32.5986C205.57 32.2814 205.43 32.1594 205.204 32.1594C204.978 32.1594 204.844 32.2814 204.844 32.5986V35.0386Z" fill="#263238"/>
<path d="M204.143 39.0402C204.131 38.8937 204.151 38.7464 204.199 38.6076C204.248 38.4689 204.324 38.3416 204.424 38.2338C204.524 38.126 204.645 38.0401 204.78 37.9812C204.915 37.9224 205.06 37.8921 205.207 37.8921C205.354 37.8921 205.499 37.9224 205.634 37.9812C205.769 38.0401 205.89 38.126 205.99 38.2338C206.09 38.3416 206.166 38.4689 206.215 38.6076C206.263 38.7464 206.283 38.8937 206.271 39.0402V41.3643C206.283 41.5109 206.263 41.6582 206.215 41.7969C206.166 41.9357 206.09 42.0629 205.99 42.1707C205.89 42.2785 205.769 42.3645 205.634 42.4233C205.499 42.4821 205.354 42.5125 205.207 42.5125C205.06 42.5125 204.915 42.4821 204.78 42.4233C204.645 42.3645 204.524 42.2785 204.424 42.1707C204.324 42.0629 204.248 41.9357 204.199 41.7969C204.151 41.6582 204.131 41.5109 204.143 41.3643V39.0402ZM204.844 41.407C204.844 41.7242 204.984 41.8462 205.204 41.8462C205.424 41.8462 205.57 41.7242 205.57 41.407V39.0402C205.57 38.723 205.43 38.601 205.204 38.601C204.978 38.601 204.844 38.723 204.844 39.0402V41.407Z" fill="#263238"/>
<path d="M204.631 44.9328C204.807 44.9546 204.985 44.9089 205.128 44.8047C205.272 44.7006 205.371 44.5458 205.405 44.3716H205.875V48.8429H205.174V45.433H204.631V44.9328Z" fill="#263238"/>
<path d="M204.631 57.7123C204.807 57.7342 204.985 57.6884 205.128 57.5843C205.272 57.4801 205.371 57.3253 205.405 57.1511H205.875V61.6102H205.174V58.2125H204.631V57.7123Z" fill="#263238"/>
<path d="M204.631 64.0988C204.807 64.1206 204.985 64.0749 205.128 63.9707C205.272 63.8666 205.371 63.7118 205.405 63.5376H205.875V68.0089H205.174V64.599H204.631V64.0988Z" fill="#263238"/>
<path d="M204.631 70.4916C204.807 70.5135 204.985 70.4677 205.128 70.3636C205.272 70.2594 205.371 70.1046 205.405 69.9304H205.875V74.42H205.174V71.0101H204.631V70.4916Z" fill="#263238"/>
<path d="M32.94 90.6278C32.94 90.3447 33.0525 90.0732 33.2527 89.873C33.4529 89.6728 33.7244 89.5603 34.0075 89.5603C34.2906 89.5603 34.5621 89.6728 34.7623 89.873C34.9625 90.0732 35.075 90.3447 35.075 90.6278V92.958C35.075 93.2411 34.9625 93.5126 34.7623 93.7128C34.5621 93.913 34.2906 94.0255 34.0075 94.0255C33.7244 94.0255 33.4529 93.913 33.2527 93.7128C33.0525 93.5126 32.94 93.2411 32.94 92.958V90.6278ZM33.6415 93.0007C33.6415 93.3179 33.7818 93.4399 34.0075 93.4399C34.2332 93.4399 34.3674 93.3179 34.3674 93.0007V90.5607C34.3674 90.2435 34.2271 90.1215 34.0075 90.1215C33.7879 90.1215 33.6415 90.2435 33.6415 90.5607V93.0007Z" fill="#263238"/>
<path d="M32.94 97.0206C32.94 96.7375 33.0525 96.466 33.2527 96.2658C33.4529 96.0656 33.7244 95.9531 34.0075 95.9531C34.2906 95.9531 34.5621 96.0656 34.7623 96.2658C34.9625 96.466 35.075 96.7375 35.075 97.0206V99.3447C35.075 99.6278 34.9625 99.8994 34.7623 100.1C34.5621 100.3 34.2906 100.412 34.0075 100.412C33.7244 100.412 33.4529 100.3 33.2527 100.1C33.0525 99.8994 32.94 99.6278 32.94 99.3447V97.0206ZM33.6415 99.3874C33.6415 99.7107 33.7818 99.8266 34.0075 99.8266C34.2332 99.8266 34.3674 99.7107 34.3674 99.3874V96.9474C34.3674 96.6302 34.2271 96.5082 34.0075 96.5082C33.7879 96.5082 33.6415 96.6302 33.6415 96.9474V99.3874Z" fill="#263238"/>
<path d="M33.428 102.895C33.6035 102.917 33.7806 102.871 33.9234 102.766C34.0661 102.662 34.1639 102.507 34.1966 102.334H34.6724V106.805H33.9709V103.395H33.428V102.895Z" fill="#263238"/>
<path d="M32.94 109.8C32.94 109.517 33.0525 109.246 33.2527 109.045C33.4529 108.845 33.7244 108.733 34.0075 108.733C34.2906 108.733 34.5621 108.845 34.7623 109.045C34.9625 109.246 35.075 109.517 35.075 109.8V112.13C35.075 112.413 34.9625 112.685 34.7623 112.885C34.5621 113.085 34.2906 113.198 34.0075 113.198C33.7244 113.198 33.4529 113.085 33.2527 112.885C33.0525 112.685 32.94 112.413 32.94 112.13V109.8ZM33.6415 112.173C33.6415 112.49 33.7818 112.612 34.0075 112.612C34.2332 112.612 34.3674 112.49 34.3674 112.173V109.733C34.3674 109.416 34.2271 109.294 34.0075 109.294C33.7879 109.294 33.6415 109.416 33.6415 109.733V112.173Z" fill="#263238"/>
<path d="M33.428 115.674C33.6035 115.696 33.7806 115.65 33.9234 115.546C34.0661 115.442 34.1639 115.287 34.1966 115.113H34.6724V119.56H33.9709V116.15H33.428V115.674Z" fill="#263238"/>
<path d="M32.94 122.574C32.94 122.29 33.0525 122.019 33.2527 121.819C33.4529 121.619 33.7244 121.506 34.0075 121.506C34.2906 121.506 34.5621 121.619 34.7623 121.819C34.9625 122.019 35.075 122.29 35.075 122.574V124.898C35.075 125.181 34.9625 125.452 34.7623 125.653C34.5621 125.853 34.2906 125.965 34.0075 125.965C33.7244 125.965 33.4529 125.853 33.2527 125.653C33.0525 125.452 32.94 125.181 32.94 124.898V122.574ZM33.6415 124.947C33.6415 125.264 33.7818 125.386 34.0075 125.386C34.2332 125.386 34.3674 125.264 34.3674 124.947V122.507C34.3674 122.183 34.2271 122.067 34.0075 122.067C33.7879 122.067 33.6415 122.183 33.6415 122.507V124.947Z" fill="#263238"/>
<path d="M33.428 128.454C33.6035 128.476 33.7806 128.43 33.9234 128.325C34.0661 128.221 34.1639 128.067 34.1966 127.893H34.6724V132.37H33.9709V128.96H33.428V128.454Z" fill="#263238"/>
<path d="M32.94 135.353C32.94 135.07 33.0525 134.798 33.2527 134.598C33.4529 134.398 33.7244 134.285 34.0075 134.285C34.2906 134.285 34.5621 134.398 34.7623 134.598C34.9625 134.798 35.075 135.07 35.075 135.353V137.677C35.075 137.96 34.9625 138.232 34.7623 138.432C34.5621 138.632 34.2906 138.744 34.0075 138.744C33.7244 138.744 33.4529 138.632 33.2527 138.432C33.0525 138.232 32.94 137.96 32.94 137.677V135.353ZM33.6415 137.72C33.6415 138.043 33.7818 138.159 34.0075 138.159C34.2332 138.159 34.3674 138.043 34.3674 137.72V135.28C34.3674 134.963 34.2271 134.841 34.0075 134.841C33.7879 134.841 33.6415 134.963 33.6415 135.28V137.72Z" fill="#263238"/>
<path d="M32.94 141.74C32.94 141.457 33.0525 141.185 33.2527 140.985C33.4529 140.785 33.7244 140.672 34.0075 140.672C34.2906 140.672 34.5621 140.785 34.7623 140.985C34.9625 141.185 35.075 141.457 35.075 141.74V144.064C35.075 144.347 34.9625 144.618 34.7623 144.819C34.5621 145.019 34.2906 145.131 34.0075 145.131C33.7244 145.131 33.4529 145.019 33.2527 144.819C33.0525 144.618 32.94 144.347 32.94 144.064V141.74ZM33.6415 144.113C33.6415 144.43 33.7818 144.552 34.0075 144.552C34.2332 144.552 34.3674 144.43 34.3674 144.113V141.673C34.3674 141.355 34.2271 141.233 34.0075 141.233C33.7879 141.233 33.6415 141.355 33.6415 141.673V144.113Z" fill="#263238"/>
<path d="M32.94 148.132C32.94 147.849 33.0525 147.578 33.2527 147.378C33.4529 147.177 33.7244 147.065 34.0075 147.065C34.2906 147.065 34.5621 147.177 34.7623 147.378C34.9625 147.578 35.075 147.849 35.075 148.132V150.457C35.075 150.74 34.9625 151.011 34.7623 151.211C34.5621 151.412 34.2906 151.524 34.0075 151.524C33.7244 151.524 33.4529 151.412 33.2527 151.211C33.0525 151.011 32.94 150.74 32.94 150.457V148.132ZM33.6415 150.499C33.6415 150.816 33.7818 150.938 34.0075 150.938C34.2332 150.938 34.3674 150.816 34.3674 150.499V148.059C34.3674 147.742 34.2271 147.62 34.0075 147.62C33.7879 147.62 33.6415 147.742 33.6415 148.059V150.499Z" fill="#263238"/>
<path d="M33.428 160.393C33.6037 160.417 33.7816 160.371 33.9247 160.267C34.0679 160.162 34.1652 160.007 34.1966 159.832H34.6724V164.304H33.9709V160.894H33.428V160.393Z" fill="#263238"/>
<path d="M37.21 115.674C37.3862 115.696 37.5641 115.651 37.7079 115.546C37.8516 115.442 37.9506 115.287 37.9847 115.113H38.4544V119.56H37.7651V116.15H37.21V115.674Z" fill="#263238"/>
<path d="M37.21 122.061C37.3862 122.083 37.5641 122.037 37.7079 121.933C37.8516 121.829 37.9506 121.674 37.9847 121.5H38.4544V125.971H37.7651V122.561H37.21V122.061Z" fill="#263238"/>
<path d="M36.7342 128.96C36.7231 128.814 36.7424 128.666 36.7908 128.528C36.8393 128.389 36.9159 128.262 37.0158 128.154C37.1157 128.046 37.2369 127.96 37.3716 127.901C37.5063 127.842 37.6517 127.812 37.7986 127.812C37.9456 127.812 38.091 127.842 38.2257 127.901C38.3604 127.96 38.4815 128.046 38.5815 128.154C38.6814 128.262 38.758 128.389 38.8064 128.528C38.8549 128.666 38.8742 128.814 38.8631 128.96V131.29C38.8742 131.437 38.8549 131.584 38.8064 131.723C38.758 131.862 38.6814 131.989 38.5815 132.097C38.4815 132.205 38.3604 132.291 38.2257 132.349C38.091 132.408 37.9456 132.438 37.7986 132.438C37.6517 132.438 37.5063 132.408 37.3716 132.349C37.2369 132.291 37.1157 132.205 37.0158 132.097C36.9159 131.989 36.8393 131.862 36.7908 131.723C36.7424 131.584 36.7231 131.437 36.7342 131.29V128.96ZM37.4357 131.333C37.4357 131.65 37.576 131.772 37.7956 131.772C38.0152 131.772 38.1616 131.65 38.1616 131.333V128.893C38.1616 128.576 38.0213 128.454 37.7956 128.454C37.5699 128.454 37.4357 128.576 37.4357 128.893V131.333Z" fill="#263238"/>
<path d="M36.7342 135.353C36.7231 135.206 36.7424 135.059 36.7908 134.92C36.8393 134.782 36.9159 134.654 37.0158 134.547C37.1157 134.439 37.2369 134.353 37.3716 134.294C37.5063 134.235 37.6517 134.205 37.7986 134.205C37.9456 134.205 38.091 134.235 38.2257 134.294C38.3604 134.353 38.4815 134.439 38.5815 134.547C38.6814 134.654 38.758 134.782 38.8064 134.92C38.8549 135.059 38.8742 135.206 38.8631 135.353V137.677C38.8742 137.824 38.8549 137.971 38.8064 138.11C38.758 138.248 38.6814 138.376 38.5815 138.483C38.4815 138.591 38.3604 138.677 38.2257 138.736C38.091 138.795 37.9456 138.825 37.7986 138.825C37.6517 138.825 37.5063 138.795 37.3716 138.736C37.2369 138.677 37.1157 138.591 37.0158 138.483C36.9159 138.376 36.8393 138.248 36.7908 138.11C36.7424 137.971 36.7231 137.824 36.7342 137.677V135.353ZM37.4357 137.72C37.4357 138.043 37.576 138.159 37.7956 138.159C38.0152 138.159 38.1616 138.043 38.1616 137.72V135.28C38.1616 134.963 38.0213 134.841 37.7956 134.841C37.5699 134.841 37.4357 134.963 37.4357 135.28V137.72Z" fill="#263238"/>
<path d="M37.21 141.227C37.3864 141.251 37.5651 141.205 37.7092 141.101C37.8533 140.997 37.9519 140.841 37.9847 140.666H38.4544V145.137H37.7651V141.727H37.21V141.227Z" fill="#263238"/>
<path d="M37.21 154.007C37.3862 154.029 37.5641 153.983 37.7079 153.879C37.8516 153.775 37.9506 153.62 37.9847 153.446H38.4544V157.917H37.7651V154.507H37.21V154.007Z" fill="#263238"/>
<path d="M29.1336 109.8C29.1336 109.517 29.2461 109.246 29.4463 109.045C29.6465 108.845 29.918 108.733 30.2011 108.733C30.4842 108.733 30.7557 108.845 30.9559 109.045C31.1561 109.246 31.2686 109.517 31.2686 109.8V112.13C31.2686 112.413 31.1561 112.685 30.9559 112.885C30.7557 113.085 30.4842 113.198 30.2011 113.198C29.918 113.198 29.6465 113.085 29.4463 112.885C29.2461 112.685 29.1336 112.413 29.1336 112.13V109.8ZM29.8412 112.173C29.8412 112.49 29.9815 112.612 30.2011 112.612C30.4207 112.612 30.5671 112.49 30.5671 112.173V109.733C30.5671 109.416 30.4268 109.294 30.2011 109.294C29.9754 109.294 29.8412 109.416 29.8412 109.733V112.173Z" fill="#263238"/>
<path d="M29.6277 115.674C29.8039 115.696 29.9818 115.651 30.1255 115.546C30.2693 115.442 30.3682 115.287 30.4024 115.113H30.8721V119.56H30.1706V116.15H29.6277V115.674Z" fill="#263238"/>
<path d="M29.6277 122.061C29.8039 122.083 29.9818 122.037 30.1255 121.933C30.2693 121.829 30.3682 121.674 30.4024 121.5H30.8721V125.971H30.1706V122.561H29.6277V122.061Z" fill="#263238"/>
<path d="M29.1336 128.96C29.1336 128.677 29.2461 128.406 29.4463 128.205C29.6465 128.005 29.918 127.893 30.2011 127.893C30.4842 127.893 30.7557 128.005 30.9559 128.205C31.1561 128.406 31.2686 128.677 31.2686 128.96V131.291C31.2686 131.574 31.1561 131.845 30.9559 132.045C30.7557 132.246 30.4842 132.358 30.2011 132.358C29.918 132.358 29.6465 132.246 29.4463 132.045C29.2461 131.845 29.1336 131.574 29.1336 131.291V128.96ZM29.8412 131.333C29.8412 131.65 29.9815 131.772 30.2011 131.772C30.4207 131.772 30.5671 131.65 30.5671 131.333V128.893C30.5671 128.576 30.4268 128.454 30.2011 128.454C29.9754 128.454 29.8412 128.576 29.8412 128.893V131.333Z" fill="#263238"/>
<path d="M29.6277 134.84C29.8039 134.862 29.9818 134.817 30.1255 134.712C30.2693 134.608 30.3682 134.454 30.4024 134.279H30.8721V138.751H30.1706V135.341H29.6277V134.84Z" fill="#263238"/>
<path d="M29.1336 141.74C29.1336 141.457 29.2461 141.185 29.4463 140.985C29.6465 140.785 29.918 140.672 30.2011 140.672C30.4842 140.672 30.7557 140.785 30.9559 140.985C31.1561 141.185 31.2686 141.457 31.2686 141.74V144.064C31.2686 144.347 31.1561 144.618 30.9559 144.819C30.7557 145.019 30.4842 145.131 30.2011 145.131C29.918 145.131 29.6465 145.019 29.4463 144.819C29.2461 144.618 29.1336 144.347 29.1336 144.064V141.74ZM29.8412 144.113C29.8412 144.43 29.9815 144.552 30.2011 144.552C30.4207 144.552 30.5671 144.43 30.5671 144.113V141.673C30.5671 141.355 30.4268 141.233 30.2011 141.233C29.9754 141.233 29.8412 141.355 29.8412 141.673V144.113Z" fill="#263238"/>
<path d="M25.3394 97.0207C25.3283 96.8741 25.3476 96.7269 25.3961 96.5881C25.4445 96.4493 25.5211 96.3221 25.621 96.2143C25.721 96.1065 25.8421 96.0205 25.9768 95.9617C26.1115 95.9029 26.2569 95.8726 26.4039 95.8726C26.5508 95.8726 26.6962 95.9029 26.8309 95.9617C26.9657 96.0205 27.0868 96.1065 27.1867 96.2143C27.2866 96.3221 27.3632 96.4493 27.4117 96.5881C27.4601 96.7269 27.4794 96.8741 27.4683 97.0207V99.3448C27.4794 99.4914 27.4601 99.6386 27.4117 99.7774C27.3632 99.9162 27.2866 100.043 27.1867 100.151C27.0868 100.259 26.9657 100.345 26.8309 100.404C26.6962 100.463 26.5508 100.493 26.4039 100.493C26.2569 100.493 26.1115 100.463 25.9768 100.404C25.8421 100.345 25.721 100.259 25.621 100.151C25.5211 100.043 25.4445 99.9162 25.3961 99.7774C25.3476 99.6386 25.3283 99.4914 25.3394 99.3448V97.0207ZM26.0409 99.3875C26.0409 99.7108 26.1812 99.8267 26.4008 99.8267C26.6204 99.8267 26.7668 99.7108 26.7668 99.3875V96.9475C26.7668 96.6242 26.6265 96.5022 26.4008 96.5022C26.1751 96.5022 26.0409 96.6242 26.0409 96.9475V99.3875Z" fill="#263238"/>
<path d="M25.8274 109.288C26.0036 109.31 26.1815 109.264 26.3252 109.16C26.469 109.056 26.5679 108.901 26.6021 108.727H27.0718V113.192H26.3703V109.8H25.8274V109.288Z" fill="#263238"/>
<path d="M25.3394 116.187C25.3283 116.04 25.3476 115.893 25.3961 115.754C25.4445 115.615 25.5211 115.488 25.621 115.38C25.721 115.273 25.8421 115.187 25.9768 115.128C26.1115 115.069 26.2569 115.039 26.4039 115.039C26.5508 115.039 26.6962 115.069 26.8309 115.128C26.9657 115.187 27.0868 115.273 27.1867 115.38C27.2866 115.488 27.3632 115.615 27.4117 115.754C27.4601 115.893 27.4794 116.04 27.4683 116.187V118.511C27.4794 118.657 27.4601 118.805 27.4117 118.943C27.3632 119.082 27.2866 119.209 27.1867 119.317C27.0868 119.425 26.9657 119.511 26.8309 119.57C26.6962 119.629 26.5508 119.659 26.4039 119.659C26.2569 119.659 26.1115 119.629 25.9768 119.57C25.8421 119.511 25.721 119.425 25.621 119.317C25.5211 119.209 25.4445 119.082 25.3961 118.943C25.3476 118.805 25.3283 118.657 25.3394 118.511V116.187ZM26.0409 118.554C26.0409 118.877 26.1812 118.993 26.4008 118.993C26.6204 118.993 26.7668 118.877 26.7668 118.554V116.144C26.7668 115.821 26.6265 115.699 26.4008 115.699C26.1751 115.699 26.0409 115.821 26.0409 116.144V118.554Z" fill="#263238"/>
<path d="M25.3394 128.966C25.3283 128.82 25.3476 128.672 25.3961 128.534C25.4445 128.395 25.5211 128.268 25.621 128.16C25.721 128.052 25.8421 127.966 25.9768 127.907C26.1115 127.848 26.2569 127.818 26.4039 127.818C26.5508 127.818 26.6962 127.848 26.8309 127.907C26.9657 127.966 27.0868 128.052 27.1867 128.16C27.2866 128.268 27.3632 128.395 27.4117 128.534C27.4601 128.672 27.4794 128.82 27.4683 128.966V131.29C27.4794 131.437 27.4601 131.584 27.4117 131.723C27.3632 131.862 27.2866 131.989 27.1867 132.097C27.0868 132.205 26.9657 132.291 26.8309 132.349C26.6962 132.408 26.5508 132.438 26.4039 132.438C26.2569 132.438 26.1115 132.408 25.9768 132.349C25.8421 132.291 25.721 132.205 25.621 132.097C25.5211 131.989 25.4445 131.862 25.3961 131.723C25.3476 131.584 25.3283 131.437 25.3394 131.29V128.966ZM26.0409 131.333C26.0409 131.65 26.1812 131.772 26.4008 131.772C26.6204 131.772 26.7668 131.65 26.7668 131.333V128.893C26.7668 128.576 26.6265 128.454 26.4008 128.454C26.1751 128.454 26.0409 128.576 26.0409 128.893V131.333Z" fill="#263238"/>
<path d="M25.3394 135.353C25.3283 135.206 25.3476 135.059 25.3961 134.92C25.4445 134.782 25.5211 134.654 25.621 134.547C25.721 134.439 25.8421 134.353 25.9768 134.294C26.1115 134.235 26.2569 134.205 26.4039 134.205C26.5508 134.205 26.6962 134.235 26.8309 134.294C26.9657 134.353 27.0868 134.439 27.1867 134.547C27.2866 134.654 27.3632 134.782 27.4117 134.92C27.4601 135.059 27.4794 135.206 27.4683 135.353V137.677C27.4794 137.824 27.4601 137.971 27.4117 138.11C27.3632 138.248 27.2866 138.376 27.1867 138.483C27.0868 138.591 26.9657 138.677 26.8309 138.736C26.6962 138.795 26.5508 138.825 26.4039 138.825C26.2569 138.825 26.1115 138.795 25.9768 138.736C25.8421 138.677 25.721 138.591 25.621 138.483C25.5211 138.376 25.4445 138.248 25.3961 138.11C25.3476 137.971 25.3283 137.824 25.3394 137.677V135.353ZM26.0409 137.72C26.0409 138.043 26.1812 138.165 26.4008 138.165C26.6204 138.165 26.7668 138.043 26.7668 137.72V135.28C26.7668 134.956 26.6265 134.834 26.4008 134.834C26.1751 134.834 26.0409 134.956 26.0409 135.28V137.72Z" fill="#263238"/>
<path d="M25.3394 141.74C25.3283 141.593 25.3476 141.446 25.3961 141.307C25.4445 141.168 25.5211 141.041 25.621 140.933C25.721 140.825 25.8421 140.74 25.9768 140.681C26.1115 140.622 26.2569 140.592 26.4039 140.592C26.5508 140.592 26.6962 140.622 26.8309 140.681C26.9657 140.74 27.0868 140.825 27.1867 140.933C27.2866 141.041 27.3632 141.168 27.4117 141.307C27.4601 141.446 27.4794 141.593 27.4683 141.74V144.064C27.4794 144.21 27.4601 144.358 27.4117 144.496C27.3632 144.635 27.2866 144.762 27.1867 144.87C27.0868 144.978 26.9657 145.064 26.8309 145.123C26.6962 145.182 26.5508 145.212 26.4039 145.212C26.2569 145.212 26.1115 145.182 25.9768 145.123C25.8421 145.064 25.721 144.978 25.621 144.87C25.5211 144.762 25.4445 144.635 25.3961 144.496C25.3476 144.358 25.3283 144.21 25.3394 144.064V141.74ZM26.0409 144.113C26.0409 144.43 26.1812 144.552 26.4008 144.552C26.6204 144.552 26.7668 144.43 26.7668 144.113V141.673C26.7668 141.355 26.6265 141.233 26.4008 141.233C26.1751 141.233 26.0409 141.355 26.0409 141.673V144.113Z" fill="#263238"/>
<path d="M25.8274 160.43C26.0044 160.452 26.1831 160.405 26.327 160.3C26.4709 160.194 26.5693 160.038 26.6021 159.863H27.0718V164.334H26.3703V160.924H25.8274V160.43Z" fill="#263238"/>
<path d="M239.809 156.532C219.874 148.462 218.429 120.707 218.429 120.707H222.699V117.388C232.819 117.388 239.809 111.112 239.809 111.112C239.809 111.112 246.8 117.388 256.92 117.388V120.707H261.19C261.19 120.707 259.738 148.462 239.809 156.532Z" stroke="#263238" stroke-width="1.10721" stroke-linecap="round" stroke-linejoin="round"/>
<path d="M239.809 152.866C226.749 146.766 222.967 130.564 221.924 123.586H225.828V120.097C230.847 119.477 235.643 117.657 239.809 114.79C243.978 117.657 248.776 119.477 253.797 120.097V123.586H257.688C256.633 130.54 252.827 146.766 239.809 152.866Z" stroke="#263238" stroke-width="1.10721" stroke-linecap="round" stroke-linejoin="round"/>
<path d="M246.849 129.912H232.764C232.309 129.912 231.94 130.281 231.94 130.735V139.196C231.94 139.651 232.309 140.02 232.764 140.02H246.849C247.304 140.02 247.672 139.651 247.672 139.196V130.735C247.672 130.281 247.304 129.912 246.849 129.912Z" fill="#263238"/>
<path d="M240.09 121.39C239.325 121.353 238.56 121.471 237.842 121.738C237.124 122.005 236.468 122.415 235.913 122.943C235.358 123.472 234.916 124.107 234.614 124.811C234.312 125.515 234.155 126.273 234.155 127.039V127.649C234.155 127.701 234.165 127.752 234.185 127.8C234.205 127.848 234.234 127.892 234.271 127.929C234.308 127.966 234.351 127.995 234.399 128.015C234.447 128.035 234.499 128.045 234.551 128.045H235.979C236.031 128.045 236.082 128.035 236.13 128.015C236.178 127.995 236.222 127.966 236.259 127.929C236.296 127.892 236.325 127.848 236.345 127.8C236.365 127.752 236.375 127.701 236.375 127.649V127.179C236.364 126.295 236.687 125.439 237.28 124.783C237.872 124.127 238.691 123.719 239.571 123.641C240.04 123.61 240.51 123.676 240.952 123.834C241.394 123.991 241.8 124.238 242.143 124.559C242.486 124.88 242.759 125.268 242.947 125.698C243.134 126.129 243.231 126.593 243.231 127.063V127.673C243.231 127.778 243.273 127.879 243.348 127.953C243.422 128.028 243.523 128.069 243.628 128.069H245.055C245.16 128.069 245.261 128.028 245.336 127.953C245.41 127.879 245.452 127.778 245.452 127.673V127.246C245.479 125.769 244.938 124.337 243.94 123.248C242.942 122.158 241.564 121.493 240.09 121.39Z" fill="#263238"/>
<path d="M241.285 133.834C241.286 133.57 241.216 133.311 241.083 133.084C240.949 132.856 240.757 132.669 240.527 132.541C240.297 132.413 240.036 132.348 239.773 132.355C239.509 132.362 239.252 132.439 239.028 132.578C238.804 132.718 238.622 132.914 238.5 133.148C238.378 133.382 238.321 133.644 238.335 133.908C238.349 134.171 238.433 134.426 238.578 134.646C238.724 134.865 238.926 135.042 239.163 135.158L238.626 137.531H240.987L240.45 135.158C240.699 135.037 240.909 134.849 241.057 134.615C241.204 134.381 241.284 134.111 241.285 133.834Z" fill="white" stroke="#263238" stroke-width="1.10721" stroke-linecap="round" stroke-linejoin="round"/>
<path d="M176.827 29.3533H128.661C127.543 29.3533 126.636 30.26 126.636 31.3785V58.4991C126.636 59.6176 127.543 60.5243 128.661 60.5243H176.827C177.945 60.5243 178.852 59.6176 178.852 58.4991V31.3785C178.852 30.26 177.945 29.3533 176.827 29.3533Z" stroke="#263238" stroke-width="1.10721" stroke-linecap="round" stroke-linejoin="round"/>
<path d="M131.498 56.1689H146.607C146.995 56.1689 147.309 55.8549 147.309 55.4674V34.4163C147.309 34.0289 146.995 33.7148 146.607 33.7148H131.498C131.11 33.7148 130.796 34.0289 130.796 34.4163V55.4674C130.796 55.8549 131.11 56.1689 131.498 56.1689Z" stroke="#263238" stroke-width="1.10721" stroke-linecap="round" stroke-linejoin="round"/>
<path d="M139.08 56.1627H131.54C131.343 56.1627 131.154 56.0843 131.014 55.9448C130.875 55.8052 130.796 55.6159 130.796 55.4185V50.2335C130.796 50.2335 135.011 50.0505 135.719 49.1538C136.427 48.2571 135.646 46.8541 135.646 46.8541C135.39 46.5369 135.329 44.286 135.329 44.286L135.072 44.2189C134.822 44.1579 134.462 42.2913 134.462 41.5898C134.462 41.3878 134.519 41.1898 134.627 41.019C134.735 40.8483 134.889 40.712 135.072 40.626C135.072 40.626 134.462 36.0754 139.056 36.0754C143.649 36.0754 143.033 40.626 143.033 40.626C143.216 40.712 143.37 40.8483 143.478 41.019C143.586 41.1898 143.643 41.3878 143.643 41.5898C143.643 42.2913 143.313 44.1579 143.033 44.2189L142.777 44.286C142.777 44.286 142.716 46.5369 142.459 46.8541C142.459 46.8541 141.673 48.2571 142.386 49.1538C143.1 50.0505 147.309 50.2335 147.309 50.2335V55.4185C147.31 55.5165 147.291 55.6136 147.254 55.7043C147.217 55.7949 147.162 55.8773 147.093 55.9466C147.023 56.0158 146.941 56.0706 146.85 56.1077C146.76 56.1449 146.663 56.1636 146.565 56.1627H139.08Z" fill="#263238"/>
<path d="M173.618 56.2725H163.358C163.154 56.2726 162.958 56.1929 162.812 56.0504C162.666 55.9079 162.582 55.7139 162.577 55.51C162.577 55.303 162.659 55.1044 162.806 54.9579C162.952 54.8115 163.151 54.7292 163.358 54.7292H173.618C173.825 54.7292 174.024 54.8115 174.17 54.9579C174.317 55.1044 174.399 55.303 174.399 55.51C174.394 55.7139 174.31 55.9079 174.164 56.0504C174.018 56.1929 173.822 56.2726 173.618 56.2725Z" fill="#263238"/>
<path d="M173.618 35.1666H152.348C152.14 35.1666 151.942 35.0843 151.795 34.9379C151.649 34.7915 151.567 34.5929 151.567 34.3858C151.567 34.1787 151.649 33.9801 151.795 33.8337C151.942 33.6872 152.14 33.605 152.348 33.605H173.618C173.825 33.605 174.024 33.6872 174.17 33.8337C174.317 33.9801 174.399 34.1787 174.399 34.3858C174.399 34.5929 174.317 34.7915 174.17 34.9379C174.024 35.0843 173.825 35.1666 173.618 35.1666Z" fill="#263238"/>
<path d="M164.547 40.4432H152.347C152.244 40.4432 152.141 40.4226 152.046 40.3826C151.95 40.3426 151.864 40.284 151.791 40.2102C151.718 40.1364 151.661 40.0489 151.623 39.9527C151.584 39.8566 151.565 39.7537 151.567 39.6502C151.567 39.4431 151.649 39.2445 151.795 39.0981C151.942 38.9516 152.14 38.8694 152.347 38.8694H164.547C164.751 38.8742 164.945 38.9585 165.088 39.1044C165.23 39.2504 165.31 39.4462 165.31 39.6502C165.313 39.8562 165.235 40.0552 165.092 40.2038C164.949 40.3523 164.754 40.4384 164.547 40.4432Z" fill="#263238"/>
<path d="M160.662 45.7501H152.348C152.14 45.7501 151.942 45.6678 151.795 45.5214C151.649 45.375 151.567 45.1764 151.567 44.9693C151.567 44.7622 151.649 44.5636 151.795 44.4172C151.942 44.2707 152.14 44.1885 152.348 44.1885H160.662C160.869 44.1885 161.067 44.2707 161.214 44.4172C161.36 44.5636 161.443 44.7622 161.443 44.9693C161.443 45.1764 161.36 45.375 161.214 45.5214C161.067 45.6678 160.869 45.7501 160.662 45.7501Z" fill="#263238"/>
<path d="M164.547 50.9962H152.347C152.14 50.9962 151.942 50.9139 151.795 50.7675C151.649 50.621 151.567 50.4224 151.567 50.2154C151.563 50.1108 151.581 50.0066 151.619 49.9091C151.657 49.8115 151.714 49.7225 151.787 49.6474C151.859 49.5723 151.947 49.5126 152.043 49.4718C152.139 49.4311 152.243 49.4101 152.347 49.4102H164.547C164.651 49.4125 164.752 49.4353 164.846 49.4771C164.941 49.5189 165.026 49.579 165.096 49.6539C165.167 49.7287 165.223 49.8169 165.259 49.9133C165.296 50.0096 165.313 50.1123 165.31 50.2154C165.31 50.4193 165.23 50.6152 165.088 50.7611C164.945 50.907 164.751 50.9914 164.547 50.9962Z" fill="#263238"/>
<path d="M77.5676 112.35V142.362L69.4912 150.438H48.0436V112.35H77.5676Z" stroke="#263238" stroke-width="1.10721" stroke-linecap="round" stroke-linejoin="round"/>
<path d="M77.5676 142.362L69.4911 150.438V142.362H77.5676Z" fill="#263238" stroke="#263238" stroke-width="1.10721" stroke-linecap="round" stroke-linejoin="round"/>
<path d="M55.2355 117.206H73.0536" stroke="#263238" stroke-width="1.10721" stroke-linecap="round" stroke-linejoin="round"/>
<path d="M52.5515 120.561H73.0536" stroke="#263238" stroke-width="1.10721" stroke-linecap="round" stroke-linejoin="round"/>
<path d="M52.5515 123.916H73.0536" stroke="#263238" stroke-width="1.10721" stroke-linecap="round" stroke-linejoin="round"/>
<path d="M52.5515 127.271H73.0536" stroke="#263238" stroke-width="1.10721" stroke-linecap="round" stroke-linejoin="round"/>
<path d="M52.5515 130.625H73.0536" stroke="#263238" stroke-width="1.10721" stroke-linecap="round" stroke-linejoin="round"/>
<path d="M52.5515 133.98H73.0536" stroke="#263238" stroke-width="1.10721" stroke-linecap="round" stroke-linejoin="round"/>
<path d="M52.5515 137.329H73.0536" stroke="#263238" stroke-width="1.10721" stroke-linecap="round" stroke-linejoin="round"/>
<path d="M52.5515 140.684H70.3757" stroke="#263238" stroke-width="1.10721" stroke-linecap="round" stroke-linejoin="round"/>
<path d="M78.9706 117.206H82.4171V147.218L74.3468 155.294H52.8992V151.744" stroke="#263238" stroke-width="1.10721" stroke-linecap="round" stroke-linejoin="round"/>
<path d="M82.4171 147.218L74.3468 155.294V147.218H82.4171Z" fill="#263238" stroke="#263238" stroke-width="1.10721" stroke-linecap="round" stroke-linejoin="round"/>
<path d="M188.478 91.4817H117.01C115.582 91.4817 114.424 92.6397 114.424 94.0681V173.575C114.424 175.004 115.582 176.162 117.01 176.162H188.478C189.906 176.162 191.064 175.004 191.064 173.575V94.0681C191.064 92.6397 189.906 91.4817 188.478 91.4817Z" fill="#A47864" stroke="#263238" stroke-width="1.10721" stroke-linecap="round" stroke-linejoin="round"/>
<g opacity="0.5">
<path d="M189.521 119.712H115.967" stroke="white" stroke-width="1.10721" stroke-linecap="round" stroke-linejoin="round"/>
<path d="M189.521 129.119H115.967" stroke="white" stroke-width="1.10721" stroke-linecap="round" stroke-linejoin="round"/>
<path d="M189.521 138.525H115.967" stroke="white" stroke-width="1.10721" stroke-linecap="round" stroke-linejoin="round"/>
<path d="M189.521 147.931H115.967" stroke="white" stroke-width="1.10721" stroke-linecap="round" stroke-linejoin="round"/>
<path d="M189.521 157.337H115.967" stroke="white" stroke-width="1.10721" stroke-linecap="round" stroke-linejoin="round"/>
<path d="M189.521 166.75H115.967" stroke="white" stroke-width="1.10721" stroke-linecap="round" stroke-linejoin="round"/>
<path d="M189.521 110.3H115.967" stroke="white" stroke-width="1.10721" stroke-linecap="round" stroke-linejoin="round"/>
<path d="M189.521 100.894H115.967" stroke="white" stroke-width="1.10721" stroke-linecap="round" stroke-linejoin="round"/>
<path d="M171.947 174.649V92.9883" stroke="white" stroke-width="1.10721" stroke-linecap="round" stroke-linejoin="round"/>
<path d="M162.345 174.649V92.9883" stroke="white" stroke-width="1.10721" stroke-linecap="round" stroke-linejoin="round"/>
<path d="M152.744 174.649V92.9883" stroke="white" stroke-width="1.10721" stroke-linecap="round" stroke-linejoin="round"/>
<path d="M143.143 174.649V92.9883" stroke="white" stroke-width="1.10721" stroke-linecap="round" stroke-linejoin="round"/>
<path d="M133.541 174.649V92.9883" stroke="white" stroke-width="1.10721" stroke-linecap="round" stroke-linejoin="round"/>
<path d="M123.946 174.649V92.9883" stroke="white" stroke-width="1.10721" stroke-linecap="round" stroke-linejoin="round"/>
<path d="M181.548 174.649V92.9883" stroke="white" stroke-width="1.10721" stroke-linecap="round" stroke-linejoin="round"/>
</g>
<path d="M150.06 159.619C150.881 155.374 152.004 151.193 153.421 147.108C153.708 146.284 154.031 145.454 154.385 144.57C155.221 142.435 156.935 138.073 156.288 136.774C156.224 136.636 156.124 136.517 155.998 136.43C155.873 136.344 155.727 136.292 155.574 136.28C155.542 136.279 155.509 136.284 155.479 136.295C155.449 136.307 155.421 136.324 155.398 136.347C153.494 137.903 152.268 142.215 151.378 145.363L151.079 146.424C149.897 150.656 149.061 154.977 148.578 159.344" stroke="#263238" stroke-width="1.10721" stroke-linecap="round" stroke-linejoin="round"/>
<path d="M152.884 159.82C153.673 155.824 154.739 151.888 156.075 148.041C156.343 147.254 156.685 146.43 157.008 145.564C158.344 142.167 160.003 137.958 158.807 135.548C158.51 134.947 158.054 134.439 157.488 134.08C156.923 133.721 156.269 133.524 155.599 133.511C154.891 133.504 154.204 133.748 153.659 134.2C151.079 136.304 149.773 140.91 148.724 144.607L148.425 145.662C147.244 149.858 146.402 154.141 145.906 158.472" stroke="#263238" stroke-width="1.10721" stroke-linecap="round" stroke-linejoin="round"/>
<path d="M155.776 159.545C156.519 155.952 157.495 152.411 158.698 148.944C160.149 144.802 163.419 138.574 161.296 134.304C159.558 130.808 155.007 129.509 151.902 132.047C148.352 134.938 146.943 140.739 145.747 144.893C144.619 148.893 143.789 152.971 143.265 157.093" stroke="#263238" stroke-width="1.10721" stroke-linecap="round" stroke-linejoin="round"/>
<path d="M158.814 158.704C159.477 155.711 160.316 152.759 161.327 149.865C161.565 149.176 161.87 148.407 162.193 147.583C163.925 143.173 166.085 137.677 163.785 133.053C163.026 131.527 161.859 130.241 160.415 129.337C158.97 128.433 157.303 127.945 155.599 127.929C153.61 127.923 151.681 128.611 150.145 129.875C146.205 133.09 144.655 138.635 143.368 143.082L143.076 144.113C142.048 147.734 141.267 151.42 140.739 155.147" stroke="#263238" stroke-width="1.10721" stroke-linecap="round" stroke-linejoin="round"/>
<path d="M162.059 157.099C162.626 154.867 163.248 152.799 163.95 150.786C164.182 150.133 164.468 149.395 164.773 148.62C166.603 143.936 169.123 137.543 166.274 131.821C165.285 129.831 163.764 128.153 161.88 126.975C159.995 125.797 157.821 125.165 155.599 125.148C152.969 125.138 150.418 126.049 148.389 127.722C143.765 131.492 142.063 137.482 140.69 142.325L140.398 143.35C139.537 146.373 138.847 149.442 138.33 152.543" stroke="#263238" stroke-width="1.10721" stroke-linecap="round" stroke-linejoin="round"/>
<path d="M165.408 154.385C166.018 149.92 169.617 144.625 169.97 138.433C170.294 132.76 168.427 129.125 167.103 127.301C166.789 126.852 166.589 126.332 166.521 125.788C166.453 125.243 166.519 124.691 166.713 124.178C167.598 121.578 167.568 118.755 166.628 116.175" stroke="#263238" stroke-width="1.10721" stroke-linecap="round" stroke-linejoin="round"/>
<path d="M156.953 107.836C161.65 110.776 164.7 115.406 164.938 121.39C165.017 123.537 163.273 124.275 161.089 123.61C156.52 122.219 145.631 118.657 138.995 137.317C137.723 141.189 136.784 145.162 136.189 149.194" stroke="#263238" stroke-width="1.10721" stroke-linecap="round" stroke-linejoin="round"/>
<path d="M147.62 108.141C150.551 108.101 153.448 108.78 156.056 110.117C160.515 112.515 163.321 118.151 161.888 119.584C160.296 121.176 157.337 117.333 148.291 121.042C143.942 122.823 140.855 126.453 138.757 130.577C137.81 132.46 137.011 134.414 136.366 136.42C135.524 139.002 134.832 141.629 134.292 144.289" stroke="#263238" stroke-width="1.10721" stroke-linecap="round" stroke-linejoin="round"/>
<path d="M142.478 111.581C144.071 111.161 145.71 110.942 147.358 110.929C155.343 110.746 158.338 115.003 157.459 116.083C156.721 116.992 155.08 116.48 152.829 116.754C146.333 117.553 141.197 121.25 137.738 126.715C136.032 129.483 134.672 132.449 133.688 135.548C133.505 136.103 133.328 136.664 133.157 137.226" stroke="#263238" stroke-width="1.10721" stroke-linecap="round" stroke-linejoin="round"/>
<path d="M138.714 116.174C141.375 114.025 144.727 112.915 148.145 113.051C149.157 113.051 151.658 113.381 151.994 114.338C152.439 115.595 148.376 113.887 142.49 117.809C134.944 122.842 134.029 127.612 134.029 127.612" stroke="#263238" stroke-width="1.10721" stroke-linecap="round" stroke-linejoin="round"/>
<path d="M168.61 151.005C168.61 151.005 172.703 142.167 172.27 135.335C172.002 130.936 169.83 128.179 169.489 126.221C169.147 124.263 170.099 123.781 169.842 121.988" stroke="#263238" stroke-width="1.10721" stroke-linecap="round" stroke-linejoin="round"/>
<path d="M119.584 109.397V96.9167H132.065" stroke="#263238" stroke-width="1.10721" stroke-linecap="round" stroke-linejoin="round"/>
<path d="M132.065 170.727H119.584V158.246" stroke="#263238" stroke-width="1.10721" stroke-linecap="round" stroke-linejoin="round"/>
<path d="M185.91 109.397V96.9167H173.429" stroke="#263238" stroke-width="1.10721" stroke-linecap="round" stroke-linejoin="round"/>
<path d="M173.429 170.727H185.91V158.246" stroke="#263238" stroke-width="1.10721" stroke-linecap="round" stroke-linejoin="round"/>
<path d="M238.925 285.48C235.667 280.6 232.251 275.452 229.445 271.188C225.859 265.753 223.272 261.782 223.272 261.782C221.9 255.358 219.954 252.839 217.996 247.562C216.038 242.286 217.654 237.583 218.465 231.05C219.277 224.517 217.996 218.429 217.312 214.299C216.629 210.169 217.428 206.272 217.312 205.357C217.197 204.442 213.299 199.623 211.822 196.066C211.154 194.48 210.219 193.02 209.059 191.747C207.778 190.281 206.174 189.13 204.374 188.386C203.625 188.091 202.842 187.887 202.044 187.776C200.214 187.514 198.738 187.807 197.262 187.807C195.194 187.807 190.839 184.257 187.972 183.689C187.439 183.584 186.902 183.509 186.361 183.464C183.988 183.238 181.481 183.464 178.706 183.683C175.93 183.903 172.703 181.274 170.105 180.45H170.062C169.487 180.25 168.873 180.183 168.269 180.255C165.517 180.713 160.339 181.17 160.339 181.17C160.339 181.17 159.881 177.62 159.649 172.801C159.607 171.965 159.545 171.16 159.472 170.361C159.204 167.384 158.777 164.724 158.71 162.291C158.71 161.681 158.71 161.028 158.71 160.418C158.935 156.99 158.832 154.318 158.71 149.047C158.71 148.871 158.71 148.681 158.71 148.492C158.71 146.851 158.71 145.284 158.612 143.869C158.423 140.434 157.661 137.897 154.245 137.372C151.262 136.915 149.2 138.403 147.937 143.338C146.675 148.273 145.76 147.925 145.418 155.147C145.076 162.37 143.46 166.969 143.692 170.635C143.923 174.301 143.118 181.414 143.118 181.414C141.746 180.725 140.483 181.298 140.245 181.872C140.007 182.445 138.995 188.069 138.183 192.083C137.476 195.651 134.224 198.952 133.029 201.41V201.465C132.901 201.73 132.795 202.006 132.712 202.288C132.022 204.814 132.37 210.218 132.37 217.087C132.37 223.955 130.65 231.08 132.37 235.661C132.736 236.595 133.249 237.464 133.889 238.236C136.53 241.499 141.38 244.336 145.79 249.539C151.28 256.078 155.196 260.897 158.862 263.081C161.491 264.63 162.644 265.899 163.132 267.57C163.324 268.295 163.424 269.041 163.431 269.791C163.48 271.255 164.273 272.371 165.615 274.226C167.709 277.062 169.546 280.079 171.105 283.241C172.575 286.188 174.826 291.781 177.205 297.979L238.925 285.48Z" fill="white"/>
<path opacity="0.4" d="M158.691 160.387C158.655 160.997 158.649 161.607 158.691 162.26C154.306 161.43 145.839 163.596 145.711 166.182C145.564 169.336 145.18 176.79 146.784 178.529C148.389 180.267 151.829 181.377 151.829 181.377C151.575 181.397 151.323 181.429 151.073 181.475H150.987C149.889 181.706 148.889 182.268 148.12 183.085C144.765 186.526 144.625 194.151 145.723 197.823C150.316 213.073 142.88 225.139 140.233 223.675C137.585 222.211 137.372 209.102 138.171 206.034C138.654 204.244 138.89 202.397 138.873 200.544C137.701 200.153 135.243 200.721 132.986 201.422V201.367C134.206 198.927 137.433 195.609 138.141 192.04C138.952 188.026 139.971 182.402 140.202 181.829C140.434 181.255 141.703 180.682 143.075 181.371C143.075 181.371 143.881 174.265 143.649 170.593C143.417 166.92 145.027 162.333 145.375 155.105C145.723 147.876 146.632 148.23 147.894 143.295C149.157 138.36 151.219 136.872 154.202 137.329C157.618 137.854 158.38 140.379 158.569 143.826C158.186 143.462 157.778 143.124 157.349 142.813C156.269 141.974 154.912 141.573 153.549 141.691C151.969 141.91 150.585 143.521 149.706 145.18C148.443 147.62 148.236 150.237 150.011 149.34C152.024 148.334 156.178 148.669 158.71 149.005C158.813 154.269 158.917 156.959 158.691 160.387Z" fill="#A47864"/>
<path opacity="0.4" d="M163.376 269.773C163.369 269.023 163.269 268.277 163.077 267.552C162.595 265.881 161.443 264.612 158.807 263.063C155.147 260.879 151.237 256.06 145.735 249.521C141.325 244.293 136.475 241.481 133.834 238.217C137.158 240.017 141.672 239.09 143.094 241.938C145.162 246.05 154.873 252.308 154.873 252.308C164.352 261.69 163.376 269.773 163.376 269.773Z" fill="#A47864"/>
<path opacity="0.4" d="M170.007 180.426C168.891 180.2 165.865 187.66 165.578 190.308C164.816 197.17 168.336 218.325 163.809 217.849C161.937 217.654 159.741 207.772 159.613 203.167C159.204 189.179 159.765 183.366 159.765 183.366C159.765 183.366 158.765 175.619 159.436 170.343C159.509 171.136 159.57 171.941 159.613 172.783C159.844 177.602 160.302 181.152 160.302 181.152C160.302 181.152 165.463 180.694 168.232 180.237C168.83 180.165 169.437 180.23 170.007 180.426Z" fill="#A47864"/>
<path opacity="0.4" d="M186.306 183.458C183.866 183.677 181.426 186.062 179.419 186.508C176.979 187.026 172.496 181.53 170.05 180.456C172.648 181.28 175.906 183.866 178.651 183.689C181.396 183.512 183.933 183.232 186.306 183.458Z" fill="#A47864"/>
<path opacity="0.4" d="M202.014 187.77C200.805 189.285 199.832 190.973 199.128 192.778C197.164 199.129 199.019 223.156 195.853 219.222C191.729 214.11 196.036 196.377 193.028 189.606C192.077 187.441 188.679 183.976 187.941 183.683C190.808 184.251 195.163 187.801 197.231 187.801C198.707 187.801 200.19 187.508 202.014 187.77Z" fill="#A47864"/>
<path opacity="0.4" d="M229.433 271.182C226.219 267.558 222.851 264.106 220.649 262.813C215.287 259.653 213.75 256.383 213.287 250.936C212.823 245.489 214.208 245.604 215.812 240.218C217.416 234.832 214.433 228.171 214.665 229.61C214.897 231.05 212.365 241.017 210.505 241.511C208.644 242.005 208.016 235.283 207.784 229.805C207.553 224.328 210.535 198.817 209.7 193.815C209.586 193.089 209.36 192.385 209.029 191.729C210.189 193.001 211.123 194.462 211.792 196.048C213.287 199.604 217.184 204.423 217.282 205.338C217.38 206.253 216.593 210.157 217.282 214.281C217.971 218.405 219.234 224.486 218.435 231.032C217.636 237.577 215.995 242.268 217.965 247.544C219.936 252.821 221.869 255.34 223.242 261.763C223.26 261.776 225.846 265.747 229.433 271.182Z" fill="#A47864"/>
<path opacity="0.4" d="M181.018 197.03C182.238 198.311 183.006 215.098 183.695 219.228C184.385 223.358 182.244 233.258 181.018 230.245C179.791 227.231 176.052 191.808 181.018 197.03Z" fill="#A47864"/>
<path d="M176.29 295.606C174.265 290.373 172.392 285.791 171.111 283.223C169.552 280.061 167.715 277.044 165.621 274.208C164.279 272.378 163.486 271.237 163.437 269.773C163.431 269.023 163.33 268.277 163.138 267.552C162.657 265.881 161.504 264.612 158.868 263.063C155.208 260.879 151.298 256.06 145.796 249.521C141.386 244.293 136.536 241.481 133.895 238.218C133.255 237.446 132.743 236.577 132.376 235.643C130.656 231.062 132.376 223.944 132.376 217.069C132.376 210.194 132.028 204.796 132.718 202.27C132.801 201.988 132.907 201.712 133.035 201.447V201.392C134.255 198.952 137.482 195.633 138.189 192.065C139.001 188.051 140.019 182.427 140.251 181.854C140.483 181.28 141.752 180.707 143.124 181.396C143.124 181.396 143.93 174.29 143.698 170.617C143.466 166.945 145.076 162.358 145.424 155.129C145.772 147.901 146.681 148.255 147.943 143.32C149.206 138.385 151.268 136.897 154.251 137.354C157.667 137.879 158.429 140.404 158.618 143.851C158.698 145.266 158.685 146.833 158.716 148.474C158.716 148.663 158.716 148.853 158.716 149.029C158.826 154.282 158.929 156.959 158.716 160.4C158.679 161.01 158.673 161.62 158.716 162.273C158.783 164.713 159.21 167.366 159.478 170.343C159.552 171.136 159.613 171.941 159.655 172.783C159.887 177.602 160.345 181.152 160.345 181.152C160.345 181.152 165.505 180.695 168.275 180.237C168.88 180.165 169.493 180.232 170.068 180.432H170.111C172.709 181.256 175.967 183.842 178.712 183.665C181.457 183.488 183.994 183.22 186.367 183.446C186.908 183.49 187.446 183.566 187.978 183.671C190.845 184.239 195.2 187.789 197.268 187.789C198.744 187.789 200.226 187.496 202.05 187.758C202.849 187.869 203.631 188.073 204.381 188.368C206.18 189.112 207.784 190.263 209.065 191.729C210.225 193.001 211.16 194.462 211.829 196.048C213.323 199.605 217.221 204.424 217.319 205.339C217.416 206.254 216.629 210.158 217.319 214.281C218.008 218.405 219.271 224.486 218.472 231.032C217.672 237.577 216.032 242.268 218.002 247.544C219.972 252.821 221.906 255.34 223.278 261.764C223.278 261.764 225.865 265.735 229.452 271.17C231.94 274.946 234.905 279.435 237.821 283.797" stroke="#263238" stroke-width="1.10721" stroke-linecap="round" stroke-linejoin="round"/>
<path d="M143.094 181.377C143.094 186.428 142.636 192.693 141.874 195.298C141.111 197.902 141.624 206.613 140.221 210.279" stroke="#263238" stroke-width="1.10721" stroke-linecap="round" stroke-linejoin="round"/>
<path d="M145.698 185.355C145.698 185.355 149.212 181.378 151.798 181.378C154.385 181.378 157.002 183.061 159.728 183.366C162.455 183.671 165.347 181.64 167.988 181.152" stroke="#263238" stroke-width="1.10721" stroke-linecap="round" stroke-linejoin="round"/>
<path d="M147.681 166.951C147.681 166.951 152.427 165.218 154.873 166.951" stroke="#263238" stroke-width="1.10721" stroke-linecap="round" stroke-linejoin="round"/>
<path d="M151.28 164.7C151.28 164.7 152.732 164.303 154.873 165.34" stroke="#263238" stroke-width="1.10721" stroke-linecap="round" stroke-linejoin="round"/>
<path d="M150.011 152.5C151.618 152.142 153.284 152.142 154.891 152.5" stroke="#263238" stroke-width="1.10721" stroke-linecap="round" stroke-linejoin="round"/>
<path d="M132.98 201.367C132.98 201.367 136.03 199.885 137.25 199.732" stroke="#263238" stroke-width="1.10721" stroke-linecap="round" stroke-linejoin="round"/>
<path d="M141.038 206.064C141.038 206.064 139.208 208.907 138.867 210.279" stroke="#263238" stroke-width="1.10721" stroke-linecap="round" stroke-linejoin="round"/>
<path d="M150.011 140.093C150.011 140.093 149.279 145.93 150.011 146.449C150.743 146.967 156.398 147.461 156.861 146.449C157.325 145.436 157.404 141.16 157.404 141.16C157.404 141.16 154.019 135.347 150.011 140.093Z" stroke="#263238" stroke-width="1.10721" stroke-linecap="round" stroke-linejoin="round"/>
<path d="M138.165 192.046C138.165 192.046 142.856 189.679 142.966 186.294C143.075 182.908 141.697 182.945 139.952 182.927" stroke="#263238" stroke-width="1.10721" stroke-linecap="round" stroke-linejoin="round"/>
<path d="M211.298 199.732C211.45 205.082 209.925 220.68 209.767 222.973C209.608 225.267 209.767 231.129 209.767 231.129" stroke="#263238" stroke-width="1.10721" stroke-linecap="round" stroke-linejoin="round"/>
<path d="M177.809 187.484C182.854 194.804 177.809 192.046 181.018 227.103" stroke="#263238" stroke-width="1.10721" stroke-linecap="round" stroke-linejoin="round"/>
<path d="M223.26 261.775C223.26 261.775 218.789 258.298 218.02 256.285" stroke="#263238" stroke-width="1.10721" stroke-linecap="round" stroke-linejoin="round"/>
<path d="M160.833 260.128C162.175 262.355 163.022 267.235 163.071 267.534" stroke="#263238" stroke-width="1.10721" stroke-linecap="round" stroke-linejoin="round"/>
</svg>
