<svg width="326" height="201" viewBox="0 0 326 201" fill="none" xmlns="http://www.w3.org/2000/svg">
<g clip-path="url(#clip0_1072_2916)">
<path opacity="0.1" d="M326 128.975C326.005 134.415 325.348 139.836 324.043 145.118C323.604 146.895 323.094 148.638 322.512 150.345C321.8 152.45 320.976 154.515 320.043 156.532C319.573 157.55 319.076 158.55 318.551 159.531C318.56 165.11 317.413 170.631 315.183 175.743C311.15 184.915 303.962 192.332 294.928 196.643C289.272 199.345 283.09 200.764 276.824 200.8H61.8855C52.3217 200.822 42.9228 198.307 34.6445 193.511C33.4212 192.801 32.2292 192.045 31.0685 191.243C28.5485 189.5 26.1808 187.545 23.9912 185.4C21.0268 182.497 18.4153 179.252 16.2108 175.735C11.0317 167.5 8.288 157.963 8.29762 148.23C3.05259 139.014 -0.00585938 127.974 -0.00585938 116.111C-0.00585938 101.143 4.85444 87.4892 12.8396 77.1532C14.5044 74.9937 16.3279 72.9619 18.295 71.0746C20.2359 69.207 22.322 67.497 24.5337 65.9606C26.3025 64.7291 28.1519 63.6179 30.0693 62.6345C30.8692 62.2242 31.6719 61.8417 32.4884 61.4842C33.2053 61.1654 33.9304 60.8688 34.6639 60.5889C35.5441 60.2526 36.4353 59.9449 37.3376 59.6659C38.24 59.3868 39.1303 59.1411 40.0086 58.9286C41.3002 58.6126 42.614 58.3557 43.95 58.158C45.0571 57.9945 46.1642 57.8808 47.2714 57.7921C48.1515 57.7293 49.0391 57.6923 49.934 57.6813H50.4184C51.4037 57.6813 52.3835 57.7201 53.355 57.7866C53.4575 57.5815 53.5682 57.3736 53.6706 57.1685C54.0581 56.4312 54.4594 55.6939 54.8635 54.9704V54.951C54.9327 54.8263 55.0019 54.7016 55.0739 54.5796C55.4005 53.9892 55.7409 53.4044 56.0897 52.8251C56.2502 52.5479 56.408 52.2873 56.5713 52.024C56.6072 51.9603 56.6432 51.8993 56.6847 51.8355C56.8508 51.5583 57.0196 51.2812 57.1913 51.004C58.0456 49.6384 58.9341 48.2941 59.8567 46.971C59.9369 46.8574 60.0117 46.7465 60.0919 46.6356C60.2359 46.4305 60.3687 46.2282 60.5292 46.0258C60.9112 45.4909 61.3042 44.9531 61.7 44.4237C61.9768 44.0495 62.2536 43.6753 62.5525 43.315C63.2722 42.3837 64.0112 41.4579 64.7668 40.5432C65.5224 39.6285 66.3195 38.7083 67.125 37.8074C67.2357 37.6827 67.3464 37.5608 67.4627 37.436L68.6445 36.1471C68.7026 36.0862 68.7525 36.0307 68.8078 35.9753C68.949 35.8228 69.0846 35.6704 69.2368 35.5207C69.8707 34.8499 70.5211 34.1875 71.1743 33.5333C74.5108 30.2133 78.0652 27.1205 81.8138 24.2755C81.9605 24.1591 82.11 24.0482 82.2567 23.9373C82.9597 23.4052 83.6738 22.8813 84.3879 22.3657C88.3164 19.5449 92.4222 16.9803 96.6798 14.6878C96.9732 14.5215 97.2721 14.3635 97.5738 14.2055C101.392 12.1841 105.318 10.3742 109.334 8.7839C111.523 7.91725 113.75 7.10789 116.016 6.3558C117.516 5.86519 119.022 5.39676 120.547 4.9699C122.905 4.29173 125.293 3.68009 127.71 3.13497C134.831 1.53477 142.076 0.546265 149.365 0.180229C151.58 0.0638132 153.819 0.00560612 156.083 0.00560612C167.008 -0.00887764 177.89 1.36963 188.466 4.10787C188.576 4.27337 188.725 4.40829 188.901 4.49994C189.077 4.59159 189.273 4.63694 189.471 4.63174H190.401C190.805 4.73984 191.207 4.85349 191.611 4.9699C193.867 5.6222 196.092 6.33271 198.284 7.10142L198.837 7.30099C204.248 9.22762 209.512 11.5435 214.589 14.2305C219.165 16.6478 223.572 19.3742 227.778 22.3907C228.426 22.8563 229.064 23.3266 229.693 23.8015C230.457 23.3081 231.234 22.8379 232.024 22.3907C235.074 20.6521 238.313 19.2701 241.678 18.2718C248.713 16.1869 256.157 15.8953 263.333 17.4236C272.536 19.3777 280.868 24.2284 287.596 31.1274C290.337 33.941 292.779 37.0325 294.881 40.352C295.033 40.5903 295.186 40.8315 295.332 41.0754C297.136 44.0233 298.686 47.1195 299.966 50.3304C300.013 50.4469 300.06 50.5605 300.101 50.6769C301.283 53.6819 302.236 56.772 302.952 59.9209C302.985 60.0789 303.024 60.2396 303.057 60.4004C303.727 63.4478 304.182 66.5386 304.419 69.6499C304.419 69.7608 304.419 69.8744 304.441 69.9881C304.557 71.5976 304.616 73.2246 304.618 74.8692C304.618 76.3383 304.568 77.7962 304.477 79.2403C304.477 79.3983 304.455 79.5646 304.441 79.7254C304.416 80.1467 304.38 80.5569 304.344 80.981C306.458 82.6876 308.437 84.5559 310.262 86.569C311.068 87.4504 311.849 88.366 312.603 89.3158C314.903 92.2006 316.923 95.2977 318.637 98.5653C323.309 107.43 326 117.835 326 128.975Z" fill="#A47864"/>
<path opacity="0.1" d="M294.724 183.532C294.724 189.832 288.203 195.728 276.824 200.806H61.886C51.9412 200.806 42.6274 197.203 34.645 190.919C32.6384 188.535 31.5811 186.066 31.5811 183.529C31.5811 176.833 38.9545 170.582 51.7031 165.299L52.063 165.155C55.6611 163.678 59.6828 162.284 64.0781 160.972C64.1888 160.939 64.3023 160.909 64.413 160.87C67.9005 159.844 71.6103 158.872 75.5424 157.954C75.667 157.926 75.7888 157.896 75.9133 157.874C77.4301 157.513 78.9773 157.178 80.5577 156.842L81.1666 156.715C92.667 154.326 105.739 152.43 119.916 151.144H119.933C121.918 150.959 123.925 150.793 125.953 150.648C128.209 150.467 130.492 150.315 132.8 150.174C134.564 150.06 136.349 149.963 138.14 149.874C138.146 149.871 138.153 149.87 138.16 149.87C138.167 149.87 138.175 149.871 138.181 149.874C146.26 149.467 154.608 149.253 163.144 149.253C184.252 149.253 204.202 150.55 221.88 152.857C221.897 152.854 221.913 152.854 221.93 152.857C224.648 153.211 227.316 153.586 229.918 153.985C230.662 154.101 231.404 154.218 232.132 154.337C235.068 154.812 237.928 155.313 240.712 155.842C273.456 162.076 294.724 172.162 294.724 183.532Z" fill="#A47864"/>
<path d="M241.216 67.4325C241.216 67.4325 238.288 66.2434 228.971 70.5203C219.655 74.7971 218.492 74.2566 216.082 73.6136C213.671 72.9705 212.326 72.8042 209.741 69.2314C209.741 69.2314 207.917 59.3333 206.142 57.7977C204.368 56.2621 196.878 58.6736 196.878 58.6736C196.878 58.6736 187.886 60.7386 186.172 48.6951C186.172 48.6951 187.388 39.6257 185.732 36.8429C185.732 36.8429 189.076 38.2842 194.589 35.9559C200.103 33.6276 204.518 38.4644 204.518 38.4644C204.518 38.4644 205.902 42.0677 205.763 44.2186C205.625 46.3695 206.499 47.1761 209.129 46.1367C209.129 46.1367 210.421 44.2962 208.592 41.2528C206.762 38.2094 205.456 35.9448 205.965 33.5832C206.474 31.2216 207.944 27.9426 212.663 26.3045C217.383 24.6663 223.79 24.3642 226.865 23.0698C229.94 21.7753 230.699 20.9493 230.699 20.9493C230.699 20.9493 228.805 22.848 233.264 30.9001C237.723 38.9522 234.881 42.4447 234.881 42.4447C234.881 42.4447 232.509 48.1075 222.035 47.6473C222.035 47.6473 211.944 48.016 217.446 52.3012C217.446 52.3012 220.97 51.5833 226.237 49.9064C231.504 48.2294 235.307 55.1506 236.251 59.9652C237.195 64.7799 241.216 67.4325 241.216 67.4325Z" fill="#A47864"/>
<path d="M227.65 27.0473L227.706 27.0306C228.11 28.5662 223.601 34.7418 219.745 39.6507L219.701 39.6146C225.137 32.7017 227.963 28.2364 227.65 27.0473Z" fill="#444053"/>
<path d="M219.779 39.5204L219.804 39.5814C216.724 43.5007 212.851 48.174 209.751 51.647C209.455 51.9769 209.162 52.3233 208.88 52.6781L208.791 52.6061C209.068 52.2513 209.369 51.902 209.666 51.5722C212.763 48.113 216.696 43.4425 219.779 39.5204Z" fill="#444053"/>
<path d="M208.866 52.5173L208.927 52.6227C203.286 59.6769 202.912 70.6394 202.898 70.7253L201.708 69.3394C201.722 69.2507 203.186 59.6215 208.866 52.5173Z" fill="#444053"/>
<path d="M234.687 63.6073C234.687 63.6073 228.044 60.1425 222.851 61.3898C217.659 62.6372 205.981 56.9827 205.981 56.9827C205.981 56.9827 201.027 54.9676 200.031 52.6698C200.031 52.6698 196.629 49.0664 196.432 47.2065C196.236 45.3467 192.928 40.6595 190.77 40.4794" stroke="#444053" stroke-miterlimit="10"/>
<path d="M233.709 66.9418C233.709 66.9418 230.36 64.68 230.75 62.0468" stroke="#444053" stroke-miterlimit="10"/>
<path d="M228.572 69.8604C228.572 69.8604 223.781 68.1198 223.313 61.29" stroke="#444053" stroke-miterlimit="10"/>
<path d="M220.848 71.6289C220.848 71.6289 216.27 67.826 217.79 61.1792" stroke="#444053" stroke-miterlimit="10"/>
<path d="M211.55 69.7718C211.55 69.7718 208.505 63.3689 211.215 59.2029" stroke="#444053" stroke-miterlimit="10"/>
<path d="M234.751 59.3859C234.751 59.3859 231.288 60.4946 232.03 62.3129" stroke="#444053" stroke-miterlimit="10"/>
<path d="M230.571 53.1022C230.571 53.1022 225.935 54.574 225.827 61.1404" stroke="#444053" stroke-miterlimit="10"/>
<path d="M224.105 51.5721C224.105 51.5721 219.884 56.7887 220.194 61.5285" stroke="#444053" stroke-miterlimit="10"/>
<path d="M216.715 53.6177C216.715 53.6177 212.525 57.6313 213.059 59.8626" stroke="#444053" stroke-miterlimit="10"/>
<path d="M214.188 52.2014C214.188 52.2014 210.258 52.9054 209.707 51.6138" stroke="#444053" stroke-miterlimit="10"/>
<path d="M209.081 47.4504C209.081 47.4504 211.066 50.0837 211.572 49.4933" stroke="#444053" stroke-miterlimit="10"/>
<path d="M228.766 45.7846C228.766 45.7846 218.857 46.5053 216.615 43.5117" stroke="#444053" stroke-miterlimit="10"/>
<path d="M207.009 34.1791C207.009 34.1791 211.656 44.1714 215.035 45.4437" stroke="#444053" stroke-miterlimit="10"/>
<path d="M211.874 29.4199C211.874 29.4199 214.728 38.6112 218.265 41.48" stroke="#444053" stroke-miterlimit="10"/>
<path d="M232.935 38.1982C232.935 38.1982 225.401 41.4357 220.878 38.1594" stroke="#444053" stroke-width="0.75" stroke-miterlimit="10"/>
<path d="M218.583 27.4602C218.583 27.4602 220.305 34.2151 222.624 35.8477" stroke="#444053" stroke-width="0.75" stroke-miterlimit="10"/>
<path d="M231.797 30.6284C231.797 30.6284 227.562 32.2361 225.984 31.0054" stroke="#444053" stroke-width="0.75" stroke-miterlimit="10"/>
<path d="M205.453 49.6569C205.453 49.6569 205.453 55.5469 203.854 55.9655" stroke="#444053" stroke-miterlimit="10"/>
<path d="M192.364 57.2876C192.364 57.2876 198.73 57.8419 201.656 54.5463" stroke="#444053" stroke-miterlimit="10"/>
<path d="M203.814 42.6996C203.814 42.6996 202.275 48.6728 198.029 50.2832" stroke="#444053" stroke-miterlimit="10"/>
<path d="M188.55 50.9957C188.55 50.9957 193.05 52.5617 196.922 48.5731" stroke="#444053" stroke-miterlimit="10"/>
<path d="M198.807 37.5635C198.807 37.5635 198.384 42.6359 195.63 45.0113" stroke="#444053" stroke-miterlimit="10"/>
<path d="M188.722 43.2651C188.722 43.2651 192.455 43.29 193.33 42.0704" stroke="#444053" stroke-miterlimit="10"/>
<path d="M215.728 62.5264H109.388V116.283H215.728V62.5264Z" fill="#33323D"/>
<path d="M249.19 132.614H76.2617V167.999H249.19V132.614Z" fill="#33323D"/>
<path d="M117.541 141.459H206.214L223.881 201H98.8555L117.541 141.459Z" fill="white"/>
<path d="M71.335 111.518V129.892V133.762V167.996H104.46V135.336H220.991V167.996H254.117V133.762V129.892V111.518H71.335Z" fill="#504F60"/>
<path opacity="0.1" d="M254.117 111.518H71.335V129.889H254.117V111.518Z" fill="#33323D"/>
<path opacity="0.8" d="M244.266 123.428C245.767 123.428 246.984 122.21 246.984 120.706C246.984 119.203 245.767 117.984 244.266 117.984C242.765 117.984 241.548 119.203 241.548 120.706C241.548 122.21 242.765 123.428 244.266 123.428Z" fill="#8CCF4D"/>
<path opacity="0.8" d="M232.035 123.428C233.537 123.428 234.753 122.21 234.753 120.706C234.753 119.203 233.537 117.984 232.035 117.984C230.534 117.984 229.317 119.203 229.317 120.706C229.317 122.21 230.534 123.428 232.035 123.428Z" fill="#FA5959"/>
<path d="M211.821 49.5958H113.295V108.114H211.821V49.5958Z" fill="white"/>
<path d="M226.81 135.006C227.017 137.271 225.309 139.469 225.808 141.686C225.913 142.16 226.118 142.609 226.192 143.072C226.397 144.389 225.614 145.636 224.864 146.739L218.434 156.213C218.176 156.629 217.868 157.011 217.515 157.35C216.284 158.458 214.44 158.331 212.827 158.658C211.692 158.888 210.621 159.361 209.685 160.044C209.644 160.076 209.617 160.123 209.61 160.174C209.602 160.226 209.614 160.278 209.644 160.321C209.91 160.686 210.263 160.979 210.671 161.173C211.079 161.367 211.529 161.455 211.98 161.43C212.148 161.651 211.98 161.984 211.747 162.139C211.401 162.378 210.917 162.441 210.859 163.029C210.834 163.233 210.875 163.44 210.975 163.619C211.235 164.016 211.639 164.297 212.101 164.401C214.316 165.083 216.732 163.886 218.398 162.256C220.064 160.626 221.26 158.569 222.896 156.909C223.801 155.991 224.833 155.204 225.763 154.315C227.623 152.541 229.085 150.381 230.469 148.217C230.926 147.589 231.27 146.886 231.487 146.14C231.659 145.403 231.581 144.624 231.781 143.893C232.041 142.936 232.741 142.174 233.322 141.37C234.465 139.796 235.227 137.872 235.074 135.932C234.922 133.992 233.726 132.082 231.9 131.422C231.333 131.196 230.709 131.158 230.12 131.314C229.37 131.544 228.819 132.165 228.307 132.758L227.086 134.169C226.782 134.481 226.541 134.849 226.375 135.253C226.296 135.456 226.278 135.678 226.323 135.892C226.368 136.105 226.473 136.301 226.627 136.456" fill="#A0616A"/>
<path opacity="0.05" d="M226.81 135.006C227.017 137.271 225.309 139.469 225.808 141.686C225.913 142.16 226.118 142.609 226.192 143.072C226.397 144.389 225.614 145.636 224.864 146.739L218.434 156.213C218.176 156.629 217.868 157.011 217.515 157.35C216.284 158.458 214.44 158.331 212.827 158.658C211.692 158.888 210.621 159.361 209.685 160.044C209.644 160.076 209.617 160.123 209.61 160.174C209.602 160.226 209.614 160.278 209.644 160.321C209.91 160.686 210.263 160.979 210.671 161.173C211.079 161.367 211.529 161.455 211.98 161.43C212.148 161.651 211.98 161.984 211.747 162.139C211.401 162.378 210.917 162.441 210.859 163.029C210.834 163.233 210.875 163.44 210.975 163.619C211.235 164.016 211.639 164.297 212.101 164.401C214.316 165.083 216.732 163.886 218.398 162.256C220.064 160.626 221.26 158.569 222.896 156.909C223.801 155.991 224.833 155.204 225.763 154.315C227.623 152.541 229.085 150.381 230.469 148.217C230.926 147.589 231.27 146.886 231.487 146.14C231.659 145.403 231.581 144.624 231.781 143.893C232.041 142.936 232.741 142.174 233.322 141.37C234.465 139.796 235.227 137.872 235.074 135.932C234.922 133.992 233.726 132.082 231.9 131.422C231.333 131.196 230.709 131.158 230.12 131.314C229.37 131.544 228.819 132.165 228.307 132.758L227.086 134.169C226.782 134.481 226.541 134.849 226.375 135.253C226.296 135.456 226.278 135.678 226.323 135.892C226.368 136.105 226.473 136.301 226.627 136.456" fill="black"/>
<path d="M231.678 193.294C230.272 194.151 228.523 194.206 226.89 194.004C226.613 193.974 226.317 193.954 226.148 194.156C225.904 194.453 226.192 194.885 226.488 195.124C227.453 195.847 228.586 196.313 229.779 196.479C230.845 196.628 231.92 196.699 232.996 196.693C235.93 196.743 238.88 196.792 241.786 196.368C241.954 196.356 242.117 196.308 242.265 196.227C242.453 196.096 242.583 195.897 242.628 195.673C242.83 194.919 242.445 194.104 241.867 193.58C241.288 193.056 240.544 192.762 239.816 192.471L237.264 191.476C236.663 191.241 235.703 190.622 235.049 190.67C233.856 190.767 232.691 192.701 231.678 193.294Z" fill="#3F3D56"/>
<path opacity="0.05" d="M231.678 193.294C230.272 194.151 228.523 194.206 226.89 194.004C226.613 193.974 226.317 193.954 226.148 194.156C225.904 194.453 226.192 194.885 226.488 195.124C227.453 195.847 228.586 196.313 229.779 196.479C230.845 196.628 231.92 196.699 232.996 196.693C235.93 196.743 238.88 196.792 241.786 196.368C241.954 196.356 242.117 196.308 242.265 196.227C242.453 196.096 242.583 195.897 242.628 195.673C242.83 194.919 242.445 194.104 241.867 193.58C241.288 193.056 240.544 192.762 239.816 192.471L237.264 191.476C236.663 191.241 235.703 190.622 235.049 190.67C233.856 190.767 232.691 192.701 231.678 193.294Z" fill="black"/>
<path d="M233.458 159.354C232.398 160.77 231.296 162.403 231.559 164.157C231.7 165.102 232.229 165.937 232.616 166.81C233.101 168.011 233.46 169.259 233.687 170.535C234.086 172.389 234.484 174.249 234.728 176.131C235.005 178.257 233.704 184.408 233.582 186.551C233.552 187.066 233.494 187.626 233.134 187.997C232.993 188.144 232.804 188.275 232.744 188.455C232.705 188.638 232.734 188.829 232.827 188.993C233.427 190.348 234.653 191.354 236.015 191.931C237.377 192.507 240.69 193.497 242.168 193.549C242.364 193.573 242.563 193.546 242.746 193.472C242.946 193.352 243.103 193.173 243.195 192.959C244.263 190.916 243.236 183.643 243.253 181.334C243.253 179.394 243.721 177.498 243.638 175.574C243.568 174.03 243.156 172.525 243.007 170.984C242.76 168.459 243.223 165.926 243.688 163.431C244.042 161.521 244.396 159.609 244.85 157.718C245.127 156.568 245.448 155.404 246.082 154.392C246.583 153.597 247.264 152.934 247.836 152.175C249.424 150.09 250.129 147.464 249.799 144.863C249.766 144.608 246.112 145.791 245.794 145.93C244.483 146.488 243.276 147.266 242.226 148.23C241.396 149.034 240.718 150.112 239.976 151.016C238.93 152.291 237.897 153.576 236.879 154.872C235.722 156.359 234.581 157.853 233.458 159.354Z" fill="#464353"/>
<path opacity="0.05" d="M233.458 159.262C232.398 160.679 231.296 162.311 231.559 164.069C231.7 165.011 232.229 165.845 232.616 166.718C233.101 167.92 233.46 169.168 233.687 170.444C234.086 172.298 234.484 174.158 234.728 176.04C235.005 178.166 233.704 184.319 233.582 186.462C233.552 186.975 233.494 187.537 233.134 187.906C232.993 188.053 232.804 188.183 232.744 188.363C232.702 188.552 232.731 188.75 232.827 188.918C233.427 190.27 234.653 191.279 236.015 191.853C237.377 192.427 240.69 192.962 242.168 193.009C242.364 193.033 242.563 193.006 242.746 192.931C242.946 192.812 243.103 192.632 243.195 192.419C244.263 190.376 243.236 183.565 243.253 181.259C243.253 179.319 243.721 177.42 243.638 175.497C243.568 173.953 243.156 172.448 243.007 170.907C242.76 168.381 243.223 165.848 243.688 163.356C244.042 161.444 244.396 159.531 244.85 157.641C245.127 156.49 245.448 155.326 246.082 154.315C246.583 153.522 247.264 152.857 247.836 152.114C249.423 150.028 250.127 147.402 249.799 144.802C249.766 144.544 246.112 145.728 245.794 145.869C244.482 146.428 243.275 147.208 242.226 148.175C241.396 148.982 240.718 150.057 239.976 150.947C238.93 152.222 237.897 153.508 236.879 154.805C235.722 156.283 234.581 157.769 233.458 159.262Z" fill="black"/>
<path d="M221.642 128.168C224.933 128.168 227.601 125.496 227.601 122.2C227.601 118.905 224.933 116.233 221.642 116.233C218.351 116.233 215.683 118.905 215.683 122.2C215.683 125.496 218.351 128.168 221.642 128.168Z" fill="#A0616A"/>
<path d="M227.006 121.951C227.557 122.831 228.278 123.591 229.128 124.187C229.978 124.782 230.938 125.2 231.953 125.416L231.504 127.043C230.729 129.851 229.843 132.819 227.693 134.765C227.928 133.814 227.624 132.791 227.087 131.974C226.512 131.178 225.832 130.466 225.063 129.856L221.634 126.868C221.532 126.793 221.445 126.699 221.377 126.591C221.294 126.381 221.294 126.147 221.377 125.937C221.814 124.576 223.062 123.719 224.073 122.805C224.581 122.328 225.035 121.797 225.429 121.222C226.132 120.244 226.555 121.222 227.006 121.951Z" fill="#A0616A"/>
<path d="M213.79 116.202L213.657 115.094C214.598 115.337 215.489 114.539 216.09 113.708C216.691 112.876 217.25 111.9 218.166 111.557C219.273 111.135 220.458 111.809 221.521 112.363C222.712 113.027 224.02 113.456 225.373 113.624C225.589 113.632 225.803 113.667 226.01 113.73C226.702 113.976 227.031 114.839 227.131 115.634C227.231 116.43 227.203 117.261 227.546 117.965C227.804 118.497 228.249 118.894 228.52 119.418C229.248 120.831 228.545 122.76 229.315 124.146L227.405 122.392C227.228 122.231 226.981 122.065 226.791 122.2C226.6 122.336 226.627 122.541 226.564 122.727C226.378 123.281 225.7 123.437 225.205 123.223C224.709 123.01 224.352 122.539 223.989 122.114C223.145 121.117 222.141 120.241 220.945 119.814C220.427 119.615 219.874 119.529 219.32 119.562C218.767 119.595 218.227 119.746 217.737 120.005C216.846 120.51 216.193 121.685 215.102 121.726C213.605 121.782 212.982 118.991 212.287 117.887C212.54 117.696 212.718 117.421 212.79 117.112C212.862 116.803 212.823 116.478 212.68 116.194C212.802 116.147 213.771 116.022 213.79 116.202Z" fill="#464353"/>
<path d="M238.628 193.247C237.45 194.299 235.921 194.87 234.343 194.847C233.942 194.847 233.386 194.924 233.383 195.326C233.39 195.446 233.43 195.561 233.499 195.659C233.999 196.49 234.787 197.108 235.713 197.394C236.571 197.655 237.49 197.61 238.387 197.566L241.003 197.43C241.495 197.402 241.991 197.377 242.483 197.316C242.976 197.255 243.508 197.153 244.022 197.078C245.283 196.897 246.559 196.837 247.831 196.898C248.169 196.912 248.559 196.898 248.769 196.643C248.98 196.388 248.866 195.928 248.789 195.559C248.634 194.8 248.789 194.004 248.645 193.242C248.393 191.903 247.244 190.88 245.976 190.395C244.8 189.946 242.713 189.433 241.598 190.179C240.402 190.983 239.682 192.291 238.628 193.247Z" fill="#3F3D56"/>
<path d="M241.218 148.452C241.451 149.561 242.511 150.392 242.544 151.501C242.569 152.399 241.927 153.164 241.468 153.927C241.029 154.725 240.658 155.56 240.36 156.421C239.487 158.657 238.404 160.806 237.128 162.838C236.513 163.811 235.827 164.87 235.968 166.014C236.065 166.549 236.252 167.062 236.521 167.533L238.362 171.195C238.766 171.926 239.082 172.703 239.303 173.509C239.461 174.205 239.477 174.926 239.58 175.635C239.871 177.88 240.922 180.142 240.302 182.318C240.247 182.507 240.053 182.734 239.906 182.595C240.513 183.732 241.014 184.879 240.956 186.168C240.931 186.844 240.723 187.554 240.975 188.18C241.117 188.424 241.211 188.694 241.252 188.973C241.252 189.156 241.166 189.331 241.146 189.528C241.097 190.046 241.57 190.478 242.065 190.636C242.561 190.794 243.095 190.789 243.593 190.938C244.554 191.216 245.235 192.047 246.057 192.624C246.889 193.202 247.873 193.523 248.885 193.547C249.029 193.562 249.174 193.533 249.3 193.464C249.373 193.4 249.431 193.323 249.471 193.235C249.512 193.148 249.533 193.053 249.533 192.956C249.577 192.497 249.508 192.034 249.331 191.609C249.154 191.183 248.876 190.807 248.52 190.514C248.365 190.416 248.237 190.28 248.146 190.121C248.1 189.979 248.087 189.828 248.11 189.68C248.26 187.665 248.224 185.64 248.002 183.632C247.903 182.996 247.87 182.351 247.906 181.708C247.961 181.173 248.121 180.641 248.061 180.106C248 179.571 247.731 179.089 247.571 178.573C247.294 177.659 247.366 176.677 247.335 175.718C247.286 174.055 246.906 172.426 246.527 170.807C246.38 170.172 246.214 169.504 245.763 169.033C245.381 168.634 244.764 168.248 244.908 167.716C244.987 167.519 245.105 167.341 245.257 167.192C245.435 166.969 245.566 166.711 245.642 166.435C245.718 166.159 245.736 165.871 245.697 165.588C245.859 165.631 246.031 165.615 246.182 165.544C246.334 165.474 246.456 165.351 246.527 165.199C249.519 163.789 251.938 160.961 253.004 157.824C253.064 157.592 253.157 157.371 253.281 157.167C253.557 156.779 254.039 156.612 254.465 156.396C255.805 155.723 256.732 154.456 257.582 153.217C258.077 152.496 258.57 151.753 258.783 150.908C258.9 150.362 258.955 149.804 258.949 149.245L259.024 146.357C259.039 146.17 259.02 145.982 258.969 145.802C258.898 145.63 258.792 145.474 258.659 145.345C257.847 144.479 256.78 143.897 255.614 143.682C254.828 143.541 254.025 143.568 253.231 143.502C251.689 143.374 250.167 142.898 248.625 143.008C246.201 143.186 244.044 144.868 242.901 147.016C242.5 147.784 242.079 148.452 241.218 148.452Z" fill="#464353"/>
<path d="M227.767 129.67C227.802 130.116 227.742 130.564 227.592 130.984C227.404 131.389 226.928 131.702 226.516 131.539C226.64 131.261 226.308 130.932 226.001 130.968C225.849 131.002 225.708 131.072 225.589 131.173C225.47 131.274 225.378 131.402 225.32 131.547C225.114 131.959 225.045 132.426 225.124 132.88C225.22 133.435 225.547 133.989 225.461 134.543C225.392 135.014 225.046 135.486 225.231 135.929C225.351 136.128 225.5 136.308 225.674 136.461C225.918 136.76 226.037 137.141 226.008 137.525C225.978 137.91 225.802 138.268 225.517 138.526L230.161 138.618C229.992 139.397 230.338 140.192 230.737 140.882C231.852 142.779 233.391 144.392 235.232 145.594C237.074 146.796 239.168 147.555 241.351 147.812C241.233 147.882 241.133 147.977 241.056 148.09C240.979 148.203 240.928 148.332 240.907 148.468C240.886 148.603 240.895 148.742 240.933 148.873C240.972 149.005 241.039 149.126 241.13 149.228C241.506 149.602 242.146 149.555 242.619 149.311C243.092 149.068 243.466 148.666 243.898 148.355C244.659 147.812 245.59 147.56 246.522 147.646C247.103 147.701 247.667 147.89 248.251 147.923C249.973 148.014 251.451 146.775 253.098 146.26C254.305 145.888 255.669 145.888 256.696 145.134C257.133 144.81 257.49 144.278 257.363 143.748C257.255 143.445 257.084 143.167 256.862 142.934C256.278 142.18 255.935 141.27 255.52 140.414C254.692 138.716 253.553 137.189 252.162 135.913C251.115 134.993 250.005 134.148 248.841 133.382C248.558 133.17 248.256 132.985 247.939 132.828C247.516 132.69 247.103 132.522 246.704 132.326C246.151 131.982 245.843 131.375 245.426 130.884C244.504 129.809 243.089 129.313 241.955 128.467C241.194 127.913 240.524 127.154 239.613 126.879C239.173 126.746 238.702 126.735 238.26 126.602C237.258 126.297 236.527 125.405 235.542 125.044C234.761 124.767 233.903 124.834 233.078 124.731C232.171 124.618 231.304 124.289 230.551 123.769C230.301 123.568 230.021 123.407 229.721 123.293C228.478 122.913 228.376 125.233 228.259 126.039C228.074 127.273 227.767 128.459 227.767 129.67Z" fill="#A47864"/>
<path d="M228.98 137.459C229.187 139.724 227.479 141.919 227.978 144.139C228.083 144.613 228.288 145.062 228.362 145.525C228.57 146.842 227.784 148.089 227.034 149.189L220.604 158.641C220.346 159.057 220.038 159.439 219.685 159.778C218.454 160.887 216.61 160.759 214.996 161.086C213.862 161.317 212.791 161.79 211.855 162.472C211.814 162.504 211.787 162.551 211.78 162.602C211.772 162.654 211.784 162.706 211.813 162.749C212.079 163.115 212.432 163.408 212.84 163.602C213.248 163.796 213.699 163.884 214.15 163.858C214.318 164.082 214.15 164.412 213.917 164.567C213.571 164.809 213.087 164.872 213.029 165.46C213.004 165.664 213.045 165.871 213.145 166.05C213.406 166.446 213.809 166.726 214.271 166.832C216.486 167.514 218.902 166.316 220.568 164.687C222.234 163.057 223.43 161 225.069 159.34C225.974 158.422 227.006 157.635 227.933 156.745C229.796 154.971 231.241 152.812 232.639 150.647C233.095 150.019 233.44 149.317 233.657 148.571C233.829 147.834 233.751 147.055 233.951 146.323C234.211 145.367 234.911 144.602 235.492 143.801C236.635 142.227 237.397 140.303 237.244 138.363C237.092 136.423 235.896 134.513 234.07 133.853C233.504 133.626 232.879 133.588 232.29 133.745C231.543 133.975 230.989 134.596 230.477 135.189L229.256 136.6C228.952 136.912 228.711 137.28 228.548 137.684C228.469 137.886 228.45 138.108 228.494 138.321C228.539 138.534 228.644 138.73 228.797 138.884" fill="#A0616A"/>
<path d="M232.234 128.154C231.387 128.204 230.457 128.287 229.86 128.892C229.611 129.169 229.409 129.486 229.262 129.828C228.683 131.012 228.119 132.248 228.077 133.565C228.041 134.618 228.354 135.646 228.506 136.689C228.639 137.553 228.301 138.435 228.229 139.311C229.278 138.989 230.662 138.551 231.614 138.008C232.238 137.599 232.901 137.254 233.593 136.977C234.604 136.642 236.3 137.218 237.252 137.692C237.305 137.016 236.801 135.843 236.854 135.167C236.862 134.884 236.913 134.604 237.003 134.335C237.147 134.051 237.316 133.781 237.51 133.529C237.877 132.934 238.046 132.238 237.993 131.54C237.94 130.843 237.667 130.18 237.214 129.648C236.364 128.689 235.03 128.329 233.759 128.182C232.959 128.088 232.151 128.06 231.346 128.096" fill="#A47864"/>
<path d="M106.838 108.763L101.38 100.835C101.38 100.835 101.277 98.873 100.92 98.4156C100.563 97.9583 100.843 96.9383 100.843 96.9383C100.843 96.9383 101.228 96.3839 100.895 96.3257C100.563 96.2675 100.843 95.0257 100.843 95.0257L100.818 93.0383C100.818 93.0383 101.125 91.1258 100.87 90.6685C100.795 90.5443 100.758 90.401 100.762 90.2559C100.766 90.1108 100.813 89.9701 100.895 89.8508C100.895 89.8508 101.2 88.7559 100.895 88.4649C100.591 88.1738 100.666 86.4775 100.74 85.1249C100.815 83.7722 100.206 83.01 100.206 82.8076C100.206 82.6053 98.1912 80.6151 98.1912 80.435C98.1912 80.2548 96.9152 79.5175 96.1485 79.3262C95.3819 79.135 95.0027 78.9687 95.0276 78.8661C95.0525 78.7636 93.8291 78.3589 93.8291 78.3589C93.8291 78.3589 92.758 78.2813 92.3483 77.7463C91.9387 77.2114 90.6876 77.0561 90.6572 77.0506L90.6323 76.9453C90.6323 76.9065 90.6184 76.8677 90.6101 76.8289C90.7112 76.6676 90.8036 76.501 90.8869 76.3299L90.9589 76.1747C91.4071 76.1776 91.8453 76.041 92.2127 75.7839C92.3936 75.6337 92.5414 75.4475 92.6467 75.237C92.752 75.0266 92.8125 74.7966 92.8244 74.5615C92.8462 74.0903 92.7431 73.6217 92.5255 73.2033C92.3013 72.746 91.9719 72.2692 92.0881 71.7703C92.138 71.5569 92.2653 71.3684 92.3317 71.1577C92.4309 70.7465 92.3653 70.3127 92.149 69.9492C91.9553 69.5806 91.6868 69.2535 91.4709 68.896C91.1971 68.4382 91.0139 67.9319 90.9312 67.4047C90.9158 67.1243 90.8492 66.849 90.7347 66.5926C90.6188 66.4119 90.466 66.2579 90.2863 66.1408C89.4876 65.5702 88.5239 65.2781 87.5434 65.3092C86.8486 65.3314 86.1595 65.5199 85.4675 65.434C85.0552 65.363 84.6497 65.2573 84.2552 65.118C83.3999 64.863 82.4118 64.7604 81.6673 65.251C80.9227 65.7416 80.6266 66.7062 80.1201 67.4685C79.6744 68.1337 79.0129 68.6936 78.6808 69.4087C78.6808 69.4087 78.6808 69.381 78.6808 69.3699C78.5972 69.5327 78.5331 69.7048 78.4898 69.8827C78.3948 70.4474 78.4337 71.0266 78.6033 71.5735C78.6408 71.868 78.7881 72.1373 79.0157 72.3274C79.2676 72.491 79.6136 72.4522 79.9069 72.5048L79.8737 72.649C79.575 74.0818 79.825 75.5747 80.574 76.8315C81.3231 78.0884 82.5165 79.0174 83.9175 79.4343C83.9175 79.487 83.9175 79.5369 83.9175 79.5896C83.9169 79.736 83.9077 79.8822 83.8898 80.0275C83.8898 80.0275 81.3241 79.4981 80.6349 79.8557C79.9457 80.2132 78.595 80.4932 78.3902 80.6872C78.1854 80.8812 77.6761 80.7399 77.2166 81.9373C76.7572 83.1347 76.7073 84.3571 76.1095 84.9197C75.5116 85.4824 75.2182 85.8622 75.1906 86.2696C75.1629 86.6771 75.2681 86.7796 75.0383 86.9071C74.8086 87.0346 74.4848 87.5696 74.5789 87.7747C74.6141 87.9149 74.6065 88.0625 74.5572 88.1983C74.5079 88.3342 74.419 88.4521 74.3021 88.5369C74.181 88.6221 74.0844 88.7376 74.0217 88.8718C73.9591 89.006 73.9327 89.1543 73.945 89.302C73.945 89.302 73.79 89.8563 73.433 89.9921C73.0759 90.128 72.8462 90.9595 72.8462 90.9595L71.6893 92.29L69.3975 89.751C69.2254 89.5612 68.9852 89.4474 68.7295 89.4344C68.4738 89.4214 68.2234 89.5103 68.033 89.6817L66.9065 90.6962C66.4724 90.8018 66.0799 91.0354 65.78 91.3669C65.5359 91.6205 65.3382 91.9151 65.1959 92.2373L64.5815 92.7917C64.3874 93.0325 64.2686 93.3254 64.24 93.6336C64.2115 93.9418 64.2744 94.2515 64.421 94.524L65.8907 96.1511V96.1649C65.37 96.2108 64.8752 96.4127 64.4708 96.7443C62.2787 98.6845 62.2565 100.467 62.5831 101.282C62.9097 102.097 65.6942 105.232 65.6942 105.232C65.6942 105.232 67.3106 107.335 69.6438 108.452L69.6272 108.472C69.5792 108.522 69.5339 108.575 69.4916 108.63L69.4529 108.68L69.4169 108.73L69.3754 108.791C69.3642 108.807 69.3541 108.823 69.3449 108.84L69.3006 108.912C69.2904 108.928 69.2811 108.945 69.273 108.962C69.2536 108.996 69.237 109.029 69.2204 109.062C69.2143 109.073 69.2087 109.084 69.2038 109.095C69.1816 109.14 69.1595 109.184 69.1401 109.234L69.118 109.284C69.1041 109.317 69.0931 109.35 69.0792 109.386C69.0706 109.408 69.0632 109.43 69.0571 109.453L69.0239 109.553C69.0148 109.576 69.0075 109.6 69.0017 109.625C69.0017 109.661 68.9796 109.697 68.9713 109.736C68.963 109.774 68.9574 109.78 68.9519 109.805C68.9464 109.83 68.9242 109.924 68.9131 109.988C68.9131 110.01 68.9131 110.035 68.8993 110.06C68.8855 110.085 68.8855 110.146 68.8772 110.19C68.8689 110.235 68.8772 110.251 68.8772 110.284L68.8606 110.409V110.509C68.8606 110.556 68.8605 110.603 68.8467 110.653C68.8329 110.703 68.8467 110.711 68.8467 110.742C68.8467 110.822 68.8467 110.903 68.8467 110.989C68.7969 113.971 68.9713 114.403 68.9713 114.403C69.0851 114.679 69.2708 114.919 69.5089 115.098C69.747 115.277 70.0288 115.388 70.3247 115.421C70.4699 115.432 70.616 115.425 70.7593 115.398C72.0878 115.168 75.1878 114.633 76.2949 114.844C76.9564 114.966 78.177 114.783 79.0461 114.62L79.2759 114.575L79.4336 115.082L79.9374 114.944L80.3664 115.191L80.6432 115.349C81.1469 117.056 83.1896 116.474 83.1896 116.474L83.674 116.751L88.5979 116.879C89.1506 117.212 89.7347 117.491 90.3416 117.71C90.4218 117.736 90.5043 117.755 90.588 117.766C91.0483 117.803 91.5105 117.811 91.9719 117.791C92.3483 117.791 92.6389 117.766 92.6389 117.766C92.6389 117.766 92.5891 116.427 92.5172 114.927C94.0435 114.889 95.5664 114.765 97.0785 114.553C99.708 114.093 100.804 111.698 101.208 110.418C101.329 110.941 101.415 111.471 101.466 112.006C101.573 112.476 101.71 112.939 101.875 113.392C102.016 113.754 102.202 114.096 102.429 114.412C104.366 113.749 103.193 112.749 102.786 112.322C102.379 111.895 103.063 111.532 103.063 111.532C103.063 111.532 103.6 111.174 103.547 110.844C103.494 110.515 103.469 110.157 105.208 110.182C106.946 110.207 106.838 108.763 106.838 108.763ZM79.9014 92.4895C79.9235 92.6337 80.1782 94.2053 80.383 94.6183C80.4441 94.8909 80.4637 95.1713 80.4411 95.4498C79.4143 95.3667 78.3431 95.3223 78.3431 95.3223C78.3732 95.3598 78.3924 95.4049 78.3985 95.4526L78.2352 95.4166L78.0027 95.3611L79.8959 92.4757L79.9014 92.4895ZM76.1482 98.4655L77.928 98.7427L78.0774 98.7649C78.0271 99.0395 77.9966 99.3174 77.9861 99.5964C77.9861 99.6241 78.0248 99.6546 78.0829 99.6907C78.0582 99.8306 78.047 99.9727 78.0497 100.115C78.0774 100.253 78.9078 100.558 79.8627 100.81C79.8488 100.863 79.8377 100.913 79.8239 100.957C78.9797 100.514 77.6539 100.306 77.5017 99.9762C77.3495 99.6463 72.8324 98.0664 72.8324 98.0664L72.384 97.8419L73.5714 98.0664L73.898 98.0331C74.6379 98.226 75.3896 98.3704 76.1482 98.4655Z" fill="url(#paint0_linear_1072_2916)"/>
<path d="M101.031 109.871C101.031 109.871 100.326 114.151 96.7358 114.783C93.1459 115.415 81.1613 115.29 81.1613 115.29C81.1613 115.29 74.3081 114.301 71.8309 108.505C69.3537 102.709 67.7594 100.4 69.8934 100.3C72.0274 100.201 83.4724 104.181 84.1284 104.225C84.7844 104.27 101.665 95.4137 101.031 109.871Z" fill="#65617D"/>
<path opacity="0.05" d="M101.031 109.871C101.031 109.871 100.326 114.151 96.7358 114.783C93.1459 115.415 81.1613 115.29 81.1613 115.29C81.1613 115.29 74.3081 114.301 71.8309 108.505C69.3537 102.709 67.7594 100.4 69.8934 100.3C72.0274 100.201 83.4724 104.181 84.1284 104.225C84.7844 104.27 101.665 95.4137 101.031 109.871Z" fill="black"/>
<path d="M68.8937 114.636C69.005 114.91 69.1883 115.149 69.4242 115.327C69.66 115.505 69.9397 115.616 70.2334 115.648C70.3787 115.657 70.5246 115.649 70.6679 115.623C71.9826 115.396 75.066 114.864 76.1537 115.069C76.807 115.188 78.0165 115.008 78.8773 114.847C79.4502 114.739 79.8709 114.636 79.8709 114.636C79.8709 114.636 78.8579 111.268 78.7334 111.169C78.6088 111.069 74.1803 108.397 74.1803 108.397L70.6762 108.145C70.2045 108.215 69.7781 108.465 69.4861 108.843C69.1179 109.292 68.7996 110.027 68.7775 111.232C68.7194 114.201 68.8937 114.636 68.8937 114.636Z" fill="#3F3D56"/>
<path opacity="0.05" d="M68.8939 114.636C69.0052 114.91 69.1885 115.149 69.4243 115.327C69.6602 115.505 69.9398 115.616 70.2335 115.648C69.8904 115.204 69.5725 114.742 69.2814 114.262L69.3008 111.806C69.2312 111.133 69.3201 110.452 69.5604 109.819C69.8007 109.186 70.1858 108.618 70.6847 108.161C70.6847 108.161 68.8386 108.286 68.786 111.249C68.7334 114.212 68.8939 114.636 68.8939 114.636Z" fill="black"/>
<path opacity="0.1" d="M84.0921 109.264L87.3554 106.706L92.4869 101.642L91.103 101.578C90.8954 101.711 90.3142 102.133 90.2921 102.637C90.2671 103.255 88.9081 102.681 88.1968 103.033C87.4855 103.385 84.0257 107.829 83.4196 107.798C82.8134 107.768 82.3318 107.49 82.0772 107.923L82.0605 107.951L84.0921 109.264Z" fill="black"/>
<path opacity="0.1" d="M69.4775 108.849C69.5938 108.904 69.7128 108.959 69.8318 109.009C72.309 110.074 75.3675 112.302 75.5972 112.707C75.7356 112.954 77.5098 114.032 78.8771 114.841C79.45 114.733 79.8707 114.631 79.8707 114.631C79.8707 114.631 78.8577 111.263 78.7331 111.163C78.6086 111.063 74.1801 108.391 74.1801 108.391L70.676 108.139C70.1996 108.21 69.7696 108.465 69.4775 108.849Z" fill="black"/>
<path d="M62.6031 101.592C62.9297 102.401 65.6864 105.517 65.6864 105.517C65.6864 105.517 67.4302 107.795 69.9102 108.843C72.3901 109.891 75.4458 112.136 75.6728 112.541C75.8195 112.801 77.7957 113.993 79.1851 114.811L79.4979 114.994L80.1871 115.396L80.5524 115.603C80.5524 115.603 81.3994 114.924 82.2436 114.24C83.0878 113.555 83.9043 112.884 83.9043 112.854C83.9043 112.823 84.2586 111.917 84.1811 111.867C84.1036 111.817 83.9679 111.49 83.6469 111.083C83.308 110.631 82.8669 110.266 82.3598 110.018C81.6262 109.641 81.0412 109.026 80.6991 108.275C80.6991 108.275 80.5884 108.194 80.4223 108.086C80.0781 107.849 79.6935 107.678 79.2875 107.579C78.734 107.51 77.6933 106.371 77.6933 106.371C77.2886 106.107 76.9511 105.752 76.7079 105.334C76.4311 104.78 72.5202 102.08 72.1576 101.83L81.6623 107.945L83.9375 109.409L87.2008 106.853L92.3323 101.789L90.6384 101.711C88.1473 101.603 83.7188 101.434 83.1653 101.562C82.7118 101.666 82.2446 101.697 81.7814 101.653C81.7814 101.653 80.5192 101.708 79.6833 101.268C78.8475 100.827 77.5327 100.619 77.3805 100.292C77.2283 99.965 72.7555 98.3962 72.7555 98.3962C72.7555 98.3962 66.6663 95.1559 64.488 97.0795C62.3097 99.0032 62.2737 100.777 62.6031 101.592Z" fill="#65617D"/>
<path d="M82.2461 83.0072L83.0294 85.6154L84.0424 91.4889L87.7596 91.7411L88.8224 89.9671L89.8964 88.1821C89.8964 88.1821 90.5662 85.8094 91.0478 83.5144C91.4713 81.4827 91.7508 79.5091 91.2886 79.2957C90.8762 79.1072 90.6077 78.4226 90.4306 77.6853C90.4084 77.5966 90.389 77.5024 90.3724 77.4081C90.2485 76.785 90.1653 76.1545 90.1233 75.5205C90.1233 75.5205 82.3374 75.1158 83.4252 78.3311C83.6192 78.8804 83.7185 79.4587 83.7186 80.0413C83.7186 80.191 83.7186 80.3379 83.6909 80.4765C83.6369 80.9752 83.4807 81.4573 83.2321 81.8928C82.9835 82.3282 82.6478 82.7076 82.2461 83.0072Z" fill="#EE8E9E"/>
<path d="M80.6299 82.5776L80.9067 87.0124L81.5377 90.7849L82.2463 92.5339L82.8801 102.091C82.8801 102.091 88.9693 102.798 90.4584 102.077C90.5682 102.035 90.6641 101.963 90.7352 101.869C92.526 99.1612 91.9392 91.317 91.9392 91.317L92.6201 86.253L92.1662 83.6253L91.059 83.5089L90.2121 83.4174C90.2121 83.4174 90.0211 83.653 89.7443 84.0189C88.9942 85.0084 87.6159 86.9598 87.71 87.7719C87.8345 88.8806 87.5578 90.0254 87.126 90.2028C86.6942 90.3802 86.3427 90.6851 86.2679 90.3802C86.1604 90.1246 86.1333 89.8422 86.1904 89.5708C86.2679 89.1384 85.8611 87.8218 85.8611 87.8218C85.8611 87.8218 85.1802 86.2779 85.23 85.621C85.2798 84.9641 85.1553 84.2018 84.9532 84.0244C84.7512 83.847 84.4716 83.6696 84.6986 82.8603C84.9256 82.0509 83.7022 80.4738 83.7022 80.4738L80.6299 82.5776Z" fill="#E3E8F4"/>
<path opacity="0.1" d="M88.681 93.6425L88.9357 101.212L90.3943 102.024C90.5038 101.98 90.5994 101.908 90.6711 101.814C92.4619 99.1058 91.8751 91.2616 91.8751 91.2616L92.5588 86.1975L92.1021 83.5698L90.995 83.4534C91.4212 81.4217 91.698 79.4509 91.2358 79.2347C90.8233 79.0462 90.5549 78.3616 90.3805 77.6271L89.5917 82.9822C89.5917 82.9822 89.6581 83.4645 89.6802 83.9634C89.713 84.2789 89.6915 84.5976 89.6166 84.9058C89.5143 85.3203 89.4974 85.7513 89.5668 86.1725C89.1101 86.9764 88.8831 88.4676 88.7724 89.9062C88.6229 91.8187 88.681 93.6425 88.681 93.6425Z" fill="black"/>
<path d="M90.403 77.494C90.403 77.494 91.679 77.652 92.0831 78.1842C92.4872 78.7164 93.55 78.794 93.55 78.794C93.55 78.794 94.7623 79.1987 94.7374 79.2985C94.7125 79.3982 95.0917 79.5535 95.8446 79.7558C96.5974 79.9582 97.8678 80.6927 97.8678 80.8645C97.8678 81.0364 99.8635 83.0154 99.8635 83.2178C99.8635 83.4201 100.47 84.1796 100.395 85.5212C100.32 86.8627 100.243 88.5701 100.547 88.8473C100.852 89.1245 100.547 90.2138 100.547 90.2138C100.465 90.3324 100.419 90.4721 100.415 90.6162C100.411 90.7603 100.448 90.9026 100.522 91.026C100.774 91.4805 100.47 93.3792 100.47 93.3792L100.497 95.3555C100.497 95.3555 100.22 96.5945 100.547 96.6472C100.874 96.6998 100.497 97.2542 100.497 97.2542C100.497 97.2542 100.221 98.2659 100.572 98.7233C100.924 99.1806 101.026 101.126 101.026 101.126L106.437 109.001C106.437 109.001 106.515 110.445 104.796 110.42C103.077 110.395 103.099 110.75 103.152 111.077C103.204 111.404 102.67 111.762 102.67 111.762C102.67 111.762 101.989 112.117 102.393 112.546C102.797 112.976 103.96 113.965 102.039 114.622C101.813 114.31 101.627 113.97 101.485 113.611C101.323 113.164 101.188 112.708 101.081 112.244C101.081 112.244 100.904 110.318 100.55 110.065C100.196 109.813 100.245 108.596 100.245 108.596C100.245 108.596 100.752 107.61 100.043 107.211C99.3348 106.811 89.0717 101.113 89.0717 101.113L88.8226 93.54C88.8226 93.54 88.6455 87.9437 89.7083 86.07C89.6389 85.6487 89.6559 85.2177 89.7581 84.8033C89.9353 84.3487 89.7332 82.8796 89.7332 82.8796L90.403 77.494Z" fill="#3F3D56"/>
<path opacity="0.1" d="M83.777 80.5431C83.777 80.5431 81.2361 80.0192 80.5525 80.374C79.8688 80.7288 78.532 81.006 78.3382 81.2055C78.1445 81.4051 77.6324 81.2582 77.1757 82.4473C76.719 83.6364 76.672 84.8532 76.088 85.4104C75.504 85.9675 75.205 86.3472 75.1801 86.7519C75.1552 87.1566 75.2549 87.2592 75.0279 87.3839C74.8009 87.5086 74.4743 88.0436 74.5712 88.2459C74.6681 88.4483 79.8301 92.9053 79.8301 92.9053C79.8301 92.9053 80.0847 94.6017 80.3117 95.0313C80.5386 95.4609 80.0598 101.387 79.5533 101.792C79.0468 102.196 82.9549 102.163 82.9549 102.163C82.9549 102.163 83.1321 98.2826 83.2843 98.072C83.4366 97.8613 83.1819 93.7175 83.1819 93.7175C83.1819 93.7175 83.157 90.1723 83.4864 89.2354C83.8157 88.2986 83.7632 85.1831 83.7632 85.1831C83.7632 85.1831 84.0538 83.3149 84.4081 82.8797C84.7623 82.4445 83.777 80.5431 83.777 80.5431Z" fill="black"/>
<path d="M83.7019 80.4682C83.7019 80.4682 81.161 79.9443 80.4773 80.2963C79.7937 80.6484 78.4541 80.9311 78.2631 81.1279C78.0721 81.3247 77.5545 81.1778 77.1006 82.3697C76.6467 83.5615 76.5941 84.7728 76.0128 85.3299C75.4316 85.8871 75.1271 86.2668 75.1022 86.6715C75.0773 87.0762 75.1797 87.1787 74.95 87.3062C74.7203 87.4337 74.3964 87.9632 74.4961 88.1655C74.5957 88.3678 79.7549 92.8249 79.7549 92.8249C79.7549 92.8249 80.0068 94.5212 80.2365 94.9509C80.4663 95.3805 79.9819 101.307 79.4754 101.711C78.9689 102.116 82.8909 102.08 82.8909 102.08C82.8909 102.08 83.068 98.1994 83.2175 97.9915C83.367 97.7836 83.1179 93.6343 83.1179 93.6343C83.1179 93.6343 83.0929 90.0919 83.4223 89.155C83.7517 88.2182 83.7129 85.1027 83.7129 85.1027C83.7129 85.1027 84.0036 83.2345 84.3578 82.7993C84.7121 82.3641 83.7019 80.4682 83.7019 80.4682Z" fill="#3F3D56"/>
<path opacity="0.1" d="M83.4364 78.3255C83.6304 78.8748 83.7296 79.4531 83.7298 80.0357C84.9717 80.4 86.2995 80.3388 87.5028 79.8618C88.7061 79.3849 89.716 78.5194 90.3726 77.4025C90.2486 76.7794 90.1654 76.1489 90.1234 75.5149C90.1234 75.5149 82.3486 75.1075 83.4364 78.3255Z" fill="black"/>
<path d="M79.5918 74.3232C79.5908 75.8092 80.1593 77.239 81.1801 78.3177C82.2009 79.3963 83.596 80.0415 85.0779 80.1203C86.5598 80.199 88.0153 79.7053 89.1443 78.7409C90.2733 77.7765 90.9897 76.415 91.1458 74.9371C91.3018 73.4593 90.8856 71.9778 89.983 70.7983C89.0804 69.6187 87.7602 68.831 86.2946 68.5976C84.8291 68.3643 83.33 68.703 82.1066 69.544C80.8831 70.3849 80.0285 71.664 79.7191 73.1174C79.6343 73.5137 79.5916 73.9179 79.5918 74.3232Z" fill="#EE8E9E"/>
<path d="M75.8742 87.7498L74.4903 88.1794C74.5257 88.3192 74.5182 88.4664 74.4688 88.6019C74.4194 88.7373 74.3305 88.8548 74.2135 88.9389C74.0931 89.023 73.9971 89.1376 73.9354 89.2711C73.8736 89.4045 73.8483 89.5519 73.862 89.6983C73.862 89.6983 73.7098 90.2527 73.3555 90.383C73.0012 90.5132 72.7742 91.3448 72.7742 91.3448L71.6118 92.6863C71.6118 92.6863 71.18 93.0411 71.2575 93.2185C71.335 93.3959 70.8008 93.4458 70.8008 93.4458L71.0776 97.9528L73.48 98.4101L74.9719 98.2577L76.1842 97.8031L77.247 97.1683L77.7259 95.9293L79.8516 92.6863L75.8742 87.7498Z" fill="#3F3D56"/>
<path d="M71.1472 93.7923C71.1472 93.7923 68.0638 89.338 65.761 91.7411C63.4582 94.1443 66.6965 98.047 67.4549 97.9195C68.2133 97.792 71.8308 97.5896 71.8308 97.5896L71.1472 93.7923Z" fill="#EE8E9E"/>
<path d="M78.4114 91.8662L64.7908 84.9041C64.5811 84.797 64.3244 84.8803 64.2174 85.0903L58.9061 95.5111C58.7991 95.7211 58.8823 95.9782 59.092 96.0854L72.7126 103.047C72.9223 103.155 73.179 103.071 73.2861 102.861L78.5973 92.4404C78.7043 92.2304 78.6211 91.9733 78.4114 91.8662Z" fill="#3F3D56"/>
<path d="M77.1439 92.4851L65.0566 86.3069L60.4073 95.4292L72.4945 101.607L77.1439 92.4851Z" fill="#A47864"/>
<path d="M62.2673 90.8486C62.3896 90.8486 62.4888 90.7494 62.4888 90.6269C62.4888 90.5044 62.3896 90.4052 62.2673 90.4052C62.145 90.4052 62.0459 90.5044 62.0459 90.6269C62.0459 90.7494 62.145 90.8486 62.2673 90.8486Z" fill="#E6E8EC"/>
<path d="M75.3515 97.7087C75.5548 97.7087 75.7196 97.5437 75.7196 97.3401C75.7196 97.1365 75.5548 96.9714 75.3515 96.9714C75.1482 96.9714 74.9834 97.1365 74.9834 97.3401C74.9834 97.5437 75.1482 97.7087 75.3515 97.7087Z" fill="#E6E8EC"/>
<path d="M69.1515 94.7292C69.1238 98.072 76.0267 98.7815 76.0267 98.7815L77.7898 99.0587L78.5814 99.1835L78.9108 95.9183C78.9108 95.9183 78.5482 95.8628 78.0971 95.7575C77.4273 95.6023 76.5609 95.3334 76.381 94.9537C76.0904 94.3245 69.1708 91.3864 69.1515 94.7292Z" fill="#EE8E9E"/>
<path opacity="0.1" d="M79.7188 73.1174C79.8775 73.1292 80.0272 73.1958 80.1422 73.3059C80.336 73.5138 80.347 73.8824 80.6017 74.0099C80.6969 74.0502 80.8017 74.0617 80.9034 74.0432C81.576 73.949 81.9635 73.1895 82.6111 72.9788C82.9876 72.8819 83.3859 72.9161 83.7404 73.0759C83.8845 73.1226 84.0141 73.2056 84.1168 73.317C84.3327 73.5942 84.1805 74.0099 84.2801 74.3481C84.4185 74.8193 84.9804 75.005 85.4648 75.066C85.9491 75.127 86.4972 75.163 86.821 75.5289C86.9282 75.6661 87.0051 75.8245 87.0466 75.9936C87.0881 76.1628 87.0933 76.3388 87.0618 76.5101C87.0327 76.6294 87.0327 76.7539 87.0618 76.8732C87.1947 77.253 87.8506 77.1947 88.0222 76.8954C88.1495 76.6764 88.1108 76.4963 88.407 76.4353C88.6185 76.4184 88.8309 76.4556 89.0242 76.5434C89.5395 76.7204 90.0822 76.804 90.6267 76.7901C90.9732 76.0502 91.1595 75.2454 91.1736 74.4283C91.1876 73.6113 91.0291 72.8005 90.7084 72.0491C90.3876 71.2977 89.9119 70.6227 89.3124 70.0683C88.713 69.514 88.0032 69.0927 87.2298 68.8322C86.4564 68.5718 85.6367 68.478 84.8246 68.5569C84.0124 68.6359 83.2261 68.8859 82.5171 69.2905C81.8082 69.6951 81.1926 70.2452 80.7109 70.9047C80.2291 71.5642 79.8919 72.3183 79.7215 73.1174H79.7188Z" fill="black"/>
<path d="M87.0593 76.7207C87.0303 76.6014 87.0303 76.4769 87.0593 76.3576C87.0909 76.1867 87.0858 76.0111 87.0443 75.8423C87.0027 75.6736 86.9258 75.5157 86.8185 75.3791C86.4947 75.0105 85.9494 74.9772 85.4623 74.9135C84.9751 74.8497 84.416 74.6668 84.2776 74.1956C84.178 73.8574 84.3302 73.4444 84.1143 73.1672C84.0132 73.0539 83.883 72.9705 83.7379 72.9261C83.3836 72.7657 82.9855 72.7305 82.6086 72.8263C81.961 73.037 81.5735 73.7964 80.9009 73.8907C80.7993 73.9105 80.694 73.8989 80.5992 73.8574C80.3446 73.7299 80.3224 73.3613 80.1397 73.1534C79.8325 72.8291 79.2485 73.0397 78.8748 72.7986C78.6482 72.6092 78.5018 72.3407 78.4652 72.0474C78.2978 71.5039 78.2599 70.9286 78.3545 70.3677C78.5731 69.4281 79.4146 68.7822 79.9488 67.9756C80.4497 67.2273 80.7321 66.2793 81.4821 65.7831C82.2322 65.287 83.1982 65.3979 84.0479 65.6501C84.4385 65.7897 84.8404 65.8954 85.2491 65.9661C85.9328 66.0492 86.6192 65.8635 87.3056 65.8414C88.2785 65.8099 89.2344 66.1023 90.0236 66.6729C90.2016 66.7891 90.3526 66.9423 90.4665 67.1219C90.5806 67.3767 90.6481 67.6499 90.6658 67.9285C90.7466 68.4518 90.9281 68.9545 91.2 69.4087C91.4103 69.7662 91.6788 70.0877 91.8698 70.4564C92.0833 70.8178 92.1488 71.2479 92.0525 71.6566C91.986 71.8645 91.8587 72.053 91.8089 72.2664C91.6982 72.7598 92.022 73.2337 92.2434 73.6883C92.4589 74.1044 92.5611 74.57 92.5396 75.0382C92.5278 75.2715 92.4678 75.4999 92.3635 75.7088C92.2592 75.9178 92.1127 76.1028 91.9334 76.2522C91.5575 76.5134 91.1094 76.6501 90.6519 76.6431C90.0972 76.66 89.544 76.5764 89.0189 76.3964C88.8252 76.31 88.6132 76.2728 88.4017 76.2883C88.1055 76.3493 88.1443 76.5294 88.017 76.7484C87.8481 77.0422 87.1949 77.1004 87.0593 76.7207Z" fill="#3F3D56"/>
<path opacity="0.1" d="M83.9402 109.414L87.2035 106.858L92.335 101.794L90.6411 101.717C90.4422 101.897 90.3153 102.143 90.284 102.41C90.2591 103.028 88.9001 102.451 88.1888 102.806C87.4775 103.161 84.0177 107.601 83.4115 107.571C82.8054 107.54 82.3238 107.263 82.0691 107.693L82.0525 107.721C81.9515 107.837 81.8156 107.918 81.665 107.951L83.9402 109.414Z" fill="black"/>
<path d="M77.3662 109.237L79.0048 114.478L79.2622 115.31L80.0427 115.096L81.7643 114.622L89.4256 112.516C90.3907 112.474 91.3351 112.222 92.1935 111.779C93.6419 110.966 95.2993 110.604 96.9541 110.739C97.9671 110.833 99.0936 110.395 100.029 108.666C100.029 108.666 102.152 102.388 96.7936 100.589C91.4351 98.7898 91.1777 101.545 91.1777 101.545L91.1029 101.589C90.8953 101.722 90.3141 102.144 90.292 102.648C90.267 103.266 88.908 102.693 88.1967 103.045C87.4854 103.397 84.0256 107.84 83.4195 107.809C82.8133 107.779 82.3317 107.502 82.0771 107.934L82.0604 107.962C81.8722 108.22 81.3104 108.28 80.9367 108.289C80.8205 108.295 80.7041 108.295 80.588 108.289L80.5381 108.303L80.1507 108.419L77.3662 109.237Z" fill="#65617D"/>
<path opacity="0.1" d="M77.79 99.0615L78.5816 99.1862L78.911 95.921C78.911 95.921 78.5484 95.8656 78.0973 95.7603C78.2163 96.2176 77.945 97.9777 77.79 99.0615Z" fill="black"/>
<path opacity="0.1" d="M98.4657 83.7999C98.4657 83.7999 100.816 83.1152 100.234 89.8008C99.8308 93.8813 98.0987 97.7158 95.3048 100.713C95.3048 100.713 90.2978 102.914 88.0476 102.559C85.7973 102.205 84.156 102.13 84.156 102.13C83.447 101.771 82.6713 101.565 81.8781 101.523C80.616 101.473 77.9616 100.691 77.909 100.433C77.8565 100.176 78.5678 96.4587 78.2633 96.1815C78.2633 96.1815 81.8034 96.3256 82.1577 96.5806C82.5119 96.8356 83.0184 96.6555 83.3976 96.5806C83.7768 96.5058 84.9393 95.4969 87.2394 96.3838C87.2394 96.3838 88.0227 96.4587 88.3271 96.2563C88.5753 96.1405 88.858 96.1227 89.1187 96.2064C89.3155 96.141 89.5019 96.0476 89.6723 95.9293C89.747 95.8295 90.356 95.9293 90.356 95.9293C90.3922 95.9455 90.4315 95.9537 90.4712 95.9534C90.5109 95.953 90.5501 95.9442 90.586 95.9273C90.622 95.9105 90.6539 95.8861 90.6797 95.8559C90.7054 95.8256 90.7243 95.7901 90.7351 95.7519C90.8152 95.5453 90.9356 95.3568 91.0894 95.1975C91.0894 95.1975 91.7703 91.3502 93.0601 89.9061C93.1631 89.816 93.2422 89.7018 93.2905 89.5736C93.3388 89.4455 93.3547 89.3074 93.3369 89.1716C93.2317 88.7614 95.4321 82.9877 98.4657 83.7999Z" fill="black"/>
<path d="M98.4021 83.2844C98.4021 83.2844 100.755 82.6025 100.174 89.2853C99.771 93.3661 98.0387 97.2009 95.244 100.198C95.244 100.198 90.237 102.401 87.9868 102.047C85.7365 101.692 84.0924 101.609 84.0924 101.609C83.3845 101.25 82.6096 101.043 81.8173 101.002C80.5524 100.949 77.8981 100.17 77.8482 99.9124C77.7984 99.6546 78.5042 95.9377 78.2025 95.6577C78.2025 95.6577 81.7426 95.8046 82.0968 96.0596C82.4511 96.3146 82.9549 96.1317 83.3341 96.0596C83.7133 95.9876 84.8757 94.9758 87.1786 95.86C87.1786 95.86 87.9619 95.9377 88.2636 95.7353C88.5119 95.6204 88.7939 95.6017 89.0552 95.6826C89.2513 95.6157 89.4375 95.5224 89.6087 95.4055C89.6835 95.3029 90.2896 95.4055 90.2896 95.4055C90.3258 95.4217 90.3652 95.4299 90.4049 95.4296C90.4445 95.4292 90.4837 95.4204 90.5197 95.4035C90.5556 95.3867 90.5876 95.3623 90.6133 95.3321C90.639 95.3018 90.658 95.2663 90.6688 95.2281C90.7488 95.0215 90.8693 94.833 91.0231 94.6737C91.0231 94.6737 91.7067 90.8265 92.9965 89.3823C93.0995 89.2922 93.1787 89.178 93.2269 89.0499C93.2752 88.9217 93.2912 88.7836 93.2733 88.6478C93.1709 88.2487 95.3686 82.4833 98.4021 83.2844Z" fill="#3F3D56"/>
<path opacity="0.1" d="M80.1426 108.405L83.4806 112.452L83.5027 112.43C83.5276 112.352 83.857 111.493 83.7795 111.44C83.702 111.388 83.1235 110.124 81.961 109.592C81.3697 109.303 80.8732 108.851 80.5301 108.289L80.1426 108.405Z" fill="black"/>
<path opacity="0.1" d="M80.1863 115.41L80.5516 115.617C80.5516 115.617 81.3986 114.938 82.2428 114.254C83.087 113.569 83.9035 112.898 83.9035 112.868C83.9035 112.837 84.2578 111.931 84.1803 111.881C84.1028 111.831 83.9671 111.504 83.6461 111.097C81.382 110.462 82.8157 112.036 83.015 112.108C83.015 112.108 80.261 111.474 80.1088 114.481C80.0956 114.793 80.1217 115.105 80.1863 115.41Z" fill="black"/>
<path d="M82.9794 116.682L83.461 116.959L88.3407 117.084C88.8878 117.417 89.4663 117.695 90.0678 117.915C90.1475 117.939 90.2289 117.957 90.3113 117.968C90.7643 118.005 91.2191 118.013 91.6731 117.993C92.0468 117.993 92.3346 117.968 92.3346 117.968C92.3346 117.968 92.1049 111.806 91.9305 111.158C91.8475 110.847 91.4378 110.914 91.0337 111.069C90.7308 111.193 90.4383 111.341 90.1591 111.512C90.1591 111.512 88.0888 111.715 87.7594 111.892C87.43 112.069 86.4945 111.79 85.9133 111.892C85.332 111.995 84.2941 111.207 84.2941 111.207C81.4626 110.271 83.0569 112.017 83.2589 112.094C83.2589 112.094 80.4911 111.46 80.3499 114.467C80.2088 117.474 82.9794 116.682 82.9794 116.682Z" fill="#3F3D56"/>
<path d="M90.0347 114.304C90.0873 115.579 91.081 117.161 91.6733 117.998C92.0469 117.998 92.3348 117.973 92.3348 117.973C92.3348 117.973 92.1051 111.812 91.9307 111.163C91.8476 110.853 91.438 110.919 91.0339 111.074C90.544 111.995 89.9904 113.273 90.0347 114.304Z" fill="#565387"/>
<path opacity="0.1" d="M90.0347 114.304C90.0873 115.579 91.081 117.161 91.6733 117.998C92.0469 117.998 92.3348 117.973 92.3348 117.973C92.3348 117.973 92.1051 111.812 91.9307 111.163C91.8476 110.853 91.438 110.919 91.0339 111.074C90.544 111.995 89.9904 113.273 90.0347 114.304Z" fill="black"/>
<path opacity="0.05" d="M89.1984 114.473C89.5361 115.703 89.5306 117.084 90.0675 117.921C90.1473 117.945 90.2287 117.962 90.3111 117.973C90.7641 118.01 91.2189 118.019 91.6729 117.998C92.0465 117.998 92.3344 117.973 92.3344 117.973C92.3344 117.973 92.1047 111.812 91.9303 111.163C91.8473 110.853 91.4376 110.919 91.0335 111.074C90.7306 111.199 90.4381 111.347 90.1589 111.518C90.1589 111.518 88.7694 112.896 89.1984 114.473Z" fill="black"/>
<path opacity="0.1" d="M72.3652 101.98C72.3652 101.98 74.7898 102.767 76.8436 105.567L72.3652 101.98Z" fill="black"/>
<g opacity="0.1">
<path d="M92.0606 71.5957C92.0606 71.6151 92.0606 71.6317 92.0467 71.6511C92.0234 71.7234 91.9947 71.7938 91.9609 71.8618C91.9876 71.7708 92.0209 71.6818 92.0606 71.5957Z" fill="black"/>
<path d="M78.3487 70.3678C78.3898 70.1905 78.453 70.0192 78.5369 69.8578C78.5369 69.8994 78.5092 69.9437 78.4981 69.9881C78.4059 70.5492 78.4447 71.1242 78.6116 71.6678C78.6483 71.9604 78.7935 72.2285 79.0185 72.4189C79.3949 72.6601 79.9789 72.4494 80.2862 72.7737C80.4799 72.9816 80.491 73.3503 80.7456 73.4778C80.8405 73.5193 80.9457 73.5309 81.0473 73.511C81.7199 73.4168 82.1074 72.6573 82.7551 72.4467C83.1318 72.3495 83.5304 72.3847 83.8843 72.5464C84.0295 72.5909 84.1596 72.6743 84.2608 72.7876C84.4766 73.0648 84.3244 73.4778 84.4241 73.8159C84.5624 74.2871 85.1243 74.4728 85.6087 74.5338C86.0931 74.5948 86.6411 74.6308 86.9649 74.9995C87.0722 75.1361 87.1492 75.294 87.1907 75.4627C87.2322 75.6314 87.2373 75.8071 87.2057 75.9779C87.1767 76.0972 87.1767 76.2217 87.2057 76.341C87.3386 76.7208 87.9946 76.6626 88.1662 76.3632C88.2935 76.1442 88.2547 75.9641 88.5509 75.9031C88.7624 75.8877 88.9744 75.9248 89.1681 76.0112C89.6932 76.1912 90.2464 76.2748 90.8011 76.2579C91.2586 76.2649 91.7067 76.1282 92.0826 75.8671C92.247 75.7378 92.3811 75.5741 92.4757 75.3875C92.3902 75.727 92.1957 76.0289 91.9221 76.2468C91.5462 76.508 91.098 76.6446 90.6406 76.6376C90.0859 76.6545 89.5326 76.571 89.0076 76.3909C88.8139 76.3045 88.6018 76.2674 88.3904 76.2828C88.0942 76.3438 88.1329 76.524 88.0084 76.7429C87.834 77.0423 87.178 77.1005 87.0452 76.7208C87.0175 76.6013 87.0175 76.4771 87.0452 76.3577C87.0768 76.1868 87.0717 76.0112 87.0302 75.8424C86.9886 75.6737 86.9117 75.5158 86.8044 75.3792C86.4805 75.0106 85.9353 74.9773 85.4482 74.9136C84.961 74.8498 84.4019 74.6669 84.2635 74.1957C84.1639 73.8575 84.3161 73.4445 84.1002 73.1673C83.9999 73.0544 83.8707 72.971 83.7266 72.9262C83.3713 72.7658 82.9723 72.7306 82.5945 72.8264C81.9496 73.037 81.5594 73.7965 80.8868 73.8908C80.7852 73.9106 80.6799 73.899 80.5851 73.8575C80.3304 73.73 80.3083 73.3613 80.1256 73.1535C79.8184 72.8292 79.2372 73.0398 78.8607 72.7987C78.6341 72.6093 78.4877 72.3408 78.4511 72.0475C78.2865 71.5033 78.2514 70.928 78.3487 70.3678Z" fill="black"/>
</g>
<path opacity="0.1" d="M92.4537 90.6351C91.9887 91.2616 91.46 91.8409 91.0504 92.5006C90.6054 93.1509 90.3893 93.931 90.4359 94.718C90.8594 94.2828 91.0559 93.6786 91.3216 93.1325C91.7756 92.2068 92.4509 91.4223 93.0238 90.5742C93.1318 90.4106 93.8293 89.4654 93.4778 89.4266C93.1844 89.3851 92.6114 90.4217 92.4537 90.6351Z" fill="black"/>
<path d="M94.9449 149.943C95.2798 151.019 95.6175 152.097 96.0355 153.142C96.7885 154.959 97.736 156.688 98.8614 158.3C99.587 159.362 100.367 160.385 101.197 161.366C102.238 162.594 103.412 163.83 103.766 165.399C103.979 166.305 103.907 167.25 103.996 168.171C104.084 169.091 104.386 170.078 105.136 170.632C105.67 171.028 106.354 171.148 107.01 171.25C107.48 171.325 108.067 171.35 108.311 170.943C108.396 170.776 108.441 170.592 108.441 170.405L108.554 169.049C108.576 168.756 108.682 168.381 108.975 168.368C109.268 168.354 109.415 168.744 109.664 168.922C109.996 169.155 110.495 168.922 110.677 168.57C110.829 168.189 110.839 167.766 110.705 167.378C110.503 166.606 110.141 165.886 109.641 165.265C109.142 164.644 108.517 164.136 107.807 163.775C107.314 163.576 106.841 163.33 106.395 163.04C105.942 162.646 105.567 162.17 105.288 161.638C102.72 157.402 100.137 153.145 98.3244 148.535C97.9672 147.712 97.726 146.842 97.6076 145.952C97.519 145.046 97.6602 144.134 97.7183 143.225C97.8256 141.591 97.6742 139.951 97.2699 138.366C97.1815 137.949 97.0254 137.55 96.8077 137.185C96.0604 136.051 94.3166 135.882 93.2095 136.664C92.8019 136.978 92.4639 137.373 92.217 137.825C91.9702 138.277 91.82 138.775 91.7758 139.289C91.6955 140.209 92.2242 141.162 92.4926 142.019C93.3064 144.663 94.1238 147.305 94.9449 149.943Z" fill="#A1616A"/>
<path opacity="0.05" d="M94.9449 149.943C95.2798 151.019 95.6175 152.097 96.0355 153.142C96.7885 154.959 97.736 156.688 98.8614 158.3C99.587 159.362 100.367 160.385 101.197 161.366C102.238 162.594 103.412 163.83 103.766 165.399C103.979 166.305 103.907 167.25 103.996 168.171C104.084 169.091 104.386 170.078 105.136 170.632C105.67 171.028 106.354 171.148 107.01 171.25C107.48 171.325 108.067 171.35 108.311 170.943C108.396 170.776 108.441 170.592 108.441 170.405L108.554 169.049C108.576 168.756 108.682 168.381 108.975 168.368C109.268 168.354 109.415 168.744 109.664 168.922C109.996 169.155 110.495 168.922 110.677 168.57C110.829 168.189 110.839 167.766 110.705 167.378C110.503 166.606 110.141 165.886 109.641 165.265C109.142 164.644 108.517 164.136 107.807 163.775C107.314 163.576 106.841 163.33 106.395 163.04C105.942 162.646 105.567 162.17 105.288 161.638C102.72 157.402 100.137 153.145 98.3244 148.535C97.9672 147.712 97.726 146.842 97.6076 145.952C97.519 145.046 97.6602 144.134 97.7183 143.225C97.8256 141.591 97.6742 139.951 97.2699 138.366C97.1815 137.949 97.0254 137.55 96.8077 137.185C96.0604 136.051 94.3166 135.882 93.2095 136.664C92.8019 136.978 92.4639 137.373 92.217 137.825C91.9702 138.277 91.82 138.775 91.7758 139.289C91.6955 140.209 92.2242 141.162 92.4926 142.019C93.3064 144.663 94.1238 147.305 94.9449 149.943Z" fill="black"/>
<path d="M78.8085 195.229C79.3093 195.404 79.8417 195.468 80.3695 195.418C80.4083 194.985 80.9895 194.888 81.4213 194.91C81.6301 194.903 81.8372 194.951 82.0219 195.049C82.1299 195.118 82.2129 195.218 82.3181 195.29C82.5056 195.393 82.7159 195.447 82.9298 195.448L85.1772 195.637C86.1792 195.722 87.2227 195.8 88.161 195.443C88.3479 195.383 88.514 195.272 88.6398 195.121C88.8944 194.755 88.6398 194.231 88.2883 193.965C87.9368 193.699 87.4828 193.58 87.1286 193.308C86.348 192.712 86.2401 191.598 85.8277 190.706C85.5345 190.143 85.1729 189.619 84.751 189.145C84.4453 188.738 84.0891 188.372 83.6909 188.056C82.7886 187.404 81.7534 187.418 80.6934 187.324C79.9461 187.257 79.243 187.213 78.7061 187.878C78.0418 188.71 78.3075 190.373 78.349 191.343C78.4009 192.648 78.5545 193.948 78.8085 195.229Z" fill="#514E7F"/>
<path opacity="0.05" d="M78.8085 195.229C79.3093 195.404 79.8417 195.468 80.3695 195.418C80.4083 194.985 80.9895 194.888 81.4213 194.91C81.6301 194.903 81.8372 194.951 82.0219 195.049C82.1299 195.118 82.2129 195.218 82.3181 195.29C82.5056 195.393 82.7159 195.447 82.9298 195.448L85.1772 195.637C86.1792 195.722 87.2227 195.8 88.161 195.443C88.3479 195.383 88.514 195.272 88.6398 195.121C88.8944 194.755 88.6398 194.231 88.2883 193.965C87.9368 193.699 87.4828 193.58 87.1286 193.308C86.348 192.712 86.2401 191.598 85.8277 190.706C85.5345 190.143 85.1729 189.619 84.751 189.145C84.4453 188.738 84.0891 188.372 83.6909 188.056C82.7886 187.404 81.7534 187.418 80.6934 187.324C79.9461 187.257 79.243 187.213 78.7061 187.878C78.0418 188.71 78.3075 190.373 78.349 191.343C78.4009 192.648 78.5545 193.948 78.8085 195.229Z" fill="black"/>
<path d="M79.7166 151.448C79.0302 151.67 78.7312 152.527 78.8586 153.239C78.9859 153.951 79.4121 154.567 79.7636 155.199C80.7656 156.992 81.1974 159.043 82.0388 160.914C82.6671 162.3 83.5168 163.603 84.1368 165.005C84.7568 166.408 85.1415 167.991 84.7651 169.479C84.5824 170.202 84.2281 170.865 83.9929 171.577C83.76 172.349 83.6079 173.144 83.539 173.947C83.2342 176.677 83.1795 179.429 83.3757 182.168C83.3774 182.502 83.447 182.832 83.5805 183.138C83.7216 183.416 83.9652 183.693 83.8573 183.97C83.8102 184.084 83.7078 184.167 83.658 184.278C83.514 184.588 83.8019 184.918 84.0648 185.14C84.0179 185.223 83.9548 185.296 83.8792 185.355C83.8036 185.413 83.7171 185.456 83.6248 185.481C83.8134 185.601 83.9583 185.779 84.038 185.988C84.1178 186.197 84.1282 186.427 84.0676 186.642C83.8351 186.678 83.8213 187.036 83.968 187.224C84.1147 187.413 84.3472 187.529 84.4523 187.742C84.5143 187.916 84.5075 188.107 84.4334 188.276C84.3593 188.445 84.2235 188.58 84.0538 188.652C83.708 188.785 83.3308 188.814 82.9688 188.735C82.355 188.649 81.7489 188.516 81.1559 188.336C80.8459 188.275 80.5682 188.104 80.374 187.854C80.1798 187.605 80.082 187.293 80.0986 186.977C79.9615 185.849 79.9198 184.712 79.974 183.576C80.0709 178.077 79.974 172.572 79.736 167.076C79.6391 164.858 78.9748 162.71 78.1196 160.67C77.6468 159.628 77.1211 158.61 76.5447 157.621C75.3102 155.359 74.2197 152.854 74.502 150.29C74.5325 150.013 74.6321 149.683 74.9061 149.638C75.0132 149.627 75.1214 149.645 75.2189 149.691C75.7875 149.957 76.3376 150.261 76.8657 150.6C77.7335 151.11 78.7118 151.401 79.7166 151.448Z" fill="#464353"/>
<path opacity="0.05" d="M79.7166 151.448C79.0302 151.67 78.7312 152.527 78.8586 153.239C78.9859 153.951 79.4121 154.567 79.7636 155.199C80.7656 156.992 81.1974 159.043 82.0388 160.914C82.6671 162.3 83.5168 163.603 84.1368 165.005C84.7568 166.408 85.1415 167.991 84.7651 169.479C84.5824 170.202 84.2281 170.865 83.9929 171.577C83.76 172.349 83.6079 173.144 83.539 173.947C83.2342 176.677 83.1795 179.429 83.3757 182.168C83.3774 182.502 83.447 182.832 83.5805 183.138C83.7216 183.416 83.9652 183.693 83.8573 183.97C83.8102 184.084 83.7078 184.167 83.658 184.278C83.514 184.588 83.8019 184.918 84.0648 185.14C84.0179 185.223 83.9548 185.296 83.8792 185.355C83.8036 185.413 83.7171 185.456 83.6248 185.481C83.8134 185.601 83.9583 185.779 84.038 185.988C84.1178 186.197 84.1282 186.427 84.0676 186.642C83.8351 186.678 83.8213 187.036 83.968 187.224C84.1147 187.413 84.3472 187.529 84.4523 187.742C84.5143 187.916 84.5075 188.107 84.4334 188.276C84.3593 188.445 84.2235 188.58 84.0538 188.652C83.708 188.785 83.3308 188.814 82.9688 188.735C82.355 188.649 81.7489 188.516 81.1559 188.336C80.8459 188.275 80.5682 188.104 80.374 187.854C80.1798 187.605 80.082 187.293 80.0986 186.977C79.9615 185.849 79.9198 184.712 79.974 183.576C80.0709 178.077 79.974 172.572 79.736 167.076C79.6391 164.858 78.9748 162.71 78.1196 160.67C77.6468 159.628 77.1211 158.61 76.5447 157.621C75.3102 155.359 74.2197 152.854 74.502 150.29C74.5325 150.013 74.6321 149.683 74.9061 149.638C75.0132 149.627 75.1214 149.645 75.2189 149.691C75.7875 149.957 76.3376 150.261 76.8657 150.6C77.7335 151.11 78.7118 151.401 79.7166 151.448Z" fill="black"/>
<path d="M70.4352 144.763C70.0773 144.533 69.6644 144.403 69.2395 144.386C68.7468 144.411 68.3261 144.735 67.9413 145.046C67.4855 145.396 67.0528 145.776 66.646 146.182C65.8036 147.081 65.2167 148.19 64.9461 149.393C64.6755 150.595 64.7311 151.849 65.1071 153.023C65.514 154.245 66.2585 155.324 66.9947 156.38L68.4894 158.53C70.7701 161.81 73.0507 165.089 75.4394 168.29C75.4399 168.369 75.4654 168.445 75.5121 168.508C75.5589 168.572 75.6245 168.619 75.6996 168.642C75.7854 168.664 75.8933 168.661 75.9459 168.733C75.9702 168.778 75.9808 168.83 75.9763 168.88C75.971 169.117 75.9261 169.351 75.8435 169.573C75.8047 169.647 75.7948 169.732 75.8158 169.812C75.8933 169.992 76.2199 169.889 76.3251 170.058C76.3943 170.169 76.3085 170.313 76.2171 170.408C76.1258 170.502 76.0123 170.607 76.0289 170.738C76.0455 170.868 76.2725 171.015 76.2642 171.175C76.2642 171.27 76.1812 171.342 76.123 171.417C76.0417 171.536 76.0046 171.68 76.0183 171.824C76.0319 171.968 76.0954 172.102 76.1978 172.204C76.3555 173.767 75.5058 175.253 75.337 176.811C75.0602 179.272 76.1812 181.675 76.3168 184.145C76.3087 184.423 76.3616 184.699 76.4718 184.954C76.7015 185.381 77.3021 185.639 77.2717 186.124C77.2282 186.323 77.1718 186.519 77.1028 186.711C77.0558 186.989 77.1886 187.266 77.1942 187.543C77.1997 187.82 76.9534 188.161 76.6932 188.05C76.8888 188.704 77.0632 189.364 77.2163 190.029L82.4475 190.462C82.5039 189.991 82.4881 189.514 82.4005 189.048C82.2925 188.541 82.0656 188.07 81.9465 187.568C81.8692 187.321 81.8474 187.06 81.8828 186.803C81.9182 186.547 82.0099 186.302 82.1514 186.085C82.015 186.087 81.8825 186.04 81.7771 185.953C81.6718 185.866 81.6004 185.745 81.5756 185.611C81.5319 185.341 81.5365 185.065 81.5895 184.796C81.7279 183.43 81.1549 182.082 81.1715 180.71C81.1881 179.629 81.5673 178.59 81.7583 177.528C82.168 175.256 81.7417 172.791 82.752 170.715C83.3637 169.465 84.2106 168.079 83.5242 166.868C83.1865 166.269 82.5887 165.859 82.1984 165.294C81.8803 164.759 81.6416 164.181 81.4898 163.578C80.6844 161.083 79.3808 158.766 78.2377 156.393C77.9204 155.799 77.6848 155.164 77.5374 154.506C77.4566 153.928 77.427 153.345 77.4488 152.762C77.4488 151.716 77.385 150.671 77.2578 149.633C77.232 149.178 77.1023 148.735 76.8787 148.339C76.6528 148.038 76.3708 147.785 76.0483 147.593C74.3323 146.415 72.2896 145.741 70.4352 144.763Z" fill="#464353"/>
<path d="M76.7046 197.15C77.2068 197.322 77.7399 197.385 78.2684 197.336C78.3071 196.903 78.8856 196.806 79.3174 196.828C79.5262 196.822 79.7333 196.869 79.918 196.967C80.026 197.036 80.109 197.139 80.2169 197.208C80.404 197.312 80.6146 197.367 80.8286 197.366L83.0733 197.555C84.0781 197.641 85.1188 197.721 86.0598 197.361C86.2464 197.302 86.4119 197.19 86.5359 197.039C86.7905 196.673 86.5359 196.152 86.1844 195.886C85.8329 195.62 85.3789 195.498 85.0274 195.226C84.2441 194.63 84.1389 193.519 83.7238 192.626C83.4333 192.062 83.0725 191.537 82.6499 191.063C82.3432 190.657 81.986 190.292 81.587 189.977C80.6875 189.322 79.6495 189.336 78.5922 189.242C77.8422 189.175 77.1391 189.134 76.6049 189.796C75.9406 190.628 76.2064 192.291 76.2451 193.264C76.2971 194.569 76.4507 195.869 76.7046 197.15Z" fill="#514E7F"/>
<path d="M99.8904 135.691C102.752 135.691 105.072 133.368 105.072 130.502C105.072 127.636 102.752 125.313 99.8904 125.313C97.0288 125.313 94.709 127.636 94.709 130.502C94.709 133.368 97.0288 135.691 99.8904 135.691Z" fill="#A1616A"/>
<path d="M95.0032 132.043C94.2615 132.683 93.1959 132.731 92.2216 132.83C90.1383 133.045 88.1104 133.632 86.2348 134.565C85.9752 134.678 85.7401 134.839 85.5428 135.042C85.3744 135.262 85.2546 135.515 85.1913 135.785C85.0131 136.369 84.9464 136.981 84.9948 137.59C85.0627 138.18 85.2322 138.754 85.4958 139.286C86.2149 140.777 87.3245 142.044 88.7064 142.953C88.95 143.135 89.2263 143.267 89.5202 143.344C90.2011 143.485 90.8598 143.092 91.5324 142.914C92.1442 142.754 92.789 142.775 93.3896 142.972C93.9432 143.161 94.5493 143.505 95.0974 143.274C95.4481 143.078 95.7207 142.767 95.8696 142.393C96.3989 141.391 96.8711 140.36 97.2839 139.305C97.4322 138.893 97.6032 138.49 97.796 138.097C98.3966 136.952 99.4345 136.068 99.9521 134.879C100.005 134.788 100.036 134.687 100.045 134.582C100.054 134.478 100.039 134.373 100.002 134.274C99.906 134.142 99.7731 134.041 99.62 133.983C98.8546 133.545 98.1572 132.996 97.5496 132.356C97.2092 132.029 96.5837 131.145 96.0938 131.067C95.543 130.973 95.3769 131.722 95.0032 132.043Z" fill="#A1616A"/>
<path d="M95.1249 142.587C94.5243 142.864 93.8158 142.745 93.1653 142.609C91.488 142.257 89.7913 141.902 88.2386 141.176C87.7535 140.99 87.3331 140.667 87.0291 140.245C86.8402 139.884 86.7254 139.489 86.6914 139.083L86.4146 137.143C86.315 136.47 86.4866 135.846 86.5032 135.164C86.5137 135.089 86.5091 135.012 86.4897 134.938C86.4702 134.864 86.4362 134.795 86.3897 134.735C86.2949 134.655 86.1725 134.616 86.0492 134.626C85.2715 134.64 84.801 135.458 84.2557 136.012C83.9406 136.332 83.5639 136.585 83.1486 136.755C82.6504 136.96 82.0414 137.104 81.8338 137.603C81.7508 137.811 81.7619 138.047 81.6733 138.255C81.3246 139.086 79.8382 138.809 79.4591 139.641C79.3511 139.873 79.3594 140.164 79.1823 140.347C79.0051 140.53 78.673 140.528 78.399 140.572C77.3168 140.749 76.7936 141.999 75.8692 142.59C75.0914 143.089 74.0895 143.078 73.2508 143.466C72.7858 143.682 72.3734 144.02 71.8807 144.161C71.3881 144.303 70.8317 144.228 70.3031 144.242C70.2467 144.236 70.1899 144.243 70.136 144.26C70.0822 144.278 70.0326 144.307 69.9903 144.344C69.9575 144.395 69.9358 144.451 69.9267 144.511C69.9176 144.57 69.9214 144.63 69.9377 144.688C70.1941 146.327 70.8723 147.871 71.9055 149.168C72.9388 150.464 74.2915 151.469 75.8304 152.083C76.0091 152.14 76.1787 152.222 76.3342 152.327C76.8047 152.679 76.8877 153.436 77.4219 153.685C77.6147 153.753 77.8225 153.766 78.0223 153.723C78.2221 153.68 78.4061 153.583 78.554 153.441C78.8487 153.157 79.126 152.856 79.3843 152.538C79.8721 152.028 80.5123 151.69 81.2083 151.576C81.8504 151.473 82.5673 151.548 83.0877 151.152C83.3005 150.956 83.4985 150.745 83.68 150.52C84.0655 150.16 84.5231 149.886 85.0224 149.716C86.3867 149.176 87.8286 148.859 89.2931 148.776C90.6577 148.702 92.061 148.826 93.3508 148.383C93.6857 148.279 93.9943 148.104 94.2558 147.87C94.5332 147.57 94.7394 147.211 94.8592 146.82C95.3245 145.458 95.4163 143.996 95.1249 142.587Z" fill="#A47864"/>
<path d="M88.4461 134.94C88.8281 134.904 89.2128 134.94 89.5975 134.94C90.0487 134.94 90.4943 134.829 90.9455 134.826C91.6599 134.838 92.3519 135.078 92.9205 135.511C93.4891 135.944 93.9046 136.548 94.1063 137.235C94.1443 137.344 94.151 137.462 94.1257 137.576C94.1108 137.632 94.0763 137.68 94.0286 137.713C93.9808 137.745 93.9229 137.76 93.8655 137.753C93.7157 137.343 93.5198 136.952 93.2815 136.586C92.8525 136 92.2411 135.573 91.5433 135.372C90.8476 135.175 90.1147 135.148 89.4065 135.294C89.1104 135.35 88.8225 135.428 88.5347 135.508L87.1508 135.89C86.8961 135.96 86.6387 136.029 86.3924 136.12C86.2014 136.193 85.8748 136.456 85.6866 136.467C85.432 136.467 85.6368 136.245 85.7502 136.096C85.9762 135.787 86.2926 135.556 86.6553 135.436C87.2305 135.2 87.8317 135.033 88.4461 134.94Z" fill="#A47864"/>
<path d="M91.9386 150.525C92.2735 151.601 92.6084 152.679 93.0291 153.724C93.781 155.541 94.7286 157.271 95.855 158.882C96.5806 159.944 97.3603 160.967 98.1911 161.948C99.229 163.176 100.389 164.412 100.76 165.978C100.973 166.887 100.901 167.833 100.989 168.75C101.078 169.667 101.38 170.657 102.127 171.211C102.664 171.605 103.348 171.724 104.004 171.83C104.471 171.904 105.058 171.929 105.304 171.522C105.388 171.355 105.432 171.171 105.434 170.984L105.545 169.629C105.57 169.335 105.675 168.961 105.966 168.947C106.257 168.933 106.409 169.324 106.658 169.501C106.99 169.734 107.488 169.501 107.671 169.149C107.821 168.768 107.831 168.345 107.699 167.957C107.496 167.186 107.133 166.467 106.634 165.846C106.134 165.225 105.51 164.716 104.801 164.354C104.307 164.154 103.834 163.908 103.386 163.619C102.932 163.225 102.557 162.748 102.279 162.214C99.7078 157.982 97.1255 153.724 95.3153 149.112C94.9583 148.289 94.7161 147.42 94.5957 146.531C94.5099 145.625 94.6483 144.713 94.7092 143.804C94.8164 142.171 94.6651 140.531 94.2608 138.945C94.1726 138.528 94.0154 138.129 93.7958 137.764C93.0512 136.628 91.3047 136.461 90.1976 137.243C89.7896 137.557 89.4511 137.952 89.2038 138.404C88.9565 138.856 88.8058 139.355 88.7611 139.868C88.6808 140.788 89.2123 141.742 89.478 142.598C90.2954 145.244 91.1156 147.887 91.9386 150.525Z" fill="#A1616A"/>
<path d="M107.428 126.832C107.47 126.4 107.082 126.001 106.642 125.723C106.179 125.485 105.734 125.213 105.311 124.908C104.918 124.568 104.702 124.124 104.309 123.783C103.862 123.442 103.355 123.189 102.814 123.038C101.664 122.634 100.457 122.418 99.2381 122.397C98.0064 122.397 96.7471 122.674 95.8198 123.304C95.5911 123.448 95.3934 123.636 95.2386 123.858C95.0924 124.124 94.9984 124.416 94.9618 124.717C94.7409 125.647 94.4418 126.557 94.0678 127.436C93.6831 128.415 93.2734 129.429 92.3684 130.186C91.3996 130.993 89.9188 131.458 89.2795 132.434C89.2088 132.521 89.1592 132.623 89.1347 132.732C89.1102 132.841 89.1114 132.954 89.1383 133.063C89.2296 133.31 89.523 133.479 89.7943 133.634C91.3664 134.538 92.7226 135.71 93.4201 137.11C94.1176 138.51 94.0983 140.159 93.1046 141.448C92.7392 141.925 92.2355 142.49 92.5926 142.97C93.1461 143.699 94.9978 143.28 95.4296 144.051C95.5652 144.297 95.4849 144.577 95.4849 144.846C95.4849 145.655 96.2627 146.373 97.2065 146.747C98.1504 147.122 99.2436 147.21 100.306 147.258C100.589 146.622 100.616 145.903 100.384 145.248C100.313 145.107 100.285 144.948 100.304 144.791C100.383 144.616 100.506 144.465 100.661 144.353C101.796 143.277 101.555 141.697 100.874 140.419C100.193 139.142 99.1302 137.975 98.7344 136.63C98.5378 135.962 98.5378 135.211 99.0665 134.657C99.3699 134.39 99.697 134.152 100.044 133.945C100.663 133.524 101.14 132.924 101.411 132.226C101.729 131.342 101.688 130.286 102.612 129.69C103.501 129.135 104.749 129.296 105.731 128.917C106.487 128.617 107.367 127.467 107.428 126.832Z" fill="#464353"/>
<path d="M161.096 170.263C156.875 168.514 155.635 167.251 155.635 164.72C155.635 162.78 156.487 160.54 160.224 160.54C162.289 160.51 164.318 161.088 166.058 162.203L167.273 158.985C165.865 158.153 163.877 157.38 160.966 157.283V152.571H158.51V157.477C154.046 158.206 151.461 161.266 151.461 165.299C151.461 169.526 153.952 171.763 158.912 173.706C162.504 175.172 164.384 176.824 164.384 179.496C164.384 182.268 162.056 184.258 158.61 184.258C155.895 184.258 152.817 183.335 151.071 182.168L149.905 185.422C151.605 186.639 154.516 187.512 157.329 187.562V192.468H161.505V187.415C166.487 186.584 169.169 182.98 169.169 179.155C169.169 174.831 166.094 172.304 161.096 170.263Z" fill="url(#paint1_linear_1072_2916)"/>
<path d="M157.339 191.36V186.454C154.527 186.404 151.615 185.531 149.916 184.314L151.081 181.06C152.828 182.227 155.906 183.15 158.621 183.15C162.067 183.15 164.383 181.159 164.383 178.388C164.383 175.716 162.493 174.064 158.9 172.606C153.952 170.665 151.449 168.426 151.449 164.199C151.449 160.166 154.035 157.106 158.499 156.377V151.471H160.954V156.183C163.866 156.28 165.853 157.056 167.262 157.885L166.047 161.089C164.307 159.974 162.278 159.395 160.212 159.426C156.476 159.426 155.623 161.663 155.623 163.606C155.623 166.131 156.863 167.395 161.084 169.149C166.083 171.189 169.158 173.717 169.158 178.041C169.158 181.88 166.49 185.475 161.494 186.301V191.36H157.339Z" fill="#A47864"/>
</g>
<defs>
<linearGradient id="paint0_linear_1072_2916" x1="84.6427" y1="117.818" x2="84.6427" y2="64.9046" gradientUnits="userSpaceOnUse">
<stop stop-color="#808080" stop-opacity="0.25"/>
<stop offset="0.54" stop-color="#808080" stop-opacity="0.12"/>
<stop offset="1" stop-color="#808080" stop-opacity="0.1"/>
</linearGradient>
<linearGradient id="paint1_linear_1072_2916" x1="149.916" y1="172.522" x2="169.169" y2="172.522" gradientUnits="userSpaceOnUse">
<stop stop-color="#808080" stop-opacity="0.25"/>
<stop offset="0.54" stop-color="#808080" stop-opacity="0.12"/>
<stop offset="1" stop-color="#808080" stop-opacity="0.1"/>
</linearGradient>
<clipPath id="clip0_1072_2916">
<rect width="326" height="201" fill="white"/>
</clipPath>
</defs>
</svg>
