<svg width="156" height="66" viewBox="0 0 156 66" fill="none" xmlns="http://www.w3.org/2000/svg">
<path d="M45.7031 29.7954H48.3691L51.7969 30.3647L54.6533 31.3136L57.7002 33.0216L59.7949 34.7297L61.1279 36.0581L62.8418 38.5252L64.1748 41.1821L65.127 44.4084L65.5078 47.6346V61.2987L64.9365 62.8169L63.9844 63.7658L62.4609 64.5249H60.1758L58.6523 63.7658L57.5098 62.4373L57.1289 61.2987L54.2725 63.1964L51.6064 64.3351L47.9883 65.0942H44.9414L41.1328 64.3351L38.8477 63.3862L36.1816 61.868L34.0869 60.16L32.373 58.2622L30.8496 55.7951L29.8975 53.7075L29.1357 51.0506L28.9453 49.9119V45.1675L29.707 41.9412L31.04 38.9048L32.7539 36.4377L35.4199 33.7808L38.2764 31.883L40.9424 30.7443L44.1797 29.9852L45.7031 29.7954Z" fill="#A47864"/>
<path d="M146.821 17.6494L147.773 18.029L148.916 19.5472L149.868 22.0143L150.249 24.4814L150.059 27.3281L149.297 30.3646L147.583 33.5908L145.488 36.2477L144.346 38.1455L142.441 45.5469L141.108 49.1527L139.204 53.138L136.919 56.554L134.634 59.2109L132.729 60.9189L129.873 62.8167L127.017 64.1452L123.779 65.0941L121.494 65.4736H117.495L117.876 64.7145L119.971 62.0576L121.875 59.2109L124.351 54.4665L126.064 49.722L126.636 47.0651L126.826 45.7367V44.0286L126.445 42.3206L125.493 40.8024L123.398 38.9046L121.875 37.5762L120.161 35.109L119.209 33.0215L118.828 31.5033V29.985L119.59 30.3646L122.446 31.693L125.493 32.4521L126.826 32.6419H132.729L135.967 32.0726L139.395 30.9339L141.489 29.7952L143.203 28.4668L144.727 26.7588L146.06 24.1019L146.631 22.0143L146.821 20.8757V17.6494Z" fill="#A47864"/>
<path d="M69.8877 30.1748H72.7441L74.6484 30.7441L75.791 31.5033L76.7432 32.6419L78.8379 37.3864L82.4561 45.9264L84.9316 51.8096L88.5498 43.2695L91.7871 35.6784L93.3105 32.2624L94.0723 31.3135L95.5957 30.5544L97.3096 30.1748L99.7852 30.3646L102.261 31.1237L103.594 31.8828L103.022 33.5908L99.5947 41.182L97.3096 46.306L92.3584 57.3132L90.2637 61.8678L89.1211 63.3861L86.8359 64.5247L86.0742 64.7145H83.9795L82.0752 64.1452L80.9326 63.3861L79.9805 62.4372L79.0283 60.9189L76.3623 54.846L72.9346 47.2549L69.8877 40.4229L66.6504 33.0215L66.0791 31.3135L67.9834 30.5544L69.8877 30.1748Z" fill="#A47864"/>
<path d="M4.18945 21.4451L6.09375 21.6348L7.99805 22.5837L9.14062 24.2917L9.33105 24.8611L9.52148 54.2768L10.0928 55.6052L10.4736 55.795L25.5176 55.9848L27.041 56.9337L27.9932 58.0723L28.374 59.211V61.4884L27.6123 63.0066L26.0889 64.335L24.5654 64.7146H10.6641L7.23633 64.335L4.95117 63.5759L3.04688 62.2475L1.52344 60.5395L0.571289 58.4519L0 55.4154V25.0509L0.571289 23.5326L1.33301 22.5837L3.2373 21.6348L4.18945 21.4451Z" fill="#A47864"/>
<path d="M111.211 30.1748L113.306 30.3646L114.829 31.1237L115.972 32.4521L116.353 33.401L116.543 34.7295V60.1598L116.162 62.0576L115.4 63.1963L114.258 64.1452L113.306 64.5247H110.449L108.545 63.5758L107.402 61.8678L107.212 61.2985V33.401L108.164 31.5033L109.688 30.5544L111.211 30.1748Z" fill="#A47864"/>
<path d="M45.3223 38.5251H49.1309L51.2256 39.2843L53.1299 40.6127L54.8438 42.5105L55.7959 44.5981L56.1768 45.9265V49.1528L55.415 51.6199L54.2725 53.3279L53.3203 54.4666L51.2256 55.795L49.1309 56.5541L48.1787 56.7439H46.084L43.7988 56.1746L41.7041 55.0359L39.7998 53.1381L38.4668 50.4812L38.0859 48.963V46.1163L38.8477 43.6492L40.1807 41.5616L42.085 39.8536L44.5605 38.7149L45.3223 38.5251Z" fill="#FEFEFE"/>
<path d="M133.682 11.197L136.729 11.5766L138.633 12.3357L140.537 13.8539L141.68 15.1824L142.632 17.0802L143.203 19.3575V21.2553L142.441 24.102L141.108 26.1895L139.395 27.7078L137.109 28.8464L135.776 29.226H132.539L130.254 28.4669L128.159 27.1384L126.636 25.4304L125.684 23.5326L125.112 21.2553V19.3575L125.684 17.0802L126.826 14.9926L128.35 13.2846L130.254 12.1459L132.349 11.3868L133.682 11.197Z" fill="#A47864"/>
<path d="M111.401 16.321L113.306 16.5108L115.21 17.4597L116.543 18.9779L117.114 20.686V22.394L116.353 24.4815L115.591 25.4304L114.067 26.3793L112.925 26.7589H110.83L108.926 25.9998L107.402 24.4815L106.641 22.394V20.686L107.212 18.9779L108.735 17.2699L110.449 16.5108L111.401 16.321Z" fill="#A47864"/>
<path d="M150.82 7.02197H152.725L154.248 7.78109L155.01 8.91976L155.2 9.48909V10.8175L154.629 11.9562L153.486 12.9051L152.534 13.2847L149.487 13.4744L147.583 14.4233L146.631 15.7518L146.06 15.562L145.869 13.2847L146.25 11.3869L147.012 9.86865L148.535 8.16064L150.82 7.02197Z" fill="#A47864"/>
<path d="M148.916 0L150.439 0.189779L151.582 0.948893L152.153 2.46712L151.963 3.60579L151.201 4.74447L149.868 5.3138L148.345 5.12402L147.202 4.17513L146.821 3.41602V2.08757L147.393 0.948893L148.345 0.189779L148.916 0Z" fill="#A47864"/>
<path d="M143.203 6.2627L144.536 6.64225L145.488 7.59115L145.869 8.54004L145.679 10.4378L144.917 11.7663L144.346 11.1969V10.8174L142.632 10.248L141.68 9.48893L141.489 9.10938V7.59115L142.441 6.45247L143.203 6.2627Z" fill="#A47864"/>
<path d="M149.106 14.613H151.201L152.153 15.3722L152.344 16.7006L151.392 17.6495L150.059 17.4597L149.106 16.321L147.773 15.7517L148.726 14.8028L149.106 14.613Z" fill="#A47864"/>
</svg>
