<svg width="205" height="213" viewBox="0 0 205 213" fill="none" xmlns="http://www.w3.org/2000/svg">
<path d="M139.143 0.00614235C121.075 0.315525 107.144 15.0971 91.6773 24.4474C68.3223 38.566 38.326 41.434 18.5984 60.2965C5.09491 73.2267 -1.57094 92.6933 0.313957 111.291C2.19885 129.888 12.4087 147.321 27.1737 158.783C36.5883 166.086 47.6375 171.011 58.9125 174.866C70.3397 178.766 82.2381 181.658 94.3132 181.81C111.046 182.021 127.485 176.958 142.623 169.813C153.152 164.848 163.303 158.778 171.584 150.592C179.408 142.862 185.407 133.365 189.515 123.16C199.671 97.9381 198.056 69.028 189.25 43.3001C181.966 22.0214 164.157 -0.426011 139.143 0.00614235Z" fill="#A47864"/>
<path opacity="0.7" d="M139.143 0.00614235C121.075 0.315525 107.144 15.0971 91.6773 24.4474C68.3223 38.566 38.326 41.434 18.5984 60.2965C5.09491 73.2267 -1.57094 92.6933 0.313957 111.291C2.19885 129.888 12.4087 147.321 27.1737 158.783C36.5883 166.086 47.6375 171.011 58.9125 174.866C70.3397 178.766 82.2381 181.658 94.3132 181.81C111.046 182.021 127.485 176.958 142.623 169.813C153.152 164.848 163.303 158.778 171.584 150.592C179.408 142.862 185.407 133.365 189.515 123.16C199.671 97.9381 198.056 69.028 189.25 43.3001C181.966 22.0214 164.157 -0.426011 139.143 0.00614235Z" fill="white"/>
<path opacity="0.1" d="M150.344 104.096C150.216 100.398 149.976 96.455 149.578 92.3741C149.043 84.2221 148.022 76.6103 146.172 71.8222C135.981 69.7351 83.0423 73.6245 83.0031 73.6245L82.6742 72.1513L82.5417 71.5669L82.3061 70.5405L82.2422 70.3048C81.8986 68.9199 81.5109 67.5498 81.0593 66.1895C81.0593 66.1895 40.9268 62.6046 27.6147 66.0815C27.6147 66.1993 27.6147 66.3123 27.6147 66.4301L27.654 69.7155C27.6933 76.075 27.546 82.0417 27.8749 88.5927V88.6419C27.8112 88.6361 27.7471 88.6361 27.6834 88.6419C27.1669 88.7102 26.6793 88.9202 26.2747 89.2487C25.8701 89.5772 25.5643 90.0114 25.3911 90.5031C25.2591 90.8844 25.2105 91.2897 25.2488 91.6915L25.4255 93.759C25.4255 93.7933 25.4255 93.8228 25.4255 93.8572C25.9164 99.0725 26.4072 104.239 26.4072 104.239C26.4072 104.239 26.6625 104.263 27.0797 104.283L29.2836 104.44C24.591 104.872 19.4665 111.07 19.6923 116.398C19.9181 121.726 14.7837 131.759 16.0648 137.515C17.0466 142.013 22.0975 149.246 24.5567 154.742L24.3652 155.832L13.3848 177.891C14.1211 176.811 20.7476 205.638 51.5244 199.533L73.4215 163.841C75.8639 161.999 78.0989 159.896 80.0874 157.57C80.9267 156.736 81.6246 155.771 82.1539 154.712C82.9357 153.463 83.5326 152.106 83.9259 150.685C84.0241 150.312 84.1271 149.944 84.2351 149.566C86.0218 145.013 88.4074 138.801 90.1549 134.499C113.225 133.812 137.449 132.402 149.612 129.539H149.637C150.815 121.535 150.84 112.553 150.344 104.096ZM31.8655 124.265C31.6751 122.935 31.5604 121.596 31.5219 120.253C31.7919 121.667 32.0864 123.077 32.3957 124.491C32.219 124.412 32.0423 124.334 31.8655 124.265Z" fill="black"/>
<path d="M10.877 176.482C10.877 176.482 20.7334 205.638 51.5249 199.533C51.5249 199.533 58.3576 167.441 64.081 162.702C67.7722 159.657 75.9254 154.197 77.6679 150.243C79.4105 146.29 86.4101 127.516 87.7649 125.257C89.1196 122.998 73.0784 97.005 73.0784 97.005L39.2878 114.448L20.4879 147.842C20.4879 147.842 16.8801 169.45 10.877 176.482Z" fill="white"/>
<path d="M20.159 150.445C20.159 150.445 17.7488 168.472 9.78223 177.891" stroke="#263238" stroke-linecap="round" stroke-linejoin="round"/>
<path d="M51.5244 199.534C51.5244 199.534 58.3179 168.482 64.0805 162.702C64.0805 162.702 77.0981 155.13 79.4444 146.217C81.0691 140.044 84.0241 132.928 85.4378 129.697" stroke="#263238" stroke-linecap="round" stroke-linejoin="round"/>
<path d="M54.2639 130.693C53.7731 130.379 62.1422 137.077 62.4662 146.231" stroke="#263238" stroke-linecap="round" stroke-linejoin="round"/>
<path d="M145.156 125.08C118.022 131.464 30.6294 130.625 30.6294 130.625C29.8931 129.073 29.0047 125.164 28.1457 120.636C26.4277 111.546 24.8226 99.9614 24.8226 99.9614L21.9314 99.76C21.9314 99.76 21.4406 94.5938 20.9497 89.3785C20.4589 84.1632 23.404 84.1681 23.404 84.1681L23.1929 66.1159L23.1389 61.6077C36.451 58.1308 76.5835 61.7158 76.5835 61.7158L77.8352 66.0668L78.5322 69.1508L141.696 67.3681C147.488 82.3511 145.156 125.08 145.156 125.08Z" fill="#A47864"/>
<path d="M134.661 81.2877L93.233 83.3601C91.5278 83.4454 90.2146 84.8975 90.2999 86.6034L90.7208 95.0255C90.8061 96.7315 92.2575 98.0453 93.9627 97.96L135.391 95.8876C137.096 95.8023 138.409 94.3502 138.324 92.6443L137.903 84.2222C137.818 82.5162 136.367 81.2024 134.661 81.2877Z" fill="#263238"/>
<path d="M138.098 101.39L138.23 102.79L90.5285 104.636L90.4893 103.379L138.098 101.39Z" fill="#263238"/>
<path d="M138.333 106.257L138.378 107.514L90.6809 109.277L90.6367 108.025L138.333 106.257Z" fill="#263238"/>
<path opacity="0.3" d="M141.685 67.3681C141.685 67.3681 148.724 100.762 145.155 125.08C145.155 125.08 100.644 130.305 85.4033 129.461L84.7799 121.333L86.0562 121.137C86.0562 121.137 79.9106 74.7491 78.5166 69.1507C78.5166 69.1507 131.524 65.2761 141.685 67.3681Z" fill="black"/>
<path opacity="0.8" d="M83.3131 121.215L83.8384 127.359C83.8384 127.359 38.974 129.323 35.0275 127.894C31.081 126.465 35.2386 124.187 45.6742 123.366C56.1098 122.546 83.3131 121.215 83.3131 121.215Z" fill="white"/>
<path d="M56.5264 95.1586C58.79 95.1586 60.6251 93.4964 60.6251 91.446C60.6251 89.3956 58.79 87.7334 56.5264 87.7334C54.2628 87.7334 52.4277 89.3956 52.4277 91.446C52.4277 93.4964 54.2628 95.1586 56.5264 95.1586Z" fill="#263238"/>
<path d="M24.8223 99.9565C25.7469 110.345 27.6902 120.617 30.6242 130.625C49.6547 130.463 68.6804 130.251 87.706 129.642C106.732 129.034 126.283 127.747 145.136 125.08C145.136 125.08 148.513 95.2421 141.666 67.3681C134.097 65.7918 78.7086 69.141 78.7086 69.141" stroke="#263238" stroke-linecap="round" stroke-linejoin="round"/>
<path d="M83.3131 121.215L83.8383 127.359L41.1337 128.341C39.3715 128.493 36.6276 128.724 35.0078 127.894C34.2715 127.516 33.7414 126.593 34.0899 125.837C34.4041 125.159 35.2287 124.918 35.965 124.771C41.1877 123.695 46.5184 123.244 51.8344 122.851C63.2158 122.006 74.6151 121.435 86.0324 121.137C85.7919 121.137 83.0088 98.1591 82.6995 96.0376C81.492 87.7383 80.3434 79.4046 78.8512 71.1495C78.3127 67.9534 77.5433 64.8006 76.5491 61.7158C58.9567 60.4586 40.584 59.2947 23.0996 61.6077C23.2616 69.4012 22.972 76.3403 23.3696 84.1681" stroke="#263238" stroke-linecap="round" stroke-linejoin="round"/>
<path d="M29.9717 128.312C29.8666 127.994 29.8039 127.664 29.7852 127.329" stroke="#263238" stroke-linecap="round" stroke-linejoin="round"/>
<path d="M30.0693 125.468C30.7222 123.833 32.6807 121.986 38.0065 121.397C47.7206 120.317 68.8962 118.372 81.3198 117.901" stroke="#263238" stroke-linecap="round" stroke-linejoin="round" stroke-dasharray="3.91 3.91"/>
<path d="M82.2822 117.866L83.2639 117.832L83.1314 116.85" stroke="#263238" stroke-linecap="round" stroke-linejoin="round"/>
<path d="M82.856 114.969C80.6226 98.8957 78.1487 82.9403 75.3164 66.9556" stroke="#263238" stroke-linecap="round" stroke-linejoin="round" stroke-dasharray="3.88 3.88"/>
<path d="M75.1594 66.0176L74.9827 65.0354L74.001 64.9667" stroke="#263238" stroke-linecap="round" stroke-linejoin="round"/>
<path d="M72.0184 64.8391C63.8555 64.294 40.6428 62.9337 25.1562 63.9944" stroke="#263238" stroke-linecap="round" stroke-linejoin="round" stroke-dasharray="4.07 4.07"/>
<path d="M24.1546 64.068L23.1729 64.1466" stroke="#263238" stroke-linecap="round" stroke-linejoin="round"/>
<path d="M21.9308 99.76L20.7576 87.2373C20.722 86.8612 20.7626 86.4818 20.877 86.1218C20.9914 85.7617 21.1771 85.4285 21.4232 85.1419C21.6693 84.8554 21.9706 84.6215 22.3092 84.4541C22.6477 84.2868 23.0165 84.1895 23.3935 84.1681C30.6091 83.7506 49.2715 82.7685 56.4331 83.343C59.8691 83.618 63.6046 84.723 65.2686 88.0133C66.6528 90.724 66.859 94.7902 64.5372 97.0197C61.003 100.408 54.2979 100.148 49.7427 100.31C41.2607 100.634 21.9357 99.8336 21.9308 99.76Z" stroke="#263238" stroke-linecap="round" stroke-linejoin="round"/>
<path d="M66.3046 92.104C66.3046 91.7553 68.0913 99.2984 61.5629 101.788C55.0345 104.278 24.8223 103.492 24.8223 103.492V99.9564C24.8223 99.9564 46.1942 100.408 49.7529 100.31C53.3116 100.212 65.9218 101.395 66.3046 92.104Z" fill="#263238"/>
<path d="M60.0264 134.239C60.0264 134.239 65.3669 137.367 67.3647 143.245" stroke="#263238" stroke-linecap="round" stroke-linejoin="round"/>
<path d="M20.9053 86.049C20.9053 86.049 47.0974 84.8164 53.7633 85.0374C60.4291 85.2584 63.6933 86.7267 64.356 90.9058C65.0186 95.085 60.9789 97.6877 57.7588 98.1788C54.5388 98.6699 21.9263 98.8123 21.9263 98.8123" stroke="#263238" stroke-linecap="round" stroke-linejoin="round" stroke-dasharray="4 4"/>
<path d="M38.9051 136.675C38.9051 136.675 34.8506 122.586 27.3895 119.811C27.3895 119.811 25.917 110.196 29.0977 109.665C32.2785 109.135 41.2612 103.212 38.9149 95.8215C36.5686 88.4307 29.5248 99.5292 24.8322 99.9564C20.1396 100.384 15.015 106.586 15.2261 111.919C15.4372 117.252 10.3175 127.285 11.5987 133.036C12.8798 138.786 20.7777 149.045 21.4158 154.383" fill="white"/>
<path d="M38.9051 136.675C38.9051 136.675 34.8506 122.586 27.3895 119.811C27.3895 119.811 25.917 110.196 29.0977 109.665C32.2785 109.135 41.2612 103.212 38.9149 95.8215C36.5686 88.4307 29.5248 99.5292 24.8322 99.9564C20.1396 100.384 15.015 106.586 15.2261 111.919C15.4372 117.252 10.3175 127.285 11.5987 133.036C12.8798 138.786 20.7777 149.045 21.4158 154.383" stroke="#263238" stroke-linecap="round" stroke-linejoin="round"/>
<path d="M29.083 97.7907C29.083 97.7907 34.7033 98.8122 37.7565 95.242C40.8096 91.6718 37.2951 91.4459 37.2951 91.4459L29.083 97.7907Z" fill="white" stroke="#263238" stroke-linecap="round" stroke-linejoin="round"/>
<path d="M19.0449 105.746C20.0709 105.817 21.063 106.143 21.9312 106.694" stroke="#263238" stroke-linecap="round" stroke-linejoin="round"/>
<path d="M18.873 107.789C19.895 107.886 20.8686 108.271 21.6808 108.899" stroke="#263238" stroke-linecap="round" stroke-linejoin="round"/>
<path d="M34.0449 126.662C34.0449 126.662 58.0969 125.419 64.429 125.783" stroke="#263238" stroke-linecap="round" stroke-linejoin="round"/>
<path d="M58.5732 123.946C58.5732 123.946 64.6255 123.455 68.3904 123.946" stroke="#263238" stroke-linecap="round" stroke-linejoin="round"/>
<path d="M73.9082 125.714H83.7008" stroke="#263238" stroke-linecap="round" stroke-linejoin="round"/>
<path d="M79.832 71.9008C79.832 71.9008 122.846 68.0556 140.129 70.2508C140.129 70.2508 144.792 78.83 143.776 122.797C124.351 125.288 104.807 126.742 85.2266 127.153" stroke="#263238" stroke-linecap="round" stroke-linejoin="round" stroke-dasharray="4 4"/>
<g opacity="0.1">
<path d="M196.274 132.746C195.051 127.545 193.26 125.591 191.463 124.088C191.463 124.088 191.424 121.142 189.122 119.462C188.507 118.92 187.85 118.428 187.158 117.989C184.999 116.368 182.618 114.551 182.618 114.551C181.499 111.31 179.982 107.386 178.343 103.527L178.426 104.406C176.747 100.305 175.103 96.2241 174.641 94.8688V94.8393C175.132 96.1456 175.623 97.4077 176.163 98.5715L170.018 76.8411C169.87 75.9669 169.718 75.1076 169.566 74.2776C169.271 71.8222 168.471 67.1962 166.542 66.8672C166.47 66.8623 166.398 66.8623 166.326 66.8672C166.326 66.8672 164.054 65.885 164.054 69.9168C161.349 70.8204 160.304 72.8633 160.043 75.2647C159.903 76.0264 159.886 76.8058 159.994 77.5728C160.043 78.4616 160.146 79.3702 160.284 80.2737L151.576 68.8217L150.737 67.7315L139.997 53.5883L125.561 34.5342C125.023 33.8269 124.352 33.2324 123.585 32.7847C122.819 32.337 121.971 32.0448 121.091 31.9248C120.212 31.8049 119.317 31.8596 118.458 32.0857C117.599 32.3118 116.794 32.7049 116.087 33.2427L98.1659 46.8604L91.1711 52.1739C85.8061 54.9682 87.205 60.488 88.6923 62.4474L119.945 103.605C119.782 103.585 119.618 103.576 119.454 103.581C119.454 103.581 118.561 101.474 116.352 101.808C115.882 101.83 115.427 101.981 115.037 102.245C114.68 102.432 114.378 102.708 114.158 103.045C113.913 103.341 113.693 103.656 113.5 103.988C112.376 105.913 113.417 110.623 115.042 116.373C115.145 116.747 115.248 117.105 115.346 117.439V117.493L115.763 118.932C117.353 124.452 120.328 135.29 120.878 140.603C120.917 141.094 120.942 141.62 120.951 142.111C120.986 148.23 118.271 158.474 119.44 162.707C119.592 163.262 119.749 163.792 119.906 164.318C120.775 167.146 121.55 169.823 122.915 172.48C124.574 175.721 126.552 178.829 128.403 181.967C131.799 187.733 135.314 193.429 138.946 199.057C140.62 201.64 142.579 203.997 144.473 206.423C145.342 207.538 147.237 209.213 147.566 210.642C147.566 210.642 164.368 212.032 173.773 206.055L172.889 192.678L179.197 156.411C180.998 153.676 186.559 148.333 187.669 146.644C188.243 145.804 188.803 144.969 189.348 144.154C193.495 140.279 195.572 137.279 196.485 133.787C196.504 133.797 196.44 133.399 196.274 132.746ZM138.107 140.667L138.023 140.51C139.74 141.287 141.558 141.817 143.423 142.082C141.464 141.856 139.251 141.541 138.107 140.667ZM145.195 142.293L146.098 142.357C145.796 142.355 145.494 142.334 145.195 142.293ZM137.93 140.299L136.801 138.06C135.231 133.551 131.682 122.924 131.667 122.88C130.972 119.818 130.043 116.813 128.889 113.893C129.724 114.188 130.619 114.27 131.494 114.133C132.368 113.996 133.195 113.644 133.9 113.108L142.49 106.581C143.379 107.116 144.287 107.598 145.175 108.02L153.22 114.311L146.839 140.549L137.93 140.299ZM170.494 79.8662C171.161 82.9993 172.217 87.5074 173.616 91.8731C172.258 87.9595 171.21 83.9447 170.484 79.8662H170.494Z" fill="black"/>
<path d="M134.028 205.947L134.078 206.183C134.078 206.183 134.063 206.095 134.028 205.947Z" fill="black"/>
</g>
<path d="M163.848 80.8287C164.339 80.5046 171.535 76.5858 175.137 88.3374C178.74 100.089 182.967 120.086 182.967 120.086L174.406 121.751C174.406 121.751 166.474 117.527 159.366 106.949C159.366 106.949 149.402 104.366 145.063 98.2278C141.136 92.6491 153.25 72.166 153.25 72.166L163.848 80.8287Z" fill="white"/>
<path d="M160.77 95.4531C162.89 98.6353 166.905 105.329 172.324 107.44" stroke="#263238" stroke-linecap="round" stroke-linejoin="round"/>
<path d="M154.771 98.876C155.753 99.2738 158.207 100.688 159.366 100.742C159.366 100.742 164.368 110.647 172.619 113.864" stroke="#263238" stroke-linecap="round" stroke-linejoin="round"/>
<path d="M150.182 102.525C153.249 105.093 156.906 106.846 159.366 106.945C159.366 106.945 164.367 116.85 172.619 120.066" stroke="#263238" stroke-linecap="round" stroke-linejoin="round"/>
<path d="M124.364 30.7485L97.2215 51.3753C94.8642 53.1667 94.4047 56.5309 96.1954 58.8894L133.894 108.542C135.684 110.901 139.047 111.36 141.404 109.569L168.547 88.942C170.904 87.1505 171.364 83.7863 169.573 81.4279L131.875 31.7751C130.084 29.4166 126.722 28.957 124.364 30.7485Z" fill="#263238"/>
<path d="M167.775 87.8659L142.869 106.797C142.162 107.336 141.356 107.73 140.497 107.956C139.638 108.183 138.743 108.237 137.863 108.117C136.983 107.996 136.135 107.703 135.368 107.254C134.602 106.805 133.931 106.209 133.395 105.501L97.3908 58.0817C96.8042 57.3157 96.3921 56.4308 96.1833 55.4888C95.893 54.2238 95.9745 52.9018 96.4177 51.6821C96.861 50.4623 97.6472 49.3967 98.6817 48.6136L105.681 43.3001L123.598 29.6774C124.305 29.1399 125.111 28.7471 125.969 28.5214C126.828 28.2956 127.723 28.2414 128.603 28.3618C129.483 28.4822 130.33 28.7749 131.097 29.2231C131.864 29.6712 132.534 30.2662 133.071 30.9739L147.517 49.9984L158.257 64.1416L169.056 78.3831C169.595 79.0897 169.989 79.8956 170.216 80.7548C170.443 81.6139 170.499 82.5095 170.38 83.3902C170.261 84.2709 169.97 85.1195 169.523 85.8875C169.076 86.6555 168.482 87.3277 167.775 87.8659Z" fill="#A47864"/>
<path opacity="0.1" d="M147.497 49.9984L105.666 43.2951L123.597 29.6774C124.304 29.1399 125.11 28.7471 125.969 28.5214C126.828 28.2956 127.723 28.2414 128.602 28.3618C129.482 28.4822 130.33 28.7749 131.096 29.2231C131.863 29.6712 132.534 30.2662 133.071 30.9739L147.497 49.9984Z" fill="black"/>
<path opacity="0.1" d="M167.774 87.8659L142.868 106.797C142.162 107.336 141.356 107.73 140.497 107.956C139.638 108.183 138.742 108.237 137.862 108.117C136.982 107.996 136.134 107.703 135.368 107.254C134.601 106.805 133.93 106.209 133.395 105.501L97.3901 58.0817C96.8036 57.3158 96.3914 56.4308 96.1826 55.4888L159.081 65.2761L169.055 78.4126C170.134 79.8377 170.605 81.6322 170.365 83.4038C170.125 85.1753 169.193 86.7796 167.774 87.8659Z" fill="black"/>
<path d="M127.132 34.4921L122.734 37.8338C121.854 38.5032 121.682 39.7601 122.351 40.6413L127.675 47.653C128.344 48.5342 129.6 48.7059 130.481 48.0366L134.878 44.6948C135.759 44.0255 135.931 42.7685 135.262 41.8873L129.938 34.8756C129.269 33.9945 128.013 33.8227 127.132 34.4921Z" fill="white" stroke="#263238" stroke-linecap="round" stroke-linejoin="round"/>
<path d="M125.025 36.0861L132.619 46.4086" stroke="#263238" stroke-linecap="round" stroke-linejoin="round"/>
<path d="M125.025 44.1643L132.619 38.4039" stroke="#263238" stroke-linecap="round" stroke-linejoin="round"/>
<path d="M139.731 103.708L138.436 104.661L122.625 83.839L123.911 82.8667L139.731 103.708Z" fill="#263238"/>
<path d="M141.926 102.083L140.63 103.045L124.8 82.189L126.076 81.2167L141.926 102.083Z" fill="#263238"/>
<path d="M144.115 100.467L142.824 101.42L126.97 80.5439L128.251 79.5667L144.115 100.467Z" fill="#263238"/>
<path d="M146.31 98.8417L145.014 99.7944L129.37 79.1934L130.646 78.2162L146.31 98.8417Z" fill="#263238"/>
<path d="M148.675 97.0933L147.379 98.051L131.711 77.4156L132.992 76.4384L148.675 97.0933Z" fill="#263238"/>
<path d="M148.675 72.8142L147.379 73.7669L131.711 53.1315L132.992 52.1592L148.675 72.8142Z" fill="#263238"/>
<path d="M114.552 36.6058L112.547 38.1296L156.697 96.2801L158.702 94.7563L114.552 36.6058Z" fill="#263238"/>
<path d="M167.775 87.8659L142.869 106.797C142.162 107.336 141.356 107.73 140.497 107.956C139.638 108.183 138.743 108.237 137.863 108.117C136.983 107.996 136.135 107.703 135.368 107.254C134.602 106.805 133.931 106.209 133.395 105.501L97.3908 58.0817C96.8042 57.3157 96.3921 56.4308 96.1833 55.4888C95.893 54.2238 95.9745 52.9018 96.4177 51.6821C96.861 50.4623 97.6472 49.3967 98.6817 48.6136L105.681 43.3001L123.598 29.6774C124.305 29.1399 125.111 28.7471 125.969 28.5214C126.828 28.2956 127.723 28.2414 128.603 28.3618C129.483 28.4822 130.33 28.7749 131.097 29.2231C131.864 29.6712 132.534 30.2662 133.071 30.9739L147.517 49.9984L158.257 64.1416L169.056 78.3831C169.595 79.0897 169.989 79.8956 170.216 80.7548C170.443 81.6139 170.499 82.5095 170.38 83.3902C170.261 84.2709 169.97 85.1195 169.523 85.8875C169.076 86.6555 168.482 87.3277 167.775 87.8659Z" stroke="#263238" stroke-linecap="round" stroke-linejoin="round"/>
<path d="M147.585 210.637C147.585 210.637 176.576 220.95 185.347 198.487C185.347 198.487 171.628 181.791 179.118 168.148C183.83 159.554 196.863 140.584 196.863 140.584C196.863 140.584 202.306 135.413 204 130.217C204 130.217 203.067 124.427 198.964 120.508C198.964 120.508 198.919 117.562 196.617 115.882C194.315 114.203 190.094 110.971 190.094 110.971C190.094 110.971 183.153 94.3139 182.122 91.3035C181.091 88.2932 179.02 82.6015 177.984 76.3156C176.949 70.0298 175.991 63.2626 173.792 63.2823C173.792 63.2823 171.525 62.3001 171.525 66.3319C171.525 66.3319 166.763 68.7873 167.465 73.983C168.167 79.1787 168.815 81.8649 168.629 84.7868C168.442 87.7088 169.38 97.8546 171.726 101.037C171.726 101.037 172.511 115.278 173.689 118.986C173.729 119.099 173.763 119.202 173.797 119.295C175.034 122.433 162.674 134.519 155.984 137.79C155.984 137.79 155.282 139.096 152.685 138.737C150.089 138.379 145.696 138.212 144.94 136.282C144.184 134.352 139.153 119.295 139.153 119.295C139.153 119.295 135.083 99.9957 126.955 100.001C126.955 100.001 125.723 97.0541 122.537 98.6649C119.351 100.276 121.438 109.056 122.846 113.859C124.255 118.662 127.824 131.288 128.403 137.097C128.982 142.907 125.693 154.545 126.93 159.122C128.167 163.699 129.542 166.788 133.488 174.282C137.435 181.776 146.177 204.12 147.585 210.637Z" fill="white"/>
<path d="M147.585 210.637C147.585 210.637 141.381 187.271 132.261 172.16C123.141 157.05 128.506 151.707 128.506 139.13C128.506 126.554 118.261 105.142 121.025 100.423C123.788 95.7036 127.558 99.4801 129.134 103.885C130.71 108.29 128.506 110.809 124.088 111.124" stroke="#263238" stroke-linecap="round" stroke-linejoin="round"/>
<path d="M126.955 100.02C126.955 100.02 132.251 99.6961 135.506 108.167C138.76 116.638 143.973 138.123 149.402 144.66" stroke="#263238" stroke-linecap="round" stroke-linejoin="round"/>
<path d="M145.116 136.724C145.146 136.793 152.7 141.006 164.422 137.313" stroke="#263238" stroke-linecap="round" stroke-linejoin="round"/>
<path d="M127.961 124.884C128.55 124.163 129.318 123.61 130.188 123.279C131.058 122.949 132 122.854 132.919 123.003" stroke="#263238" stroke-linecap="round" stroke-linejoin="round"/>
<path d="M128.967 127.55C129.476 126.942 130.146 126.488 130.9 126.243C131.654 125.997 132.463 125.968 133.232 126.161" stroke="#263238" stroke-linecap="round" stroke-linejoin="round"/>
<path d="M171.524 66.3171C163.818 68.8855 169.561 80.5291 168.628 84.777C167.695 89.0249 170.101 97.1572 171.951 101.567C171.951 106.738 173.792 119.285 173.792 119.285C172.653 123.278 163.15 135.044 153.917 138.727" stroke="#263238" stroke-linecap="round" stroke-linejoin="round"/>
<path d="M177.179 72.1807C177.179 72.1807 176.605 63.2676 173.793 63.2676C170.98 63.2676 171.152 69.2735 172.32 73.7326C173.488 78.1916 178.034 77.5532 177.179 72.1807Z" stroke="#263238" stroke-linecap="round" stroke-linejoin="round"/>
<path d="M177.18 72.1807C177.18 72.1807 179.575 86.1913 183.634 94.9915" stroke="#263238" stroke-linecap="round" stroke-linejoin="round"/>
<path d="M188.42 127.806C190.383 124.624 191.252 121.613 191.979 117.783C191.797 115.381 189.033 107.544 185.823 99.9515" stroke="#263238" stroke-linecap="round" stroke-linejoin="round"/>
<path d="M190.354 111.713C193.539 114.109 199.081 115.951 198.443 120.086C197.739 124.222 196.292 128.197 194.172 131.818" stroke="#263238" stroke-linecap="round" stroke-linejoin="round"/>
<path d="M186.054 199.533C186.054 199.533 174.956 184.118 177.179 173.472C178.814 165.639 189.323 151.943 196.863 140.599C201.015 136.724 203.092 133.723 204 130.232C202.669 123.676 200.51 121.765 198.433 120.086" stroke="#263238" stroke-linecap="round" stroke-linejoin="round"/>
<path d="M189.013 114.257C187.777 113.909 186.483 113.819 185.21 113.992C183.938 114.165 182.715 114.598 181.616 115.263" stroke="#263238" stroke-linecap="round" stroke-linejoin="round"/>
<path d="M188.39 116.894C186.883 116.665 185.342 116.936 184.002 117.665" stroke="#263238" stroke-linecap="round" stroke-linejoin="round"/>
</svg>
